<svg width="22" height="22" viewBox="0 0 22 22" fill="none" xmlns="http://www.w3.org/2000/svg">
<path d="M19.4615 0H2.53846C1.86522 0 1.21955 0.289731 0.743498 0.805456C0.267444 1.32118 0 2.02065 0 2.75V15.5833C0 16.3127 0.267444 17.0122 0.743498 17.5279C1.21955 18.0436 1.86522 18.3333 2.53846 18.3333H10.1538V20.1667H7.61538C7.39097 20.1667 7.17575 20.2632 7.01706 20.4352C6.85838 20.6071 6.76923 20.8402 6.76923 21.0833C6.76923 21.3264 6.85838 21.5596 7.01706 21.7315C7.17575 21.9034 7.39097 22 7.61538 22H14.3846C14.609 22 14.8243 21.9034 14.9829 21.7315C15.1416 21.5596 15.2308 21.3264 15.2308 21.0833C15.2308 20.8402 15.1416 20.6071 14.9829 20.4352C14.8243 20.2632 14.609 20.1667 14.3846 20.1667H11.8462V18.3333H19.4615C20.1348 18.3333 20.7804 18.0436 21.2565 17.5279C21.7326 17.0122 22 16.3127 22 15.5833V2.75C22 2.02065 21.7326 1.32118 21.2565 0.805456C20.7804 0.289731 20.1348 0 19.4615 0ZM2.53846 1.83333H19.4615C19.686 1.83333 19.9012 1.92991 20.0599 2.10182C20.2185 2.27373 20.3077 2.50688 20.3077 2.75V11.9167H1.69231V2.75C1.69231 2.50688 1.78146 2.27373 1.94014 2.10182C2.09883 1.92991 2.31405 1.83333 2.53846 1.83333ZM19.4615 16.5H2.53846C2.31405 16.5 2.09883 16.4034 1.94014 16.2315C1.78146 16.0596 1.69231 15.8264 1.69231 15.5833V13.75H20.3077V15.5833C20.3077 15.8264 20.2185 16.0596 20.0599 16.2315C19.9012 16.4034 19.686 16.5 19.4615 16.5Z" fill="black"/>
</svg>
