<svg width="22" height="24" viewBox="0 0 22 24" fill="none" xmlns="http://www.w3.org/2000/svg">
<path d="M20 22.2857H13.8175C14.8561 21.4909 15.8355 20.641 16.75 19.7411C20.1812 16.3586 22 12.7929 22 9.42857C22 6.92796 20.8411 4.52977 18.7782 2.76156C16.7153 0.993365 13.9174 0 11 0C8.08262 0 5.28473 0.993365 3.22183 2.76156C1.15893 4.52977 0 6.92796 0 9.42857C0 12.7929 1.81375 16.3586 5.25 19.7411C6.16451 20.641 7.14393 21.4909 8.1825 22.2857H2C1.73478 22.2857 1.48043 22.376 1.29289 22.5368C1.10536 22.6975 1 22.9155 1 23.1429C1 23.3702 1.10536 23.5882 1.29289 23.7489C1.48043 23.9097 1.73478 24 2 24H20C20.2652 24 20.5196 23.9097 20.7071 23.7489C20.8946 23.5882 21 23.3702 21 23.1429C21 22.9155 20.8946 22.6975 20.7071 22.5368C20.5196 22.376 20.2652 22.2857 20 22.2857ZM2 9.42857C2 7.38262 2.94821 5.42046 4.63604 3.97375C6.32387 2.52704 8.61305 1.71429 11 1.71429C13.3869 1.71429 15.6761 2.52704 17.364 3.97375C19.0518 5.42046 20 7.38262 20 9.42857C20 15.5604 13.0662 20.6786 11 22.0714C8.93375 20.6786 2 15.5604 2 9.42857ZM16 9.42857C16 8.58094 15.7068 7.75234 15.1573 7.04756C14.6079 6.34277 13.827 5.79346 12.9134 5.46909C11.9998 5.14471 10.9945 5.05984 10.0245 5.22521C9.05464 5.39057 8.16373 5.79875 7.46447 6.39811C6.7652 6.99748 6.289 7.76112 6.09607 8.59247C5.90315 9.42382 6.00216 10.2855 6.3806 11.0686C6.75904 11.8518 7.3999 12.5211 8.22215 12.992C9.04439 13.4629 10.0111 13.7143 11 13.7143C12.3261 13.7143 13.5979 13.2628 14.5355 12.459C15.4732 11.6553 16 10.5652 16 9.42857ZM8 9.42857C8 8.91999 8.17595 8.42283 8.50559 7.99996C8.83524 7.57709 9.30377 7.24751 9.85195 7.05288C10.4001 6.85826 11.0033 6.80733 11.5853 6.90655C12.1672 7.00577 12.7018 7.25068 13.1213 7.6103C13.5409 7.96992 13.8266 8.4281 13.9424 8.92691C14.0581 9.42572 13.9987 9.94275 13.7716 10.4126C13.5446 10.8825 13.1601 11.2841 12.6667 11.5666C12.1734 11.8492 11.5933 12 11 12C10.2044 12 9.44129 11.7291 8.87868 11.2468C8.31607 10.7646 8 10.1106 8 9.42857Z" fill="black"/>
</svg>
