<svg width="18" height="14" viewBox="0 0 18 14" fill="none" xmlns="http://www.w3.org/2000/svg">
<path d="M16.7143 0H1.28571C0.944722 0 0.617695 0.1475 0.376577 0.41005C0.135459 0.672601 0 1.0287 0 1.4V12.6C0 12.9713 0.135459 13.3274 0.376577 13.5899C0.617695 13.8525 0.944722 14 1.28571 14H16.7143C17.0553 14 17.3823 13.8525 17.6234 13.5899C17.8645 13.3274 18 12.9713 18 12.6V1.4C18 1.0287 17.8645 0.672601 17.6234 0.41005C17.3823 0.1475 17.0553 0 16.7143 0ZM16.7143 1.4V3.5H1.28571V1.4H16.7143ZM16.7143 12.6H1.28571V4.9H16.7143V12.6ZM15.4286 10.5C15.4286 10.6857 15.3608 10.8637 15.2403 10.995C15.1197 11.1263 14.9562 11.2 14.7857 11.2H12.2143C12.0438 11.2 11.8803 11.1263 11.7597 10.995C11.6392 10.8637 11.5714 10.6857 11.5714 10.5C11.5714 10.3143 11.6392 10.1363 11.7597 10.005C11.8803 9.87375 12.0438 9.8 12.2143 9.8H14.7857C14.9562 9.8 15.1197 9.87375 15.2403 10.005C15.3608 10.1363 15.4286 10.3143 15.4286 10.5ZM10.2857 10.5C10.2857 10.6857 10.218 10.8637 10.0974 10.995C9.97687 11.1263 9.81335 11.2 9.64286 11.2H8.35714C8.18665 11.2 8.02313 11.1263 7.90257 10.995C7.78202 10.8637 7.71429 10.6857 7.71429 10.5C7.71429 10.3143 7.78202 10.1363 7.90257 10.005C8.02313 9.87375 8.18665 9.8 8.35714 9.8H9.64286C9.81335 9.8 9.97687 9.87375 10.0974 10.005C10.218 10.1363 10.2857 10.3143 10.2857 10.5Z" fill="black"/>
</svg>
