<svg width="34" height="35" viewBox="0 0 34 35" fill="none" xmlns="http://www.w3.org/2000/svg">
<path d="M24.1624 12.9708V11.5634C24.1624 11.1901 24.0143 10.8322 23.7507 10.5682C23.487 10.3043 23.1295 10.156 22.7566 10.156H8.69876C8.32592 10.156 7.96835 10.3043 7.70471 10.5682C7.44108 10.8322 7.29297 11.1901 7.29297 11.5634V20.0079C7.29297 20.3811 7.44108 20.7391 7.70471 21.003C7.96835 21.267 8.32592 21.4153 8.69876 21.4153H10.1045" stroke="black" stroke-linecap="round" stroke-linejoin="round"/>
<path d="M11.509 24.2302L25.5669 24.2302C26.3433 24.2302 26.9727 23.6001 26.9727 22.8228V14.3784C26.9727 13.6011 26.3433 12.971 25.5669 12.971L11.509 12.971C10.7326 12.971 10.1032 13.6011 10.1032 14.3784V22.8228C10.1032 23.6001 10.7326 24.2302 11.509 24.2302Z" stroke="black" stroke-linecap="round" stroke-linejoin="round"/>
<path d="M15.7276 15.7856H12.916" stroke="black" stroke-linecap="round" stroke-linejoin="round"/>
<path d="M24.1623 21.416H12.916" stroke="black" stroke-linecap="round" stroke-linejoin="round"/>
<path d="M11.5103 12.9709H7.29297" stroke="black" stroke-linecap="round" stroke-linejoin="round"/>
<path d="M10.1045 15.7856H7.29297" stroke="black" stroke-linecap="round" stroke-linejoin="round"/>
</svg>
