<svg width="24" height="26" viewBox="0 0 24 26" fill="none" xmlns="http://www.w3.org/2000/svg">
<path d="M24 11.5417V23.098C24 23.6284 23.7893 24.1371 23.4142 24.5122C23.0391 24.8873 22.5304 25.098 22 25.098H17C16.4696 25.098 15.9609 24.8873 15.5858 24.5122C15.2107 24.1371 15 23.6284 15 23.098V18.098C15 17.8328 14.8946 17.5784 14.7071 17.3909C14.5196 17.2033 14.2652 17.098 14 17.098H10C9.73478 17.098 9.48043 17.2033 9.29289 17.3909C9.10536 17.5784 9 17.8328 9 18.098V23.098C9 23.6284 8.78929 24.1371 8.41421 24.5122C8.03914 24.8873 7.53043 25.098 7 25.098H2C1.46957 25.098 0.960859 24.8873 0.585786 24.5122C0.210714 24.1371 2.31098e-08 23.6284 2.31098e-08 23.098V11.5417C-4.20536e-05 11.2649 0.057374 10.9911 0.168614 10.7377C0.279855 10.4842 0.442497 10.2566 0.64625 10.0692L10.6462 0.634222L10.66 0.620472C11.0282 0.285638 11.508 0.100098 12.0056 0.100098C12.5033 0.100098 12.9831 0.285638 13.3512 0.620472C13.3555 0.625363 13.3601 0.629957 13.365 0.634222L23.365 10.0692C23.5667 10.2576 23.7273 10.4856 23.8365 10.739C23.9458 10.9925 24.0015 11.2658 24 11.5417Z" fill="black"/>
</svg>
