<svg width="23" height="29" viewBox="0 0 23 29" fill="none" xmlns="http://www.w3.org/2000/svg">
<path d="M11.5 0C8.45107 0.00342661 5.52801 1.20485 3.37209 3.34071C1.21617 5.47656 0.0034588 8.37242 0 11.393C0 21.1417 10.4545 28.5044 10.9002 28.8126C11.076 28.9346 11.2854 29 11.5 29C11.7146 29 11.924 28.9346 12.0998 28.8126C12.5455 28.5044 23 21.1417 23 11.393C22.9965 8.37242 21.7838 5.47656 19.6279 3.34071C17.472 1.20485 14.5489 0.00342661 11.5 0ZM11.5 7.25007C12.3271 7.25007 13.1356 7.49305 13.8233 7.94828C14.511 8.4035 15.047 9.05054 15.3635 9.80755C15.68 10.5646 15.7628 11.3976 15.6015 12.2012C15.4401 13.0049 15.0418 13.743 14.457 14.3224C13.8722 14.9018 13.127 15.2964 12.3158 15.4563C11.5046 15.6161 10.6638 15.5341 9.89969 15.2205C9.13556 14.9069 8.48245 14.3759 8.02295 13.6946C7.56344 13.0133 7.31818 12.2124 7.31818 11.393C7.31818 10.2942 7.75876 9.24044 8.54301 8.4635C9.32725 7.68655 10.3909 7.25007 11.5 7.25007Z" fill="black"/>
</svg>
