<svg width="27" height="28" viewBox="0 0 27 28" fill="none" xmlns="http://www.w3.org/2000/svg">
<path d="M19.2115 12.5616C19.2115 13.6913 18.8766 14.7955 18.249 15.7348C17.6214 16.674 16.7294 17.4061 15.6857 17.8384C14.6421 18.2707 13.4937 18.3838 12.3857 18.1634C11.2778 17.943 10.2601 17.3991 9.46134 16.6003C8.66256 15.8015 8.11859 14.7838 7.89821 13.6759C7.67783 12.568 7.79094 11.4196 8.22323 10.3759C8.65552 9.33228 9.38759 8.44026 10.3268 7.81266C11.2661 7.18507 12.3704 6.8501 13.5 6.8501C15.0143 6.85181 16.466 7.45411 17.5368 8.52486C18.6075 9.59561 19.2098 11.0474 19.2115 12.5616ZM27 13.6001C27 16.2701 26.2082 18.8802 24.7248 21.1003C23.2414 23.3204 21.133 25.0507 18.6662 26.0725C16.1994 27.0942 13.485 27.3616 10.8663 26.8407C8.24754 26.3198 5.84207 25.034 3.95406 23.146C2.06606 21.258 0.780305 18.8526 0.259405 16.2338C-0.261496 13.6151 0.00584934 10.9007 1.02763 8.43387C2.04942 5.96707 3.77974 3.85866 5.99981 2.37526C8.21987 0.891859 10.83 0.100098 13.5 0.100098C17.0793 0.103877 20.5108 1.52741 23.0418 4.05833C25.5727 6.58925 26.9962 10.0208 27 13.6001ZM24.9231 13.6001C24.9214 12.0626 24.6097 10.5412 24.0066 9.12687C23.4034 7.71258 22.5213 6.43444 21.4128 5.36891C20.3044 4.30337 18.9925 3.47231 17.5555 2.92544C16.1185 2.37857 14.586 2.12711 13.0496 2.18611C6.93563 2.42236 2.06005 7.51471 2.07693 13.6325C2.08279 16.4176 3.10997 19.1038 4.96385 21.1822C5.71884 20.0871 6.67788 19.1479 7.78847 18.416C7.88315 18.3534 7.99572 18.3236 8.10895 18.3311C8.22218 18.3386 8.32983 18.383 8.41544 18.4575C9.82668 19.6781 11.6302 20.3499 13.4961 20.3499C15.362 20.3499 17.1655 19.6781 18.5768 18.4575C18.6624 18.383 18.77 18.3386 18.8833 18.3311C18.9965 18.3236 19.1091 18.3534 19.2038 18.416C20.3157 19.1475 21.2761 20.0867 22.0323 21.1822C23.8953 19.0962 24.9245 16.3969 24.9231 13.6001Z" fill="black"/>
</svg>
