<svg width="26" height="24" viewBox="0 0 26 24" fill="none" xmlns="http://www.w3.org/2000/svg">
<path d="M24 0H2.00004C1.4696 0 0.960895 0.210714 0.585823 0.585786C0.21075 0.960859 3.62179e-05 1.46957 3.62179e-05 2V22C-0.00227013 22.3814 0.10562 22.7553 0.310736 23.0768C0.515853 23.3984 0.809468 23.6538 1.15629 23.8125C1.42057 23.9356 1.7085 23.9995 2.00004 24C2.46954 23.9989 2.92347 23.8315 3.28129 23.5275C3.28725 23.5236 3.29271 23.519 3.29754 23.5138L7.31254 20H24C24.5305 20 25.0392 19.7893 25.4142 19.4142C25.7893 19.0391 26 18.5304 26 18V2C26 1.46957 25.7893 0.960859 25.4142 0.585786C25.0392 0.210714 24.5305 0 24 0ZM17 13H9.00004C8.73482 13 8.48047 12.8946 8.29293 12.7071C8.10539 12.5196 8.00004 12.2652 8.00004 12C8.00004 11.7348 8.10539 11.4804 8.29293 11.2929C8.48047 11.1054 8.73482 11 9.00004 11H17C17.2653 11 17.5196 11.1054 17.7071 11.2929C17.8947 11.4804 18 11.7348 18 12C18 12.2652 17.8947 12.5196 17.7071 12.7071C17.5196 12.8946 17.2653 13 17 13ZM17 9H9.00004C8.73482 9 8.48047 8.89464 8.29293 8.70711C8.10539 8.51957 8.00004 8.26522 8.00004 8C8.00004 7.73478 8.10539 7.48043 8.29293 7.29289C8.48047 7.10536 8.73482 7 9.00004 7H17C17.2653 7 17.5196 7.10536 17.7071 7.29289C17.8947 7.48043 18 7.73478 18 8C18 8.26522 17.8947 8.51957 17.7071 8.70711C17.5196 8.89464 17.2653 9 17 9Z" fill="black"/>
</svg>
