<svg width="24" height="18" viewBox="0 0 24 18" fill="none" xmlns="http://www.w3.org/2000/svg">
<mask id="path-1-inside-1_258_1739" fill="white">
<path d="M12 11.25V14.0625C12 14.3732 11.7314 14.625 11.4 14.625C11.0686 14.625 10.8 14.3732 10.8 14.0625V11.25H7.8C7.46863 11.25 7.2 10.9982 7.2 10.6875C7.2 10.3768 7.46863 10.125 7.8 10.125H10.8V7.3125C10.8 7.00184 11.0686 6.75 11.4 6.75C11.7314 6.75 12 7.00184 12 7.3125V10.125H15C15.3314 10.125 15.6 10.3768 15.6 10.6875C15.6 10.9982 15.3314 11.25 15 11.25H12ZM3 0H10.8C12.1255 0 13.2 1.00736 13.2 2.25C13.2 2.87132 13.7373 3.375 14.4 3.375H21C22.6569 3.375 24 4.6342 24 6.1875V15.1875C24 16.7408 22.6569 18 21 18H3C1.34315 18 0 16.7408 0 15.1875V2.8125C0 1.2592 1.34315 0 3 0ZM3 1.125C2.00589 1.125 1.2 1.88052 1.2 2.8125V15.1875C1.2 16.1195 2.00589 16.875 3 16.875H21C21.9941 16.875 22.8 16.1195 22.8 15.1875V6.1875C22.8 5.25552 21.9941 4.5 21 4.5H14.4C13.0745 4.5 12 3.49264 12 2.25C12 1.62868 11.4627 1.125 10.8 1.125H3Z"/>
</mask>
<path d="M12 11.25V14.0625C12 14.3732 11.7314 14.625 11.4 14.625C11.0686 14.625 10.8 14.3732 10.8 14.0625V11.25H7.8C7.46863 11.25 7.2 10.9982 7.2 10.6875C7.2 10.3768 7.46863 10.125 7.8 10.125H10.8V7.3125C10.8 7.00184 11.0686 6.75 11.4 6.75C11.7314 6.75 12 7.00184 12 7.3125V10.125H15C15.3314 10.125 15.6 10.3768 15.6 10.6875C15.6 10.9982 15.3314 11.25 15 11.25H12ZM3 0H10.8C12.1255 0 13.2 1.00736 13.2 2.25C13.2 2.87132 13.7373 3.375 14.4 3.375H21C22.6569 3.375 24 4.6342 24 6.1875V15.1875C24 16.7408 22.6569 18 21 18H3C1.34315 18 0 16.7408 0 15.1875V2.8125C0 1.2592 1.34315 0 3 0ZM3 1.125C2.00589 1.125 1.2 1.88052 1.2 2.8125V15.1875C1.2 16.1195 2.00589 16.875 3 16.875H21C21.9941 16.875 22.8 16.1195 22.8 15.1875V6.1875C22.8 5.25552 21.9941 4.5 21 4.5H14.4C13.0745 4.5 12 3.49264 12 2.25C12 1.62868 11.4627 1.125 10.8 1.125H3Z" fill="black"/>
<path d="M12 11.25V9.25H10V11.25H12ZM10.8 11.25H12.8V9.25H10.8V11.25ZM10.8 10.125V12.125H12.8V10.125H10.8ZM12 10.125H10V12.125H12V10.125ZM10 11.25V14.0625H14V11.25H10ZM10 14.0625C10 13.149 10.7504 12.625 11.4 12.625V16.625C12.7124 16.625 14 15.5974 14 14.0625H10ZM11.4 12.625C12.0496 12.625 12.8 13.149 12.8 14.0625H8.8C8.8 15.5974 10.0876 16.625 11.4 16.625V12.625ZM12.8 14.0625V11.25H8.8V14.0625H12.8ZM10.8 9.25H7.8V13.25H10.8V9.25ZM7.8 9.25C8.44965 9.25 9.2 9.77396 9.2 10.6875H5.2C5.2 12.2224 6.48761 13.25 7.8 13.25V9.25ZM9.2 10.6875C9.2 11.601 8.44965 12.125 7.8 12.125V8.125C6.48761 8.125 5.2 9.15264 5.2 10.6875H9.2ZM7.8 12.125H10.8V8.125H7.8V12.125ZM12.8 10.125V7.3125H8.8V10.125H12.8ZM12.8 7.3125C12.8 8.22604 12.0496 8.75 11.4 8.75V4.75C10.0876 4.75 8.8 5.77764 8.8 7.3125H12.8ZM11.4 8.75C10.7504 8.75 10 8.22604 10 7.3125H14C14 5.77764 12.7124 4.75 11.4 4.75V8.75ZM10 7.3125V10.125H14V7.3125H10ZM12 12.125H15V8.125H12V12.125ZM15 12.125C14.3504 12.125 13.6 11.601 13.6 10.6875H17.6C17.6 9.15264 16.3124 8.125 15 8.125V12.125ZM13.6 10.6875C13.6 9.77396 14.3504 9.25 15 9.25V13.25C16.3124 13.25 17.6 12.2224 17.6 10.6875H13.6ZM15 9.25H12V13.25H15V9.25ZM3 2H10.8V-2H3V2ZM10.8 2C10.9519 2 11.0636 2.0566 11.1292 2.11808C11.1925 2.17748 11.2 2.22433 11.2 2.25H15.2C15.2 -0.216839 13.1065 -2 10.8 -2V2ZM11.2 2.25C11.2 4.09552 12.7562 5.375 14.4 5.375V1.375C14.7183 1.375 15.2 1.64712 15.2 2.25H11.2ZM14.4 5.375H21V1.375H14.4V5.375ZM21 5.375C21.6758 5.375 22 5.8584 22 6.1875H26C26 3.41 23.6379 1.375 21 1.375V5.375ZM22 6.1875V15.1875H26V6.1875H22ZM22 15.1875C22 15.5166 21.6758 16 21 16V20C23.6379 20 26 17.965 26 15.1875H22ZM21 16H3V20H21V16ZM3 16C2.32417 16 2 15.5166 2 15.1875H-2C-2 17.965 0.362126 20 3 20V16ZM2 15.1875V2.8125H-2V15.1875H2ZM2 2.8125C2 2.4834 2.32417 2 3 2V-2C0.362126 -2 -2 0.0350006 -2 2.8125H2ZM3 -0.875C1.02487 -0.875 -0.8 0.656321 -0.8 2.8125H3.2C3.2 2.94216 3.14031 3.03594 3.09509 3.07833C3.05209 3.11864 3.01374 3.125 3 3.125V-0.875ZM-0.8 2.8125V15.1875H3.2V2.8125H-0.8ZM-0.8 15.1875C-0.8 17.3437 1.02487 18.875 3 18.875V14.875C3.01374 14.875 3.05209 14.8814 3.09509 14.9217C3.14031 14.9641 3.2 15.0578 3.2 15.1875H-0.8ZM3 18.875H21V14.875H3V18.875ZM21 18.875C22.9751 18.875 24.8 17.3437 24.8 15.1875H20.8C20.8 15.0578 20.8597 14.9641 20.9049 14.9217C20.9479 14.8814 20.9863 14.875 21 14.875V18.875ZM24.8 15.1875V6.1875H20.8V15.1875H24.8ZM24.8 6.1875C24.8 4.03132 22.9751 2.5 21 2.5V6.5C20.9863 6.5 20.9479 6.49364 20.9049 6.45333C20.8597 6.41094 20.8 6.31716 20.8 6.1875H24.8ZM21 2.5H14.4V6.5H21V2.5ZM14.4 2.5C14.2481 2.5 14.1364 2.4434 14.0708 2.38192C14.0075 2.32252 14 2.27567 14 2.25H10C10 4.71684 12.0935 6.5 14.4 6.5V2.5ZM14 2.25C14 0.404481 12.4438 -0.875 10.8 -0.875V3.125C10.4817 3.125 10 2.85288 10 2.25H14ZM10.8 -0.875H3V3.125H10.8V-0.875Z" fill="black" mask="url(#path-1-inside-1_258_1739)"/>
</svg>
