<svg width="24" height="18" viewBox="0 0 24 18" fill="none" xmlns="http://www.w3.org/2000/svg">
<path d="M23.1165 14.03H22.0694V1.23269C22.0694 1.13368 22.0286 1.03873 21.9558 0.968717C21.8831 0.898707 21.7845 0.859375 21.6816 0.859375H2.83439C2.73154 0.859375 2.6329 0.898707 2.56018 0.968717C2.48745 1.03873 2.44659 1.13368 2.44659 1.23269V14.03H1.39952C1.29667 14.03 1.19803 14.0693 1.1253 14.1394C1.05258 14.2094 1.01172 14.3043 1.01172 14.4033V16.0907C1.01172 16.3087 1.05638 16.5246 1.14316 16.7259C1.22993 16.9272 1.35711 17.1101 1.51741 17.2641C1.67771 17.4181 1.86798 17.5401 2.07733 17.6232C2.28668 17.7062 2.511 17.7487 2.73744 17.7483H21.7786C22.005 17.7487 22.2293 17.7062 22.4387 17.6232C22.648 17.5401 22.8383 17.4181 22.9986 17.2641C23.1589 17.1101 23.2861 16.9272 23.3729 16.7259C23.4596 16.5246 23.5043 16.3087 23.5043 16.0907V14.4033C23.5043 14.3043 23.4634 14.2094 23.3907 14.1394C23.318 14.0693 23.2193 14.03 23.1165 14.03ZM21.2938 1.60601V12.6637H3.2222V1.60601H21.2938ZM3.2222 13.4103H21.2938V14.0375H16.4773C16.3745 14.0375 16.2758 14.0768 16.2031 14.1468C16.1304 14.2168 16.0895 14.3118 16.0895 14.4108V15.0492C16.0885 15.1073 16.0641 15.1628 16.0214 15.2039C15.9787 15.245 15.9211 15.2685 15.8607 15.2694H8.65532C8.59495 15.2685 8.53733 15.245 8.49463 15.2039C8.45194 15.1628 8.42751 15.1073 8.42651 15.0492V14.4033C8.42651 14.3043 8.38566 14.2094 8.31293 14.1394C8.2402 14.0693 8.14156 14.03 8.03871 14.03H3.2222V13.4103ZM22.7287 16.0907C22.7277 16.3327 22.6271 16.5643 22.449 16.7351C22.271 16.9058 22.0299 17.0016 21.7786 17.0016H2.73744C2.48613 17.0016 2.24505 16.9058 2.06698 16.7351C1.8889 16.5643 1.78835 16.3327 1.78732 16.0907V14.7767H7.65091V15.0417C7.64937 15.1698 7.67419 15.2969 7.72393 15.4157C7.77367 15.5345 7.84735 15.6427 7.94072 15.734C8.03409 15.8252 8.1453 15.8978 8.26795 15.9475C8.3906 15.9972 8.52225 16.023 8.65532 16.0235H15.8607C16.1268 16.0225 16.3817 15.9204 16.5698 15.7393C16.7579 15.5581 16.8641 15.3128 16.8651 15.0566V14.7916H22.7287V16.0907Z" fill="black" stroke="black" stroke-width="0.5"/>
<path d="M7.58949 9H7.12784L8.46307 5.36364H8.91761L10.2528 9H9.79119L8.70455 5.93892H8.67614L7.58949 9ZM7.75994 7.57955H9.62074V7.97017H7.75994V7.57955ZM11.9414 9H10.8192V5.36364H11.9911C12.3439 5.36364 12.6457 5.43643 12.8967 5.58203C13.1476 5.72644 13.34 5.93419 13.4737 6.20526C13.6075 6.47514 13.6744 6.7983 13.6744 7.17472C13.6744 7.5535 13.6069 7.87962 13.4719 8.15305C13.337 8.42531 13.1405 8.63482 12.8825 8.78161C12.6244 8.9272 12.3107 9 11.9414 9ZM11.2596 8.60938H11.913C12.2137 8.60938 12.4628 8.55137 12.6605 8.43537C12.8582 8.31937 13.0056 8.15424 13.1026 7.93999C13.1997 7.72573 13.2482 7.47064 13.2482 7.17472C13.2482 6.88116 13.2003 6.62843 13.1044 6.41655C13.0085 6.20348 12.8653 6.04013 12.6747 5.92649C12.4841 5.81167 12.2468 5.75426 11.9627 5.75426H11.2596V8.60938ZM16.4016 6.27273C16.3803 6.0928 16.2939 5.95312 16.1424 5.85369C15.9909 5.75426 15.805 5.70455 15.5849 5.70455C15.4239 5.70455 15.283 5.73059 15.1623 5.78267C15.0427 5.83475 14.9492 5.90637 14.8817 5.99751C14.8155 6.08866 14.7823 6.19223 14.7823 6.30824C14.7823 6.4053 14.8054 6.48875 14.8516 6.55859C14.8989 6.62725 14.9593 6.68466 15.0327 6.73082C15.1061 6.7758 15.183 6.81309 15.2635 6.84268C15.344 6.87109 15.418 6.89418 15.4854 6.91193L15.8548 7.01136C15.9495 7.03622 16.0548 7.07055 16.1708 7.11435C16.288 7.15814 16.3999 7.21792 16.5064 7.29368C16.6141 7.36825 16.7029 7.46413 16.7727 7.58132C16.8426 7.69851 16.8775 7.84233 16.8775 8.01278C16.8775 8.20928 16.826 8.38684 16.723 8.54545C16.6212 8.70407 16.4721 8.83014 16.2756 8.92365C16.0803 9.01716 15.8429 9.06392 15.5636 9.06392C15.3031 9.06392 15.0777 9.0219 14.8871 8.93786C14.6977 8.85381 14.5485 8.73662 14.4396 8.58629C14.3319 8.43596 14.271 8.26136 14.2567 8.0625H14.7113C14.7231 8.19981 14.7693 8.31345 14.8498 8.40341C14.9315 8.49219 15.0344 8.55848 15.1587 8.60227C15.2842 8.64489 15.4192 8.66619 15.5636 8.66619C15.7317 8.66619 15.8826 8.63897 16.0163 8.58452C16.1501 8.52888 16.256 8.45194 16.3342 8.35369C16.4123 8.25426 16.4513 8.13826 16.4513 8.00568C16.4513 7.88494 16.4176 7.7867 16.3501 7.71094C16.2827 7.63518 16.1939 7.57363 16.0838 7.52628C15.9737 7.47893 15.8548 7.4375 15.7269 7.40199L15.2795 7.27415C14.9954 7.19247 14.7705 7.07588 14.6048 6.92436C14.439 6.77285 14.3562 6.57457 14.3562 6.32955C14.3562 6.12595 14.4112 5.94839 14.5213 5.79688C14.6326 5.64418 14.7817 5.5258 14.9688 5.44176C15.157 5.35653 15.3671 5.31392 15.5991 5.31392C15.8335 5.31392 16.0418 5.35594 16.2241 5.43999C16.4064 5.52285 16.5508 5.63648 16.6573 5.78089C16.765 5.92531 16.8219 6.08925 16.8278 6.27273H16.4016Z" fill="black"/>
</svg>
