<svg width="23" height="19" viewBox="0 0 23 19" fill="none" xmlns="http://www.w3.org/2000/svg">
<path d="M22.6594 1.75067C22.5535 1.67678 22.4301 1.62546 22.2986 1.6006C22.1672 1.57573 22.0312 1.57799 21.9009 1.60718L15.1413 3.11926L8.3574 0.0832349C8.16839 -0.00113678 7.95188 -0.0221976 7.74702 0.0238604L0.670096 1.60718C0.478719 1.64999 0.308822 1.74882 0.187408 1.88796C0.065994 2.0271 2.98676e-05 2.19856 0 2.3751V16.625C2.03514e-05 16.7453 0.0306731 16.864 0.0896301 16.9721C0.148587 17.0802 0.234298 17.1749 0.340252 17.2489C0.446207 17.3229 0.569618 17.3744 0.701113 17.3993C0.832608 17.4243 0.968728 17.4221 1.09913 17.3929L7.8587 15.8809L14.6426 18.9169C14.7658 18.9712 14.9012 18.9996 15.0385 19C15.1108 19 15.1828 18.992 15.253 18.9762L22.3299 17.3929C22.5213 17.3501 22.6912 17.2513 22.8126 17.1122C22.934 16.973 23 16.8016 23 16.625V2.3751C23 2.25469 22.9694 2.13586 22.9104 2.02766C22.8513 1.91945 22.7655 1.82472 22.6594 1.75067ZM7.96154 14.25C7.88922 14.2501 7.81717 14.258 7.74702 14.2738L1.76923 15.6107V2.99358L7.8587 1.63093L7.96154 1.67645V14.25ZM21.2308 16.0065L15.1413 17.3692L15.0385 17.3237V4.75008C15.1107 4.75037 15.1828 4.74272 15.253 4.72732L21.2308 3.38941V16.0065Z" fill="black"/>
</svg>
