<svg width="6" height="7" viewBox="0 0 6 7" fill="none" xmlns="http://www.w3.org/2000/svg">
<mask id="path-1-outside-1_106_2638" maskUnits="userSpaceOnUse" x="-1" y="-1" width="8" height="9" fill="black">
<rect fill="white" x="-1" y="-1" width="8" height="9"/>
<path d="M5.69886 3.93182L0.210227 6.72727V5.63636L4.42045 3.60795L4.38636 3.67614V3.50568L4.42045 3.57386L0.210227 1.54545V0.454545L5.69886 3.25V3.93182Z"/>
</mask>
<path d="M5.69886 3.93182L0.210227 6.72727V5.63636L4.42045 3.60795L4.38636 3.67614V3.50568L4.42045 3.57386L0.210227 1.54545V0.454545L5.69886 3.25V3.93182Z" fill="white"/>
<path d="M5.69886 3.93182L5.92579 4.37736L6.19886 4.23828V3.93182H5.69886ZM0.210227 6.72727H-0.289773V7.54305L0.437149 7.17281L0.210227 6.72727ZM0.210227 5.63636L-0.00679016 5.18592L-0.289773 5.32225V5.63636H0.210227ZM4.42045 3.60795L4.86767 3.83156L5.52243 2.52204L4.20344 3.15751L4.42045 3.60795ZM4.38636 3.67614H3.88636L4.83358 3.89974L4.38636 3.67614ZM4.38636 3.50568L4.83358 3.28207L3.88636 3.50568H4.38636ZM4.42045 3.57386L4.20344 4.02431L5.52243 4.65978L4.86767 3.35026L4.42045 3.57386ZM0.210227 1.54545H-0.289773V1.85957L-0.00679016 1.9959L0.210227 1.54545ZM0.210227 0.454545L0.437149 0.00900459L-0.289773 -0.361229V0.454545H0.210227ZM5.69886 3.25H6.19886V2.94354L5.92579 2.80446L5.69886 3.25ZM5.47194 3.48628L-0.0166941 6.28173L0.437149 7.17281L5.92579 4.37736L5.47194 3.48628ZM0.710227 6.72727V5.63636H-0.289773V6.72727H0.710227ZM0.427245 6.08681L4.63747 4.0584L4.20344 3.15751L-0.00679016 5.18592L0.427245 6.08681ZM3.97324 3.38435L3.93915 3.45253L4.83358 3.89974L4.86767 3.83156L3.97324 3.38435ZM4.88636 3.67614V3.50568H3.88636V3.67614H4.88636ZM3.93915 3.72929L3.97324 3.79747L4.86767 3.35026L4.83358 3.28207L3.93915 3.72929ZM4.63747 3.12342L0.427245 1.09501L-0.00679016 1.9959L4.20344 4.02431L4.63747 3.12342ZM0.710227 1.54545V0.454545H-0.289773V1.54545H0.710227ZM-0.0166942 0.900086L5.47194 3.69554L5.92579 2.80446L0.437149 0.00900459L-0.0166942 0.900086ZM5.19886 3.25V3.93182H6.19886V3.25H5.19886Z" fill="white" mask="url(#path-1-outside-1_106_2638)"/>
</svg>
