<svg width="24" height="24" viewBox="0 0 24 24" fill="none" xmlns="http://www.w3.org/2000/svg">
<path d="M20.0257 4.10166C20.0129 4.08889 20.0001 4.07608 19.9874 4.07608C17.9449 2.01847 15.1237 0.740479 12.009 0.740479C5.80504 0.740479 0.762695 5.78863 0.762695 11.9998C0.762695 18.2109 5.80504 23.259 12.009 23.259C18.213 23.259 23.2553 18.2109 23.2553 11.9998C23.2553 8.9453 22.0298 6.17204 20.064 4.14C20.0512 4.12719 20.0384 4.11442 20.0257 4.10166ZM2.29454 11.9998C2.29454 6.63212 6.64755 2.27409 12.009 2.27409C14.4472 2.27409 16.6683 3.18149 18.3789 4.66395L4.68165 18.377C3.2009 16.6645 2.29454 14.4407 2.29454 11.9998ZM12.009 21.7254C9.63465 21.7254 7.46452 20.8691 5.76674 19.4505L19.4512 5.75029C20.8682 7.43727 21.7234 9.62266 21.7234 11.9998C21.7234 17.3674 17.3705 21.7254 12.009 21.7254Z" fill="black"/>
</svg>
