<svg width="15" height="15" viewBox="0 0 15 15" fill="none" xmlns="http://www.w3.org/2000/svg">
<path d="M12.8462 2.23894C12.8377 2.23044 12.8292 2.22191 12.8207 2.22191C11.4586 0.851296 9.57719 0 7.50002 0C3.36267 0 0 3.36267 0 7.50002C0 11.6374 3.36267 15 7.50002 15C11.6374 15 15 11.6374 15 7.50002C15 5.46538 14.1828 3.61806 12.8718 2.26448C12.8632 2.25595 12.8547 2.24745 12.8462 2.23894ZM1.02157 7.50002C1.02157 3.92453 3.92453 1.02157 7.50002 1.02157C9.12599 1.02157 10.6073 1.626 11.748 2.6135L2.6135 11.748C1.626 10.6073 1.02157 9.12599 1.02157 7.50002ZM7.50002 13.9784C5.91659 13.9784 4.46936 13.4081 3.33713 12.4631L12.4631 3.33713C13.4081 4.46085 13.9784 5.91659 13.9784 7.50002C13.9784 11.0755 11.0755 13.9784 7.50002 13.9784Z" fill="black"/>
</svg>
