<svg width="24" height="22" viewBox="0 0 24 22" fill="none" xmlns="http://www.w3.org/2000/svg">
<path d="M1.2 2.7491V4.95561C1.2 13.7617 8.99025 20.9004 18.6 20.9004H21C21.9941 20.9004 22.8 20.1619 22.8 19.2509V16.4303C22.8 15.7203 22.3042 15.09 21.5692 14.8655L17.7493 13.6986C16.9792 13.4634 16.1327 13.7296 15.6824 14.3485L14.8076 15.5509C14.3574 16.1698 13.5108 16.436 12.7407 16.2008L10.9103 15.6416C9.03314 15.0683 7.59292 13.6731 7.0723 11.9238L6.31983 9.39554C6.06847 8.55097 6.5809 7.67356 7.48719 7.39673L8.21026 7.17586C8.96673 6.9448 9.42733 6.24377 9.29624 5.52302L8.7424 2.47793C8.59775 1.68258 7.84681 1.09964 6.9669 1.09964H3C2.00589 1.09964 1.2 1.83813 1.2 2.7491ZM0 2.7491C0 1.23081 1.34315 0 3 0H6.9669C8.43341 0 9.68498 0.971566 9.92608 2.29715L10.4799 5.34224C10.7081 6.59673 9.90639 7.81689 8.58974 8.21907L7.86667 8.43994C7.56457 8.53222 7.39376 8.82468 7.47754 9.10621L8.23001 11.6345C8.64507 13.0291 9.79324 14.1413 11.2897 14.5984L13.1202 15.1576C13.3769 15.236 13.6591 15.1472 13.8092 14.9409L14.6839 13.7385C15.4344 12.707 16.8454 12.2634 18.1288 12.6554L21.9487 13.8222C23.1737 14.1964 24 15.247 24 16.4303V19.2509C24 20.7692 22.6569 22 21 22H18.6C8.3275 22 0 14.369 0 4.95561V2.7491Z" fill="black"/>
</svg>
