<svg width="20" height="15" viewBox="0 0 20 15" fill="none" xmlns="http://www.w3.org/2000/svg">
<path d="M15.455 5.4544C15.9571 5.4544 16.3641 5.04739 16.3641 4.54532C16.3641 4.04324 15.9571 3.63623 15.455 3.63623C14.9529 3.63623 14.5459 4.04324 14.5459 4.54532C14.5459 5.04739 14.9529 5.4544 15.455 5.4544Z" fill="black"/>
<path d="M5.25306 1.36364C5.36489 1.36364 5.45489 1.28273 5.45489 1.18184V0.636387C5.45489 0.536387 5.36489 0.45459 5.25306 0.45459H3.83852C3.72672 0.45459 3.63672 0.535505 3.63672 0.636387V1.18184C3.63672 1.28184 3.72672 1.36364 3.83852 1.36364H5.25306Z" fill="black"/>
<path d="M10.4542 11.8181C12.7133 11.8181 14.5451 9.98623 14.5451 7.72718C14.5451 5.46806 12.7133 3.63623 10.4542 3.63623C8.19511 3.63623 6.36328 5.46806 6.36328 7.72718C6.36328 9.98623 8.19511 11.8181 10.4542 11.8181ZM10.4542 4.54535C12.2115 4.54535 13.636 5.96989 13.636 7.72718C13.636 9.4844 12.2115 10.909 10.4542 10.909C8.69694 10.909 7.27237 9.4844 7.27237 7.72718C7.27237 5.96989 8.69694 4.54535 10.4542 4.54535Z" fill="black"/>
<path d="M0 3.63634V12.7273C0 14.5455 1.81817 14.5455 1.81817 14.5455H18.1818C18.1818 14.5455 20 14.5455 20 12.7273V3.63634C20 1.81817 18.1818 1.81817 18.1818 1.81817H14.7273L13.7618 0.21C13.6927 0.0936273 13.5255 0 13.3945 0H7.51454C7.38092 0 7.21454 0.0972874 7.14725 0.21L6.1818 1.81817H1.81817C1.81817 1.81814 0 1.81814 0 3.63634ZM6.79454 2.72725L7.80726 0.909052H13.0145L14.1663 2.72725H18.1718C18.1718 2.72725 19.0909 2.72725 19.0909 3.65271V12.71C19.0909 13.6364 18.1718 13.6364 18.1718 13.6364H1.82817C1.82817 13.6364 0.909085 13.6364 0.909085 12.71V3.65271C0.909085 2.72725 1.82817 2.72725 1.82817 2.72725H6.79454Z" fill="black"/>
</svg>
