<svg width="21" height="21" viewBox="0 0 21 21" fill="none" xmlns="http://www.w3.org/2000/svg">
<path d="M3.13257 3.00904C1.72188 4.39529 0.753947 6.16873 0.351163 8.1051C-0.0516208 10.0415 0.128839 12.0538 0.869724 13.8876C1.61061 15.7214 2.87864 17.2943 4.51347 18.4075C6.1483 19.5206 8.0765 20.1239 10.0542 20.1412C12.032 20.1585 13.9704 19.5889 15.6244 18.5045C17.2785 17.4201 18.5738 15.8696 19.3466 14.049C20.1194 12.2284 20.335 10.2196 19.9661 8.27646C19.5972 6.33336 18.6604 4.54328 17.2742 3.13259C15.4136 1.24395 12.88 0.170321 10.2289 0.14716C7.57786 0.123999 5.02584 1.1532 3.13257 3.00904ZM13.424 7.99449L11.2294 10.1511L13.386 12.3458C13.529 12.4913 13.6084 12.6876 13.6066 12.8916C13.6048 13.0956 13.522 13.2906 13.3765 13.4336C13.231 13.5766 13.0347 13.6559 12.8307 13.6541C12.6266 13.6523 12.4317 13.5696 12.2887 13.4241L10.1321 11.2294L7.93746 13.386C7.79194 13.529 7.59559 13.6084 7.39158 13.6066C7.18758 13.6048 6.99263 13.5221 6.84964 13.3765C6.70665 13.231 6.62732 13.0347 6.6291 12.8307C6.63088 12.6267 6.71363 12.4317 6.85914 12.2887L9.05378 10.1321L6.89716 7.93747C6.75417 7.79196 6.67483 7.5956 6.67662 7.39159C6.6784 7.18759 6.76115 6.99265 6.90666 6.84965C7.05218 6.70666 7.24853 6.62733 7.45254 6.62911C7.65654 6.63089 7.85148 6.71364 7.99448 6.85916L10.1511 9.0538L12.3457 6.89717C12.4913 6.75418 12.6876 6.67485 12.8916 6.67663C13.0956 6.67841 13.2906 6.76116 13.4336 6.90668C13.5765 7.05219 13.6559 7.24855 13.6541 7.45255C13.6523 7.65656 13.5696 7.8515 13.424 7.99449Z" fill="#EA1616"/>
</svg>
