<svg width="15" height="18" viewBox="0 0 15 18" fill="none" xmlns="http://www.w3.org/2000/svg">
<path d="M14.5335 3.97569L11.0276 0.474338C10.7261 0.171519 10.3491 0.0189262 9.93442 0.0189262L4.16791 0C3.75324 0 3.35624 0.170336 3.05584 0.455412C2.77429 0.758231 2.60229 1.15568 2.60229 1.57206V2.613H1.56562C1.15095 2.613 0.755125 2.78333 0.453546 3.06841C0.151967 3.35349 0 3.74975 0 4.18506V16.4303C0 17.3009 0.6974 18 1.56326 18H10.8368C11.7038 18 12.4001 17.2997 12.4001 16.4303V15.3894H13.4367C14.3038 15.3894 15 14.6891 15 13.8197V5.09351C14.9812 4.67714 14.8304 4.2785 14.53 3.97687L14.5335 3.97569ZM10.7449 1.60991L13.3837 4.25958H11.0088C10.8769 4.25958 10.7437 4.14602 10.7437 3.99461L10.7449 1.60991ZM11.3858 16.4102C11.3858 16.713 11.1407 16.9591 10.8392 16.9591H1.58447C1.28289 16.9591 1.03785 16.713 1.03785 16.4102V4.16495C1.03785 4.01354 1.0944 3.88224 1.20749 3.78642C1.30291 3.67287 1.45253 3.61609 1.58447 3.61609H2.62114V13.7984C2.62114 14.669 3.31854 15.3681 4.1844 15.3681H11.4046V16.409L11.3858 16.4102ZM13.4403 14.3662H4.16673C3.86515 14.3662 3.62012 14.1201 3.62012 13.8173V1.57206C3.62012 1.42065 3.67667 1.28935 3.78976 1.17461C3.88282 1.07879 4.03479 1.0232 4.16673 1.0232L9.72709 1.04212V4.03246C9.72709 4.73273 10.2925 5.30052 10.9899 5.30052H13.968V13.8173C13.9869 14.1201 13.7419 14.3662 13.4403 14.3662Z" fill="#1E1E26"/>
</svg>
