<svg width="18" height="18" viewBox="0 0 18 18" fill="none" xmlns="http://www.w3.org/2000/svg">
<path d="M15.364 2.63604C13.6761 0.948211 11.3869 -1.77841e-08 9 0C6.61305 1.77842e-08 4.32387 0.948212 2.63604 2.63604C0.948212 4.32387 1.77842e-08 6.61305 0 9C-1.77842e-08 11.3869 0.948211 13.6761 2.63604 15.364C4.32387 17.0518 6.61305 18 9 18C11.3869 18 13.6761 17.0518 15.364 15.364C17.0518 13.6761 18 11.3869 18 9C18 6.61305 17.0518 4.32387 15.364 2.63604ZM13.8461 14.8733C13.4193 15.2261 12.955 15.5308 12.4615 15.7819V6.51724L13.8461 5.13264V14.8733ZM6.9231 12.0556L8.3077 10.671V16.5798C7.83916 16.5361 7.37566 16.4492 6.9231 16.3202V12.0556ZM5.5385 15.7819C5.03486 15.5255 4.56169 15.2131 4.12794 14.8508L5.5385 13.4402V15.7819ZM9.6923 9.28644L11.0769 7.90184V16.3237C10.6243 16.4526 10.1608 16.5395 9.6923 16.5833V9.28644ZM1.38471 9C1.3851 7.55311 1.79767 6.13627 2.57413 4.91537C3.3506 3.69447 4.4588 2.72003 5.76901 2.10615C7.07922 1.49227 8.5372 1.26435 9.97225 1.44907C11.4073 1.6338 12.76 2.22352 13.8721 3.14921L3.14834 13.8729C2.00458 12.5072 1.37996 10.7814 1.38471 9ZM15.2307 13.3779V4.62207C16.1315 5.90422 16.6149 7.43303 16.6149 9C16.6149 10.567 16.1315 12.0958 15.2307 13.3779Z" fill="black"/>
</svg>
