<svg width="72" height="33" viewBox="0 0 72 33" fill="none" xmlns="http://www.w3.org/2000/svg">
<path fill-rule="evenodd" clip-rule="evenodd" d="M0.806861 32.9899L3.89353 26.4473L0 24.0954C3.89383 21.7164 12.1684 19.4506 19.125 18.6943V27.9892C12.1197 28.6444 5.24511 31.2293 0.806861 32.9899Z" fill="url(#paint0_linear_44_109)"/>
<path fill-rule="evenodd" clip-rule="evenodd" d="M6.75 26.3919L19.125 28.5912V21.9932L6.75 26.3919Z" fill="#818181"/>
<mask id="mask0_44_109" style="mask-type:alpha" maskUnits="userSpaceOnUse" x="52" y="19" width="20" height="14">
<path fill-rule="evenodd" clip-rule="evenodd" d="M52.7363 19.1034H71.9998V33H52.7363V19.1034Z" fill="white"/>
</mask>
<g mask="url(#mask0_44_109)">
<path fill-rule="evenodd" clip-rule="evenodd" d="M71.57 32.9999L68.4608 26.6399L72.3826 24.3536C68.4606 22.0411 60.1263 19.8384 53.1191 19.1034V28.1387C60.1754 28.7757 67.0995 31.2884 71.57 32.9999Z" fill="url(#paint1_linear_44_109)"/>
</g>
<path fill-rule="evenodd" clip-rule="evenodd" d="M64.125 26.3919L52.875 28.5912V21.9932L64.125 26.3919Z" fill="#818181"/>
<path fill-rule="evenodd" clip-rule="evenodd" d="M63 18.1838C57.0432 16.4787 47.2493 14.2961 34.8785 14.2957C22.5042 14.2952 12.7074 16.4785 6.75 18.1838V26.3919C12.3065 24.61 22.171 22.0713 34.8785 22.0718C47.5822 22.0723 57.444 24.6101 63 26.3919V18.1838Z" fill="url(#paint2_linear_44_109)"/>
<path d="M36 32.9898C45.3198 32.9898 52.875 25.6048 52.875 16.4949C52.875 7.38502 45.3198 0 36 0C26.6802 0 19.125 7.38502 19.125 16.4949C19.125 25.6048 26.6802 32.9898 36 32.9898Z" fill="#E6E6E6"/>
<path fill-rule="evenodd" clip-rule="evenodd" d="M20.4356 10.1223C23.0755 3.96155 29.2558 -0.034894 36.089 0.000229656V0.014686C45.3783 0.0386091 52.8913 7.41475 52.875 16.4949C52.8748 23.1742 48.7538 29.1942 42.4373 31.7421C36.1207 34.29 28.8556 32.8628 24.0366 28.1274C19.2175 23.3919 17.7957 16.2831 20.4356 10.1223ZM44.9068 20.2858C44.67 20.8252 44.3776 21.3396 44.0342 21.8212C43.9307 21.9773 43.8243 22.1276 43.7119 22.278C42.9472 23.2697 41.9904 24.1047 40.8959 24.7355L40.8191 24.7818C40.7842 24.8019 40.7223 24.827 40.6382 24.861C40.5652 24.8906 40.4755 24.9269 40.3724 24.9726C40.2874 25.0103 40.1935 25.0553 40.0956 25.1021C39.9381 25.1776 39.7697 25.2583 39.6093 25.3225C38.4336 25.7855 37.1764 26.0184 35.909 26.0077H35.8202C35.7761 26.0077 35.7059 25.9969 35.612 25.9826C35.5108 25.9672 35.382 25.9475 35.2286 25.9325C34.8278 25.8797 34.432 25.7946 34.0455 25.6781C33.9996 25.6653 33.9518 25.6489 33.9038 25.6324C33.8651 25.6191 33.8264 25.6058 33.7881 25.5942C34.1724 25.1465 34.4937 24.6506 34.7435 24.1197C35.1483 24.1885 35.5575 24.2291 35.9682 24.2411C36.1456 24.2411 36.326 24.2411 36.5035 24.2209C36.6809 24.2006 36.8466 24.1977 36.9975 24.1977C37.6541 24.1199 38.298 23.9615 38.9142 23.7265C39.2612 23.5937 39.5991 23.4392 39.9258 23.2639C39.9967 23.2263 40.0648 23.1858 40.1328 23.1454C40.2482 23.0759 40.3635 23.0036 40.473 22.9256C40.5705 22.8561 40.6399 22.8117 40.7144 22.764L40.7422 22.7463C41.1547 22.4505 41.537 22.1165 41.8839 21.7489L41.9164 21.7171C41.9415 21.6896 41.9659 21.6607 41.9903 21.6318C42.0147 21.6029 42.0392 21.5739 42.0643 21.5465C42.3301 21.2409 42.5705 20.9151 42.7831 20.5721C43.2603 19.7912 43.5983 18.9367 43.7828 18.0451C43.9663 17.1525 43.9844 16.2349 43.8361 15.336C43.6854 14.4099 43.3658 13.5178 42.8925 12.7021C42.3511 11.8063 41.638 11.021 40.7924 10.3891C39.9895 9.7865 39.0712 9.34703 38.0919 9.09669C37.2046 8.87029 36.2847 8.79117 35.3706 8.86251L35.1635 8.8943C34.2267 9.00876 33.3181 9.28591 32.4808 9.71249C31.6563 10.1248 30.914 10.6781 30.289 11.3461C29.6691 12.0129 29.1691 12.7773 28.8101 13.607C28.8101 13.6251 28.7985 13.6432 28.787 13.6613C28.78 13.6721 28.7731 13.683 28.7686 13.6938C28.763 13.7116 28.7561 13.729 28.7479 13.7458C28.5843 14.1574 28.4576 14.5821 28.3693 15.0151C28.1796 15.9211 28.1526 16.8525 28.2894 17.7676C28.4235 18.7058 28.7483 19.6083 29.2448 20.4218L29.2685 20.4593C29.4134 20.6434 29.4644 20.8821 29.4067 21.1075C29.349 21.3329 29.1892 21.5201 28.9727 21.6159C28.7701 21.7463 28.5188 21.7823 28.2865 21.7142C28.0521 21.6408 27.8552 21.4824 27.7363 21.2718C26.2123 18.6638 26.0476 15.5029 27.2927 12.757C27.577 12.1449 27.9259 11.5635 28.3339 11.0222L28.4226 10.8979C29.1808 9.88918 30.1497 9.04958 31.2651 8.4346C33.206 7.30217 35.4995 6.89158 37.7251 7.27807C39.2148 7.50832 40.6237 8.09315 41.8277 8.98105L41.9342 9.05328C42.6853 9.60328 43.3449 10.2635 43.8893 11.0107C44.3714 11.6461 44.769 12.3388 45.0725 13.0721C45.5475 14.215 45.7761 15.4414 45.7439 16.6747C45.7227 17.9146 45.4565 19.1389 44.9601 20.2801L44.9068 20.2858ZM34.4289 16.5004C34.4289 15.619 35.1599 14.9045 36.0616 14.9045C36.9634 14.9045 37.6944 15.619 37.6944 16.5004C37.6944 17.3819 36.9634 18.0964 36.0616 18.0964C35.1606 18.0948 34.4305 17.3812 34.4289 16.5004Z" fill="#E6E6E6"/>
<path fill-rule="evenodd" clip-rule="evenodd" d="M27.6212 2.21899C29.5385 1.12945 31.6567 0.421227 33.8543 0.134956C34.5507 0.0460658 35.2521 0.00098115 35.9544 0C37.4574 0.000852475 38.9533 0.200388 40.4016 0.593193C42.5433 1.18513 44.5537 2.16219 46.3301 3.47443C48.0965 4.78837 49.5623 6.44981 50.633 8.35177C51.7267 10.2477 52.4416 12.3301 52.7396 14.4877C53.0225 16.6378 52.8611 18.8215 52.2651 20.9094C51.3184 24.4126 49.1881 27.499 46.2211 29.666C45.6423 30.1061 45.0362 30.5107 44.4063 30.8775C44.3261 30.9246 44.0953 31.0564 43.4252 31.3703C42.7893 31.6609 42.1323 31.9053 41.4597 32.1016C40.5065 32.3856 39.535 32.6068 38.5515 32.7638C37.7564 32.8988 35.9095 32.9898 35.9095 32.9898C41.8341 28.2008 43.0208 26.4611 44.6001 24.146C44.7575 23.9151 44.9189 23.6786 45.0892 23.4328C45.9569 22.2445 46.6157 20.9227 47.0387 19.5221C47.4689 18.0977 47.5913 16.6012 47.3978 15.1281C47.1943 13.6629 46.7045 12.2499 45.955 10.9663C45.2151 9.67375 44.2108 8.54447 43.0052 7.64872C41.802 6.75202 40.4319 6.09325 38.9716 5.70911C36.0399 4.91801 32.9062 5.31744 30.2792 6.817C28.9378 7.54852 27.7688 8.54848 26.8484 9.7516C25.9706 10.9098 25.3155 12.2148 24.915 13.6027C24.0987 16.4812 24.4888 19.5593 25.9988 22.1553C26.2663 22.6069 26.6979 22.9431 27.2075 23.0969C27.7476 23.2554 28.3312 23.18 28.8107 22.8898C29.2666 22.6494 29.6059 22.2409 29.7533 21.7549C29.9008 21.269 29.8442 20.7455 29.5962 20.3005L29.5193 20.1623C29.0534 19.4005 28.7471 18.5555 28.6184 17.6766C28.4882 16.8065 28.5131 15.9208 28.692 15.059C28.8658 14.2173 29.1915 13.4127 29.654 12.6831C30.1282 11.9387 30.734 11.283 31.4431 10.7466L31.4752 10.7214C31.5762 10.6356 31.6834 10.5569 31.7958 10.486L32.2543 10.2193C33.1106 9.71147 34.0685 9.39026 35.0631 9.27767C36.0289 9.16492 37.0078 9.23095 37.9488 9.47229C38.8735 9.72024 39.7381 10.1471 40.4914 10.7278C41.2882 11.3304 41.9607 12.076 42.4729 12.9247C42.918 13.7033 43.2166 14.5538 43.3546 15.4356C43.491 16.2903 43.4693 17.1621 43.2905 18.0093C43.1124 18.8605 42.787 19.6757 42.3286 20.4198C41.8649 21.1623 41.2674 21.8163 40.5651 22.35C40.5199 22.3804 40.4697 22.414 40.4181 22.4484C40.3052 22.5239 40.1861 22.6035 40.1002 22.6638C39.9752 22.7517 39.8373 22.8396 39.7186 22.9087C38.2173 23.7596 36.4576 24.0652 34.7489 23.7717L33.9825 23.6431L33.6266 24.3178C33.1699 25.1637 32.5362 25.9059 31.7669 26.496L31.7188 26.5368C31.6368 26.6073 31.5477 26.6694 31.4527 26.722L30.9974 26.9888C30.1977 27.4561 29.3101 27.7614 28.3874 27.8865C27.4732 28.0071 26.5444 27.971 25.6429 27.7797C24.7589 27.5901 23.92 27.2375 23.1708 26.7409C22.4154 26.2404 21.7852 25.5796 21.3272 24.8075C19.1209 20.9938 18.5447 16.481 19.724 12.253C20.3096 10.19 21.2887 8.2539 22.6096 6.54712C23.9623 4.78602 25.6675 3.31333 27.6212 2.21899ZM33.5825 17.8709C33.9218 18.5166 34.5339 18.9837 35.2562 19.1484H35.221C35.4694 19.2101 35.7246 19.2417 35.9809 19.2425C36.4263 19.2426 36.8656 19.1405 37.2634 18.9444L37.3275 18.9098C37.4827 18.8214 37.6224 18.709 37.7412 18.5771C38.72 17.7481 38.9857 16.368 38.3824 15.2471L38.3471 15.1844C37.5524 13.9222 35.8777 13.5055 34.5637 14.2428L34.3552 14.362L34.2238 14.4562C33.7198 14.8576 33.3788 15.4218 33.2619 16.0474C33.136 16.6732 33.2501 17.3225 33.5825 17.8709Z" fill="url(#paint3_linear_44_109)"/>
<defs>
<linearGradient id="paint0_linear_44_109" x1="-3.13293" y1="31.008" x2="14.6321" y2="38.7946" gradientUnits="userSpaceOnUse">
<stop stop-color="#9B9B9B"/>
<stop offset="0.274354" stop-color="#9B9B9B"/>
<stop offset="0.487992" stop-color="#D4D4D4"/>
<stop offset="0.611837" stop-color="#CDCDCD"/>
<stop offset="0.764846" stop-color="#E6E6E6"/>
<stop offset="1" stop-color="#FCFCFC"/>
</linearGradient>
<linearGradient id="paint1_linear_44_109" x1="49.9636" y1="31.0734" x2="67.6473" y2="39.1045" gradientUnits="userSpaceOnUse">
<stop stop-color="#9B9B9B"/>
<stop offset="0.274354" stop-color="#9B9B9B"/>
<stop offset="0.487992" stop-color="#D4D4D4"/>
<stop offset="0.611837" stop-color="#CDCDCD"/>
<stop offset="0.764846" stop-color="#E6E6E6"/>
<stop offset="1" stop-color="#FCFCFC"/>
</linearGradient>
<linearGradient id="paint2_linear_44_109" x1="6.75" y1="26.3919" x2="63" y2="26.3919" gradientUnits="userSpaceOnUse">
<stop stop-color="#E6E6E6"/>
<stop offset="0.0556091" stop-color="#D4D4D4"/>
<stop offset="0.116941" stop-color="#E6E6E6"/>
<stop offset="0.185302" stop-color="#9B9B9B"/>
<stop offset="0.805493" stop-color="#9B9B9B"/>
<stop offset="0.859468" stop-color="#E8E8E8"/>
<stop offset="0.927812" stop-color="#DADADA"/>
<stop offset="1" stop-color="#FCFCFC"/>
</linearGradient>
<linearGradient id="paint3_linear_44_109" x1="42.307" y1="37.5483" x2="57.9144" y2="9.85316" gradientUnits="userSpaceOnUse">
<stop stop-color="#565AE7"/>
<stop offset="1" stop-color="#058D81"/>
</linearGradient>
</defs>
</svg>
