<svg width="15" height="16" viewBox="0 0 15 16" fill="none" xmlns="http://www.w3.org/2000/svg">
<path d="M7.5 0.100098C6.01664 0.100098 4.56659 0.539965 3.33323 1.36408C2.09986 2.18819 1.13856 3.35953 0.570907 4.72997C0.00324964 6.10042 -0.145275 7.60842 0.144114 9.06327C0.433503 10.5181 1.14781 11.8545 2.1967 12.9034C3.2456 13.9523 4.58197 14.6666 6.03682 14.956C7.49168 15.2454 8.99968 15.0968 10.3701 14.5292C11.7406 13.9615 12.9119 13.0002 13.736 11.7669C14.5601 10.5335 15 9.08346 15 7.6001C14.9978 5.61165 14.2069 3.70528 12.8009 2.29923C11.3948 0.893188 9.48845 0.102303 7.5 0.100098ZM7.5 13.4334C6.34628 13.4334 5.21846 13.0913 4.25918 12.4503C3.29989 11.8094 2.55222 10.8983 2.11071 9.83242C1.66919 8.76651 1.55368 7.59363 1.77876 6.46207C2.00384 5.33051 2.55941 4.29111 3.37521 3.47531C4.19102 2.6595 5.23042 2.10393 6.36198 1.87885C7.49353 1.65377 8.66642 1.76929 9.73232 2.2108C10.7982 2.65231 11.7093 3.39998 12.3502 4.35927C12.9912 5.31856 13.3333 6.44637 13.3333 7.6001C13.3317 9.14668 12.7166 10.6295 11.623 11.7231C10.5294 12.8167 9.04659 13.4318 7.5 13.4334ZM6.66667 7.87787V4.26676C6.66667 4.04575 6.75447 3.83379 6.91075 3.67751C7.06703 3.52123 7.27899 3.43343 7.5 3.43343C7.72102 3.43343 7.93298 3.52123 8.08926 3.67751C8.24554 3.83379 8.33333 4.04575 8.33333 4.26676V7.87787C8.33333 8.09889 8.24554 8.31085 8.08926 8.46713C7.93298 8.62341 7.72102 8.71121 7.5 8.71121C7.27899 8.71121 7.06703 8.62341 6.91075 8.46713C6.75447 8.31085 6.66667 8.09889 6.66667 7.87787ZM8.61111 10.6557C8.61111 10.8754 8.54595 11.0902 8.42386 11.273C8.30177 11.4557 8.12823 11.5981 7.92521 11.6822C7.72218 11.7663 7.49877 11.7883 7.28324 11.7454C7.0677 11.7025 6.86972 11.5967 6.71433 11.4413C6.55894 11.2859 6.45311 11.088 6.41024 10.8724C6.36737 10.6569 6.38937 10.4335 6.47347 10.2304C6.55757 10.0274 6.69998 9.85389 6.8827 9.7318C7.06542 9.60971 7.28024 9.54454 7.5 9.54454C7.79469 9.54454 8.0773 9.6616 8.28568 9.86998C8.49405 10.0784 8.61111 10.361 8.61111 10.6557Z" fill="black"/>
</svg>
