<svg width="15" height="15" viewBox="0 0 15 15" fill="none" xmlns="http://www.w3.org/2000/svg">
<path d="M7.5 15C6.01664 15 4.56659 14.5601 3.33323 13.736C2.09986 12.9119 1.13856 11.7406 0.570907 10.3701C0.0032497 8.99968 -0.145275 7.49168 0.144114 6.03682C0.433503 4.58197 1.14781 3.2456 2.1967 2.1967C3.2456 1.14781 4.58197 0.433503 6.03682 0.144114C7.49168 -0.145275 8.99968 0.0032497 10.3701 0.570907C11.7406 1.13856 12.9119 2.09986 13.736 3.33323C14.5601 4.56659 15 6.01664 15 7.5C15 9.48913 14.2098 11.3968 12.8033 12.8033C11.3968 14.2098 9.48913 15 7.5 15ZM7.5 1C6.21442 1 4.95772 1.38122 3.8888 2.09545C2.81988 2.80968 1.98676 3.82484 1.49479 5.01256C1.00282 6.20028 0.874095 7.50721 1.1249 8.76809C1.3757 10.029 1.99477 11.1872 2.90381 12.0962C3.81285 13.0052 4.97104 13.6243 6.23191 13.8751C7.49279 14.1259 8.79972 13.9972 9.98744 13.5052C11.1752 13.0132 12.1903 12.1801 12.9046 11.1112C13.6188 10.0423 14 8.78558 14 7.5C14 5.77609 13.3152 4.12279 12.0962 2.90381C10.8772 1.68482 9.22391 1 7.5 1Z" fill="#101820"/>
<path d="M7.5 11.5C7.30222 11.5 7.10888 11.4414 6.94443 11.3315C6.77998 11.2216 6.65181 11.0654 6.57612 10.8827C6.50043 10.7 6.48063 10.4989 6.51922 10.3049C6.5578 10.1109 6.65304 9.93275 6.79289 9.79289C6.93275 9.65304 7.11093 9.5578 7.30491 9.51922C7.49889 9.48063 7.69996 9.50043 7.88268 9.57612C8.06541 9.65181 8.22159 9.77998 8.33147 9.94443C8.44135 10.1089 8.5 10.3022 8.5 10.5C8.5 10.7652 8.39464 11.0196 8.20711 11.2071C8.01957 11.3946 7.76522 11.5 7.5 11.5Z" fill="#101820"/>
<path d="M7.5 8.5C7.36739 8.5 7.24021 8.44732 7.14645 8.35355C7.05268 8.25978 7 8.13261 7 8V3.5C7 3.36739 7.05268 3.24021 7.14645 3.14645C7.24021 3.05268 7.36739 3 7.5 3C7.63261 3 7.75979 3.05268 7.85355 3.14645C7.94732 3.24021 8 3.36739 8 3.5V8C8 8.13261 7.94732 8.25978 7.85355 8.35355C7.75979 8.44732 7.63261 8.5 7.5 8.5Z" fill="#101820"/>
</svg>
