<svg width="15" height="15" viewBox="0 0 15 15" fill="none" xmlns="http://www.w3.org/2000/svg">
<path d="M8.75 8.9075V10.2137C8.18433 10.0138 7.57892 9.95241 6.98463 10.0349C6.39033 10.1173 5.8245 10.3412 5.33464 10.6876C4.84479 11.0341 4.44522 11.493 4.16948 12.0259C3.89374 12.5588 3.74989 13.15 3.75 13.75L2.5 13.7494C2.49981 12.9862 2.67433 12.2331 3.01019 11.5477C3.34605 10.8624 3.83434 10.2631 4.43764 9.79565C5.04094 9.32821 5.74324 9.00508 6.49072 8.85103C7.23821 8.69697 8.01104 8.7167 8.75 8.9075ZM7.5 8.125C5.42812 8.125 3.75 6.44688 3.75 4.375C3.75 2.30312 5.42812 0.625 7.5 0.625C9.57188 0.625 11.25 2.30312 11.25 4.375C11.25 6.44688 9.57188 8.125 7.5 8.125ZM7.5 6.875C8.88125 6.875 10 5.75625 10 4.375C10 2.99375 8.88125 1.875 7.5 1.875C6.11875 1.875 5 2.99375 5 4.375C5 5.75625 6.11875 6.875 7.5 6.875ZM11.1206 12.4462L13.33 10.2369L14.2144 11.1206L11.1206 14.2144L8.91062 12.0044L9.795 11.1206L11.1206 12.4462Z" fill="black"/>
</svg>
