<svg width="22" height="22" viewBox="0 0 22 22" fill="none" xmlns="http://www.w3.org/2000/svg">
<path d="M15.2256 3.38723C15.2256 3.16264 15.3148 2.94726 15.4736 2.78845C15.6324 2.62964 15.8478 2.54043 16.0724 2.54043H17.766V0.846816C17.766 0.62223 17.8552 0.406842 18.014 0.248035C18.1728 0.0892286 18.3882 1.20327e-05 18.6128 1.20327e-05C18.8374 1.20327e-05 19.0527 0.0892286 19.2116 0.248035C19.3704 0.406842 19.4596 0.62223 19.4596 0.846816V2.54043H21.1532C21.3778 2.54043 21.5932 2.62964 21.752 2.78845C21.9108 2.94726 22 3.16264 22 3.38723C22 3.61182 21.9108 3.8272 21.752 3.98601C21.5932 4.14482 21.3778 4.23403 21.1532 4.23403H19.4596V5.92764C19.4596 6.15223 19.3704 6.36762 19.2116 6.52642C19.0527 6.68523 18.8374 6.77445 18.6128 6.77445C18.3882 6.77445 18.1728 6.68523 18.014 6.52642C17.8552 6.36762 17.766 6.15223 17.766 5.92764V4.23403H16.0724C15.8478 4.23403 15.6324 4.14482 15.4736 3.98601C15.3148 3.8272 15.2256 3.61182 15.2256 3.38723ZM21.8476 9.17514C22.2344 11.4748 21.8804 13.8379 20.8367 15.9233C19.793 18.0087 18.1135 19.7084 16.0408 20.777C13.9681 21.8457 11.6094 22.2279 9.30527 21.8687C7.00113 21.5094 4.87079 20.4271 3.22183 18.7782C1.57288 17.1292 0.490627 14.9989 0.131347 12.6947C-0.227933 10.3906 0.154347 8.03189 1.22299 5.95918C2.29164 3.88647 3.99135 2.20701 6.07672 1.16328C8.16208 0.119554 10.5252 -0.234431 12.8249 0.152437C13.0447 0.19131 13.2403 0.315407 13.369 0.497733C13.4978 0.680059 13.5494 0.905864 13.5126 1.12603C13.4758 1.3462 13.3535 1.54291 13.1724 1.67339C12.9912 1.80387 12.7659 1.85755 12.5454 1.82276C11.2097 1.59807 9.84111 1.66713 8.53482 2.02515C7.22854 2.38317 6.01595 3.02154 4.98146 3.89584C3.94698 4.77014 3.11543 5.85936 2.5447 7.08771C1.97397 8.31605 1.67776 9.65401 1.67668 11.0085C1.67468 13.2887 2.51274 15.4897 4.0308 17.1912C4.97523 15.8226 6.30322 14.7639 7.84777 14.148C7.0181 13.4945 6.41268 12.5987 6.11571 11.5852C5.81874 10.5717 5.84497 9.49088 6.19077 8.49298C6.53657 7.49508 7.18474 6.62973 8.04514 6.01729C8.90555 5.40484 9.93541 5.07573 10.9915 5.07573C12.0476 5.07573 13.0775 5.40484 13.9379 6.01729C14.7983 6.62973 15.4465 7.49508 15.7923 8.49298C16.1381 9.49088 16.1643 10.5717 15.8674 11.5852C15.5704 12.5987 14.965 13.4945 14.1353 14.148C15.6798 14.7639 17.0078 15.8226 17.9523 17.1912C19.4703 15.4897 20.3084 13.2887 20.3064 11.0085C20.3064 10.4878 20.2632 9.96808 20.1772 9.45458C20.1578 9.34443 20.1603 9.2315 20.1847 9.12234C20.2091 9.01317 20.2549 8.90992 20.3195 8.81855C20.384 8.72718 20.466 8.6495 20.5607 8.59001C20.6555 8.53051 20.761 8.49038 20.8714 8.47192C20.9817 8.45346 21.0946 8.45705 21.2035 8.48247C21.3125 8.50789 21.4153 8.55464 21.5061 8.62003C21.5968 8.68541 21.6737 8.76813 21.7324 8.86341C21.791 8.95869 21.8301 9.06464 21.8476 9.17514ZM10.9915 13.5489C11.6615 13.5489 12.3163 13.3502 12.8734 12.978C13.4304 12.6058 13.8645 12.0768 14.1209 11.4579C14.3773 10.839 14.4444 10.1579 14.3137 9.50085C14.183 8.84379 13.8604 8.24025 13.3867 7.76654C12.9129 7.29283 12.3094 6.97023 11.6523 6.83953C10.9953 6.70883 10.3142 6.77591 9.6953 7.03228C9.07637 7.28865 8.54736 7.7228 8.17516 8.27983C7.80297 8.83685 7.60431 9.49174 7.60431 10.1617C7.60431 11.06 7.96118 11.9216 8.59641 12.5568C9.23163 13.192 10.0932 13.5489 10.9915 13.5489ZM10.9915 20.3233C13.0592 20.3254 15.0682 19.6361 16.699 18.3651C16.0864 17.407 15.2425 16.6186 14.245 16.0724C13.2476 15.5263 12.1287 15.24 10.9915 15.24C9.85435 15.24 8.73547 15.5263 7.73803 16.0724C6.74058 16.6186 5.89666 17.407 5.28407 18.3651C6.91491 19.6361 8.92389 20.3254 10.9915 20.3233Z" fill="black"/>
</svg>
