<svg width="86" height="32" viewBox="0 0 86 32" fill="none" xmlns="http://www.w3.org/2000/svg">
<path d="M13.4657 10.055C13.3604 10.5896 13.2608 11.18 12.9834 11.6517C11.5436 14.1015 8.05367 13.5811 5.55537 12.6699C5.52407 12.6588 5.51221 12.6394 5.5198 12.6117L6.08462 10.6454C6.096 10.605 6.12541 10.592 6.17283 10.6062C7.01508 10.8581 9.41664 11.5234 10.1849 11.0505C10.5634 10.8177 10.7531 10.4941 10.754 10.0799C10.7559 6.78343 10.7564 3.48737 10.7554 0.191694C10.7552 0.183796 10.757 0.175946 10.7605 0.168603C10.7641 0.16126 10.7694 0.154571 10.7762 0.148929C10.7829 0.143287 10.791 0.138804 10.7999 0.135743C10.8088 0.132683 10.8183 0.131105 10.828 0.131104H13.3519C13.423 0.131104 13.4586 0.160805 13.4586 0.220208V7.88437C13.4586 7.92476 13.4828 7.94496 13.5312 7.94496L20.0771 7.9414C20.1274 7.9414 20.1511 7.92041 20.1482 7.87843C20.08 7.04679 20.0159 6.12486 20.3702 5.37519C21.3547 3.29253 24.6796 2.90047 26.68 4.14436C27.9377 4.9261 28.3303 6.5086 27.996 7.73349C27.9922 7.7479 27.9923 7.76284 27.9963 7.77722C28.0003 7.7916 28.0081 7.80505 28.0192 7.81656C28.0302 7.82808 28.0442 7.83738 28.0602 7.84377C28.0761 7.85016 28.0936 7.85348 28.1112 7.85348H35.5464C35.555 7.85355 35.5636 7.85207 35.5714 7.84913C35.5793 7.84619 35.5863 7.84186 35.592 7.83644C35.5977 7.83102 35.6019 7.82465 35.6043 7.81774C35.6067 7.81084 35.6074 7.80358 35.6061 7.79645C35.3415 6.22346 35.4084 4.45088 37.4443 3.80339C37.8635 3.66954 38.5536 3.59706 39.5144 3.58598C40.9618 3.56855 42.4044 3.56776 43.8423 3.5836C43.8683 3.5836 43.8933 3.59236 43.9117 3.60796C43.9301 3.62355 43.9405 3.64471 43.9405 3.66676V5.59379C43.9405 5.60966 43.933 5.62489 43.9197 5.63622C43.9064 5.64755 43.8883 5.65407 43.8693 5.65438C42.2047 5.65755 40.5458 5.65834 38.8926 5.65676C37.5325 5.65557 37.8711 7.06342 37.9522 7.77032C37.9579 7.82417 37.9925 7.8511 38.0561 7.8511C41.1197 7.85744 44.1975 7.85625 47.2896 7.84754C48.9285 7.84279 49.3056 7.15253 49.3084 5.89912C49.3122 3.99506 49.3127 2.09259 49.3098 0.191694C49.3098 0.175625 49.3175 0.160213 49.3311 0.14885C49.3447 0.137487 49.3631 0.131104 49.3824 0.131104H51.9404C51.9593 0.131104 51.9774 0.137362 51.9907 0.148502C52.0041 0.159642 52.0116 0.174752 52.0116 0.190506C52.0173 2.28624 52.0177 4.37841 52.013 6.46702C52.013 6.74859 51.9006 7.22143 51.801 7.50657C51.0754 9.5928 49.3013 10.0621 46.9524 10.049C35.8162 9.98961 24.6801 9.97297 13.544 9.99911C13.4994 9.9999 13.4733 10.0185 13.4657 10.055ZM22.5512 7.93902L25.5816 7.94852C25.5991 7.94868 25.6165 7.94594 25.6327 7.94046C25.6489 7.93498 25.6637 7.92686 25.6761 7.91659C25.6886 7.90631 25.6984 7.89408 25.7052 7.88059C25.7119 7.86711 25.7154 7.85264 25.7154 7.83803L25.7196 6.66067C25.7207 6.34831 25.5711 6.04835 25.3035 5.8267C25.0359 5.60504 24.6724 5.47982 24.2926 5.47855L23.863 5.47618C23.6747 5.47554 23.4881 5.50544 23.3139 5.56416C23.1397 5.62289 22.9813 5.70928 22.8477 5.8184C22.7141 5.92753 22.608 6.05724 22.5354 6.20013C22.4628 6.34303 22.4252 6.49629 22.4246 6.65116L22.4203 7.82853C22.4203 7.85763 22.4341 7.88555 22.4586 7.90624C22.4831 7.92693 22.5164 7.93871 22.5512 7.93902Z" fill="#1B3D6B"/>
<path d="M56.1417 8.93699L53.4385 9.23163V0.190506C53.4385 0.174752 53.446 0.159642 53.4593 0.148502C53.4726 0.137362 53.4907 0.131104 53.5096 0.131104H56.0648C56.0852 0.131104 56.1047 0.137863 56.1191 0.149894C56.1336 0.161926 56.1417 0.178244 56.1417 0.195259V8.93699Z" fill="#1B3D6B"/>
<path d="M56.1422 8.93724C66.9335 8.74477 76.4942 14.2906 82.6504 21.2716C82.583 21.3002 82.5455 21.3311 82.538 21.3643C78.1133 16.7345 70.4989 13.1251 63.3013 13.1834C61.6424 13.1976 60.1798 13.377 58.602 13.9093C58.5575 13.9243 58.5138 13.9219 58.4712 13.9021L56.155 12.821C55.3649 12.4321 54.5459 12.0468 53.6979 11.665C53.6884 11.6611 53.6666 11.6472 53.6325 11.6234C53.5888 11.5925 53.5248 11.5838 53.4404 11.5973C53.4442 11.564 53.4266 11.5379 53.3878 11.5189C52.4592 11.0738 51.5235 10.6318 50.5807 10.193C50.5324 10.1708 50.5305 10.1459 50.575 10.1182C51.3106 9.66551 52.6152 9.38632 53.439 9.23187L56.1422 8.93724Z" fill="#4482B6"/>
<path d="M52.0114 16.4456L49.3125 17.1704V11.2396C49.3125 11.2238 49.3198 11.2087 49.3329 11.1976C49.346 11.1864 49.3637 11.1802 49.3822 11.1802H51.9403C51.9588 11.1802 51.9765 11.1863 51.9896 11.1972C52.0026 11.2081 52.01 11.223 52.01 11.2384L52.0114 16.4456Z" fill="#1B3D6B"/>
<path d="M53.4395 11.5972C53.5239 11.5837 53.5879 11.5924 53.6315 11.6233C53.6657 11.6471 53.6875 11.661 53.697 11.6649C54.5449 12.0467 55.3639 12.432 56.154 12.8209V15.8326L53.4423 16.1593L53.4395 11.5972Z" fill="#1B3D6B"/>
<path d="M45.1164 18.856C43.6917 19.5855 42.3714 20.3245 41.1555 21.0729L13.3483 21.0717C13.2962 21.0717 13.2715 21.0935 13.2744 21.1371C13.4138 23.2126 12.085 25.0458 9.36614 24.9947C8.09328 24.9709 6.84318 24.7349 5.61584 24.2866C5.5779 24.2732 5.56367 24.2498 5.57316 24.2165L6.07822 22.4119C6.09056 22.3691 6.12138 22.3552 6.1707 22.3703C7.28754 22.7053 10.7547 23.7472 10.7547 21.8131C10.7547 20.0199 10.7547 18.2283 10.7547 16.4383C10.7547 16.4222 10.7622 16.4068 10.7756 16.3955C10.7889 16.3841 10.807 16.3777 10.8259 16.3777H13.2089C13.2278 16.3777 13.2459 16.384 13.2592 16.3951C13.2726 16.4063 13.2801 16.4214 13.2801 16.4371V18.9617C13.2801 19.0014 13.3038 19.0212 13.3512 19.0212H34.0134C34.057 19.0212 34.0793 19.0029 34.0803 18.9665C34.1073 18.0469 34.5526 16.9076 32.8895 16.891C31.4734 16.8775 30.0611 16.8759 28.6526 16.8862C28.6424 16.8864 28.6322 16.8848 28.6228 16.8817C28.6133 16.8785 28.6046 16.8738 28.5973 16.8678C28.5901 16.8619 28.5843 16.8547 28.5803 16.8469C28.5764 16.839 28.5743 16.8306 28.5743 16.8221V14.9247C28.5743 14.909 28.5818 14.8939 28.5952 14.8827C28.6085 14.8716 28.6266 14.8653 28.6455 14.8653C30.036 14.8614 31.4226 14.8602 32.8055 14.8618C33.5491 14.8626 34.1102 14.9188 34.4886 15.0305C36.5345 15.6352 36.58 17.1844 36.4634 18.7776C36.4626 18.7863 36.464 18.7949 36.4675 18.8031C36.471 18.8113 36.4765 18.8188 36.4837 18.8252C36.4909 18.8316 36.4997 18.8366 36.5094 18.8401C36.5191 18.8436 36.5296 18.8453 36.5402 18.8453L45.1164 18.856Z" fill="#1B3D6B"/>
<path d="M64.4645 16.1759C64.6846 16.2923 64.7528 16.4571 64.6694 16.6701C64.5015 17.099 64.4517 17.5338 64.2568 17.9568C64.2464 17.9782 64.2511 17.9972 64.271 18.0138L64.3151 18.0518C64.3217 18.0572 64.3258 18.0643 64.3268 18.072C64.3279 18.0796 64.3257 18.0873 64.3206 18.0938C64.3156 18.1002 64.308 18.105 64.2992 18.1073C64.2905 18.1097 64.281 18.1094 64.2724 18.1065C64.1235 18.0582 64.0301 18.091 63.9922 18.2051C61.4322 17.5374 58.8149 17.1735 56.1401 17.1133L53.4398 17.2321L52.0199 17.4222C50.9832 17.575 50.0096 17.7798 49.0991 18.0364C48.2777 18.2502 47.4985 18.5096 46.7615 18.8146L45.9293 19.1365C46.0469 19.0367 46.0511 18.9552 45.9421 18.8918C45.9213 18.8799 45.9046 18.8637 45.8934 18.8449C45.8822 18.826 45.8769 18.8051 45.8781 18.784C45.8792 18.7629 45.8867 18.7423 45.8999 18.7242C45.9131 18.7061 45.9315 18.691 45.9534 18.6803L46.6563 18.3417C46.6989 18.3211 46.7193 18.2902 46.7174 18.2491C46.7155 18.2182 46.6999 18.1916 46.6705 18.1695L49.3125 17.1703L52.0114 16.4456L53.4427 16.1593L56.1544 15.8326C58.9543 15.6235 61.7243 15.7379 64.4645 16.1759Z" fill="#4482B6"/>
<path d="M64.4655 16.1758C71.8893 17.3769 78.9076 20.4837 84.7578 24.428C84.7614 24.4306 84.766 24.432 84.7708 24.432C84.7755 24.432 84.7801 24.4306 84.7837 24.428C84.7873 24.4254 84.7897 24.4219 84.7904 24.4179C84.7912 24.414 84.7902 24.41 84.7877 24.4066C84.1057 23.3588 83.356 22.3446 82.5384 21.364C82.546 21.3308 82.5834 21.2999 82.6508 21.2714C83.8174 22.4911 84.8702 23.7837 85.8092 25.1492C85.8415 25.1959 85.8253 25.2197 85.7608 25.2205L78.9773 25.3416C78.927 25.3424 78.8824 25.329 78.8436 25.3013C74.5071 22.1826 69.4664 19.6485 63.9932 18.205C64.0311 18.0909 64.1245 18.0581 64.2734 18.1064C64.282 18.1092 64.2915 18.1095 64.3003 18.1072C64.309 18.1049 64.3166 18.1001 64.3216 18.0937C64.3267 18.0872 64.3289 18.0795 64.3279 18.0719C64.3268 18.0642 64.3227 18.0571 64.3161 18.0517L64.272 18.0137C64.2521 17.9971 64.2474 17.9781 64.2578 17.9567C64.4527 17.5337 64.5025 17.0989 64.6704 16.67C64.7538 16.457 64.6856 16.2922 64.4655 16.1758Z" fill="#4377B6"/>
<path d="M56.1398 17.1135V20.9818C56.1398 20.9976 56.1323 21.0127 56.1189 21.0238C56.1056 21.035 56.0875 21.0412 56.0686 21.0412H53.5106C53.4921 21.0412 53.4744 21.0351 53.4613 21.0242C53.4482 21.0133 53.4409 20.9985 53.4409 20.983L53.4395 17.2323L56.1398 17.1135Z" fill="#1B3D6B"/>
<path d="M52.0197 17.4219C52.0111 17.6033 51.9618 17.869 51.8717 18.2191C51.4032 20.0297 50.0781 20.9773 47.8966 21.0621L42.6396 21.0478C42.4243 21.047 42.4025 20.9924 42.5742 20.8839C43.5786 20.2479 44.6969 19.6653 45.929 19.1362L46.7613 18.8143C47.6989 18.92 48.8228 18.8951 49.0988 18.0361C50.0094 17.7795 50.983 17.5747 52.0197 17.4219Z" fill="#1B3D6B"/>
<path d="M46.6712 18.1694C46.7006 18.1916 46.7162 18.2181 46.7181 18.249C46.72 18.2902 46.6996 18.3211 46.657 18.3417L45.9541 18.6803C45.9322 18.691 45.9138 18.7061 45.9006 18.7242C45.8874 18.7423 45.8799 18.7629 45.8788 18.784C45.8776 18.8051 45.8829 18.826 45.8941 18.8449C45.9053 18.8637 45.922 18.8798 45.9428 18.8918C46.0518 18.9551 46.0476 19.0367 45.9299 19.1365C44.6979 19.6656 43.5796 20.2481 42.5752 20.8841C42.4035 20.9927 42.4253 21.0473 42.6406 21.0481L47.8976 21.0624L42.3262 21.0612C42.2788 21.0612 42.2366 21.0738 42.1996 21.0992C41.0566 21.8896 39.9289 22.6908 38.8163 23.5026C37.2883 24.617 35.2728 25.855 32.7697 27.2165C29.7147 28.8782 26.3921 30.0076 22.8021 30.6048C22.6779 30.5304 22.6675 30.3704 22.7708 30.1249C22.7908 30.0765 22.7704 30.0488 22.7097 30.0417L22.6428 30.0346C22.6409 30.0341 22.6392 30.0331 22.6379 30.0318C22.6367 30.0305 22.6359 30.0289 22.6358 30.0273C22.6356 30.0256 22.6361 30.0239 22.6371 30.0225C22.6381 30.021 22.6396 30.0198 22.6414 30.0191C22.6537 30.016 22.6665 30.0124 22.6798 30.0084C22.7054 30.0013 22.7116 29.9874 22.6983 29.9668L22.6627 29.9122C22.8183 29.8797 23.0459 29.8492 23.3456 29.8207C25.1316 29.6536 26.8242 29.2287 28.4233 28.5459C31.3499 27.2961 34.1341 25.7065 36.7847 24.0871C38.2373 23.1997 39.6956 22.09 41.1567 21.073C42.3727 20.3246 43.6929 19.5856 45.1176 18.8561L46.6712 18.1694Z" fill="#4593B8"/>
<path d="M22.6622 29.9122L22.6977 29.9668C22.711 29.9874 22.7048 30.0013 22.6792 30.0084C22.666 30.0124 22.6532 30.0159 22.6408 30.0191C22.639 30.0198 22.6375 30.021 22.6365 30.0224C22.6355 30.0239 22.6351 30.0256 22.6352 30.0272C22.6354 30.0289 22.6361 30.0305 22.6374 30.0318C22.6386 30.0331 22.6403 30.0341 22.6423 30.0345L22.7091 30.0417C22.7698 30.0488 22.7902 30.0765 22.7703 30.1248C22.6669 30.3704 22.6773 30.5304 22.8016 30.6048C21.2603 30.9224 19.6944 31.1569 18.1038 31.3081C17.3696 31.3782 16.5501 31.3925 15.7705 31.4305C14.8969 31.4745 14.0789 31.3925 13.2124 31.3497C10.9181 31.2357 8.69623 30.8436 6.54697 30.1735C4.23504 29.4536 1.45362 28.0944 0.137598 26.3539C0.0968133 26.3001 0.11436 26.2724 0.190239 26.2708L7.75629 26.1258C7.81414 26.1242 7.86204 26.1417 7.89998 26.1781C11.5422 29.5866 17.5162 30.2793 22.6622 29.9122Z" fill="#46A5B9"/>
</svg>
