<svg width="86" height="32" viewBox="0 0 86 32" fill="none" xmlns="http://www.w3.org/2000/svg">
<path d="M13.3495 9.92385C13.2442 10.4585 13.1446 11.0489 12.8672 11.5206C11.4274 13.9704 7.93746 13.45 5.43916 12.5388C5.40786 12.5277 5.396 12.5083 5.40359 12.4805L5.96841 10.5143C5.97979 10.4739 6.00919 10.4608 6.05662 10.4751C6.89887 10.727 9.30043 11.3923 10.0687 10.9194C10.4471 10.6866 10.6368 10.363 10.6378 9.9488C10.6397 6.65233 10.6402 3.35626 10.6392 0.060591C10.639 0.0526928 10.6408 0.0448423 10.6443 0.0374991C10.6479 0.030156 10.6532 0.0234678 10.66 0.0178256C10.6667 0.0121834 10.6748 0.00770072 10.6837 0.00463994C10.6926 0.00157917 10.7021 1.74463e-06 10.7118 0H13.2357C13.3068 0 13.3424 0.0297014 13.3424 0.0891043V7.75327C13.3424 7.79366 13.3666 7.81386 13.4149 7.81386L19.9609 7.81029C20.0112 7.81029 20.0349 7.7893 20.032 7.74732C19.9637 6.91568 19.8997 5.99375 20.254 5.24409C21.2385 3.16142 24.5634 2.76936 26.5638 4.01326C27.8215 4.795 28.2141 6.37749 27.8798 7.60238C27.8759 7.61679 27.876 7.63174 27.88 7.64612C27.8841 7.6605 27.8919 7.67394 27.9029 7.68546C27.914 7.69698 27.928 7.70627 27.944 7.71266C27.9599 7.71905 27.9773 7.72237 27.995 7.72238H35.4302C35.4388 7.72245 35.4473 7.72096 35.4552 7.71802C35.4631 7.71508 35.4701 7.71076 35.4758 7.70534C35.4814 7.69992 35.4856 7.69354 35.4881 7.68664C35.4905 7.67974 35.4912 7.67247 35.4899 7.66535C35.2253 6.09236 35.2922 4.31978 37.3281 3.67229C37.7473 3.53843 38.4373 3.46596 39.3982 3.45487C40.8455 3.43745 42.2882 3.43666 43.7261 3.4525C43.7521 3.4525 43.7771 3.46126 43.7955 3.47685C43.8139 3.49245 43.8243 3.5136 43.8243 3.53566V5.46269C43.8243 5.47856 43.8168 5.49379 43.8035 5.50512C43.7902 5.51645 43.7721 5.52297 43.7531 5.52328C42.0885 5.52645 40.4296 5.52724 38.7764 5.52566C37.4163 5.52447 37.7549 6.93232 37.836 7.63921C37.8417 7.69307 37.8763 7.72 37.9399 7.72C41.0035 7.72634 44.0813 7.72515 47.1733 7.71643C48.8123 7.71168 49.1893 7.02142 49.1922 5.76802C49.196 3.86396 49.1965 1.96148 49.1936 0.060591C49.1936 0.0445213 49.2013 0.0291097 49.2149 0.0177467C49.2285 0.00638372 49.2469 0 49.2662 0H51.8242C51.8431 0 51.8612 0.00625846 51.8745 0.0173987C51.8879 0.0285389 51.8954 0.0436483 51.8954 0.0594029C51.9011 2.15514 51.9015 4.24731 51.8968 6.33591C51.8968 6.61748 51.7844 7.09033 51.6848 7.37546C50.9592 9.46169 49.1851 9.93098 46.8362 9.91791C35.7 9.8585 24.5639 9.84187 13.4278 9.86801C13.3832 9.8688 13.3571 9.88741 13.3495 9.92385ZM22.435 7.80792L25.4654 7.81742C25.4829 7.81758 25.5003 7.81484 25.5165 7.80935C25.5327 7.80387 25.5475 7.79576 25.5599 7.78548C25.5723 7.77521 25.5822 7.76297 25.589 7.74949C25.5957 7.73601 25.5992 7.72154 25.5992 7.70693L25.6034 6.52957C25.6045 6.21721 25.4549 5.91725 25.1873 5.69559C24.9197 5.47394 24.5561 5.34872 24.1764 5.34745L23.7468 5.34507C23.5585 5.34444 23.3719 5.37434 23.1977 5.43306C23.0235 5.49178 22.8651 5.57818 22.7315 5.6873C22.5979 5.79642 22.4918 5.92614 22.4192 6.06903C22.3466 6.21192 22.3089 6.36519 22.3084 6.52006L22.3041 7.69743C22.3041 7.72653 22.3179 7.75445 22.3424 7.77514C22.3669 7.79582 22.4002 7.8076 22.435 7.80792Z" fill="#9B9B9B"/>
<path d="M56.0254 8.80588L53.3223 9.10052V0.0594029C53.3223 0.0436483 53.3298 0.0285389 53.3431 0.0173987C53.3564 0.00625846 53.3745 0 53.3934 0H55.9486C55.969 0 55.9885 0.00675927 56.0029 0.0187907C56.0173 0.0308221 56.0254 0.0471402 56.0254 0.0641552V8.80588Z" fill="#9B9B9B"/>
<path d="M56.0259 8.80609C66.8173 8.61362 76.378 14.1595 82.5341 21.1405C82.4668 21.169 82.4293 21.1999 82.4217 21.2332C77.9971 16.6033 70.3827 12.994 63.1851 13.0522C61.5262 13.0665 60.0636 13.2459 58.4858 13.7781C58.4413 13.7932 58.3976 13.7908 58.3549 13.771L56.0388 12.6898C55.2487 12.301 54.4296 11.9156 53.5817 11.5339C53.5722 11.5299 53.5504 11.516 53.5163 11.4923C53.4726 11.4614 53.4086 11.4527 53.3242 11.4661C53.328 11.4329 53.3104 11.4067 53.2716 11.3877C52.343 10.9426 51.4073 10.5007 50.4645 10.0619C50.4161 10.0397 50.4142 10.0147 50.4588 9.98701C51.1944 9.53436 52.499 9.25517 53.3228 9.10072L56.0259 8.80609Z" fill="#019CF6"/>
<path d="M51.8952 16.3146L49.1963 17.0393V11.1086C49.1963 11.0928 49.2036 11.0777 49.2167 11.0665C49.2298 11.0554 49.2475 11.0491 49.266 11.0491H51.8241C51.8426 11.0491 51.8603 11.0553 51.8734 11.0662C51.8864 11.0771 51.8938 11.0919 51.8938 11.1074L51.8952 16.3146Z" fill="#9B9B9B"/>
<path d="M53.3232 11.4661C53.4077 11.4527 53.4717 11.4614 53.5153 11.4923C53.5495 11.516 53.5713 11.5299 53.5808 11.5338C54.4287 11.9156 55.2477 12.3009 56.0378 12.6898V15.7015L53.3261 16.0283L53.3232 11.4661Z" fill="#9B9B9B"/>
<path d="M45.0001 18.7249C43.5755 19.4544 42.2552 20.1933 41.0393 20.9418L13.2321 20.9406C13.18 20.9406 13.1553 20.9624 13.1582 21.006C13.2976 23.0815 11.9688 24.9147 9.24993 24.8636C7.97707 24.8398 6.72697 24.6038 5.49963 24.1555C5.46169 24.142 5.44746 24.1187 5.45695 24.0854L5.96201 22.2807C5.97434 22.238 6.00517 22.2241 6.05449 22.2392C7.17133 22.5742 10.6385 23.6161 10.6385 21.682C10.6385 19.8888 10.6385 18.0972 10.6385 16.3072C10.6385 16.2911 10.646 16.2757 10.6593 16.2644C10.6727 16.253 10.6908 16.2466 10.7096 16.2466H13.0927C13.1116 16.2466 13.1297 16.2529 13.143 16.264C13.1563 16.2751 13.1638 16.2903 13.1638 16.306V18.8306C13.1638 18.8702 13.1876 18.89 13.235 18.89H33.8972C33.9408 18.89 33.9631 18.8718 33.9641 18.8354C33.9911 17.9158 34.4364 16.7765 32.7733 16.7598C31.3572 16.7464 29.9449 16.7448 28.5364 16.7551C28.5262 16.7553 28.516 16.7537 28.5065 16.7506C28.4971 16.7474 28.4884 16.7427 28.4811 16.7367C28.4738 16.7308 28.4681 16.7236 28.4641 16.7158C28.4602 16.7079 28.4581 16.6995 28.4581 16.6909V14.7936C28.4581 14.7779 28.4656 14.7627 28.479 14.7516C28.4923 14.7405 28.5104 14.7342 28.5293 14.7342C29.9197 14.7302 31.3064 14.7291 32.6893 14.7306C33.4329 14.7314 33.994 14.7877 34.3724 14.8993C36.4183 15.5041 36.4638 17.0533 36.3471 18.6465C36.3464 18.6551 36.3478 18.6638 36.3513 18.672C36.3548 18.6802 36.3603 18.6877 36.3675 18.6941C36.3747 18.7004 36.3835 18.7055 36.3932 18.709C36.4029 18.7124 36.4134 18.7142 36.424 18.7142L45.0001 18.7249Z" fill="#9B9B9B"/>
<path d="M64.3483 16.0447C64.5683 16.1611 64.6366 16.3259 64.5532 16.539C64.3853 16.9678 64.3355 17.4027 64.1406 17.8256C64.1301 17.847 64.1349 17.866 64.1548 17.8826L64.1989 17.9207C64.2055 17.926 64.2096 17.9332 64.2106 17.9408C64.2116 17.9485 64.2094 17.9562 64.2044 17.9626C64.1994 17.969 64.1918 17.9738 64.183 17.9762C64.1743 17.9785 64.1648 17.9782 64.1562 17.9753C64.0073 17.927 63.9139 17.9599 63.8759 18.0739C61.316 17.4062 58.6987 17.0423 56.0239 16.9821L53.3236 17.1009L51.9037 17.291C50.867 17.4439 49.8934 17.6486 48.9829 17.9052C48.1615 18.1191 47.3823 18.3785 46.6453 18.6834L45.813 19.0054C45.9307 18.9056 45.9349 18.824 45.8258 18.7606C45.8051 18.7487 45.7884 18.7326 45.7772 18.7137C45.766 18.6949 45.7607 18.6739 45.7619 18.6528C45.763 18.6317 45.7705 18.6112 45.7837 18.593C45.7969 18.5749 45.8153 18.5598 45.8372 18.5491L46.5401 18.2105C46.5827 18.19 46.6031 18.1591 46.6012 18.1179C46.5993 18.087 46.5837 18.0605 46.5543 18.0383L49.1963 17.0391L51.8952 16.3144L53.3264 16.0281L56.0382 15.7014C58.8381 15.4923 61.6081 15.6067 64.3483 16.0447Z" fill="#019CF6"/>
<path d="M64.3493 16.0446C71.7731 17.2457 78.7914 20.3525 84.6416 24.2968C84.6452 24.2994 84.6498 24.3008 84.6546 24.3008C84.6593 24.3008 84.6639 24.2994 84.6675 24.2968C84.6711 24.2942 84.6735 24.2907 84.6742 24.2867C84.6749 24.2828 84.674 24.2788 84.6715 24.2754C83.9895 23.2276 83.2397 22.2134 82.4222 21.2328C82.4297 21.1996 82.4672 21.1687 82.5346 21.1402C83.7012 22.3599 84.754 23.6525 85.693 25.018C85.7253 25.0647 85.7091 25.0885 85.6446 25.0893L78.8611 25.2105C78.8108 25.2112 78.7662 25.1978 78.7273 25.1701C74.3909 22.0514 69.3502 19.5173 63.877 18.0738C63.9149 17.9597 64.0083 17.9269 64.1572 17.9752C64.1658 17.978 64.1753 17.9783 64.184 17.976C64.1928 17.9737 64.2004 17.9689 64.2054 17.9625C64.2104 17.956 64.2126 17.9483 64.2116 17.9407C64.2106 17.933 64.2065 17.9259 64.1999 17.9205L64.1558 17.8825C64.1359 17.8659 64.1311 17.8469 64.1416 17.8255C64.3365 17.4025 64.3863 16.9677 64.5542 16.5388C64.6376 16.3258 64.5693 16.161 64.3493 16.0446Z" fill="#019CF6"/>
<path d="M56.0236 16.9823V20.8506C56.0236 20.8664 56.0161 20.8815 56.0027 20.8926C55.9894 20.9038 55.9713 20.91 55.9524 20.91H53.3944C53.3759 20.91 53.3582 20.9039 53.3451 20.893C53.332 20.8821 53.3247 20.8673 53.3247 20.8518L53.3232 17.1011L56.0236 16.9823Z" fill="#9B9B9B"/>
<path d="M51.9035 17.2908C51.8949 17.4722 51.8456 17.7379 51.7555 18.088C51.2869 19.8986 49.9619 20.8462 47.7804 20.931L42.5234 20.9167C42.3081 20.9159 42.2863 20.8613 42.458 20.7528C43.4624 20.1168 44.5807 19.5342 45.8128 19.0052L46.6451 18.6832C47.5826 18.7889 48.7066 18.764 48.9826 17.905C49.8931 17.6484 50.8668 17.4437 51.9035 17.2908Z" fill="#9B9B9B"/>
<path d="M46.555 18.0384C46.5844 18.0605 46.6 18.0871 46.6019 18.118C46.6038 18.1591 46.5834 18.19 46.5407 18.2106L45.8379 18.5492C45.816 18.5599 45.7976 18.575 45.7844 18.5931C45.7712 18.6112 45.7637 18.6318 45.7626 18.6529C45.7614 18.674 45.7667 18.6949 45.7779 18.7138C45.7891 18.7326 45.8058 18.7488 45.8265 18.7607C45.9356 18.8241 45.9313 18.9056 45.8137 19.0054C44.5817 19.5345 43.4634 20.1171 42.459 20.7531C42.2873 20.8616 42.3091 20.9162 42.5244 20.917L47.7814 20.9313L42.21 20.9301C42.1625 20.9301 42.1203 20.9428 42.0834 20.9681C40.9404 21.7586 39.8127 22.5597 38.7001 23.3716C37.1721 24.4859 35.1566 25.7239 32.6535 27.0854C29.5985 28.7471 26.2759 29.8766 22.6859 30.4738C22.5617 30.3993 22.5512 30.2393 22.6546 29.9938C22.6745 29.9455 22.6542 29.9178 22.5935 29.9106L22.5266 29.9035C22.5247 29.903 22.523 29.902 22.5217 29.9007C22.5205 29.8994 22.5197 29.8978 22.5196 29.8962C22.5194 29.8945 22.5199 29.8928 22.5209 29.8914C22.5219 29.8899 22.5234 29.8888 22.5252 29.888C22.5375 29.8849 22.5503 29.8813 22.5636 29.8774C22.5892 29.8702 22.5954 29.8564 22.5821 29.8358L22.5465 29.7811C22.7021 29.7487 22.9297 29.7182 23.2294 29.6896C25.0154 29.5225 26.708 29.0976 28.3071 28.4149C31.2337 27.165 34.0179 25.5754 36.6685 23.9561C38.1211 23.0686 39.5794 21.959 41.0405 20.942C42.2564 20.1935 43.5767 19.4545 45.0014 18.7251L46.555 18.0384Z" fill="#4593B8"/>
<path d="M22.546 29.781L22.5815 29.8357C22.5948 29.8563 22.5886 29.8701 22.563 29.8772C22.5498 29.8812 22.5369 29.8848 22.5246 29.8879C22.5228 29.8887 22.5213 29.8898 22.5203 29.8913C22.5193 29.8927 22.5189 29.8944 22.519 29.8961C22.5192 29.8977 22.5199 29.8993 22.5212 29.9006C22.5224 29.9019 22.5241 29.9029 22.526 29.9034L22.5929 29.9105C22.6536 29.9176 22.674 29.9454 22.6541 29.9937C22.5507 30.2392 22.5611 30.3992 22.6854 30.4736C21.1441 30.7913 19.5782 31.0257 17.9875 31.177C17.2534 31.2471 16.4339 31.2613 15.6543 31.2993C14.7807 31.3433 13.9627 31.2613 13.0962 31.2186C10.8018 31.1045 8.58002 30.7124 6.43076 30.0424C4.11883 29.3224 1.33741 27.9633 0.0213871 26.2228C-0.0193976 26.1689 -0.00185071 26.1412 0.0740279 26.1396L7.64008 25.9947C7.69793 25.9931 7.74583 26.0105 7.78377 26.0469C11.4259 29.4555 17.4 30.1481 22.546 29.781Z" fill="#46A5B9"/>
</svg>
