<svg width="20" height="17" viewBox="0 0 20 17" fill="none" xmlns="http://www.w3.org/2000/svg">
<path d="M17.6923 17H2.30769C1.69565 17 1.10868 16.7557 0.675907 16.321C0.243131 15.8862 0 15.2966 0 14.6818V2.31818C0 1.70336 0.243131 1.11372 0.675907 0.678978C1.10868 0.244236 1.69565 0 2.30769 0H17.6923C18.3043 0 18.8913 0.244236 19.3241 0.678978C19.7569 1.11372 20 1.70336 20 2.31818V14.6818C20 15.2966 19.7569 15.8862 19.3241 16.321C18.8913 16.7557 18.3043 17 17.6923 17ZM2.30769 1.54545C2.10368 1.54545 1.90802 1.62686 1.76376 1.77178C1.61951 1.91669 1.53846 2.11324 1.53846 2.31818V14.6818C1.53846 14.8867 1.61951 15.0833 1.76376 15.2282C1.90802 15.3731 2.10368 15.4545 2.30769 15.4545H17.6923C17.8963 15.4545 18.092 15.3731 18.2362 15.2282C18.3805 15.0833 18.4615 14.8867 18.4615 14.6818V2.31818C18.4615 2.11324 18.3805 1.91669 18.2362 1.77178C18.092 1.62686 17.8963 1.54545 17.6923 1.54545H2.30769Z" fill="#939191"/>
<path d="M13.8458 7.72717C13.3894 7.72717 12.9432 7.59121 12.5637 7.33649C12.1842 7.08176 11.8884 6.71972 11.7137 6.29612C11.5391 5.87253 11.4934 5.40643 11.5824 4.95674C11.6715 4.50706 11.8913 4.094 12.214 3.7698C12.5367 3.4456 12.9479 3.22481 13.3956 3.13536C13.8432 3.04592 14.3072 3.09182 14.7289 3.26728C15.1506 3.44274 15.511 3.73987 15.7646 4.12109C16.0181 4.50231 16.1535 4.95051 16.1535 5.409C16.1535 6.02382 15.9103 6.61345 15.4776 7.04819C15.0448 7.48294 14.4578 7.72717 13.8458 7.72717ZM13.8458 4.63627C13.6936 4.63627 13.5449 4.68159 13.4184 4.7665C13.2919 4.85141 13.1933 4.97209 13.1351 5.11329C13.0769 5.25448 13.0616 5.40985 13.0913 5.55975C13.121 5.70964 13.1943 5.84733 13.3019 5.9554C13.4094 6.06346 13.5465 6.13706 13.6957 6.16687C13.8449 6.19669 13.9996 6.18139 14.1402 6.1229C14.2807 6.06442 14.4008 5.96537 14.4854 5.8383C14.5699 5.71123 14.615 5.56183 14.615 5.409C14.615 5.20406 14.534 5.00751 14.3897 4.8626C14.2454 4.71768 14.0498 4.63627 13.8458 4.63627Z" fill="#939191"/>
<path d="M17.6923 17C17.5656 16.9994 17.441 16.9673 17.3296 16.9066C17.2182 16.846 17.1235 16.7586 17.0538 16.6523L13.7153 11.6296C13.645 11.5244 13.5499 11.4382 13.4386 11.3786C13.3273 11.319 13.203 11.2879 13.0769 11.2879C12.9507 11.2879 12.8265 11.319 12.7152 11.3786C12.6038 11.4382 12.5088 11.5244 12.4384 11.6296L12.1769 12.0159C12.0567 12.1659 11.885 12.2653 11.6956 12.2948C11.5062 12.3243 11.3127 12.2817 11.1529 12.1754C10.9931 12.069 10.8787 11.9066 10.8319 11.7199C10.7851 11.5331 10.8094 11.3356 10.9 11.166L11.1538 10.7719C11.3643 10.4531 11.6501 10.1916 11.9856 10.0107C12.3212 9.82978 12.6961 9.73511 13.0769 9.73511C13.4577 9.73511 13.8326 9.82978 14.1681 10.0107C14.5037 10.1916 14.7895 10.4531 15 10.7719L18.3307 15.8023C18.4421 15.9727 18.4819 16.1803 18.4416 16.38C18.4012 16.5797 18.284 16.7554 18.1153 16.8687C17.9915 16.9558 17.8435 17.0018 17.6923 17Z" fill="#939191"/>
<path d="M2.30778 16.9999C2.16039 16.9995 2.01621 16.9566 1.8924 16.8762C1.72126 16.7654 1.60086 16.5909 1.5576 16.391C1.51434 16.1911 1.55175 15.9821 1.66163 15.8099L6.45394 8.37626C6.66193 8.05342 6.94659 7.78763 7.2823 7.60282C7.61801 7.41802 7.99421 7.32001 8.37702 7.31763C8.75771 7.31748 9.13253 7.41195 9.46807 7.59262C9.80361 7.77329 10.0894 8.03453 10.3001 8.35308L15.2386 15.8021C15.3292 15.9718 15.3534 16.1693 15.3066 16.3561C15.2599 16.5428 15.1454 16.7052 14.9856 16.8116C14.8258 16.9179 14.6323 16.9605 14.4429 16.931C14.2535 16.9015 14.0819 16.8021 13.9616 16.6521L9.01548 9.2108C8.94579 9.10451 8.85105 9.01715 8.73967 8.95648C8.62829 8.89582 8.50371 8.86374 8.37702 8.86308C8.24961 8.86458 8.12458 8.89784 8.01314 8.95988C7.9017 9.02192 7.80735 9.1108 7.73855 9.21853L2.95394 16.6444C2.88444 16.7532 2.78886 16.8428 2.67598 16.9049C2.56309 16.967 2.43649 16.9997 2.30778 16.9999Z" fill="#939191"/>
</svg>
