<svg width="20" height="20" viewBox="0 0 20 20" fill="none" xmlns="http://www.w3.org/2000/svg">
<path d="M6.875 11.25H1.875C0.839379 11.25 0 12.0894 0 13.125V18.125C0 19.1606 0.839379 20 1.875 20H6.875C7.91062 20 8.75 19.1606 8.75 18.125V13.125C8.75 12.0894 7.91062 11.25 6.875 11.25ZM6.875 17.5C6.875 17.845 6.595 18.125 6.25 18.125H2.5C2.155 18.125 1.875 17.845 1.875 17.5V13.75C1.875 13.405 2.155 13.125 2.5 13.125H6.25C6.595 13.125 6.875 13.405 6.875 13.75V17.5ZM6.875 0H1.875C0.839379 0 0 0.839379 0 1.875V6.875C0 7.91062 0.839379 8.75 1.875 8.75H6.875C7.91062 8.75 8.75 7.91062 8.75 6.875V1.875C8.75 0.839379 7.91062 0 6.875 0ZM6.875 6.25C6.875 6.595 6.595 6.875 6.25 6.875H2.5C2.155 6.875 1.875 6.595 1.875 6.25V2.5C1.875 2.155 2.155 1.875 2.5 1.875H6.25C6.595 1.875 6.875 2.155 6.875 2.5V6.25ZM18.125 0H13.125C12.0894 0 11.25 0.839379 11.25 1.875V6.875C11.25 7.91062 12.0894 8.75 13.125 8.75H18.125C19.1606 8.75 20 7.91062 20 6.875V1.875C20 0.839379 19.1606 0 18.125 0ZM18.125 6.25C18.125 6.595 17.845 6.875 17.5 6.875H13.75C13.405 6.875 13.125 6.595 13.125 6.25V2.5C13.125 2.155 13.405 1.875 13.75 1.875H17.5C17.845 1.875 18.125 2.155 18.125 2.5V6.25ZM18.125 11.25H13.125C12.0894 11.25 11.25 12.0894 11.25 13.125V18.125C11.25 19.1606 12.0894 20 13.125 20H18.125C19.1606 20 20 19.1606 20 18.125V13.125C20 12.0894 19.1606 11.25 18.125 11.25ZM18.125 17.5C18.125 17.845 17.845 18.125 17.5 18.125H13.75C13.405 18.125 13.125 17.845 13.125 17.5V13.75C13.125 13.405 13.405 13.125 13.75 13.125H17.5C17.845 13.125 18.125 13.405 18.125 13.75V17.5Z" fill="white"/>
</svg>
