<svg width="12" height="12" viewBox="0 0 12 12" fill="none" xmlns="http://www.w3.org/2000/svg">
<path d="M4.36341 0H1.09085C0.488392 0 0 0.488415 0 1.09091V4.36362C0 4.96611 0.488392 5.45453 1.09085 5.45453H4.36341C4.96588 5.45453 5.45427 4.96611 5.45427 4.36362V1.09091C5.45427 0.488415 4.96588 0 4.36341 0Z" fill="black"/>
<path d="M4.36341 6.54532H1.09085C0.488392 6.54532 0 7.03373 0 7.63623V10.9089C0 11.5114 0.488392 11.9998 1.09085 11.9998H4.36341C4.96588 11.9998 5.45427 11.5114 5.45427 10.9089V7.63623C5.45427 7.03373 4.96588 6.54532 4.36341 6.54532Z" fill="black"/>
<path d="M10.9091 0H7.63659C7.03412 0 6.54573 0.488415 6.54573 1.09091V4.36362C6.54573 4.96611 7.03412 5.45453 7.63659 5.45453H10.9091C11.5116 5.45453 12 4.96611 12 4.36362V1.09091C12 0.488415 11.5116 0 10.9091 0Z" fill="black"/>
<path d="M7.09116 9.81804C7.23582 9.81804 7.37455 9.76057 7.47683 9.65828C7.57912 9.55599 7.63659 9.41725 7.63659 9.27258V7.09077C7.63659 6.94611 7.57912 6.80737 7.47683 6.70508C7.37455 6.60279 7.23582 6.54532 7.09116 6.54532C6.9465 6.54532 6.80777 6.60279 6.70548 6.70508C6.6032 6.80737 6.54573 6.94611 6.54573 7.09077V9.27258C6.54573 9.41725 6.6032 9.55599 6.70548 9.65828C6.80777 9.76057 6.9465 9.81804 7.09116 9.81804Z" fill="black"/>
<path d="M11.4546 7.63623H9.81829V7.09077C9.81829 6.94611 9.76083 6.80737 9.65854 6.70508C9.55625 6.60279 9.41752 6.54532 9.27287 6.54532C9.12821 6.54532 8.98948 6.60279 8.88719 6.70508C8.7849 6.80737 8.72744 6.94611 8.72744 7.09077V10.9089H7.09116C6.9465 10.9089 6.80777 10.9664 6.70548 11.0687C6.6032 11.171 6.54573 11.3097 6.54573 11.4544C6.54573 11.5991 6.6032 11.7378 6.70548 11.8401C6.80777 11.9424 6.9465 11.9998 7.09116 11.9998H9.27287C9.41752 11.9998 9.55625 11.9424 9.65854 11.8401C9.76083 11.7378 9.81829 11.5991 9.81829 11.4544V8.72713H11.4546C11.5992 8.72713 11.738 8.66966 11.8402 8.56737C11.9425 8.46508 12 8.32634 12 8.18168C12 8.03702 11.9425 7.89828 11.8402 7.79598C11.738 7.69369 11.5992 7.63623 11.4546 7.63623Z" fill="black"/>
<path d="M11.4543 9.81819C11.3097 9.81819 11.1709 9.87566 11.0687 9.97795C10.9664 10.0802 10.9089 10.219 10.9089 10.3636V11.4545C10.9089 11.5992 10.9664 11.7379 11.0687 11.8402C11.1709 11.9425 11.3097 12 11.4543 12C11.599 12 11.7377 11.9425 11.84 11.8402C11.9423 11.7379 11.9998 11.5992 11.9998 11.4545V10.3636C11.9998 10.219 11.9423 10.0802 11.84 9.97795C11.7377 9.87566 11.599 9.81819 11.4543 9.81819Z" fill="black"/>
</svg>
