<svg width="22" height="22" viewBox="0 0 22 22" fill="none" xmlns="http://www.w3.org/2000/svg">
<path d="M18.8152 3.01125C17.803 2.06189 16.5991 1.30725 15.2724 0.790533C13.9456 0.273818 12.5222 0.00518015 11.0835 0H11C8.08259 0 5.28471 1.07614 3.22181 2.99169C1.15892 4.90725 0 7.50529 0 10.2143V15.7143C0 16.3394 0.267443 16.939 0.743496 17.381C1.21955 17.8231 1.86521 18.0714 2.53845 18.0714H4.23075C4.90399 18.0714 5.54966 17.8231 6.02571 17.381C6.50176 16.939 6.76921 16.3394 6.76921 15.7143V11.7857C6.76921 11.1606 6.50176 10.561 6.02571 10.119C5.54966 9.67691 4.90399 9.42857 4.23075 9.42857H1.73038C1.89356 7.79029 2.55626 6.22915 3.6408 4.9281C4.72534 3.62706 6.18679 2.64003 7.85386 2.0827C9.52093 1.52536 11.3245 1.42082 13.0533 1.78132C14.7821 2.14182 16.3644 2.95242 17.6147 4.11812C19.143 5.54449 20.083 7.42408 20.2706 9.42857H17.7692C17.0959 9.42857 16.4503 9.67691 15.9742 10.119C15.4982 10.561 15.2307 11.1606 15.2307 11.7857V15.7143C15.2307 16.3394 15.4982 16.939 15.9742 17.381C16.4503 17.8231 17.0959 18.0714 17.7692 18.0714H20.3076C20.3076 18.6966 20.0402 19.2961 19.5641 19.7382C19.0881 20.1802 18.4424 20.4286 17.7692 20.4286H11.8461C11.6217 20.4286 11.4065 20.5114 11.2478 20.6587C11.0891 20.8061 11 21.0059 11 21.2143C11 21.4227 11.0891 21.6225 11.2478 21.7699C11.4065 21.9172 11.6217 22 11.8461 22H17.7692C18.8912 22 19.9673 21.5861 20.7608 20.8493C21.5542 20.1126 21.9999 19.1133 21.9999 18.0714V10.2143C22.0054 8.87815 21.727 7.55414 21.1805 6.31811C20.634 5.08209 19.8302 3.95834 18.8152 3.01125ZM4.23075 11C4.45517 11 4.67039 11.0828 4.82907 11.2301C4.98776 11.3775 5.0769 11.5773 5.0769 11.7857V15.7143C5.0769 15.9227 4.98776 16.1225 4.82907 16.2699C4.67039 16.4172 4.45517 16.5 4.23075 16.5H2.53845C2.31404 16.5 2.09882 16.4172 1.94013 16.2699C1.78145 16.1225 1.6923 15.9227 1.6923 15.7143V11H4.23075ZM17.7692 16.5C17.5448 16.5 17.3295 16.4172 17.1708 16.2699C17.0122 16.1225 16.923 15.9227 16.923 15.7143V11.7857C16.923 11.5773 17.0122 11.3775 17.1708 11.2301C17.3295 11.0828 17.5448 11 17.7692 11H20.3076V16.5H17.7692Z" fill="black"/>
</svg>
