<svg width="22" height="20" viewBox="0 0 22 20" fill="none" xmlns="http://www.w3.org/2000/svg">
<path d="M15.7414 0C13.8363 0 12.1455 0.792981 11 2.15595C9.85448 0.792981 8.16371 0 6.25862 0C4.59935 0.00211705 3.00861 0.698135 1.83532 1.93539C0.662041 3.17264 0.00200759 4.85011 0 6.59984C0 13.8337 10.0337 19.6135 10.4604 19.8565C10.6263 19.9507 10.8117 20 11 20C11.1883 20 11.3737 19.9507 11.5396 19.8565C11.9663 19.6135 22 13.8337 22 6.59984C21.998 4.85011 21.338 3.17264 20.1647 1.93539C18.9914 0.698135 17.4007 0.00211705 15.7414 0ZM15.2208 14.2357C13.9001 15.4175 12.4883 16.4811 11 17.4156C9.51173 16.4811 8.09992 15.4175 6.77922 14.2357C4.72431 12.3767 2.27586 9.54177 2.27586 6.59984C2.27586 5.48596 2.69547 4.4177 3.44238 3.63006C4.1893 2.84243 5.20233 2.39994 6.25862 2.39994C7.94655 2.39994 9.35948 3.33992 9.94647 4.85388C10.0319 5.07459 10.1777 5.26345 10.3654 5.3964C10.553 5.52935 10.7739 5.60035 11 5.60035C11.2261 5.60035 11.447 5.52935 11.6346 5.3964C11.8223 5.26345 11.9681 5.07459 12.0535 4.85388C12.6405 3.33992 14.0534 2.39994 15.7414 2.39994C16.7977 2.39994 17.8107 2.84243 18.5576 3.63006C19.3045 4.4177 19.7241 5.48596 19.7241 6.59984C19.7241 9.54177 17.2757 12.3767 15.2208 14.2357Z" fill="black"/>
</svg>
