<svg width="22" height="16" viewBox="0 0 22 16" fill="none" xmlns="http://www.w3.org/2000/svg">
<path d="M20.7419 5.648C21.0968 5.57447 21.4159 5.37833 21.6452 5.09279C21.8745 4.80724 21.9998 4.44982 22 4.081V1.6C22 1.17565 21.8344 0.768687 21.5397 0.468629C21.245 0.168571 20.8453 0 20.4286 0H1.57143C1.15466 0 0.754964 0.168571 0.460264 0.468629C0.165564 0.768687 2.9943e-06 1.17565 2.9943e-06 1.6V4.081C0.000201605 4.44982 0.125536 4.80724 0.354798 5.09279C0.584059 5.37833 0.903169 5.57447 1.25813 5.648C1.78888 5.76007 2.26549 6.05496 2.60765 6.48301C2.94982 6.91106 3.13663 7.4461 3.13663 7.998C3.13663 8.5499 2.94982 9.08494 2.60765 9.51299C2.26549 9.94104 1.78888 10.2359 1.25813 10.348C0.902507 10.4217 0.582891 10.6184 0.353554 10.9048C0.124216 11.1911 -0.000705161 11.5495 2.9943e-06 11.919V14.4C2.9943e-06 14.8243 0.165564 15.2313 0.460264 15.5314C0.754964 15.8314 1.15466 16 1.57143 16H20.4286C20.8453 16 21.245 15.8314 21.5397 15.5314C21.8344 15.2313 22 14.8243 22 14.4V11.919C21.9998 11.5502 21.8745 11.1928 21.6452 10.9072C21.4159 10.6217 21.0968 10.4255 20.7419 10.352C20.2111 10.2399 19.7345 9.94504 19.3924 9.51699C19.0502 9.08894 18.8634 8.5539 18.8634 8.002C18.8634 7.4501 19.0502 6.91506 19.3924 6.48701C19.7345 6.05896 20.2111 5.76407 20.7419 5.652V5.648ZM1.57143 11.92C2.45899 11.7359 3.2568 11.2452 3.82981 10.5309C4.40281 9.81668 4.71581 8.92275 4.71581 8.0005C4.71581 7.07825 4.40281 6.18432 3.82981 5.47006C3.2568 4.75581 2.45899 4.26509 1.57143 4.081V1.6H7.07143V14.4H1.57143V11.92ZM20.4286 11.92V14.4H8.64286V1.6H20.4286V4.08C19.541 4.26409 18.7432 4.75481 18.1702 5.46906C17.5972 6.18332 17.2842 7.07725 17.2842 7.9995C17.2842 8.92175 17.5972 9.81568 18.1702 10.5299C18.7432 11.2442 19.541 11.7349 20.4286 11.919V11.92Z" fill="black"/>
</svg>
