<svg width="27" height="28" viewBox="0 0 27 28" fill="none" xmlns="http://www.w3.org/2000/svg">
<path d="M13.5 0.100098C10.83 0.100098 8.21987 0.891859 5.99981 2.37526C3.77974 3.85866 2.04942 5.96707 1.02763 8.43387C0.00584936 10.9007 -0.261496 13.6151 0.259405 16.2338C0.780305 18.8526 2.06606 21.258 3.95406 23.146C5.84207 25.034 8.24754 26.3198 10.8663 26.8407C13.485 27.3616 16.1994 27.0943 18.6662 26.0725C21.133 25.0507 23.2414 23.3204 24.7248 21.1003C26.2082 18.8802 27 16.2701 27 13.6001C26.996 10.0209 25.5724 6.58942 23.0416 4.05854C20.5107 1.52766 17.0792 0.104068 13.5 0.100098ZM7.44626 22.1713C8.1426 21.2192 9.05371 20.4448 10.1056 19.9109C11.1574 19.377 12.3204 19.0988 13.5 19.0988C14.6796 19.0988 15.8426 19.377 16.8944 19.9109C17.9463 20.4448 18.8574 21.2192 19.5538 22.1713C17.7845 23.4261 15.669 24.1001 13.5 24.1001C11.331 24.1001 9.21553 23.4261 7.44626 22.1713ZM10 12.6001C10 11.9079 10.2053 11.2312 10.5899 10.6556C10.9744 10.08 11.5211 9.63143 12.1606 9.36652C12.8002 9.10161 13.5039 9.0323 14.1828 9.16735C14.8618 9.3024 15.4854 9.63574 15.9749 10.1252C16.4644 10.6147 16.7977 11.2383 16.9328 11.9173C17.0678 12.5962 16.9985 13.2999 16.7336 13.9395C16.4687 14.579 16.0201 15.1257 15.4445 15.5102C14.8689 15.8948 14.1922 16.1001 13.5 16.1001C12.5717 16.1001 11.6815 15.7313 11.0251 15.075C10.3688 14.4186 10 13.5284 10 12.6001ZM21.75 20.0926C20.7778 18.856 19.5385 17.8552 18.125 17.1651C19.0259 16.2528 19.6368 15.0945 19.881 13.8359C20.1252 12.5773 19.9917 11.2745 19.4974 10.0916C19.003 8.90863 18.1699 7.89829 17.1027 7.18767C16.0356 6.47705 14.7821 6.09789 13.5 6.09789C12.2179 6.09789 10.9644 6.47705 9.8973 7.18767C8.83015 7.89829 7.997 8.90863 7.50264 10.0916C7.00828 11.2745 6.8748 12.5773 7.11899 13.8359C7.36319 15.0945 7.97414 16.2528 8.87501 17.1651C7.46147 17.8552 6.22224 18.856 5.25001 20.0926C4.02881 18.5445 3.26819 16.6839 3.0552 14.7237C2.84221 12.7635 3.18546 10.7829 4.04567 9.00869C4.90587 7.23447 6.24827 5.73832 7.91918 4.69149C9.5901 3.64467 11.522 3.08948 13.4938 3.08948C15.4655 3.08948 17.3974 3.64467 19.0683 4.69149C20.7392 5.73832 22.0816 7.23447 22.9418 9.00869C23.8021 10.7829 24.1453 12.7635 23.9323 14.7237C23.7193 16.6839 22.9587 18.5445 21.7375 20.0926H21.75Z" fill="black"/>
</svg>
