<svg width="23" height="30" viewBox="0 0 23 30" fill="none" xmlns="http://www.w3.org/2000/svg">
<path d="M11.5 6.1001C10.4122 6.1001 9.34883 6.42267 8.44436 7.02701C7.53989 7.63136 6.83495 8.49035 6.41866 9.49534C6.00238 10.5003 5.89346 11.6062 6.10568 12.6731C6.3179 13.74 6.84172 14.72 7.61091 15.4892C8.3801 16.2584 9.36011 16.7822 10.427 16.9944C11.4939 17.2066 12.5998 17.0977 13.6048 16.6814C14.6098 16.2652 15.4687 15.5602 16.0731 14.6557C16.6774 13.7513 17 12.6879 17 11.6001C16.9983 10.1419 16.4184 8.74393 15.3873 7.71284C14.3562 6.68175 12.9582 6.10175 11.5 6.1001ZM11.5 14.1001C11.0055 14.1001 10.5222 13.9535 10.1111 13.6788C9.69995 13.4041 9.37952 13.0136 9.1903 12.5568C9.00108 12.1 8.95157 11.5973 9.04804 11.1124C9.1445 10.6274 9.3826 10.182 9.73223 9.83233C10.0819 9.4827 10.5273 9.2446 11.0123 9.14813C11.4972 9.05167 11.9999 9.10118 12.4567 9.2904C12.9135 9.47962 13.304 9.80005 13.5787 10.2112C13.8534 10.6223 14 11.1056 14 11.6001C14 12.2631 13.7366 12.899 13.2678 13.3679C12.7989 13.8367 12.163 14.1001 11.5 14.1001ZM11.5 0.100098C8.45103 0.103406 5.52788 1.31607 3.37193 3.47202C1.21597 5.62798 0.00330871 8.55112 0 11.6001C0 21.2701 10.205 28.5251 10.64 28.8288C10.8921 29.0052 11.1923 29.0999 11.5 29.0999C11.8077 29.0999 12.1079 29.0052 12.36 28.8288C14.2928 27.4044 16.0612 25.7693 17.6325 23.9538C21.1437 19.9213 23 15.6463 23 11.6001C22.9967 8.55112 21.784 5.62798 19.6281 3.47202C17.4721 1.31607 14.549 0.103406 11.5 0.100098ZM15.4125 21.9388C14.2207 23.3079 12.9115 24.5702 11.5 25.7113C10.0885 24.5702 8.77933 23.3079 7.5875 21.9388C5.5 19.5213 3 15.7638 3 11.6001C3 9.34576 3.89553 7.18375 5.48959 5.58969C7.08365 3.99563 9.24566 3.1001 11.5 3.1001C13.7543 3.1001 15.9163 3.99563 17.5104 5.58969C19.1045 7.18375 20 9.34576 20 11.6001C20 15.7638 17.5 19.5213 15.4125 21.9388Z" fill="black"/>
</svg>
