<svg width="25" height="27" viewBox="0 0 25 27" fill="none" xmlns="http://www.w3.org/2000/svg">
<path d="M24.195 10.206L14.2013 0.772266L14.1812 0.753516C13.722 0.333207 13.122 0.100098 12.4994 0.100098C11.8768 0.100098 11.2768 0.333207 10.8175 0.753516L10.7963 0.772266L0.805 10.206C0.551625 10.4404 0.349354 10.7246 0.21084 11.0408C0.0723253 11.357 0.00054854 11.6983 0 12.0435V23.5998C0 24.2628 0.263392 24.8987 0.732233 25.3675C1.20107 25.8364 1.83696 26.0998 2.5 26.0998H8.5C9.16304 26.0998 9.79893 25.8364 10.2678 25.3675C10.7366 24.8987 11 24.2628 11 23.5998V18.0998H14V23.5998C14 24.2628 14.2634 24.8987 14.7322 25.3675C15.2011 25.8364 15.837 26.0998 16.5 26.0998H22.5C23.163 26.0998 23.7989 25.8364 24.2678 25.3675C24.7366 24.8987 25 24.2628 25 23.5998V12.0435C24.9995 11.6983 24.9277 11.357 24.7892 11.0408C24.6506 10.7246 24.4484 10.4404 24.195 10.206ZM22 23.0998H17V17.5998C17 17.2715 16.9353 16.9464 16.8097 16.6431C16.6841 16.3397 16.4999 16.0641 16.2678 15.832C16.0356 15.5999 15.76 15.4157 15.4567 15.2901C15.1534 15.1644 14.8283 15.0998 14.5 15.0998H10.5C9.83696 15.0998 9.20107 15.3632 8.73223 15.832C8.26339 16.3008 8 16.9367 8 17.5998V23.0998H3V12.2598L12.5 3.29102L22 12.2598V23.0998Z" fill="black"/>
</svg>
