<svg width="32" height="33" viewBox="0 0 32 33" fill="none" xmlns="http://www.w3.org/2000/svg">
<path d="M27 5.6001H5.00002C4.33698 5.6001 3.7011 5.86349 3.23225 6.33233C2.76341 6.80117 2.50002 7.43706 2.50002 8.1001V28.1001C2.49802 28.5762 2.63325 29.0428 2.88952 29.444C3.14578 29.8453 3.51223 30.1642 3.94502 30.3626C4.27724 30.5181 4.63944 30.5992 5.00627 30.6001C5.5933 30.5986 6.16091 30.3896 6.60877 30.0101L6.63252 29.9901L10.5 26.6001H27C27.6631 26.6001 28.2989 26.3367 28.7678 25.8679C29.2366 25.399 29.5 24.7631 29.5 24.1001V8.1001C29.5 7.43706 29.2366 6.80117 28.7678 6.33233C28.2989 5.86349 27.6631 5.6001 27 5.6001ZM26.5 23.6001H10.3125C9.72398 23.6001 9.1543 23.8077 8.70377 24.1863L8.68002 24.2063L5.50002 26.9926V8.6001H26.5V23.6001ZM10.5 13.6001C10.5 13.2023 10.6581 12.8207 10.9394 12.5394C11.2207 12.2581 11.6022 12.1001 12 12.1001H20C20.3978 12.1001 20.7794 12.2581 21.0607 12.5394C21.342 12.8207 21.5 13.2023 21.5 13.6001C21.5 13.9979 21.342 14.3795 21.0607 14.6608C20.7794 14.9421 20.3978 15.1001 20 15.1001H12C11.6022 15.1001 11.2207 14.9421 10.9394 14.6608C10.6581 14.3795 10.5 13.9979 10.5 13.6001ZM10.5 18.6001C10.5 18.2023 10.6581 17.8207 10.9394 17.5394C11.2207 17.2581 11.6022 17.1001 12 17.1001H20C20.3978 17.1001 20.7794 17.2581 21.0607 17.5394C21.342 17.8207 21.5 18.2023 21.5 18.6001C21.5 18.9979 21.342 19.3795 21.0607 19.6608C20.7794 19.9421 20.3978 20.1001 20 20.1001H12C11.6022 20.1001 11.2207 19.9421 10.9394 19.6608C10.6581 19.3795 10.5 18.9979 10.5 18.6001Z" fill="black"/>
</svg>
