<svg width="20" height="19" viewBox="0 0 20 19" fill="none" xmlns="http://www.w3.org/2000/svg">
<path fill-rule="evenodd" clip-rule="evenodd" d="M4.94203 9.63623C4.31578 9.63623 3.80811 10.1439 3.80811 10.7702C3.80811 11.3964 4.31578 11.9041 4.94202 11.9041H11.6968L12.9209 10.3624C12.7571 9.93763 12.345 9.63623 11.8625 9.63623H4.94203Z" fill="white"/>
<path fill-rule="evenodd" clip-rule="evenodd" d="M10.6813 13.1247C10.6191 13.1142 10.5551 13.1086 10.4898 13.1086H4.94203C4.31578 13.1086 3.80811 13.6163 3.80811 14.2426C3.80811 14.8688 4.31578 15.3765 4.94203 15.3765H8.89342L10.6813 13.1247Z" fill="white"/>
<path d="M16.5218 7.05783L14.5835 8.76361L14.5642 5.43001C14.5578 4.32997 13.6643 3.44157 12.5642 3.44157H3.98446C2.87989 3.44157 1.98446 4.337 1.98446 5.44157V15.0332C1.98446 16.1378 2.87989 17.0332 3.98446 17.0332H5.24574L3.29205 18.7936H2C0.895431 18.7936 0 17.8982 0 16.7936V3.7085C0 2.60393 0.895431 1.7085 2 1.7085H14.5218C15.6263 1.7085 16.5218 2.60393 16.5218 3.7085V7.05783Z" fill="white"/>
<path d="M11.3043 0H9.96563H5.21729V4.27128H11.3043V0Z" fill="white"/>
<rect x="3.47827" y="5.97974" width="9.56524" height="2.56277" rx="1.28138" fill="white"/>
<path fill-rule="evenodd" clip-rule="evenodd" d="M15.4959 9.53247L18.1588 12.2212L12.6915 17.6721L10.0286 14.9834L15.4959 9.53247ZM14.3374 11.9712C14.4678 11.8412 14.6785 11.8419 14.808 11.9727C14.9376 12.1034 14.9369 12.3148 14.8066 12.4448L11.9589 15.2839C11.8286 15.4139 11.6179 15.4132 11.4883 15.2824C11.3588 15.1516 11.3595 14.9402 11.4898 14.8102L14.3374 11.9712ZM16.0221 10.7215C15.8926 10.5907 15.6819 10.59 15.5515 10.72L15.355 10.9159C15.2247 11.0458 15.224 11.2572 15.3536 11.388C15.4831 11.5188 15.6938 11.5195 15.8242 11.3895L16.0206 11.1936C16.151 11.0637 16.1517 10.8523 16.0221 10.7215Z" fill="white"/>
<path fill-rule="evenodd" clip-rule="evenodd" d="M12.4251 17.9861L9.69899 15.3025L8.6958 18.9999L12.4251 17.9861ZM11.3383 17.7118L9.99268 16.3752L9.63656 17.6176L10.0731 18.0556L11.3383 17.7118Z" fill="white"/>
<rect width="3.78421" height="0.830027" transform="matrix(0.703692 0.710505 -0.708167 0.706045 16.5022 8.5061)" fill="white"/>
<path fill-rule="evenodd" clip-rule="evenodd" d="M19.2667 8.2038C18.5951 7.52574 17.5051 7.51515 16.8206 8.18003L19.4835 10.8687C20.1628 10.2089 20.1733 9.11923 19.5069 8.44635L19.2667 8.2038ZM19.907 9.67389L18.053 7.80189L17.6049 8.24868L19.4589 10.1207L19.907 9.67389Z" fill="white"/>
</svg>
