<svg width="13" height="24" viewBox="0 0 13 24" fill="none" xmlns="http://www.w3.org/2000/svg">
<path d="M12.5662 20.5402C12.848 20.822 13.0063 21.2042 13.0063 21.6027C13.0063 22.0012 12.848 22.3834 12.5662 22.6652C12.2844 22.947 11.9022 23.1053 11.5037 23.1053C11.1052 23.1053 10.723 22.947 10.4412 22.6652L0.441182 12.6652C0.301342 12.5258 0.190387 12.3603 0.114679 12.1779C0.0389713 11.9956 0 11.8001 0 11.6027C0 11.4053 0.0389713 11.2098 0.114679 11.0275C0.190387 10.8451 0.301342 10.6796 0.441182 10.5402L10.4412 0.540199C10.723 0.258407 11.1052 0.100098 11.5037 0.100098C11.9022 0.100098 12.2844 0.258407 12.5662 0.5402C12.848 0.821992 13.0063 1.20418 13.0063 1.6027C13.0063 2.00121 12.848 2.38341 12.5662 2.6652L3.62993 11.6014L12.5662 20.5402Z" fill="black"/>
</svg>
