<svg width="22" height="20" viewBox="0 0 22 20" fill="none" xmlns="http://www.w3.org/2000/svg">
<path d="M15.9343 0.0137882C14.7672 0.0620098 14.3839 0.188911 13.8827 0.69144C13.61 0.960469 13.3226 1.47569 13.2439 1.82847C13.1776 2.12034 13.1579 2.77769 13.1555 4.69644C13.153 6.82583 13.1702 7.12278 13.3275 7.55425C13.4405 7.86135 13.7378 8.25982 14.0842 8.56692C14.4675 8.90447 14.7377 9.03645 15.1849 9.10244C15.4576 9.14305 18.4747 9.16081 19.3248 9.12782C20.0865 9.0999 20.2314 9.07198 20.5926 8.8994C20.9439 8.72681 21.1994 8.51108 21.4943 8.12784C21.6564 7.91972 21.7449 7.7446 21.8284 7.48318C21.9267 7.17354 21.9562 6.93243 21.9783 6.25732C22.0028 5.51114 21.9832 2.41983 21.9513 2.15588C21.8849 1.56959 21.654 1.06453 21.2805 0.686363C20.9439 0.34373 20.4648 0.125461 19.853 0.0366297C19.6147 0.00363541 16.632 -0.0141306 15.9343 0.0137882ZM19.9906 1.91476C20.0373 1.92999 20.1036 1.97822 20.1356 2.0239C20.1872 2.0975 20.1946 2.13811 20.2142 2.60003C20.2388 3.12794 20.224 6.80807 20.197 6.9172C20.1872 6.95274 20.1454 7.02634 20.1036 7.07964C20.0029 7.20146 19.9562 7.21161 19.2511 7.24715C18.4772 7.28775 15.3839 7.26999 15.2832 7.22684C15.18 7.18116 15.0571 7.01365 15.0129 6.85883C14.9417 6.6101 14.9195 5.90707 14.9343 4.26497C14.949 2.65587 14.9687 2.29293 15.0473 2.10512C15.0891 2.01121 15.1038 1.99852 15.2463 1.95791C15.3323 1.93253 15.519 1.90207 15.6615 1.89192C16.062 1.85893 19.8825 1.87923 19.9906 1.91476Z" fill="white"/>
<path d="M0.662188 1.56176C0.458264 1.5846 0.367358 1.62775 0.26171 1.75211C-0.124026 2.20642 -0.0429481 3.00589 0.411582 3.21401L0.541799 3.27239L2.22479 3.29523C4.33774 3.32315 10.3203 3.3003 10.4923 3.26223C10.6815 3.22163 10.9125 3.09472 10.969 3.00082C11.1188 2.74448 11.0918 2.05414 10.9174 1.79018C10.8387 1.67343 10.7577 1.6176 10.6152 1.58206C10.4727 1.54907 0.964389 1.52877 0.662188 1.56176Z" fill="white"/>
<path d="M0.674593 6.4098C0.583687 6.42249 0.478039 6.44787 0.436271 6.47071C0.249546 6.56969 0.0259658 6.94786 0.00385357 7.19659C-0.0182587 7.48846 0.052992 7.69404 0.264287 7.93515C0.414159 8.10266 0.448556 8.11535 0.84412 8.13819C1.32322 8.16357 9.49985 8.16357 10.1116 8.13819C10.6472 8.11281 10.7062 8.09758 10.8585 7.94276C11.0354 7.76003 11.1042 7.50369 11.0649 7.17882C11.0256 6.84888 10.8708 6.54178 10.6964 6.44279C10.6202 6.39965 10.3671 6.39711 5.72602 6.39457C3.03815 6.39203 0.763042 6.39965 0.674593 6.4098Z" fill="white"/>
<path d="M16.0575 10.9273C15.055 10.9629 14.7406 11.0162 14.3524 11.2243C14.0477 11.3892 13.7455 11.6963 13.5293 12.0644C13.3033 12.4451 13.2345 12.6278 13.1951 12.9654C13.1509 13.3384 13.1214 16.95 13.1583 17.45C13.2197 18.2597 13.3794 18.7064 13.7824 19.181C13.9421 19.3688 14.286 19.6581 14.4777 19.7647C14.6939 19.8865 14.9003 19.9297 15.3867 19.9601C15.9371 19.9957 18.4677 20.0134 19.3006 19.9881C20.0868 19.9652 20.2883 19.9297 20.6642 19.7495C21.2907 19.45 21.7452 18.8409 21.9074 18.0871C21.9885 17.6988 22.0106 16.9729 21.9958 14.9882C21.9811 13.0491 21.9737 12.9197 21.8632 12.577C21.7157 12.1202 21.3742 11.6024 21.0696 11.3715C20.8018 11.1684 20.2956 11.006 19.7551 10.9527C19.3964 10.9172 16.851 10.8994 16.0575 10.9273ZM19.4898 12.7522C20.1212 12.7775 20.1335 12.7852 20.1851 13.1202C20.2146 13.3131 20.2219 16.8841 20.1949 17.5262L20.1777 17.9196L20.077 18.0236C19.9762 18.1302 19.9738 18.1302 19.7428 18.148C19.1262 18.1962 16.0476 18.2114 15.4997 18.1708C15.1975 18.148 15.0747 18.0465 15.0108 17.7647C14.9346 17.4221 14.9224 16.9932 14.9371 15.1861C14.9518 13.3867 14.9641 13.0821 15.028 12.9476C15.0845 12.8258 15.2614 12.7775 15.7258 12.7572C16.2663 12.7293 18.8805 12.7268 19.4898 12.7522Z" fill="white"/>
<path d="M1.29119 12.4729C0.34528 12.4907 0.350194 12.4881 0.227348 12.6709C0.102045 12.8561 0.0332512 13.0769 0.0357081 13.2876C0.0381651 13.752 0.227348 14.0693 0.549204 14.1505C0.613084 14.1657 1.01848 14.1886 1.45089 14.2013C2.51228 14.2317 9.95429 14.2317 10.2983 14.2013C10.4506 14.1886 10.6103 14.1632 10.6594 14.1429C10.7921 14.0845 10.9346 13.9348 10.9985 13.7876C11.0501 13.6708 11.0574 13.6175 11.055 13.351C11.055 13.0871 11.0452 13.0211 10.9911 12.8612C10.9149 12.6404 10.8265 12.5135 10.7331 12.4881C10.6545 12.4653 2.55896 12.4526 1.29119 12.4729Z" fill="white"/>
<path d="M1.07038 17.3206C0.426672 17.3358 0.389818 17.3434 0.266972 17.4805C0.188351 17.5668 0.0728755 17.8434 0.0384786 18.0287C-0.0229444 18.3485 0.0483063 18.6226 0.247317 18.8434C0.37999 18.9906 0.4365 19.0135 0.738701 19.049C1.02125 19.082 9.84404 19.082 10.3035 19.049C10.6597 19.0236 10.7138 19.0033 10.8661 18.8409C10.9914 18.7064 11.0504 18.5363 11.0651 18.2749C11.0774 17.9932 11.0455 17.8003 10.9472 17.5871C10.8489 17.3764 10.8047 17.3536 10.4263 17.3231C10.1069 17.2978 2.1416 17.2978 1.07038 17.3206Z" fill="white"/>
</svg>
