<svg width="24" height="25" viewBox="0 0 24 25" fill="none" xmlns="http://www.w3.org/2000/svg">
<path d="M24 9.2201C24 9.60201 23.8483 9.96828 23.5782 10.2383C23.3082 10.5084 22.9419 10.6601 22.56 10.6601C22.1781 10.6601 21.8118 10.5084 21.5418 10.2383C21.2717 9.96828 21.12 9.60201 21.12 9.2201V5.0201L13.9788 12.1613C13.7083 12.4318 13.3414 12.5838 12.9588 12.5838C12.5762 12.5838 12.2093 12.4318 11.9388 12.1613C11.6683 11.8908 11.5163 11.5239 11.5163 11.1413C11.5163 10.7587 11.6683 10.3918 11.9388 10.1213L19.08 2.9801H14.88C14.4981 2.9801 14.1318 2.82838 13.8618 2.55833C13.5917 2.28828 13.44 1.92201 13.44 1.5401C13.44 1.15819 13.5917 0.791916 13.8618 0.521864C14.1318 0.251812 14.4981 0.100098 14.88 0.100098H22.56C22.9419 0.100098 23.3082 0.251812 23.5782 0.521864C23.8483 0.791916 24 1.15819 24 1.5401V9.2201ZM18.72 12.1001C18.3381 12.1001 17.9718 12.2518 17.7018 12.5219C17.4317 12.7919 17.28 13.1582 17.28 13.5401V21.2201H2.88V6.8201H10.56C10.9419 6.8201 11.3082 6.66838 11.5782 6.39833C11.8483 6.12828 12 5.76201 12 5.3801C12 4.99819 11.8483 4.63192 11.5782 4.36186C11.3082 4.09181 10.9419 3.9401 10.56 3.9401H2.4C1.76348 3.9401 1.15303 4.19295 0.702944 4.64304C0.252856 5.09313 0 5.70358 0 6.3401V21.7001C0 22.3366 0.252856 22.9471 0.702944 23.3972C1.15303 23.8472 1.76348 24.1001 2.4 24.1001H17.76C18.3965 24.1001 19.007 23.8472 19.4571 23.3972C19.9071 22.9471 20.16 22.3366 20.16 21.7001V13.5401C20.16 13.1582 20.0083 12.7919 19.7382 12.5219C19.4682 12.2518 19.1019 12.1001 18.72 12.1001Z" fill="#C2C2C2"/>
</svg>
