<svg width="257" height="67" viewBox="0 0 257 67" fill="none" xmlns="http://www.w3.org/2000/svg">
<path d="M96.2371 56.7042C96.2017 56.6326 96.1332 56.5838 96.0546 56.5749C95.9765 56.566 95.8989 56.5976 95.8489 56.6598C90.5599 63.1114 81.2628 61.1073 77.1772 54.32C77.0835 54.1586 76.9831 54.1556 76.8764 54.3101C73.1012 59.7597 63.2316 64 58.4618 57.2817C58.3585 57.1371 58.2449 57.1272 58.1222 57.2521C55.5247 59.8747 52.5226 60.9627 49.1162 60.515C45.0354 59.9769 42.2551 57.1879 42.5026 52.8934C42.6253 50.7412 43.1479 46.1308 44.0698 39.0621C44.1024 38.8217 44.0005 38.7166 43.7641 38.7462L42.2502 38.9288C42.0527 38.952 41.9528 39.0636 41.9494 39.2645C41.6097 53.6388 21.788 65.3722 9.55049 66.8926C0.568855 68.0082 -2.99275 60.2188 2.86885 53.5351C10.4288 44.9165 21.9384 39.4669 32.9483 37.3492C33.1618 37.3097 33.1944 37.2095 33.0454 37.0481C30.9637 34.7873 27.2517 34.1357 23.8211 32.9313C18.0711 30.9173 13.4081 28.4344 14.4659 21.2867C15.6935 12.9692 26.0872 4.48873 33.1279 1.2555C35.2872 0.263319 38.7177 -0.64001 40.8528 0.608856C43.6137 2.21807 43.5458 5.99922 42.2842 8.73882C39.745 14.2477 35.9762 18.6557 30.9783 21.963C30.8327 22.0578 30.6416 22.0257 30.5367 21.8889L28.9452 19.8059C28.8253 19.6514 28.8447 19.5181 29.0034 19.406C32.3384 17.0697 34.5448 13.9085 35.622 9.92352C37.1407 4.29622 30.9686 6.29539 28.7851 7.84043C25.4224 10.2148 21.5891 14.2773 20.8758 18.5422C20.0703 23.3205 23.0496 25.3986 26.9654 26.8548C31.3616 28.4936 38.708 30.3497 41.2312 35.6413C41.2958 35.7761 41.4011 35.8387 41.5466 35.8289L44.1912 35.6709C44.343 35.661 44.4255 35.5806 44.4386 35.429C44.5551 34.2098 44.492 32.3883 45.4042 31.5245C47.2675 29.7573 51.0523 29.6635 53.3281 30.2213C53.4761 30.2559 53.5751 30.3985 53.5561 30.552C52.7215 37.2688 51.8821 43.944 51.0378 50.5783C50.1547 57.5335 56.8897 54.705 57.3555 50.4006C58.3065 41.6867 59.3061 32.9757 60.3542 24.2682C61.0335 18.636 61.873 12.8162 68.4673 12.2139C73.4652 11.7598 77.4004 13.833 77.4683 19.332C77.5605 27.0374 72.6742 33.3953 67.2688 38.1489C67.1489 38.254 67.0795 38.3873 67.0601 38.5487C66.6074 42.3758 66.1658 46.1999 65.7354 50.0205C64.6097 60.0806 75.9204 52.4146 75.8719 47.3105C75.7555 34.6343 86.8479 27.0374 98.4837 30.7396C98.6594 30.7939 98.8486 30.7816 99.0175 30.7051C101.143 29.7178 103.351 29.5352 105.641 30.1571C106.081 30.2791 106.27 30.5703 106.209 31.0309C105.371 37.3557 104.557 43.6577 103.768 49.9366C103.574 51.4915 103.419 56.0427 106.694 54.5125C109.484 53.2044 111.173 49.0876 111.905 46.1999C111.926 46.114 111.994 46.0484 112.08 46.0326C112.167 46.0168 112.256 46.0533 112.308 46.1259L114.521 49.2209C114.595 49.326 114.679 49.3344 114.773 49.2456C119.329 45.0349 124.182 41.0218 128.486 36.5792C131.698 33.262 134.58 27.847 133.712 23.3205C132.12 15.0375 120.314 17.0317 121.882 25.907C121.92 26.1307 121.828 26.2427 121.605 26.2427H113.841C113.66 26.2427 113.561 26.1504 113.545 25.9663C112.206 10.506 135.866 7.60349 141.883 18.8384C148.812 31.7713 131.479 44.0872 123.221 50.4451C123.043 50.5833 123.062 50.6771 123.279 50.7264C125.333 51.2067 127.379 51.6115 129.417 51.9407C133.372 52.5775 135.88 53.3377 138.093 49.9366C139.166 48.2929 139.728 45.9185 140.131 43.4257C141.635 34.1111 150.403 28.5923 159.438 30.1868C169.09 31.8898 168.134 43.2974 158.497 43.5936C158.405 43.597 158.318 43.5531 158.264 43.4761C158.211 43.3991 158.201 43.3004 158.235 43.2135C159.249 40.6022 160.176 34.1506 155.43 34.6047C148.191 35.3007 146.463 48.9889 151.122 53.2143C156.241 57.8543 163.713 52.4344 167.542 48.7815C167.904 48.436 168.076 48.092 168.056 47.7499C167.314 34.2246 179.42 27.0374 191.352 30.7742C191.504 30.8201 191.653 30.8087 191.799 30.7396C192.88 31.3453 191.352 30.4583 195.306 33.073C196.098 35.5475 197.893 37.3443 198.228 40.6368C198.577 44.1055 198.029 47.7484 196.583 51.5656C196.195 52.5859 196.453 53.5485 197.359 54.4533C197.463 54.5584 197.587 54.6226 197.733 54.6458C200.538 55.1197 202.697 51.6791 203.633 49.4479C204.112 48.3062 204.494 46.5321 204.778 44.1267C205.299 39.6841 205.815 35.238 206.326 30.789C206.349 30.6211 206.439 30.5111 206.598 30.4583C209.097 29.6833 213.197 28.9971 214.585 32.0724C214.656 32.2239 214.756 32.2501 214.886 32.1514C219.243 28.8589 227.017 28.6812 230.321 33.8248C230.412 33.9664 230.512 33.9728 230.622 33.8445C234.083 29.823 238.293 28.6975 243.253 30.4681C247.998 32.1662 248.435 36.1349 247.731 40.8688C246.998 45.8247 246.285 49.364 246.494 52.8885C246.62 54.9518 248.333 55.174 249.818 54.3595C252.273 53.0119 253.995 48.9839 254.554 46.3381C254.592 46.1441 254.686 46.111 254.835 46.2394C255.946 47.2118 257.348 48.7322 256.921 50.2525C255.611 54.942 252.477 59.5573 247.581 60.3471C243.456 61.0185 239.434 59.2266 238.507 54.8334C238.284 53.7834 238.316 51.9936 238.604 49.4627C238.987 46.037 240.443 38.5537 238.856 36.3817C237.449 34.4566 234.475 34.9058 232.936 36.3422C231.554 37.6306 230.85 39.4521 230.612 41.5006C229.897 47.6511 229.15 53.7982 228.37 59.9424C228.351 60.1003 228.262 60.1793 228.104 60.1793H220.602C220.531 60.1798 220.463 60.1492 220.416 60.0944C220.368 60.0396 220.346 59.9661 220.354 59.893C221.124 53.1763 221.881 46.4334 222.625 39.6643C222.868 37.448 221.859 35.429 219.534 35.1329C215.463 34.6146 213.93 39.689 213.488 42.8433C212.689 48.5397 211.937 54.2445 211.232 59.9572C211.213 60.1053 211.129 60.1793 210.98 60.1793H203.216C203.028 60.1793 202.946 60.0855 202.969 59.8979L203.235 57.7062C203.265 57.4496 203.184 57.4066 202.993 57.5779C199.072 61.0728 194.847 61.4247 190.319 58.6343C190.189 58.5553 190.055 58.5503 189.916 58.6195C182.662 62.2426 173.331 61.4183 169.434 53.2883C169.401 53.2232 169.34 53.1777 169.27 53.1659C169.2 53.1541 169.129 53.1778 169.08 53.2291C162.345 60.2336 150.132 64.2714 142.81 55.7268C142.683 55.5787 142.568 55.5871 142.465 55.7515C137.36 63.9407 126.647 59.2118 119.907 58.2246C117.264 57.8361 114.672 58.422 112.133 59.9819C111.959 60.0905 111.831 60.0495 111.75 59.8585L110.794 57.5927C110.713 57.4017 110.589 57.3657 110.42 57.4841C106.956 59.9424 104.389 61.3245 100.017 59.9177C98.2896 59.3648 97.0295 58.2937 96.2371 56.7042ZM69.7774 18.5619C69.2922 19.4539 68.9802 20.4772 68.8409 21.6323C68.459 24.8507 68.1291 28.1283 67.851 31.4652C67.8253 31.7678 67.9156 31.8093 68.1228 31.5886C70.6411 28.8737 74.2415 23.3303 73.3099 19.332C72.8975 17.5599 70.6605 16.933 69.7774 18.5619ZM88.7548 54.5767C91.9282 55.3961 95.2763 51.8568 95.6111 48.9198C96.1124 44.5428 96.5947 40.158 97.0571 35.7647C97.0731 35.6003 97.0052 35.4883 96.8533 35.429C91.2926 33.1732 86.4936 36.7322 85.2466 42.2657C84.3732 46.1604 83.2038 53.1402 88.7548 54.5767ZM177.353 47.9473C176.975 57.3114 187.66 56.3833 188.528 48.0461C188.79 45.5434 189.688 41.6141 188.96 39.2744C188.169 36.7174 185.782 33.8297 182.812 35.5475C178.421 38.0897 177.552 43.1296 177.353 47.9473ZM7.94922 59.3451C10.3608 63.995 18.5515 60.5545 21.7686 58.9551C28.096 55.8107 36.0344 48.7124 34.8699 40.7108C34.8446 40.5395 34.6889 40.4205 34.5205 40.4442C25.9319 41.6783 11.3701 46.9157 7.87159 55.9095C7.38296 57.1598 7.40916 58.305 7.94922 59.3451Z" fill="black"/>
</svg>
