<svg width="22" height="22" viewBox="0 0 22 22" fill="none" xmlns="http://www.w3.org/2000/svg">
<path d="M10.0833 10.5217V0.956522C10.0833 0.702836 10.1799 0.459542 10.3518 0.280159C10.5237 0.100776 10.7569 0 11 0C11.2431 0 11.4763 0.100776 11.6482 0.280159C11.8201 0.459542 11.9167 0.702836 11.9167 0.956522V10.5217C11.9167 10.7754 11.8201 11.0187 11.6482 11.1981C11.4763 11.3775 11.2431 11.4783 11 11.4783C10.7569 11.4783 10.5237 11.3775 10.3518 11.1981C10.1799 11.0187 10.0833 10.7754 10.0833 10.5217ZM17.0007 1.11196C16.7971 0.977687 16.5511 0.932419 16.3158 0.98594C16.0805 1.03946 15.8748 1.18747 15.7432 1.39797C15.6116 1.60846 15.5647 1.86454 15.6126 2.11083C15.6606 2.35712 15.7994 2.57384 15.9993 2.71413C18.6473 4.51598 20.1667 7.36163 20.1667 10.5217C20.1667 13.0586 19.2009 15.4915 17.4818 17.2854C15.7627 19.0792 13.4312 20.087 11 20.087C8.56885 20.087 6.23727 19.0792 4.51819 17.2854C2.7991 15.4915 1.83333 13.0586 1.83333 10.5217C1.83333 7.36163 3.35271 4.51598 6.00073 2.71413C6.20055 2.57384 6.33944 2.35712 6.38736 2.11083C6.43527 1.86454 6.38838 1.60846 6.2568 1.39797C6.12523 1.18747 5.91955 1.03946 5.68423 0.98594C5.44891 0.932419 5.20286 0.977687 4.99927 1.11196C1.82187 3.2737 0 6.70283 0 10.5217C4.34724e-08 13.566 1.15893 16.4855 3.22183 18.6381C5.28473 20.7907 8.08262 22 11 22C13.9174 22 16.7153 20.7907 18.7782 18.6381C20.8411 16.4855 22 13.566 22 10.5217C22 6.70283 20.1781 3.2737 17.0007 1.11196Z" fill="black"/>
</svg>
