<svg width="159" height="135" viewBox="0 0 159 135" fill="none" xmlns="http://www.w3.org/2000/svg">
<path fill-rule="evenodd" clip-rule="evenodd" d="M30.1515 69.858L58.2436 134.945H76.9856L48.8935 69.858H30.1515ZM16.9503 39.2722H35.6923L18.742 0H0L16.9503 39.2722Z" fill="#70F1EB"/>
<path fill-rule="evenodd" clip-rule="evenodd" d="M18.7412 0H108.948C136.591 0 159 24.2105 159 54.0757C159 77.3789 145.356 97.2393 126.229 104.842L141.834 135H91.9326L66.4577 75.9751H51.534L48.8932 69.858H91.814L88.9609 85.3956L108.46 73.0874L130.067 85.3956L123.326 60.1632L139.976 39.2516H117.648L108.46 20.7983L99.2725 39.2516H69.5403L69.564 39.2722H50.6162L36.3061 6.11716H21.3816L18.7412 0Z" fill="#70F1EB"/>
</svg>
