<svg width="19" height="19" viewBox="0 0 19 19" fill="none" xmlns="http://www.w3.org/2000/svg">
<path d="M18.3214 8.82143H17.614C17.4512 6.90399 16.6155 5.10591 15.2548 3.7452C13.8941 2.38449 12.096 1.54882 10.1786 1.38598V0.678571C10.1786 0.498603 10.1071 0.326006 9.97982 0.198749C9.85257 0.0714921 9.67997 0 9.5 0C9.32003 0 9.14743 0.0714921 9.02018 0.198749C8.89292 0.326006 8.82143 0.498603 8.82143 0.678571V1.38598C6.90399 1.54882 5.10591 2.38449 3.7452 3.7452C2.38449 5.10591 1.54882 6.90399 1.38598 8.82143H0.678571C0.498603 8.82143 0.326006 8.89292 0.198749 9.02018C0.0714921 9.14743 0 9.32003 0 9.5C0 9.67997 0.0714921 9.85257 0.198749 9.97982C0.326006 10.1071 0.498603 10.1786 0.678571 10.1786H1.38598C1.54882 12.096 2.38449 13.8941 3.7452 15.2548C5.10591 16.6155 6.90399 17.4512 8.82143 17.614V18.3214C8.82143 18.5014 8.89292 18.674 9.02018 18.8013C9.14743 18.9285 9.32003 19 9.5 19C9.67997 19 9.85257 18.9285 9.97982 18.8013C10.1071 18.674 10.1786 18.5014 10.1786 18.3214V17.614C12.096 17.4512 13.8941 16.6155 15.2548 15.2548C16.6155 13.8941 17.4512 12.096 17.614 10.1786H18.3214C18.5014 10.1786 18.674 10.1071 18.8013 9.97982C18.9285 9.85257 19 9.67997 19 9.5C19 9.32003 18.9285 9.14743 18.8013 9.02018C18.674 8.89292 18.5014 8.82143 18.3214 8.82143ZM15.6071 10.1786H16.2518C16.093 11.7352 15.4021 13.1893 14.2957 14.2957C13.1893 15.4021 11.7352 16.093 10.1786 16.2518V15.6071C10.1786 15.4272 10.1071 15.2546 9.97982 15.1273C9.85257 15.0001 9.67997 14.9286 9.5 14.9286C9.32003 14.9286 9.14743 15.0001 9.02018 15.1273C8.89292 15.2546 8.82143 15.4272 8.82143 15.6071V16.2518C7.26485 16.093 5.8107 15.4021 4.70431 14.2957C3.59793 13.1893 2.90704 11.7352 2.74821 10.1786H3.39286C3.57283 10.1786 3.74542 10.1071 3.87268 9.97982C3.99994 9.85257 4.07143 9.67997 4.07143 9.5C4.07143 9.32003 3.99994 9.14743 3.87268 9.02018C3.74542 8.89292 3.57283 8.82143 3.39286 8.82143H2.74821C2.90704 7.26485 3.59793 5.8107 4.70431 4.70431C5.8107 3.59793 7.26485 2.90704 8.82143 2.74821V3.39286C8.82143 3.57283 8.89292 3.74542 9.02018 3.87268C9.14743 3.99994 9.32003 4.07143 9.5 4.07143C9.67997 4.07143 9.85257 3.99994 9.97982 3.87268C10.1071 3.74542 10.1786 3.57283 10.1786 3.39286V2.74821C11.7352 2.90704 13.1893 3.59793 14.2957 4.70431C15.4021 5.8107 16.093 7.26485 16.2518 8.82143H15.6071C15.4272 8.82143 15.2546 8.89292 15.1273 9.02018C15.0001 9.14743 14.9286 9.32003 14.9286 9.5C14.9286 9.67997 15.0001 9.85257 15.1273 9.97982C15.2546 10.1071 15.4272 10.1786 15.6071 10.1786ZM12.8929 9.5C12.8929 10.171 12.6939 10.827 12.3211 11.385C11.9482 11.9429 11.4184 12.3778 10.7984 12.6346C10.1784 12.8914 9.49624 12.9586 8.83809 12.8277C8.17994 12.6968 7.57539 12.3736 7.10089 11.8991C6.62639 11.4246 6.30325 10.8201 6.17234 10.1619C6.04142 9.50376 6.10861 8.82157 6.36541 8.20161C6.62221 7.58165 7.05708 7.05175 7.61503 6.67894C8.17298 6.30613 8.82896 6.10714 9.5 6.10714C10.3998 6.10714 11.2628 6.4646 11.8991 7.10089C12.5354 7.73717 12.8929 8.60016 12.8929 9.5Z" fill="white"/>
</svg>
