<svg width="76" height="29" viewBox="0 0 76 29" fill="none" xmlns="http://www.w3.org/2000/svg">
<path d="M51.7102 0L50.7008 1.15632C51.336 4.60013 51.7352 9.56136 51.7352 15.0791C51.7352 20.5921 51.3361 25.5533 50.7012 28.9969L50.6985 29C53.7022 28.2729 58.0329 27.8119 62.845 27.8119C67.6591 27.8119 71.9879 28.2729 74.992 29L76.0002 27.8437C72.9088 27.106 68.5383 26.6829 63.9832 26.6829C59.3817 26.6829 54.9658 27.1168 51.8691 27.8679H51.8687L51.6402 27.9233L51.6405 27.9229L51.6894 27.6611C52.3445 24.1089 52.7214 19.0462 52.7214 13.7725C52.7214 8.55416 52.3521 3.54439 51.7102 0ZM52.0313 0.0760728C52.664 3.63605 53.0262 8.60369 53.0262 13.7718C53.0262 18.945 52.664 23.9122 52.0313 27.4699C55.1364 26.745 59.4743 26.3323 63.9814 26.3323C68.4947 26.3323 72.8312 26.745 75.9344 27.4699C75.3041 23.9177 74.9415 18.948 74.9415 13.7718C74.9415 8.60094 75.3041 3.631 75.9344 0.0760728C72.8312 0.800898 68.4947 1.21358 63.9814 1.21358C59.4745 1.21358 55.1364 0.800898 52.0313 0.0760728Z" fill="#03534C"/>
<path d="M25.9605 7.2959C25.612 7.95708 25.4478 8.39058 25.4687 8.59944C25.6442 10.4853 25.7831 12.0909 25.882 13.4216C26.0877 12.8235 26.189 12.3926 26.189 12.1257L26.0988 9.72664C26.0345 8.15794 25.9883 7.34607 25.9605 7.2959ZM35.8243 7.2959C35.4739 7.95708 35.3096 8.39058 35.3306 8.59944C35.508 10.4853 35.644 12.0909 35.7435 13.4216C35.9492 12.8235 36.0528 12.3926 36.0528 12.1257L35.9626 9.72664C35.8958 8.15794 35.8521 7.34607 35.8243 7.2959ZM6.57693 7.29679C6.38293 7.59833 6.23977 7.81791 6.14763 7.96086C6.28119 9.59811 6.39201 11.3197 6.47731 13.129H7.7429H13.7624H14.8788H16.34C16.6471 13.129 16.9013 13.0152 17.1021 12.7907C17.1831 12.703 17.3193 12.592 17.508 12.4546C17.6976 12.3144 17.8318 12.1982 17.9084 12.1083C17.9449 12.4282 17.9726 12.6314 17.9935 12.7191C18.0554 12.9916 18.1644 13.129 18.317 13.129H20.0966H21.2786C21.3176 13.129 21.3755 13.0547 21.454 12.9039C21.5325 12.7509 21.5811 12.6766 21.606 12.6766C21.6206 12.6844 21.6505 12.7377 21.6919 12.8354C21.7333 12.9359 21.7702 12.9994 21.8028 13.0256C21.8925 13.0943 21.9803 13.129 22.0681 13.129H22.2696V13.1294H23.9965C24.0589 13.1294 24.1239 12.9312 24.1887 12.537C24.2487 12.1667 24.2786 11.8861 24.2786 11.6957L24.0591 9.17222L24.154 9.2013L24.5305 8.34973C24.3458 8.23861 24.1562 8.12219 23.9602 7.99488C23.9095 7.96082 23.8841 7.92153 23.8841 7.8763L23.9184 7.7519L23.9508 7.62481L23.893 7.55321C23.8633 7.52194 23.8145 7.57435 23.7497 7.7067L23.4083 8.38911C23.3781 8.45277 23.3641 8.51082 23.3641 8.57169C23.3641 8.65657 23.4059 8.73053 23.4888 8.79141L23.5352 8.81244C23.7916 10.5609 23.9208 11.688 23.9208 12.1928C23.9208 12.3145 23.9116 12.3727 23.893 12.3727H22.2696V12.3754H22.2435C22.1625 12.3754 22.119 12.3462 22.1122 12.2881C22.1098 12.2797 22.119 12.2059 22.1399 12.0657C22.2389 11.4414 22.2876 10.968 22.2876 10.6481L22.2782 10.5608C22.0267 10.8808 21.8277 11.156 21.6829 11.3833L21.6642 12.3749H19.9462V12.3753H18.4252L18.3541 12.3279C18.2429 12.238 18.1873 12.1159 18.1873 11.9623C18.4393 11.8221 18.7922 11.7507 19.2494 11.7507C19.3488 11.7507 19.4247 11.7564 19.4822 11.7614C19.6164 11.416 19.7111 11.1575 19.7638 10.9828C19.7346 10.9843 19.6626 10.987 19.5361 10.9917H19.3162C18.9886 10.9917 18.4621 10.8701 17.7397 10.6266C17.2595 10.4629 16.9106 10.3809 16.6893 10.3809C16.3037 10.3809 16.0055 10.6615 15.7979 11.2222C15.7496 11.3567 15.726 11.4653 15.726 11.5524L15.7354 11.5815C16.043 11.3224 16.2874 11.1931 16.4698 11.1931L16.8276 11.2799C17.3282 11.3988 17.7049 11.4888 17.9584 11.5524C17.3696 12.0997 16.837 12.3749 16.3588 12.3749H14.8788H13.7624H7.74293H7.40584C7.23718 12.3749 7.11981 12.3352 7.05741 12.2559L6.9996 12.1847C6.96059 12.092 6.88859 11.4096 6.7867 10.1375L6.57693 7.29679ZM19.7638 10.9828C19.783 10.9818 19.7872 10.9814 19.7642 10.9814C19.7641 10.9818 19.7639 10.9824 19.7638 10.9828ZM0.376652 8.23662L0.0578987 8.85818L0.828983 9.37369L1.04812 8.90025L1.77544 9.40279L2.0852 8.813L1.33247 8.28899L1.08522 8.75215L0.376652 8.23662ZM29.4401 8.23662L29.1213 8.85818L29.8924 9.37369L30.1115 8.90025L30.8389 9.40279L31.1486 8.813L30.3959 8.28899L30.1486 8.75215L29.4401 8.23662ZM37.8813 8.48766L37.5579 9.09044L38.3032 9.6037L38.6176 8.99288L37.8813 8.48766ZM20.4726 8.52928L20.1586 9.15084L20.9113 9.65606L21.1398 9.19336L21.8742 9.6959L22.1882 9.10073L21.4262 8.58254L21.184 9.04524L20.4726 8.52928ZM1.31403 10.0771L0.708966 10.982C0.235655 11.6906 0 12.2173 0 12.5585C0 12.7858 0.0997439 12.9471 0.295694 13.0476C0.457031 13.1297 0.642027 13.1557 0.847243 13.1295C1.17044 13.0848 1.44733 12.9575 1.68083 12.7487C1.80074 12.6454 1.92322 12.5002 2.048 12.307C2.22103 11.8893 2.30853 11.5899 2.30853 11.4129C2.30853 11.1695 2.22818 10.9634 2.06636 10.7914C2.01518 10.7361 1.89103 10.625 1.69019 10.458C1.50983 10.3022 1.38521 10.1749 1.31403 10.0771ZM30.3774 10.0771L29.7728 10.982C29.2995 11.6906 29.0638 12.2173 29.0638 12.5585C29.0638 12.7858 29.1635 12.9471 29.3595 13.0476C29.5208 13.1297 29.7054 13.1557 29.911 13.1295C30.2342 13.0848 30.5111 12.9575 30.7446 12.7487C30.8645 12.6454 30.9869 12.5002 31.1142 12.307C31.2872 11.8893 31.3724 11.5899 31.3724 11.4129C31.3724 11.1695 31.2915 10.9634 31.1302 10.7914C31.079 10.7361 30.9549 10.625 30.7536 10.458C30.5762 10.3022 30.4486 10.1749 30.3774 10.0771ZM41.8472 10.2552C41.6586 10.2552 41.4367 10.4882 41.1847 10.9511C40.9512 11.3878 40.8361 11.7289 40.8386 11.9718C40.8435 12.1996 40.8826 12.3981 40.9562 12.5723C41.0532 12.7924 41.1873 12.911 41.3652 12.9294C41.5704 12.9479 41.7227 12.9296 41.8226 12.8659C41.9747 12.771 42.1201 12.5431 42.2605 12.1835C42.2975 12.3024 42.3136 12.4562 42.3136 12.6466C42.3209 13.0381 42.1131 13.4719 41.6929 13.9399C41.3029 14.371 40.8986 14.678 40.4808 14.855C40.3974 14.8896 40.3006 14.9051 40.1949 14.9051C40.0954 14.9051 39.9503 14.879 39.7558 14.821C39.5599 14.7651 39.4163 14.7359 39.3242 14.7359C39.2618 14.7359 39.2293 14.7622 39.2293 14.8125C39.2293 14.9108 39.4787 15.0192 39.9749 15.1432C40.3654 15.2387 40.6724 15.2964 40.8937 15.3177C41.1457 15.3417 41.404 15.2018 41.6745 14.8975C41.889 14.6518 42.0647 14.3707 42.1987 14.0535C42.4547 13.4426 42.5843 12.7838 42.5843 12.0752C42.5843 11.6497 42.4916 11.2368 42.3073 10.837C42.1338 10.4483 41.9793 10.2552 41.8472 10.2552ZM4.33597 10.5904C4.2531 11.0321 4.19557 11.3365 4.16293 11.5002C4.74446 11.9843 5.03517 12.365 5.03517 12.6453C5.03517 13.0339 4.79736 13.492 4.31917 14.0208C3.83952 14.5502 3.43072 14.8142 3.09145 14.8142C2.93449 14.8142 2.72922 14.7533 2.47232 14.6344C2.21885 14.5154 2.08039 14.4549 2.05943 14.4549L2.00397 14.5158C2.00397 14.6504 2.24158 14.8193 2.71293 15.0259C3.15358 15.2135 3.46528 15.3065 3.65001 15.3065C4.02438 15.3065 4.38172 15.0258 4.72147 14.4652C5.09534 13.8543 5.2824 13.283 5.2824 12.7486C5.2824 12.1902 5.18539 11.728 4.99138 11.3628C4.86223 11.1221 4.64501 10.8651 4.33597 10.5904ZM33.3974 10.5904C33.314 11.0321 33.2567 11.3365 33.2216 11.5002C33.8055 11.9843 34.0966 12.365 34.0966 12.6453C34.0966 13.0339 33.8591 13.492 33.379 14.0208C32.9008 14.5502 32.4917 14.8142 32.1505 14.8142C31.996 14.8142 31.7905 14.7533 31.5341 14.6344C31.2802 14.5154 31.1418 14.4549 31.1209 14.4549L31.065 14.5158C31.065 14.6504 31.3035 14.8193 31.7744 15.0259C32.215 15.2135 32.5263 15.3065 32.7111 15.3065C33.0854 15.3065 33.4436 15.0258 33.7833 14.4652C34.1567 13.8543 34.3438 13.283 34.3438 12.7486C34.3438 12.1902 34.2473 11.728 34.0528 11.3628C33.9242 11.1221 33.704 10.8651 33.3974 10.5904ZM38.4949 10.5904C38.4115 11.0321 38.3541 11.3365 38.3214 11.5002C38.9035 11.9843 39.1941 12.365 39.1941 12.6453C39.1941 13.0339 38.9567 13.492 38.4785 14.0208C37.9984 14.5502 37.5897 14.8142 37.2504 14.8142C37.0934 14.8142 36.888 14.7533 36.634 14.6344C36.3776 14.5154 36.2388 14.4549 36.2184 14.4549L36.1649 14.5158C36.1649 14.6504 36.401 14.8193 36.8719 15.0259C37.313 15.2135 37.6239 15.3065 37.8086 15.3065C38.1829 15.3065 38.5407 15.0258 38.8805 14.4652C39.2543 13.8543 39.4418 13.283 39.4418 12.7486C39.4418 12.1902 39.3445 11.728 39.15 11.3628C39.0213 11.1221 38.8039 10.8651 38.4949 10.5904ZM1.09364 10.982C1.56013 11.3098 1.79746 11.6034 1.80964 11.8653C1.81598 11.9843 1.76111 12.0875 1.64558 12.1719C1.38675 12.2964 1.14443 12.3571 0.918259 12.3571C0.666744 12.3571 0.541707 12.2354 0.541707 11.992C0.541707 11.9205 0.557887 11.844 0.590534 11.7619C0.77967 11.4392 0.945941 11.1802 1.09364 10.982ZM30.157 10.982C30.6235 11.3098 30.861 11.6034 30.8746 11.8653C30.8795 11.9843 30.8241 12.0875 30.7086 12.1719C30.4498 12.2964 30.21 12.3571 29.9809 12.3571C29.7298 12.3571 29.6051 12.2354 29.6051 11.992C29.6051 11.9205 29.6213 11.844 29.6539 11.7619C29.8426 11.4392 30.0118 11.1802 30.157 10.982ZM41.6178 11.1493C41.7494 11.1571 41.8672 11.2605 41.9686 11.4644C42.0593 11.6498 42.103 11.8212 42.103 11.9826C42.0381 12.078 41.9019 12.1253 41.6987 12.1253C41.5763 12.1253 41.4562 12.0993 41.3358 12.0434C41.1817 11.9775 41.1009 11.8818 41.0936 11.7606C41.0912 11.6517 41.1534 11.5194 41.283 11.3686C41.4103 11.2156 41.5228 11.1443 41.6178 11.1493ZM17.3383 14.1049L17.0196 14.6871L17.7379 15.1994L18.0539 14.5945L17.3383 14.1049Z" fill="#03534C"/>
<path d="M19.2928 16.8601C19.207 16.8601 19.1288 16.8703 19.0596 16.8999C18.9903 16.9234 18.932 16.9608 18.8838 17.0082C18.835 17.0557 18.7987 17.1084 18.7729 17.1743C18.7475 17.2379 18.7361 17.3067 18.7361 17.381V17.9497H18.3643V18.3592H18.7361V20.5125H19.251V18.3592H19.6299V17.9497H19.251V17.4521C19.251 17.3862 19.2645 17.3384 19.2947 17.3116L19.401 17.27L19.4775 17.3018C19.5253 17.3224 19.5858 17.3514 19.6599 17.3832V16.9948C19.5975 16.9496 19.535 16.9181 19.4678 16.8941C19.4029 16.8701 19.343 16.8601 19.2928 16.8601ZM22.3193 16.8641C22.1672 16.8641 22.0255 16.8884 21.8939 16.9331C21.7623 16.9811 21.6447 17.047 21.5365 17.1291C21.4302 17.2134 21.3354 17.3115 21.2525 17.4248C21.1692 17.5388 21.0999 17.6629 21.0443 17.798C20.9892 17.9354 20.9457 18.0782 20.9154 18.229C20.8857 18.3797 20.8713 18.5333 20.8713 18.6863C20.8713 18.9884 20.9061 19.2605 20.9728 19.499C21.0401 19.7369 21.139 19.9404 21.2662 20.104C21.391 20.2681 21.543 20.3949 21.7228 20.4825C21.9012 20.5696 22.1 20.6145 22.3213 20.6145C22.5133 20.6145 22.6886 20.5777 22.8431 20.5062C22.9981 20.4348 23.1343 20.3371 23.2494 20.2131C23.3654 20.0886 23.4597 19.9428 23.5333 19.7764C23.6074 19.6122 23.6601 19.4325 23.6923 19.2421H23.1755C23.1521 19.3638 23.1179 19.4826 23.0716 19.5965C23.0229 19.7127 22.9656 19.8158 22.8915 19.9057C22.8199 19.9956 22.7369 20.0675 22.6423 20.1205C22.5453 20.1758 22.4392 20.2024 22.3212 20.2024C22.2062 20.2024 22.0923 20.1729 21.9822 20.112C21.8686 20.0517 21.7691 19.9591 21.6814 19.8346C21.5917 19.7101 21.522 19.5511 21.467 19.3607C21.4138 19.173 21.3861 18.948 21.3861 18.6917C21.3861 18.5013 21.4097 18.319 21.456 18.1498C21.5018 17.9778 21.5642 17.827 21.647 17.6974C21.7279 17.5679 21.8273 17.4647 21.9404 17.3882C22.0559 17.3117 22.1808 17.2741 22.3193 17.2741C22.5338 17.2741 22.7089 17.3379 22.8474 17.4625C22.9883 17.5892 23.0969 17.7824 23.1778 18.0415H23.7044C23.6625 17.8695 23.6027 17.7137 23.5267 17.5707C23.4501 17.4278 23.3554 17.3031 23.2403 17.1975C23.1268 17.092 22.9933 17.0101 22.8408 16.9514C22.6862 16.8933 22.5133 16.8641 22.3193 16.8641ZM3.85248 16.9608V17.4682H4.36107V16.9608H3.85248ZM7.04841 16.9608V17.4682H7.55856V16.9608H7.04841ZM0.473145 16.9621V20.5111H0.988374V18.0621L1.77078 20.5111H2.10827L2.92739 18.0621V20.5111H3.44222V16.9621H2.84928L1.95319 19.6364L1.06649 16.9621H0.473145ZM10.3115 17.2141V17.9497H9.97445V18.3489H10.3115V20.0413C10.3115 20.1396 10.3256 20.2188 10.3529 20.2847C10.3832 20.3506 10.4227 20.4066 10.4709 20.4463C10.5192 20.4887 10.5773 20.5178 10.6416 20.5362C10.7065 20.5547 10.7736 20.5653 10.8447 20.5653C10.8979 20.5653 10.9581 20.5602 11.0225 20.5496C11.0873 20.5362 11.1519 20.5229 11.2143 20.5044V20.1183C11.1406 20.1339 11.0849 20.1446 11.0479 20.1496L10.9693 20.1603L10.8658 20.108C10.8405 20.0734 10.8264 20.0096 10.8264 19.9147V18.3489H11.1611V17.9497H10.8264V17.2141H10.3115ZM28.8998 17.9023C28.8398 17.9023 28.7782 17.9101 28.7158 17.9207C28.6534 17.9335 28.5907 17.9547 28.5283 17.9815C28.4683 18.0106 28.4109 18.0447 28.3529 18.0871C28.2973 18.1296 28.2468 18.1824 28.2029 18.2433C28.1244 18.1188 28.0342 18.0339 27.9377 17.9842C27.8382 17.9334 27.7343 17.9072 27.6256 17.9072C27.531 17.9072 27.4341 17.9254 27.3303 17.96C27.2264 17.9969 27.1293 18.055 27.0416 18.1399V17.9497H26.5338V20.5126H27.0416V18.9732C27.0416 18.9018 27.0553 18.828 27.0807 18.7481C27.1065 18.6716 27.1429 18.6 27.1892 18.5369C27.2331 18.4705 27.289 18.4174 27.349 18.3749C27.4114 18.3331 27.4778 18.3118 27.547 18.3118L27.651 18.3356L27.7529 18.4125C27.7831 18.4522 27.8054 18.4997 27.8263 18.5633C27.8449 18.6242 27.8568 18.7033 27.8568 18.7983V20.5126H28.367V18.9441C28.367 18.8542 28.3806 18.7723 28.4084 18.6958C28.4357 18.6187 28.4736 18.5501 28.517 18.4949C28.5608 18.4368 28.6119 18.3916 28.667 18.3597C28.7225 18.3279 28.7801 18.3123 28.8357 18.3123L28.9537 18.3356L29.0599 18.4125C29.0921 18.4522 29.1175 18.4997 29.1384 18.5633C29.1589 18.6242 29.1681 18.7033 29.1681 18.7983V20.5126H29.6759V18.6958C29.6759 18.5819 29.6572 18.4785 29.6177 18.3807C29.5787 18.2858 29.5259 18.2007 29.4591 18.1293C29.3894 18.0578 29.3064 18.0029 29.2119 17.9632C29.1173 17.9208 29.0134 17.9023 28.8998 17.9023ZM32.4259 17.9023C32.3659 17.9023 32.3039 17.9101 32.2415 17.9207C32.1791 17.9335 32.1168 17.9547 32.0544 17.9815C31.9945 18.0106 31.9346 18.0447 31.879 18.0871C31.8235 18.1296 31.773 18.1824 31.7286 18.2433C31.6502 18.1188 31.5603 18.0339 31.4638 17.9842C31.3643 17.9334 31.2604 17.9072 31.1517 17.9072C31.0572 17.9072 30.9602 17.9254 30.8564 17.96C30.7526 17.9969 30.6555 18.055 30.5677 18.1399V17.9497H30.0599V20.5126H30.5677V18.9732C30.5677 18.9018 30.5815 18.828 30.6068 18.7481C30.6326 18.6716 30.6691 18.6 30.7154 18.5369C30.7593 18.4705 30.8148 18.4174 30.8748 18.3749C30.9371 18.3331 31.002 18.3118 31.0732 18.3118L31.1771 18.3356L31.279 18.4125C31.3068 18.4522 31.3315 18.4997 31.3525 18.5633C31.371 18.6242 31.3826 18.7033 31.3826 18.7983V20.5126H31.8931V18.9441C31.8931 18.8542 31.9067 18.7723 31.9345 18.6958C31.9618 18.6187 31.9993 18.5501 32.0427 18.4949C32.0866 18.4368 32.1376 18.3916 32.1927 18.3597C32.2483 18.3279 32.3039 18.3123 32.3614 18.3123L32.4794 18.3356L32.5856 18.4125C32.6178 18.4522 32.6432 18.4997 32.6642 18.5633C32.6846 18.6242 32.6938 18.7033 32.6938 18.7983V20.5126H33.202V18.6958C33.202 18.5819 33.1832 18.4785 33.1442 18.3807C33.1047 18.2858 33.0516 18.2007 32.9849 18.1293C32.9151 18.0578 32.8326 18.0029 32.738 17.9632C32.6434 17.9208 32.5395 17.9023 32.4259 17.9023ZM17.0582 17.9068C16.8852 17.9068 16.7302 17.9418 16.5961 18.0133C16.4645 18.082 16.3515 18.1767 16.2614 18.2956C16.1692 18.4174 16.0999 18.5604 16.0535 18.719C16.0053 18.8803 15.9821 19.0523 15.9821 19.2349C15.9821 19.4176 16.0053 19.5917 16.0535 19.7509C16.0999 19.9117 16.1692 20.0521 16.2614 20.1715C16.3515 20.2905 16.4645 20.3852 16.5961 20.4539C16.7302 20.5231 16.8852 20.56 17.0582 20.56C17.2313 20.56 17.386 20.5231 17.5195 20.4539C17.6565 20.3852 17.7692 20.2905 17.8613 20.1715C17.9539 20.052 18.0231 19.9117 18.0718 19.7509C18.1206 19.5917 18.1433 19.4175 18.1433 19.2349C18.1433 19.0524 18.1206 18.8804 18.0718 18.719C18.0231 18.5604 17.9539 18.4174 17.8613 18.2956C17.7692 18.1767 17.6565 18.082 17.5195 18.0133C17.386 17.9418 17.2312 17.9068 17.0582 17.9068ZM25.1018 17.9068C24.9293 17.9068 24.7742 17.9418 24.6401 18.0133C24.5085 18.082 24.3956 18.1767 24.3054 18.2956C24.2133 18.4174 24.1439 18.5604 24.0976 18.719C24.0493 18.8803 24.0261 19.0523 24.0261 19.2349C24.0261 19.4176 24.0493 19.5917 24.0976 19.7509C24.1439 19.9117 24.2132 20.0521 24.3054 20.1715C24.3956 20.2905 24.5085 20.3852 24.6401 20.4539C24.7742 20.5231 24.9293 20.56 25.1018 20.56C25.2754 20.56 25.4299 20.5231 25.5659 20.4539C25.7004 20.3852 25.8128 20.2905 25.9049 20.1715C25.9976 20.052 26.0692 19.9117 26.1155 19.7509C26.1642 19.5917 26.1874 19.4175 26.1874 19.2349C26.1874 19.0524 26.1642 18.8804 26.1155 18.719C26.0692 18.5604 25.9976 18.4174 25.9049 18.2956C25.8128 18.1767 25.7004 18.082 25.5659 18.0133C25.4299 17.9418 25.2754 17.9068 25.1018 17.9068ZM5.90383 17.9072C5.78636 17.9072 5.67036 17.9283 5.55774 17.9708C5.44222 18.0104 5.33843 18.0734 5.23899 18.1583V17.9497H4.72416V20.5126H5.23899V18.9809C5.23899 18.8965 5.25536 18.8118 5.28508 18.7325C5.31774 18.6504 5.35881 18.579 5.41437 18.5182C5.46946 18.4551 5.53451 18.407 5.60617 18.3674C5.67977 18.3305 5.75835 18.3119 5.8417 18.3119C5.93627 18.3119 6.01005 18.3441 6.06318 18.4072C6.11581 18.4708 6.14169 18.5816 6.14169 18.7352V20.5126H6.64988V18.69C6.64988 18.5682 6.63372 18.46 6.5991 18.3651C6.56644 18.2668 6.51823 18.1854 6.4534 18.119C6.38907 18.0503 6.31291 17.9973 6.2198 17.9633C6.12573 17.9258 6.02131 17.9072 5.90383 17.9072ZM12.4603 17.9072C12.3726 17.9072 12.2869 17.9314 12.2021 17.9788C12.1188 18.0263 12.0472 18.0948 11.9873 18.1824L11.9588 17.9498H11.5021V20.5126H12.0127V18.9786C12.0127 18.8966 12.0214 18.8171 12.0423 18.7406C12.0609 18.6641 12.0908 18.5976 12.1279 18.5423C12.1644 18.4842 12.211 18.439 12.2666 18.4049C12.3221 18.3703 12.3821 18.3544 12.4513 18.3544C12.4791 18.3544 12.5643 18.3835 12.7052 18.4443V17.9655L12.5712 17.9235L12.4603 17.9072ZM36.9938 17.9072C36.9061 17.9072 36.82 17.9314 36.7352 17.9788C36.6519 18.0263 36.5803 18.0948 36.5204 18.1824L36.4926 17.9498H36.0352V20.5126H36.5458V18.9786C36.5458 18.8966 36.555 18.8171 36.5754 18.7406C36.594 18.6641 36.6239 18.5976 36.661 18.5423C36.6975 18.4842 36.7446 18.439 36.7997 18.4049C36.8552 18.3703 36.9152 18.3544 36.9844 18.3544C37.0122 18.3544 37.0974 18.3835 37.2383 18.4443V17.9655L37.1043 17.9235L36.9938 17.9072ZM38.5301 17.9081C38.3707 17.9081 38.2281 17.9428 38.0985 18.0093C37.9688 18.0752 37.8583 18.1652 37.7676 18.2813C37.6755 18.398 37.6066 18.5327 37.5559 18.689C37.5071 18.8448 37.4817 19.0139 37.4817 19.1938C37.4817 19.3579 37.5024 19.5191 37.5395 19.6833C37.5814 19.8469 37.6415 19.9958 37.7239 20.1281C37.8072 20.2577 37.9137 20.3661 38.0434 20.4454C38.1701 20.5275 38.3244 20.5693 38.5023 20.5693C38.6452 20.5693 38.7747 20.5457 38.8902 20.5004C39.0053 20.453 39.1073 20.3872 39.1926 20.2995C39.2779 20.2124 39.3477 20.1068 39.4004 19.9822C39.4511 19.8577 39.4859 19.7175 39.5019 19.5589H38.9664C38.9528 19.641 38.9344 19.7178 38.9086 19.792C38.8833 19.8635 38.851 19.9264 38.8145 19.9822L38.682 20.112C38.6313 20.1438 38.5765 20.1572 38.5141 20.1572C38.4332 20.1572 38.359 20.1301 38.2942 20.0749C38.2298 20.019 38.1744 19.9477 38.1305 19.8578C38.0847 19.7679 38.0495 19.6643 38.0246 19.5481C38.0012 19.432 37.9895 19.3132 37.9895 19.1915C37.9895 19.0748 38.0012 18.9637 38.0246 18.8581C38.0495 18.752 38.0847 18.6573 38.1305 18.578C38.1744 18.4987 38.2297 18.4321 38.2965 18.3847C38.3638 18.3372 38.4401 18.3131 38.5235 18.3131C38.6366 18.3131 38.7284 18.3498 38.802 18.4241C38.8741 18.4955 38.9316 18.6202 38.9731 18.7973H39.502C39.481 18.6705 39.4422 18.5517 39.391 18.4428C39.3403 18.3345 39.2734 18.2393 39.1949 18.1623C39.114 18.083 39.0197 18.0221 38.9086 17.9775C38.7984 17.9322 38.671 17.9081 38.5301 17.9081ZM34.6598 17.909C34.4935 17.909 34.3434 17.9432 34.2094 18.0146C34.0753 18.0833 33.9605 18.1789 33.8684 18.2979C33.7758 18.414 33.7014 18.552 33.6531 18.7078C33.6024 18.8642 33.575 19.0276 33.575 19.1996C33.575 19.3822 33.6024 19.5568 33.6531 19.7205C33.7038 19.8874 33.7783 20.0327 33.8699 20.1572C33.965 20.284 34.0804 20.3818 34.2144 20.4561C34.348 20.5298 34.4987 20.5644 34.6644 20.5644C34.7824 20.5644 34.8979 20.5459 35.0066 20.5062C35.1172 20.4638 35.2184 20.406 35.3086 20.3295C35.4007 20.2524 35.4769 20.1573 35.5418 20.0462C35.6066 19.9351 35.6528 19.8078 35.6777 19.6654H35.2023C35.1009 19.996 34.9208 20.1594 34.6644 20.1594C34.5884 20.1594 34.5164 20.1389 34.4496 20.0936C34.3848 20.0484 34.3249 19.9881 34.2762 19.9111C34.2255 19.8368 34.1865 19.7498 34.1562 19.6493C34.1265 19.5516 34.108 19.4511 34.1031 19.3428L35.7128 19.3423V19.157C35.7128 18.9772 35.6874 18.8111 35.6386 18.6603C35.5904 18.5068 35.5206 18.3769 35.4285 18.263C35.3383 18.1518 35.2276 18.0647 35.0984 18.0038C34.9687 17.9407 34.8216 17.909 34.6598 17.909ZM40.9138 17.909C40.7476 17.909 40.5974 17.9432 40.4639 18.0146C40.3293 18.0833 40.2142 18.1789 40.1221 18.2979C40.0294 18.414 39.9579 18.552 39.9072 18.7078C39.8565 18.8642 39.8311 19.0276 39.8311 19.1996C39.8311 19.3822 39.8565 19.5568 39.9072 19.7205C39.9579 19.8874 40.0318 20.0327 40.1264 20.1572C40.2185 20.284 40.3341 20.3818 40.4682 20.4561C40.6022 20.5298 40.7524 20.5644 40.9181 20.5644C41.0361 20.5644 41.1516 20.5459 41.2623 20.5062C41.371 20.4638 41.4725 20.406 41.5627 20.3295C41.6548 20.2524 41.7306 20.1573 41.7955 20.0462C41.8603 19.9351 41.9066 19.8078 41.9314 19.6654H41.456C41.3546 19.996 41.177 20.1594 40.9181 20.1594C40.8421 20.1594 40.771 20.1389 40.7037 20.0936C40.6389 20.0484 40.581 19.9881 40.5299 19.9111C40.4797 19.8368 40.4402 19.7498 40.4099 19.6493C40.3802 19.5516 40.3617 19.4511 40.3568 19.3428L41.9665 19.3423V19.157C41.9665 18.9772 41.9411 18.8111 41.8923 18.6603C41.8441 18.5068 41.7747 18.3769 41.6826 18.263C41.5924 18.1518 41.4817 18.0647 41.3525 18.0038C41.2228 17.9407 41.0757 17.909 40.9138 17.909ZM8.84649 17.9095C8.73586 17.9095 8.62954 17.923 8.52814 17.952C8.42382 17.9782 8.33358 18.0205 8.25511 18.0764C8.17663 18.1345 8.11421 18.2032 8.06839 18.2903C8.0221 18.3752 7.99925 18.4757 7.99925 18.5919C7.99925 18.7108 8.02209 18.8086 8.07035 18.8935C8.11909 18.9756 8.1818 19.0443 8.25784 19.1052C8.33388 19.1632 8.41952 19.2135 8.51408 19.256C8.61108 19.2984 8.70574 19.338 8.80275 19.3777C8.86758 19.4011 8.92756 19.4279 8.98751 19.4542C9.04503 19.4782 9.09872 19.5069 9.14259 19.5388L9.25079 19.6524C9.27856 19.6977 9.28946 19.7505 9.28946 19.8108C9.28946 19.8801 9.27584 19.938 9.24806 19.9827L9.13985 20.0887C9.09598 20.115 9.04963 20.1336 8.9965 20.1442C8.94337 20.1549 8.89525 20.1603 8.8465 20.1603C8.78898 20.1603 8.73773 20.1525 8.68947 20.1335L8.56486 20.0494C8.52831 20.0097 8.4999 19.9564 8.47698 19.8927C8.45599 19.8319 8.44516 19.7553 8.4426 19.6654L7.91839 19.6659C7.92327 19.8138 7.95041 19.9462 8.0016 20.0601C8.05181 20.1712 8.11941 20.266 8.20277 20.3402C8.28807 20.4139 8.38479 20.4725 8.49301 20.5094C8.60414 20.5462 8.72172 20.5649 8.84652 20.5649C8.97373 20.5649 9.09593 20.5491 9.21097 20.5201C9.3265 20.4911 9.42791 20.4437 9.51565 20.3801C9.60631 20.3164 9.6753 20.2345 9.72892 20.1339C9.77914 20.0334 9.80743 19.9122 9.80743 19.7692C9.80743 19.6659 9.78148 19.5731 9.73517 19.4994C9.68691 19.4224 9.62694 19.3566 9.54846 19.2985C9.47193 19.2404 9.38648 19.1897 9.28948 19.145C9.19492 19.1026 9.10094 19.0598 9.00589 19.0202C8.94106 18.9967 8.88108 18.9699 8.82113 18.9436C8.76117 18.9174 8.70806 18.8877 8.66175 18.8537L8.55355 18.7427L8.5141 18.5968C8.5141 18.5125 8.54173 18.444 8.59925 18.391C8.65677 18.3379 8.73781 18.3145 8.84651 18.3145L8.98479 18.3301L9.1008 18.3883L9.18595 18.4966C9.20887 18.5418 9.22327 18.5969 9.23205 18.6662H9.64806L9.70548 18.6684H9.74259C9.73771 18.5366 9.71224 18.4228 9.66642 18.3279C9.61767 18.2324 9.55515 18.1529 9.47423 18.0921C9.39575 18.0284 9.30169 17.9837 9.19494 17.9547C9.08622 17.9229 8.97129 17.9095 8.84649 17.9095ZM3.8524 17.9497V20.5128H4.36099V17.9497H3.8524ZM7.04833 17.9497V20.5128H7.55848V17.9497H7.04833ZM14.354 17.9515L13.8302 19.7021L13.2993 17.952H12.7568L13.5782 20.5036L13.4841 20.8504L13.4517 20.956L13.4099 21.0701L13.3591 21.1628L13.3013 21.1968L13.2528 21.1887L13.179 21.1628L13.0962 21.1252L13.0177 21.0912V21.5221C13.0869 21.5534 13.1467 21.5751 13.1974 21.583C13.251 21.5929 13.2991 21.5959 13.3454 21.5959C13.3981 21.5959 13.4544 21.5881 13.5095 21.5669C13.5645 21.5484 13.6177 21.514 13.6708 21.4693C13.7239 21.4241 13.775 21.3662 13.8188 21.2975C13.8647 21.226 13.9019 21.1385 13.9341 21.0353L14.8829 17.9516L14.354 17.9515ZM17.0559 18.3118C17.1437 18.3118 17.2223 18.3381 17.2915 18.3856C17.3631 18.4336 17.4228 18.4994 17.4715 18.5843C17.5217 18.6658 17.5614 18.7639 17.5868 18.8778C17.6146 18.9884 17.6286 19.1073 17.6286 19.2318C17.6286 19.3614 17.6146 19.4805 17.5868 19.5893C17.5614 19.6999 17.5217 19.7981 17.4715 19.8802C17.4228 19.9645 17.3631 20.0283 17.2915 20.0757C17.2222 20.1232 17.1437 20.1473 17.0559 20.1473C16.9701 20.1473 16.8916 20.1232 16.8204 20.0757C16.7507 20.0283 16.6909 19.9645 16.6427 19.8802C16.592 19.7981 16.5547 19.6999 16.5294 19.5893C16.5016 19.4804 16.4899 19.3613 16.4899 19.2318C16.4899 19.1073 16.5016 18.9884 16.5294 18.8778C16.5547 18.7639 16.592 18.6658 16.6427 18.5843C16.6909 18.4994 16.7507 18.4336 16.8204 18.3856C16.8916 18.3382 16.9701 18.3118 17.0559 18.3118ZM25.1 18.3118C25.1877 18.3118 25.2659 18.3381 25.3351 18.3856C25.4068 18.4336 25.4668 18.4994 25.5156 18.5843C25.5658 18.6658 25.6055 18.7639 25.6308 18.8778C25.6591 18.9884 25.6726 19.1073 25.6726 19.2318C25.6726 19.3614 25.6591 19.4805 25.6308 19.5893C25.6055 19.6999 25.5658 19.7981 25.5156 19.8802C25.4668 19.9645 25.4068 20.0283 25.3351 20.0757C25.2659 20.1232 25.1877 20.1473 25.1 20.1473C25.0142 20.1473 24.9356 20.1232 24.8644 20.0757C24.7947 20.0283 24.7347 19.9645 24.6859 19.8802C24.6381 19.7981 24.5988 19.6999 24.5734 19.5893C24.5476 19.4804 24.534 19.3613 24.534 19.2318C24.534 19.1073 24.5476 18.9884 24.5734 18.8778C24.5988 18.7639 24.6381 18.6658 24.6859 18.5843C24.7347 18.4994 24.7947 18.4336 24.8644 18.3856C24.9356 18.3382 25.0142 18.3118 25.1 18.3118ZM34.64 18.3136C34.7204 18.3136 34.7938 18.3296 34.8611 18.3637C34.9259 18.3983 34.9836 18.4428 35.0294 18.5042C35.0782 18.5623 35.1153 18.6311 35.1431 18.7132C35.1684 18.7925 35.1868 18.8823 35.1911 18.9772H34.1037C34.1085 18.8873 34.1247 18.8032 34.1544 18.7239C34.1822 18.6446 34.2218 18.5731 34.2681 18.5122C34.3169 18.4514 34.3717 18.4032 34.4341 18.3663C34.4965 18.3317 34.5654 18.3136 34.64 18.3136ZM40.8938 18.3136C40.9743 18.3136 41.0485 18.3296 41.1153 18.3637C41.1801 18.3983 41.2374 18.4428 41.2856 18.5042C41.3319 18.5623 41.3692 18.6311 41.397 18.7132C41.4243 18.7925 41.441 18.8823 41.4454 18.9772H40.3579C40.3628 18.8873 40.3786 18.8032 40.4083 18.7239C40.4361 18.6446 40.4757 18.5731 40.522 18.5122C40.5707 18.4514 40.626 18.4032 40.6884 18.3663C40.7508 18.3317 40.8193 18.3136 40.8938 18.3136Z" fill="#03534C"/>
<path d="M63.4755 3.66577C63.4443 3.71323 63.4022 3.78526 63.3606 3.88773C63.3503 3.91327 63.3399 3.94066 63.3298 3.97006V3.97051C63.2994 4.05865 63.2709 4.16414 63.2493 4.29001L63.238 4.3719L63.1782 4.33476L63.1435 4.3191L63.106 4.34282C63.0299 4.44612 63.0045 4.80267 63.0415 5.23153L63.0485 5.30044H63.0114C63.0002 5.34791 63.0142 5.46438 63.0376 5.628L63.0509 5.72377L63.079 5.88218C63.098 5.98339 63.12 6.0945 63.1446 6.21288V6.21333C63.1692 6.33158 63.1964 6.45711 63.2255 6.58788C63.2256 6.58818 63.2254 6.58848 63.2255 6.58878C63.2546 6.71944 63.2858 6.85521 63.3185 6.99376C63.3512 7.13273 63.3851 7.27447 63.4204 7.4162L63.4317 7.4529L63.4735 7.62026L63.4755 7.64129L63.4829 7.62026L63.5243 7.4529L63.5333 7.4162C63.6389 6.99003 63.7367 6.56795 63.811 6.21289C63.8358 6.09452 63.858 5.98341 63.877 5.88219L63.9048 5.72378L63.9192 5.62802C63.9445 5.4644 63.9557 5.34792 63.947 5.30045H63.9075L63.9122 5.23154C63.9468 4.80266 63.9209 4.44614 63.8497 4.34283L63.8134 4.31911L63.7731 4.33477L63.7181 4.37191L63.7044 4.29002C63.6827 4.16414 63.6546 4.05867 63.6243 3.97053V3.97008C63.5739 3.82274 63.5175 3.72504 63.4755 3.66577ZM65.5738 4.73303C65.5609 4.73303 65.5478 4.73474 65.5348 4.73661C65.427 4.75156 65.3223 4.82029 65.3223 4.82029L65.2992 4.83864L65.286 4.82745L65.2762 4.8176C65.2308 4.77789 65.1868 4.75197 65.143 4.74153C65.1361 4.73979 65.1291 4.7384 65.1223 4.7375H65.1219C65.1184 4.73706 65.1148 4.73728 65.1113 4.73706C65.1079 4.73684 65.1039 4.73617 65.1004 4.73616C65.0865 4.73619 65.0731 4.73783 65.0606 4.74064C65.0097 4.75215 64.9706 4.7835 64.9465 4.80821C64.9405 4.81439 64.9354 4.82026 64.9313 4.82521C64.9228 4.83511 64.9184 4.84177 64.9184 4.84177L64.9133 4.85027L64.8867 4.89054L64.8465 4.84938L64.7778 4.81268C64.7771 4.81268 64.7765 4.81311 64.7758 4.81313L64.7754 4.81268C64.6531 4.81268 64.5164 5.10361 64.4793 5.20916L64.4496 5.29687L64.3965 5.22259L64.3907 5.21543L64.3641 5.18007C64.3636 5.18007 64.3631 5.1805 64.3625 5.18052L64.3621 5.18007C64.2837 5.18007 64.1867 5.46298 64.1379 5.71929L64.1215 5.81998L64.0887 5.78642L64.0594 5.7542L64.0317 5.73719L64.0039 5.71929C63.9162 6.29057 63.702 7.17983 63.5723 7.66901L63.5563 7.74016L63.6602 7.61307L63.7758 7.47793C63.9484 7.29032 64.117 7.13197 64.1496 7.10294C64.3851 6.75615 64.3067 6.58414 64.3067 6.58207L64.2766 6.52882L64.2738 6.52345L64.2832 6.51808L64.3274 6.49437C64.4127 6.4469 64.4683 6.39919 64.5121 6.34893C64.5729 6.27369 64.589 6.20403 64.5934 6.1583C64.5939 6.15418 64.5949 6.14905 64.5953 6.14532L64.5945 6.13906L64.5926 6.10818L64.5856 6.07104L64.5797 6.05448L64.5789 6.05046L64.611 6.03927L64.627 6.03435C64.7518 5.98409 64.8303 5.89919 64.8766 5.82268C64.9414 5.71435 64.9477 5.61639 64.9477 5.61639L64.9504 5.57388L64.9805 5.56359C65.2388 5.45247 65.4166 5.25412 65.4191 5.24856L65.4305 5.23782L65.4445 5.23603C65.5342 5.21481 65.659 4.98462 65.7238 4.83104C65.7028 4.78124 65.6701 4.75116 65.6234 4.73931C65.6161 4.73739 65.6084 4.73583 65.6004 4.73483C65.5919 4.73383 65.5831 4.73303 65.5738 4.73303ZM61.3813 4.73437C61.3077 4.73437 61.2615 4.76648 61.2337 4.83014C61.2985 4.98593 61.4207 5.2158 61.5133 5.23422L61.5247 5.24004L61.5383 5.25033C61.5408 5.25258 61.7181 5.4539 61.9774 5.56223C61.9779 5.56244 61.9785 5.56246 61.979 5.56267L61.9907 5.56804L62.0063 5.57565L62.0079 5.58863L62.0098 5.61503C62.0098 5.6234 62.019 5.71846 62.079 5.82177C62.1248 5.89827 62.2038 5.9854 62.3325 6.03343L62.3465 6.03835L62.377 6.05178L62.3719 6.07012L62.3633 6.10995V6.14665C62.3633 6.19188 62.3769 6.26861 62.4481 6.3507C62.4847 6.39422 62.5373 6.43741 62.6114 6.48136C62.6179 6.48535 62.6236 6.48946 62.6305 6.49345H62.6309L62.6739 6.51672L62.6743 6.51716L62.6864 6.52253L62.6836 6.53059L62.6512 6.58608C62.6512 6.58608 62.5703 6.75805 62.8086 7.10426C62.8247 7.11738 62.875 7.16365 62.9422 7.23046H62.9426C62.9762 7.26381 63.014 7.30251 63.0539 7.34457H63.0543C63.0943 7.38664 63.1361 7.43249 63.1782 7.48016L63.2742 7.58576L63.2977 7.61216L63.3125 7.63051L63.3992 7.74149L63.3981 7.73701L63.4016 7.74149L63.3828 7.66765C63.2581 7.18072 63.0408 6.29235 62.9535 5.72108L62.9516 5.72198C62.9516 5.7217 62.9516 5.72135 62.9516 5.72108L62.8957 5.75509L62.8352 5.81997L62.8196 5.72108C62.7713 5.45918 62.6762 5.18186 62.6094 5.18186L62.609 5.18231C62.6086 5.18229 62.6082 5.18186 62.6078 5.18186L62.5934 5.19439L62.5582 5.22124L62.5321 5.26286L62.5094 5.29597L62.4754 5.21095C62.4384 5.10485 62.3024 4.81357 62.1825 4.81357L62.1821 4.81402C62.1814 4.814 62.1808 4.81357 62.1801 4.81357L62.1087 4.85071L62.0704 4.89233L62.0391 4.84266C62.0391 4.84266 61.9673 4.73705 61.8567 4.73705C61.8441 4.73705 61.8312 4.73863 61.8184 4.74153C61.8171 4.74183 61.8155 4.74209 61.8141 4.74242C61.8033 4.74515 61.7923 4.74932 61.7813 4.75406C61.7782 4.75539 61.7751 4.7566 61.7719 4.75808L61.7715 4.75853C61.7431 4.77207 61.7142 4.79171 61.6856 4.8167L61.6684 4.83237L61.659 4.83908L61.6329 4.82163C61.6307 4.82163 61.5301 4.75454 61.4258 4.73839C61.411 4.73601 61.3961 4.73437 61.3813 4.73437ZM60.854 5.43961C60.8463 5.43961 60.8388 5.4399 60.8317 5.44095C60.8247 5.44202 60.8174 5.44375 60.811 5.44587C60.8046 5.44803 60.7985 5.45115 60.7927 5.45438C60.7869 5.4576 60.7807 5.46126 60.7755 5.46556C60.773 5.46758 60.7712 5.47048 60.7688 5.47272C60.7661 5.47533 60.7632 5.47786 60.7606 5.48078C60.7511 5.49177 60.7426 5.50514 60.7352 5.5206C60.7316 5.52839 60.7283 5.53673 60.7251 5.54567L60.7044 5.60294L60.6575 5.57967C60.6575 5.57967 60.6441 5.57118 60.622 5.56267C60.611 5.55845 60.5978 5.55422 60.5829 5.55103H60.5825C60.5751 5.54946 60.5672 5.54794 60.5591 5.54701H60.5587C60.5504 5.54608 60.5419 5.54567 60.5329 5.54567C60.4755 5.54567 60.4241 5.56549 60.3786 5.60429C60.3445 5.6335 60.3137 5.67333 60.2856 5.72376V5.72421C60.2764 5.74093 60.267 5.7589 60.2583 5.77791V5.77836L60.2446 5.81237L60.2122 5.80968H60.1888C60.1739 5.80968 60.1493 5.81013 60.1204 5.81282C60.106 5.81417 60.09 5.816 60.0735 5.81863C60.0707 5.8191 60.0675 5.81991 60.0646 5.82042C60.0384 5.82498 60.0108 5.8318 59.9833 5.84101C59.9786 5.84258 59.9735 5.84375 59.9689 5.84548C59.9514 5.85198 59.9337 5.85972 59.9173 5.86875C59.8925 5.8824 59.8694 5.89961 59.8497 5.92021C59.8433 5.92699 59.837 5.93407 59.8314 5.94169V5.94214C59.8087 5.96978 59.7939 6.00354 59.788 6.04327V6.04372C59.7879 6.04472 59.7877 6.04584 59.7876 6.04685C59.7859 6.05899 59.7849 6.07192 59.7849 6.08534C59.808 6.10711 59.8385 6.13436 59.8735 6.1632H59.8739C59.8914 6.17756 59.9098 6.1925 59.929 6.20706H59.9294C59.9486 6.22161 59.9682 6.23629 59.9884 6.25001H59.9888C60.0091 6.2638 60.0296 6.27659 60.0501 6.2885C60.0706 6.3004 60.0907 6.31129 60.1107 6.32027H60.111C60.121 6.32476 60.1306 6.32879 60.1403 6.33235C60.15 6.33591 60.1596 6.3388 60.1689 6.3413H60.1692C60.1784 6.34377 60.1875 6.3458 60.1962 6.34712C60.2049 6.34842 60.2138 6.34934 60.222 6.34936L60.2392 6.34712L60.256 6.34443H60.2564L60.263 6.34175L60.2696 6.33862H60.27L60.2814 6.34443H60.2817C60.2851 6.34756 60.467 6.41558 60.711 6.41558C60.7666 6.41558 60.8239 6.41031 60.879 6.40529L60.9095 6.39724L60.9278 6.43125C60.9296 6.43523 60.948 6.47232 60.9852 6.51717C60.9976 6.53205 61.0119 6.54806 61.0286 6.5637H61.029C61.0373 6.57149 61.0461 6.57934 61.0556 6.58697H61.056C61.0654 6.5946 61.0754 6.60255 61.086 6.60979H61.0864C61.097 6.61703 61.1082 6.62421 61.12 6.63083H61.1204C61.1322 6.63744 61.1445 6.64386 61.1575 6.64962H61.1579C61.1709 6.65538 61.1843 6.66061 61.1985 6.66528H61.1989C61.2276 6.67465 61.2589 6.68182 61.2927 6.68542H61.2931C61.3099 6.68721 61.328 6.68809 61.3462 6.6881L61.4473 6.6805L61.4911 6.67244L61.5009 6.73062C61.5031 6.73313 61.5068 6.75014 61.5169 6.77492C61.5242 6.7935 61.5354 6.81653 61.5528 6.8407C61.5586 6.84875 61.5652 6.85707 61.5723 6.86531L61.618 6.90201H61.6184L61.7313 6.96063L61.7774 6.97137H61.7778C61.7899 6.97403 61.8026 6.97616 61.8157 6.97808H61.8161C61.8292 6.97999 61.8427 6.9819 61.8567 6.983H61.8571C61.8711 6.98411 61.8857 6.98456 61.9005 6.98479H61.9009H61.9012C61.9159 6.985 61.9308 6.98506 61.9462 6.98434L61.9719 6.98211L62.0087 6.97897V6.99777L61.9969 7.05326V7.05818V7.05863C61.997 7.0741 61.9996 7.12443 62.0333 7.19332C62.0526 7.23292 62.0825 7.2788 62.1274 7.32757C62.1386 7.33969 62.1506 7.35226 62.1637 7.36471H62.1641C62.1906 7.38969 62.2209 7.41551 62.2563 7.44123H62.2567C62.2744 7.45406 62.2932 7.46684 62.3133 7.47971H62.3137C62.3339 7.49259 62.3554 7.50583 62.3782 7.51864H62.3786C62.4115 7.52703 62.5616 7.5651 62.7458 7.62425H62.7461C62.8566 7.65972 62.9795 7.70281 63.0961 7.75134C63.1437 7.77116 63.1904 7.79194 63.2348 7.81309H63.2352C63.2573 7.82361 63.2785 7.83404 63.2993 7.84486C63.3009 7.84572 63.3023 7.84669 63.3039 7.84755C63.323 7.85759 63.3415 7.86769 63.359 7.87798H63.3594L63.3567 7.86768L63.3524 7.85471L63.2344 7.70614C63.2079 7.67445 63.1801 7.64286 63.1524 7.61172C63.1247 7.58066 63.0969 7.54999 63.0692 7.52043H63.0688C63.0134 7.46127 62.9597 7.40582 62.9122 7.35844H62.9118C62.8642 7.31111 62.8233 7.27135 62.7938 7.24344H62.7934C62.7641 7.21566 62.7466 7.19957 62.7454 7.19869L62.7379 7.18795C62.5303 6.88639 62.5303 6.68033 62.5489 6.58206H62.5485C62.5329 6.57256 62.5183 6.56277 62.5044 6.55297H62.504C62.49 6.54318 62.4769 6.53302 62.4645 6.52299H62.4641C62.4517 6.51297 62.4403 6.50275 62.4294 6.49256H62.429C62.4181 6.48238 62.408 6.47196 62.3985 6.46169C62.341 6.3997 62.3074 6.3363 62.2883 6.27956V6.27911C62.282 6.26017 62.2774 6.24222 62.2739 6.22497C62.2669 6.19046 62.2649 6.1599 62.2649 6.13547C62.1959 6.10237 62.1409 6.06077 62.0965 6.01644H62.0962C62.0695 5.98979 62.0469 5.96219 62.027 5.93455L62.0153 5.93142C61.9893 5.93142 61.9611 5.93744 61.9376 5.98869C61.9341 5.99602 61.9306 6.00402 61.9274 6.0133L61.92 6.03434L61.8926 6.10638L61.8423 6.02673C61.7746 5.91748 61.6649 5.76808 61.5665 5.67142C61.5468 5.65208 61.5278 5.63523 61.5095 5.62085C61.4727 5.5921 61.4391 5.57476 61.4126 5.57476C61.3989 5.57476 61.3689 5.57446 61.3528 5.66158L61.3317 5.756L61.2743 5.69335C61.2726 5.69265 61.256 5.67658 61.2298 5.65263C61.2167 5.64071 61.2014 5.62668 61.1841 5.6119H61.1837C61.1663 5.59711 61.1472 5.58109 61.1266 5.56537H61.1263C61.1057 5.54964 61.0839 5.53399 61.0614 5.51928H61.061C61.0498 5.51195 61.0385 5.50451 61.027 5.4978H61.0266C61.0151 5.49103 61.0036 5.48445 60.9919 5.47855C60.9802 5.47265 60.968 5.46724 60.9563 5.46244C60.9447 5.4577 60.9334 5.45378 60.922 5.45036H60.9216C60.9101 5.44696 60.8987 5.44415 60.8876 5.44231H60.8872C60.8761 5.44049 60.8647 5.43963 60.854 5.43961ZM66.1011 5.44006C66.0655 5.44006 66.0259 5.4515 65.9859 5.46959C65.9659 5.47863 65.9453 5.48952 65.9253 5.50136C65.9053 5.51323 65.8852 5.52631 65.8659 5.53985C65.8467 5.55339 65.8278 5.56782 65.8101 5.58191C65.7567 5.62438 65.712 5.66653 65.6859 5.69333L65.6671 5.71347L65.6261 5.75464L65.6054 5.66201C65.5961 5.61846 65.5839 5.59638 65.573 5.58549C65.5676 5.58023 65.5625 5.57743 65.5577 5.57609L65.5573 5.57565C65.5525 5.57428 65.5483 5.5743 65.5448 5.5743C65.5314 5.5743 65.5159 5.579 65.4995 5.58683C65.4831 5.59474 65.4652 5.60655 65.4468 5.62084C65.4284 5.63518 65.409 5.6526 65.3894 5.67186C65.3499 5.71057 65.3088 5.7574 65.2695 5.807L65.2691 5.80745C65.2097 5.88185 65.1544 5.96183 65.1136 6.02716L65.0792 6.08354L65.0648 6.10592L65.03 6.01374L65.0296 6.01329C65.0265 6.00428 65.0232 5.99582 65.0199 5.98868C65.0165 5.98161 65.0132 5.97532 65.0097 5.96988L65.0093 5.96943C65.0056 5.9638 65.0018 5.95919 64.998 5.95511C64.9952 5.95209 64.9926 5.94981 64.9898 5.94751C64.989 5.94687 64.9878 5.94541 64.987 5.94482C64.9835 5.94215 64.9793 5.93983 64.9757 5.93811C64.9647 5.93291 64.9539 5.93187 64.9445 5.93185L64.9308 5.93408C64.9296 5.93588 64.9281 5.93766 64.9269 5.93945C64.8739 6.01189 64.7989 6.08318 64.6933 6.13277C64.6933 6.13344 64.6933 6.13433 64.6933 6.13501H64.6929C64.6929 6.14722 64.6923 6.16072 64.691 6.17573C64.6896 6.19052 64.6877 6.20635 64.6843 6.22316C64.6842 6.22365 64.684 6.22402 64.6839 6.2245C64.6805 6.24143 64.676 6.25927 64.6699 6.27775V6.2782C64.6698 6.27853 64.6696 6.27877 64.6695 6.2791C64.6664 6.28817 64.6628 6.29749 64.6589 6.30684C64.6588 6.30715 64.6587 6.30742 64.6585 6.30774C64.6264 6.38584 64.5661 6.47259 64.4542 6.55252L64.4538 6.55297C64.4517 6.55453 64.449 6.55589 64.4468 6.55744C64.4347 6.56576 64.4222 6.57395 64.4089 6.58206C64.4159 6.6187 64.4204 6.6709 64.4121 6.73733C64.4093 6.75894 64.4054 6.78197 64.3996 6.80669C64.3994 6.80734 64.3993 6.80784 64.3992 6.80848C64.3963 6.82064 64.3928 6.83318 64.389 6.84607C64.3888 6.84667 64.3888 6.84726 64.3886 6.84786C64.3808 6.87437 64.3709 6.90241 64.3589 6.93199C64.3588 6.93243 64.3587 6.93289 64.3585 6.93333C64.3526 6.94805 64.3461 6.96307 64.339 6.97853C64.3389 6.97884 64.3388 6.97912 64.3386 6.97942C64.3377 6.9813 64.3368 6.98335 64.3359 6.98524C64.3238 7.01097 64.3097 7.03806 64.2941 7.06579C64.2917 7.07005 64.2895 7.07401 64.2871 7.07832C64.2869 7.07861 64.2868 7.07893 64.2867 7.07921C64.2839 7.08403 64.2806 7.08911 64.2777 7.09398C64.2597 7.12419 64.2398 7.15507 64.2171 7.1875L64.2109 7.19825C64.2103 7.19894 64.1924 7.21532 64.1632 7.24299C64.1246 7.27962 64.0627 7.34035 63.9953 7.40856C63.98 7.42405 63.9648 7.4399 63.9488 7.45644C63.8738 7.53387 63.7947 7.61766 63.7207 7.70613L63.6054 7.85425L63.6007 7.86767L63.5984 7.8717L63.5945 7.87573C63.5951 7.87541 63.5958 7.87516 63.5965 7.87484L63.5941 7.87841C63.6346 7.8558 63.6775 7.83385 63.7222 7.81263C63.767 7.79177 63.8138 7.77116 63.8621 7.75133C63.9009 7.73518 63.9403 7.71919 63.9796 7.70434H63.98C64.0195 7.68951 64.0593 7.67522 64.098 7.66183C64.2146 7.62145 64.3167 7.59113 64.4027 7.56651C64.4312 7.55837 64.4649 7.54849 64.4874 7.54235C64.4879 7.54224 64.4878 7.54201 64.4882 7.5419C64.5334 7.52956 64.5649 7.52153 64.5777 7.51818C64.6233 7.49278 64.6635 7.46719 64.6988 7.44166C64.7164 7.42893 64.7331 7.41624 64.7484 7.40363C64.7636 7.39109 64.7779 7.37836 64.791 7.36604C64.8026 7.35507 64.8129 7.3441 64.823 7.33337C64.8242 7.33206 64.8257 7.33065 64.8269 7.32934L64.8273 7.3289C64.8383 7.31692 64.8485 7.30512 64.8577 7.29354L64.8581 7.2931C64.8673 7.28154 64.8756 7.2706 64.8831 7.25954L64.8835 7.25909C64.8909 7.24821 64.8975 7.23718 64.9034 7.22687C64.9037 7.22651 64.904 7.22633 64.9042 7.22597C64.9102 7.21565 64.9152 7.20566 64.9199 7.19599C64.92 7.19568 64.9201 7.19541 64.9202 7.1951C64.9538 7.12564 64.9566 7.07453 64.9566 7.05817V7.05324L64.9523 6.99507V6.98164L64.982 6.98433H65.0093C65.0428 6.98572 65.0729 6.98434 65.1011 6.98164H65.1015C65.1299 6.97927 65.1565 6.97525 65.1808 6.97135L65.2245 6.95793L65.2765 6.93242L65.3394 6.90244L65.3859 6.8653C65.4005 6.84834 65.412 6.8317 65.421 6.81607L65.4214 6.81563C65.4481 6.77101 65.4527 6.73476 65.4527 6.7306L65.4624 6.67243L65.5105 6.68004L65.612 6.68809H65.6124H65.6128C65.631 6.68806 65.649 6.68677 65.6659 6.68496C65.7 6.68129 65.7315 6.67436 65.7605 6.66482H65.7608C65.7753 6.66006 65.7895 6.65457 65.8026 6.64871C65.829 6.63698 65.853 6.62267 65.8745 6.60799H65.8749C65.8856 6.60065 65.8962 6.59289 65.9058 6.58517C65.9155 6.57723 65.9245 6.56953 65.9331 6.56145C66.0012 6.498 66.0323 6.43419 66.0323 6.43168L66.0429 6.40483L66.0464 6.39722L66.0515 6.39812L66.0808 6.40483C66.1315 6.40765 66.1912 6.41333 66.2468 6.41333H66.2472C66.2773 6.41332 66.307 6.41201 66.3351 6.4102C66.3631 6.40838 66.3904 6.40571 66.4159 6.40259C66.4414 6.39947 66.4657 6.39577 66.4882 6.39185C66.5106 6.38794 66.5318 6.38398 66.5507 6.37977C66.5885 6.37133 66.6194 6.36266 66.6405 6.35605C66.6613 6.34953 66.6731 6.3447 66.6737 6.34397L66.6882 6.33905H66.6886L66.6905 6.33994L66.6995 6.34397L66.7343 6.34934C66.7425 6.34932 66.7512 6.34885 66.7601 6.34755C66.7644 6.34691 66.7689 6.34534 66.7733 6.34442C66.7779 6.34343 66.7827 6.34302 66.7874 6.34173C66.9195 6.30665 67.0936 6.16159 67.1725 6.08487H67.1729C67.1717 6.04858 67.1645 6.01681 67.1522 5.98866C67.1452 5.97178 67.1373 5.9557 67.1268 5.94168C67.103 5.91045 67.0722 5.88696 67.0386 5.86874C67.0223 5.8598 67.0051 5.85236 66.9878 5.84592C66.9875 5.84581 66.9873 5.84557 66.987 5.84547C66.9696 5.839 66.9521 5.8337 66.9347 5.82936H66.9343C66.917 5.82506 66.8997 5.82169 66.8835 5.81907C66.8832 5.81902 66.883 5.81911 66.8827 5.81907C66.8664 5.81645 66.8509 5.81458 66.8366 5.81325H66.8362C66.8219 5.81192 66.8143 5.81236 66.803 5.81191C66.7916 5.81145 66.7769 5.81012 66.7694 5.81012H66.769H66.7456L66.7401 5.81056L66.7128 5.8128L66.7034 5.79266L66.6972 5.77566C66.6554 5.68142 66.6033 5.61525 66.5429 5.57876C66.5309 5.57148 66.5188 5.56531 66.5062 5.56042H66.5058C66.4931 5.55555 66.48 5.5517 66.4667 5.54923H66.4663C66.453 5.54678 66.4393 5.54567 66.4253 5.54565H66.4249C66.4136 5.54565 66.4027 5.54644 66.3925 5.54789C66.3382 5.55512 66.3003 5.57742 66.3003 5.57742L66.2577 5.60203L66.2542 5.60382L66.2331 5.54565C66.2234 5.51884 66.2113 5.49722 66.1968 5.48076C66.192 5.47536 66.1869 5.47031 66.1815 5.466H66.1812C66.1596 5.44877 66.1332 5.44013 66.1011 5.44006ZM65.8398 6.8944C65.6961 6.8944 65.5211 6.95712 65.4398 6.98838C65.4396 6.98845 65.4392 6.98875 65.439 6.98882C65.413 6.99885 65.3964 7.00572 65.3945 7.00583L65.3785 7.01612L65.3781 7.01657C65.3412 7.04151 65.2962 7.06399 65.2429 7.08011C65.1892 7.09631 65.1265 7.10606 65.0527 7.10606V7.10651C65.051 7.12065 65.0481 7.13637 65.0441 7.1535V7.15395C65.04 7.17113 65.0345 7.18975 65.0273 7.20943V7.20988C64.9835 7.32874 64.8744 7.4886 64.6117 7.635L64.6027 7.63814C64.6027 7.63814 64.5555 7.65055 64.4804 7.6717C64.4054 7.69285 64.3024 7.72238 64.1918 7.75672C64.0927 7.79064 63.9852 7.82928 63.8839 7.87083C63.8502 7.88467 63.8169 7.89882 63.7851 7.91334L63.7754 7.91826L63.9125 7.94511C64.2813 8.03888 64.6873 8.2129 64.8054 8.2615C64.8164 8.26611 64.8397 8.27603 64.8449 8.27805C64.8451 8.2781 64.8454 8.27801 64.8456 8.27805C64.9098 8.28866 64.9699 8.29414 65.0253 8.29416C65.048 8.29415 65.0693 8.29345 65.0898 8.29193C65.1303 8.28895 65.1666 8.28309 65.1991 8.27537H65.1995C65.2157 8.27151 65.2312 8.26713 65.2456 8.26239C65.2745 8.25284 65.2998 8.24167 65.3218 8.22972C65.4327 8.17001 65.4636 8.09011 65.4636 8.09011L65.4823 8.03596L65.487 8.02432L65.5066 8.03864L65.5378 8.06147C65.548 8.07001 65.5582 8.07729 65.5683 8.08519C65.5753 8.09065 65.5821 8.09704 65.589 8.10219H65.5894C65.6064 8.11483 65.6231 8.12631 65.6398 8.13709C65.6564 8.14788 65.6727 8.15768 65.689 8.16663L65.6894 8.16708C65.7708 8.21179 65.8469 8.2333 65.9163 8.2333H65.9277L65.9788 8.2257L66.0273 8.20914C66.0877 8.1857 66.1171 8.14604 66.1171 8.14604L66.1351 8.11919L66.1507 8.09906L66.1866 8.13575C66.2869 8.23318 66.3882 8.2955 66.4929 8.3228C66.4965 8.32375 66.5001 8.32507 66.5038 8.32593H66.5042C66.5069 8.32657 66.5097 8.32669 66.5124 8.32728C66.5458 8.33456 66.5798 8.33888 66.614 8.33891C66.6311 8.3389 66.648 8.33788 66.6636 8.33623C66.6948 8.33291 66.7228 8.32676 66.7468 8.31967H66.7472C66.759 8.31614 66.7701 8.31224 66.78 8.30848C66.7997 8.30093 66.8155 8.29311 66.8261 8.28745C66.8363 8.28192 66.8421 8.27805 66.8421 8.27805L66.8722 8.25971L66.8975 8.28566C67.0487 8.42844 67.2062 8.52625 67.3257 8.58816C67.3553 8.60358 67.3825 8.61637 67.4069 8.62754C67.4071 8.62765 67.4074 8.62788 67.4077 8.62799C67.4318 8.63902 67.4534 8.64813 67.471 8.65528L67.4714 8.65573C67.5069 8.67028 67.5275 8.67692 67.528 8.67766L67.5421 8.68303L67.5503 8.69063L67.5526 8.69332C67.5593 8.7026 67.5675 8.71161 67.5768 8.71972H67.5772C67.6049 8.74407 67.6439 8.76313 67.6928 8.777H67.6932C67.7094 8.78158 67.7269 8.78564 67.7452 8.78908H67.7456C67.7639 8.79252 67.7828 8.79529 67.803 8.79758C67.8034 8.79763 67.8038 8.79754 67.8042 8.79758C67.8242 8.79983 67.8452 8.80182 67.867 8.80295C67.89 8.80416 67.9138 8.80474 67.9385 8.80474C68.0372 8.8046 68.1264 8.79372 68.1651 8.78819C68.1802 8.75524 68.19 8.72292 68.194 8.69019C68.1983 8.65745 68.1973 8.62429 68.1905 8.58995C68.1443 8.3552 67.8685 8.17055 67.8651 8.16707H67.8647L67.837 8.14828V8.1089C67.8449 7.84725 67.7484 7.71924 67.6604 7.65692C67.6119 7.62231 67.5654 7.60775 67.5409 7.60188C67.5314 7.59964 67.5257 7.5987 67.5237 7.5983H67.5229L67.4725 7.59069L67.4792 7.52984V7.52939C67.4889 7.45791 67.4741 7.40212 67.4444 7.36024C67.4219 7.32841 67.3888 7.30221 67.3467 7.28193C67.2766 7.24822 67.1812 7.23091 67.0659 7.23091H67.0655C67.0256 7.23091 66.9904 7.23324 66.9585 7.23628C66.8931 7.2424 66.8464 7.2515 66.8464 7.2515L66.7682 7.26492L66.7784 7.21973L66.7889 7.17498C66.805 7.11691 66.8002 7.0746 66.7889 7.04834C66.7785 7.03242 66.7611 7.01979 66.7374 7.0112C66.7256 7.00691 66.7121 7.00358 66.6971 7.00136C66.6822 6.99913 66.6657 6.99778 66.6479 6.99778C66.5948 6.99778 66.5347 7.00775 66.4741 7.02239C66.3833 7.04431 66.2913 7.07741 66.2225 7.10517C66.154 7.13285 66.1081 7.15536 66.1077 7.15663L66.0698 7.17498L66.0319 7.19333L66.0331 7.17632L66.0405 7.09264C66.043 7.06221 66.0426 7.03684 66.0386 7.01478C66.0366 7.00372 66.0338 6.99372 66.03 6.98435C66.0261 6.975 66.0214 6.96636 66.0155 6.9584H66.0151C65.9853 6.91888 65.9249 6.8944 65.8398 6.8944ZM61.1173 6.89574C61.0321 6.89574 60.9721 6.91656 60.9399 6.95884C60.9347 6.9661 60.9305 6.97399 60.927 6.983C60.9148 7.0114 60.9116 7.04678 60.9169 7.09353L60.9263 7.19019L60.8497 7.15484C60.8479 7.15221 60.5597 7.01606 60.3466 7.00001C60.3324 6.99887 60.3186 6.99822 60.3052 6.99822C60.3 6.99822 60.2957 6.99891 60.2907 6.99912C60.2791 6.99962 60.2677 7.00025 60.2575 7.0018C60.2546 7.00225 60.2525 7.0035 60.2497 7.00404C60.2388 7.0061 60.2275 7.00825 60.2185 7.01164C60.2078 7.01566 60.1984 7.02051 60.1907 7.02641C60.1817 7.03289 60.1742 7.04032 60.1692 7.04879C60.1532 7.07503 60.1529 7.11735 60.1642 7.17542L60.1853 7.26537L60.1114 7.24971C60.1114 7.24971 60.0094 7.22823 59.8919 7.22823C59.7072 7.22823 59.5733 7.27647 59.5153 7.358C59.515 7.35841 59.5149 7.35893 59.5146 7.35934C59.5142 7.35982 59.5137 7.36021 59.5134 7.36069C59.4834 7.39988 59.4717 7.45184 59.4782 7.51686C59.4785 7.52057 59.4782 7.5238 59.4786 7.5276L59.479 7.53431L59.4814 7.58846L59.4349 7.59651C59.429 7.59769 59.3391 7.61155 59.2571 7.69093C59.1821 7.76205 59.1131 7.88678 59.1208 8.10888V8.14781L59.0954 8.16482C59.0934 8.16709 58.9105 8.28971 58.8158 8.46196C58.7931 8.50236 58.7751 8.54541 58.7654 8.59039C58.7517 8.65907 58.7605 8.72273 58.7888 8.78862C58.8302 8.79424 58.9174 8.80518 59.0193 8.80518C59.191 8.80518 59.3171 8.77537 59.381 8.71747C59.3894 8.71008 59.3965 8.70211 59.4029 8.69376L59.4142 8.68346L59.4279 8.67765C59.4279 8.67542 59.758 8.57201 60.0603 8.28609L60.0856 8.26014L60.1134 8.27848C60.1134 8.27848 60.1827 8.32501 60.2911 8.33666C60.3073 8.33855 60.3241 8.33979 60.3419 8.33979C60.4759 8.33979 60.6082 8.28284 60.7313 8.1693C60.7432 8.15851 60.7552 8.14799 60.7669 8.13618L60.8044 8.0986L60.8364 8.14379C60.8389 8.14603 60.8686 8.18558 60.9267 8.20957L60.9774 8.22524L61.0282 8.23374H61.0391C61.1245 8.23374 61.2168 8.20173 61.3184 8.13619C61.3521 8.11498 61.3865 8.09038 61.4223 8.0619L61.4571 8.03326L61.4712 8.02208L61.4895 8.09099C61.4944 8.09099 61.5658 8.29415 61.9309 8.29415C61.9725 8.29415 62.0178 8.29027 62.0649 8.2843C62.0658 8.28418 62.0668 8.28398 62.0676 8.28386C62.082 8.282 62.0957 8.28092 62.1106 8.27849C62.1557 8.26085 62.4319 8.13933 62.7387 8.03641C62.7699 8.02606 62.8016 8.01624 62.8332 8.00642C62.8533 8.00009 62.8733 7.99367 62.8934 7.98763C62.9452 7.97233 62.9969 7.95813 63.0477 7.94557L63.0891 7.93662L63.1778 7.91872L63.1758 7.91737L63.1797 7.91648L63.1723 7.91111C63.0431 7.85303 62.8981 7.79961 62.7665 7.75494C62.5447 7.68625 62.3598 7.63635 62.3598 7.63635L62.3461 7.63322C61.9952 7.44001 61.9194 7.21765 61.9028 7.10429C61.7575 7.10429 61.6535 7.06683 61.5813 7.01434L61.561 7.00405C61.5591 7.00405 61.3093 6.89574 61.1173 6.89574ZM63.3382 8.01804L63.2597 8.02833C62.8536 8.08538 62.252 8.34707 62.1695 8.38318C62.1639 8.38553 62.1405 8.39556 62.1398 8.39571L62.1382 8.39616L62.1289 8.39884C62.0567 8.40947 61.9928 8.41495 61.9324 8.41495C61.8145 8.41495 61.7219 8.39605 61.65 8.36797C61.5303 8.32116 61.4667 8.24917 61.4332 8.19792C61.4328 8.19822 61.4324 8.19852 61.432 8.19881C61.4318 8.19851 61.4314 8.19822 61.4312 8.19792C61.3635 8.24761 61.2986 8.28581 61.2359 8.31248C61.2337 8.31341 61.2315 8.31471 61.2293 8.31561C61.229 8.31572 61.2288 8.31595 61.2285 8.31606C61.2227 8.31842 61.2171 8.32017 61.2113 8.32232C61.1849 8.33232 61.1584 8.34045 61.1328 8.34604C61.1173 8.34941 61.1015 8.35193 61.0863 8.35365C61.0711 8.35533 61.0559 8.35633 61.041 8.35633L61.0109 8.34872L61.0113 8.35141H61.0105L61.0144 8.37602L61.0226 8.43554L61.0457 8.52056H60.9769C60.8336 8.52056 60.4457 8.56036 60.3555 8.74296C60.3301 8.79545 60.3303 8.8619 60.3625 8.9412L60.3902 9.00966L60.334 9.02801C60.334 9.02801 60.3095 9.03697 60.2719 9.05396C60.253 9.06251 60.2304 9.0734 60.2059 9.08618C60.1813 9.099 60.1542 9.11433 60.1266 9.13138C60.0988 9.14852 60.0701 9.16772 60.0418 9.1891C60.0277 9.19973 60.0134 9.21099 59.9996 9.22266C59.9301 9.28144 59.8664 9.35364 59.8289 9.4388C59.7967 9.52814 59.7879 9.61852 59.8156 9.71624L59.8246 9.75562L59.8262 9.76367L59.7965 9.78962C59.7947 9.79067 59.7886 9.79528 59.7797 9.8035C59.7162 9.86101 59.5123 10.0983 59.6074 10.5678L59.6133 10.5897L59.6141 10.5942L59.6129 10.5964L59.5981 10.6179C59.5961 10.6257 59.2518 11.2135 59.4434 11.5066C59.444 11.5064 59.4448 11.506 59.4453 11.5057C59.4455 11.506 59.4456 11.5064 59.4457 11.5066C59.5915 11.4463 59.9046 11.2761 59.9719 11.0623L59.977 11.0493L59.9813 11.0439L59.9856 11.0385H59.986C59.9861 11.0382 59.9955 11.0268 59.9977 11.0242C60.0323 10.9855 60.2746 10.7088 60.4824 10.2451L60.4906 10.221L60.4965 10.2053L60.4988 10.2058L60.5309 10.2111L60.5606 10.2129H60.5629C60.5741 10.2128 60.5871 10.212 60.602 10.2098C60.7117 10.1946 60.9162 10.1065 61.0871 9.68936L61.1125 9.62582L61.1551 9.66296L61.1613 9.66878L61.1727 9.67191L61.2398 9.69205C61.2837 9.69205 61.3621 9.67061 61.4586 9.56227L61.5008 9.51216C61.551 9.4485 61.6046 9.36419 61.6621 9.25305L61.7016 9.17071L61.7121 9.18951L61.7246 9.21636L61.7434 9.25037C61.7443 9.25246 61.7507 9.26383 61.7644 9.27722C61.7862 9.29967 61.8286 9.32957 61.9023 9.32957C62.0174 9.32957 62.1564 9.26065 62.3246 9.12328C62.3733 9.05961 62.7636 8.56266 63.114 8.22651L63.2574 8.0945L63.3496 8.02335H63.35V8.0229L63.3464 8.02156L63.3402 8.01798H63.3386L63.3382 8.01804ZM63.6206 8.01893L63.6085 8.02385L63.7011 8.09545C63.7302 8.12171 63.7644 8.153 63.7976 8.18316C63.8132 8.19774 63.8287 8.2119 63.8449 8.22791C64.1697 8.54246 64.5235 8.98575 64.6081 9.0938C64.6137 9.10103 64.6286 9.11982 64.6316 9.12378H64.6319C64.673 9.15826 64.713 9.18878 64.7515 9.21462H64.7519C64.771 9.22746 64.7897 9.23927 64.8081 9.24997H64.8085C64.8269 9.26065 64.8448 9.27051 64.8624 9.27906H64.8628C64.8804 9.28759 64.8976 9.29502 64.9144 9.30143H64.9148C64.9315 9.30782 64.948 9.31327 64.964 9.31754C64.9799 9.32184 64.9954 9.32524 65.0105 9.32739H65.0108C65.0258 9.32951 65.0406 9.3305 65.0546 9.33052C65.0688 9.3305 65.0824 9.32941 65.0944 9.32739C65.1064 9.32535 65.1173 9.32235 65.1272 9.31888C65.1606 9.30713 65.1821 9.28883 65.1956 9.27413C65.2055 9.26347 65.2124 9.25466 65.2132 9.254L65.2253 9.23162L65.2319 9.21954L65.2362 9.21104L65.2538 9.17837L65.2921 9.254C65.3291 9.32454 65.364 9.38131 65.3972 9.4321C65.4077 9.44835 65.4179 9.46379 65.428 9.47819C65.4356 9.48918 65.4443 9.50316 65.4515 9.51309L65.4952 9.56366C65.5698 9.64489 65.6302 9.67701 65.6761 9.68806H65.6765C65.6914 9.69163 65.7052 9.69296 65.7171 9.69298C65.7296 9.69295 65.7409 9.69185 65.7503 9.68985C65.7756 9.68441 65.7891 9.67433 65.7933 9.67061C65.7937 9.67029 65.7957 9.669 65.796 9.66882L65.8104 9.65584L65.8397 9.63033L65.8671 9.6903C65.9776 9.95735 66.1023 10.0896 66.2061 10.1543C66.2064 10.1545 66.2066 10.1546 66.2069 10.1548C66.2179 10.1616 66.2289 10.1678 66.2393 10.1731H66.2397C66.2506 10.1787 66.2608 10.1837 66.271 10.1879H66.2714C66.2746 10.1892 66.2776 10.1903 66.2807 10.1915C66.3008 10.1991 66.3185 10.2037 66.3354 10.2071C66.3411 10.2083 66.3478 10.2104 66.353 10.2112C66.3532 10.2112 66.3536 10.2111 66.3538 10.2112C66.3557 10.2115 66.357 10.2114 66.3589 10.2116C66.3722 10.2133 66.3847 10.2143 66.3948 10.2143H66.4257L66.4596 10.2063L66.4682 10.2246L66.4768 10.2456C66.5466 10.4031 66.621 10.5376 66.6909 10.6515C66.7309 10.7169 66.7697 10.7773 66.8046 10.8269C66.828 10.8603 66.8502 10.8902 66.8698 10.916C66.8701 10.9163 66.8703 10.917 66.8706 10.9173C66.8899 10.9429 66.9074 10.9649 66.9217 10.9826C66.927 10.9892 66.9262 10.988 66.9307 10.9934C66.9505 11.0174 66.9681 11.0384 66.9686 11.0395L66.9799 11.0498L66.9827 11.0627C66.9957 11.103 67.0171 11.1416 67.0444 11.1782L67.0448 11.1786C67.0629 11.2029 67.0836 11.2261 67.1061 11.2485L67.1065 11.2489C67.1177 11.26 67.1293 11.271 67.1413 11.2816L67.1417 11.282C67.1658 11.3033 67.1913 11.3234 67.2174 11.3424L67.2178 11.3429C67.2245 11.3478 67.2314 11.352 67.2381 11.3567C67.3373 11.4261 67.4418 11.4787 67.5108 11.5071V11.5067C67.5114 11.5069 67.5122 11.5073 67.5127 11.5076C67.6564 11.2873 67.4972 10.9016 67.4088 10.7204C67.3796 10.6606 67.3581 10.6229 67.3581 10.6215L67.3483 10.6059L67.342 10.5947L67.3424 10.5916L67.3491 10.5687C67.4302 10.1659 67.2918 9.93374 67.2108 9.83978C67.1974 9.82422 67.1857 9.81259 67.1768 9.80443H67.1764C67.1675 9.79627 67.1618 9.79154 67.16 9.79056L67.1303 9.76461L67.1331 9.74939L67.1409 9.71672C67.1687 9.61901 67.1643 9.52908 67.1249 9.44197C67.1244 9.44089 67.1238 9.43991 67.1233 9.43884C67.0078 9.16633 66.6249 9.03163 66.6249 9.03163L66.5635 9.01105L66.5897 8.94214V8.94169C66.6155 8.88239 66.6242 8.83149 66.6143 8.78641C66.6114 8.7714 66.6064 8.75697 66.5995 8.74301C66.5334 8.60824 66.2977 8.55085 66.1237 8.53045H66.1233C66.0653 8.52366 66.0141 8.52061 65.9784 8.52061H65.9104L65.9261 8.45885L65.9319 8.43916L65.9358 8.4141L65.9471 8.35235L65.9452 8.3528L65.9456 8.35145L65.9276 8.35727H65.9272C65.9244 8.35726 65.9215 8.35689 65.9186 8.35682C65.8888 8.35627 65.8588 8.35317 65.8288 8.34698H65.8284C65.7625 8.33332 65.696 8.30615 65.6276 8.26688H65.6272C65.5934 8.24723 65.5594 8.22447 65.5249 8.19886L65.5245 8.19931C65.524 8.19894 65.5234 8.19877 65.5229 8.19841C65.4966 8.23918 65.4496 8.2936 65.3702 8.33758L65.3698 8.33803C65.3387 8.35522 65.3009 8.36968 65.2593 8.38233C65.2437 8.38705 65.2287 8.39193 65.2116 8.39575C65.1576 8.4078 65.0959 8.41544 65.0245 8.41544H65.0241H65.0237C64.962 8.41542 64.895 8.41223 64.8261 8.39889L64.8202 8.39754L64.8187 8.3971C64.8162 8.3964 64.7717 8.37663 64.6999 8.34698C64.5216 8.27249 64.1705 8.13386 63.8691 8.06283C63.8687 8.06273 63.8683 8.06248 63.8679 8.06238C63.8383 8.05541 63.8092 8.04912 63.7808 8.04359C63.7802 8.04348 63.7798 8.04325 63.7792 8.04314C63.7696 8.04127 63.7606 8.0399 63.7511 8.03822C63.7328 8.03491 63.7143 8.03139 63.6968 8.02882L63.6206 8.01893ZM63.4761 8.03415C63.3189 8.18491 63.2246 8.40698 63.1816 8.52862V8.52907C63.1674 8.56931 63.1588 8.59826 63.1554 8.61006V8.61588L63.1898 9.77174L62.9663 9.94089L63.1347 11.0122L62.8644 11.1813L63.1027 12.3873L62.8323 12.6124L63.13 14.0247L62.9038 14.1513L62.9046 14.154L62.9038 14.1545L63.1898 15.4455L62.9663 15.6961L62.9667 15.6983L62.9663 15.6988L63.2546 17.1271H61.8972C61.8972 17.1271 61.8289 17.1601 61.7921 17.2216L61.7917 17.222C61.7881 17.2282 61.7861 17.2354 61.7831 17.2422C61.7803 17.2487 61.7765 17.2547 61.7746 17.2618V17.2623C61.7706 17.2767 61.7685 17.2922 61.7695 17.3088V17.3093C61.7705 17.3259 61.7741 17.3438 61.7816 17.3625C61.8024 17.4201 61.913 17.5673 62.046 17.7272V17.7277C62.2678 17.9941 62.5523 18.2948 62.5898 18.27C62.6424 18.236 62.6424 17.9316 62.6843 17.8758C62.7097 17.8361 62.9133 18.1878 63.0449 18.2727C63.0449 18.2727 63.2665 18.0901 63.4741 17.9393C63.6794 18.0873 63.8202 18.2727 63.8202 18.2727C63.9543 18.1878 64.2447 17.8309 64.2749 17.8677C64.2792 17.8747 64.2832 17.8858 64.2866 17.8995V17.9C64.29 17.9136 64.2931 17.93 64.296 17.9483C64.296 17.9486 64.2959 17.9489 64.296 17.9492C64.3017 17.9859 64.3067 18.0296 64.3124 18.0731C64.3125 18.0736 64.3123 18.074 64.3124 18.0745C64.3181 18.1178 64.3249 18.1606 64.3335 18.1948C64.3422 18.2302 64.3528 18.2576 64.3675 18.2678C64.3965 18.2848 64.5844 18.0945 64.7722 17.8816C64.9599 17.6686 65.1476 17.433 65.1776 17.3576C65.1984 17.3 65.187 17.2517 65.1647 17.2144C65.1281 17.1522 65.0604 17.1195 65.0604 17.1195H63.7354L63.989 15.6988L63.9886 15.6983L63.989 15.6961L63.7651 15.4455L64.0515 14.1545L64.0507 14.154L64.0515 14.1513L63.8296 14.0247L64.1225 12.6124L63.8554 12.3873L64.0909 11.1813L63.8202 11.0122L63.9889 9.9409L63.7651 9.77175L63.7991 8.61589C63.7991 8.61589 63.7934 8.59307 63.7812 8.55592C63.7444 8.44371 63.6494 8.19874 63.4761 8.03415ZM63.7058 8.25297C63.8112 8.47179 63.9118 8.74733 63.9843 8.9618C64.0008 9.01086 64.0165 9.05666 64.0296 9.09739C64.0611 9.19505 64.0833 9.26854 64.0898 9.29205C64.1357 9.37885 64.1791 9.44691 64.2198 9.50013C64.2201 9.50043 64.2204 9.50073 64.2206 9.50102C64.2339 9.51837 64.2474 9.53503 64.2601 9.54935L64.2605 9.5498C64.4148 9.72617 64.5187 9.68584 64.5187 9.68584L64.5741 9.6657L64.5835 9.73685C64.6342 10.2316 64.8446 10.247 64.8534 10.247H64.862L64.8995 10.2497V10.3079C64.9064 10.5821 65.0002 10.7398 65.0772 10.8243C65.131 10.8839 65.1774 10.9086 65.1811 10.9106L65.1944 10.9164L65.2093 10.9245L65.214 10.9643C65.2296 11.3686 65.3503 11.6863 65.3503 11.6893L65.3589 11.7076L65.3569 11.7233C65.3452 11.8634 65.5166 12.1195 65.639 12.2625C65.6396 12.2632 65.6403 12.264 65.6409 12.2647L65.7358 12.1873L65.7472 12.1784V12.1779C65.8184 12.0589 65.8087 11.8401 65.794 11.73C65.7922 11.714 65.7903 11.7004 65.7886 11.6893L65.7823 11.6503L65.8046 11.6275C66.0493 11.389 65.9064 11.1145 65.8991 11.1039L65.8737 11.0507L65.9128 11.0167H65.9132L65.9202 11.0023L65.98 10.8891C65.9846 10.7976 65.9359 10.6877 65.8768 10.5898C65.8626 10.5658 65.8477 10.5425 65.8327 10.5204C65.8323 10.5199 65.8319 10.5196 65.8315 10.5191C65.7864 10.4529 65.7415 10.3977 65.712 10.3656L65.71 10.3633L65.6511 10.3016L65.7218 10.2627L65.7815 10.1884C65.7816 10.1878 65.7815 10.1872 65.7815 10.1866L65.7819 10.1861C65.7858 10.0644 65.535 9.83443 65.3546 9.7127L65.2855 9.66437L65.3523 9.60933L65.369 9.58964L65.373 9.58606L65.3726 9.58561C65.3336 9.53033 65.2918 9.46354 65.246 9.38201C65.2457 9.38231 65.2452 9.3826 65.2448 9.3829C65.2446 9.38253 65.2443 9.38238 65.244 9.38201C65.2268 9.39812 65.2034 9.41451 65.1749 9.42765C65.1731 9.42848 65.1717 9.42953 65.1698 9.43034C65.1695 9.43046 65.1693 9.43066 65.1691 9.43078C65.1614 9.43402 65.1533 9.43707 65.1448 9.43973C65.1445 9.43983 65.1443 9.44009 65.1441 9.44018C65.1181 9.44831 65.0884 9.45316 65.0542 9.45316C64.9226 9.45316 64.7585 9.37392 64.5738 9.22315L64.5648 9.21241C64.5617 9.20927 64.3721 8.96527 64.1394 8.70137C64.0936 8.64936 64.0461 8.59618 63.998 8.5443C63.9974 8.54364 63.9966 8.54317 63.996 8.54251C63.9479 8.49067 63.8996 8.44 63.8515 8.39171C63.8509 8.39107 63.8502 8.39056 63.8495 8.38992C63.8435 8.3839 63.8376 8.3784 63.8316 8.37247C63.8139 8.35502 63.7962 8.33759 63.7788 8.32101C63.7542 8.29745 63.7297 8.27441 63.7058 8.25297ZM63.2503 8.25386C62.8784 8.58725 62.4006 9.2059 62.3914 9.21374L62.3816 9.22448C62.2678 9.3186 62.162 9.38486 62.0656 9.42137C62.0084 9.44299 61.9543 9.45421 61.9039 9.45448C61.9013 9.45448 61.899 9.45409 61.8965 9.45404C61.8759 9.4537 61.8569 9.45179 61.8394 9.44822C61.8392 9.44816 61.8389 9.44827 61.8386 9.44822C61.8292 9.44625 61.8203 9.44377 61.8117 9.44106H61.8113C61.8027 9.43834 61.7945 9.43497 61.7867 9.43166H61.7863C61.7705 9.42492 61.7564 9.41709 61.7437 9.40884C61.731 9.40054 61.7201 9.39184 61.7101 9.38333L61.7097 9.38378C61.7087 9.38569 61.7076 9.38725 61.7066 9.38915C61.6861 9.42738 61.666 9.46276 61.6461 9.49476L61.6457 9.49521C61.6244 9.52892 61.603 9.5593 61.5808 9.58694L61.5933 9.59813L61.6043 9.61021L61.6719 9.6648L61.5992 9.71403C61.4218 9.8352 61.1697 10.0659 61.1746 10.187L61.175 10.1875C61.175 10.1881 61.1746 10.1887 61.1746 10.1893L61.2348 10.2636L61.3047 10.3025L61.2484 10.3647C61.1749 10.4437 60.9936 10.6764 60.9793 10.8538C60.9793 10.8542 60.9793 10.8547 60.9793 10.8551C60.9784 10.8665 60.9783 10.8779 60.9789 10.8887C60.9789 10.8893 60.9789 10.8899 60.9789 10.8905L60.9957 10.9232L61.0426 11.018L61.0629 11.0323L61.0859 11.0516L61.0566 11.1026C61.0539 11.111 60.9962 11.2216 61.0129 11.3608V11.3613C61.0132 11.3639 61.0141 11.3666 61.0145 11.3693C61.016 11.3805 61.0177 11.3922 61.0203 11.4038C61.0236 11.418 61.0277 11.4326 61.0328 11.4472V11.4476C61.0535 11.5071 61.09 11.5689 61.1512 11.6284L61.1742 11.6521L61.1695 11.6897C61.1686 11.6906 61.1604 11.7361 61.1555 11.8016C61.1554 11.8024 61.1555 11.803 61.1555 11.8038C61.1539 11.8255 61.1524 11.8491 61.152 11.8741V11.8745C61.1519 11.8762 61.152 11.8782 61.152 11.8799C61.1511 11.9414 61.155 12.0098 61.1691 12.0723V12.0728C61.172 12.0856 61.1755 12.0981 61.1793 12.1103V12.1108C61.1804 12.1144 61.182 12.1176 61.1832 12.1211C61.1903 12.1417 61.1983 12.1616 61.2086 12.1793L61.2516 12.2133L61.3152 12.2656C61.4329 12.1288 61.5912 11.8952 61.5992 11.7515C61.5998 11.7426 61.5997 11.7346 61.5992 11.7264V11.7242V11.7085V11.7081L61.6016 11.6924C61.6034 11.6903 61.674 11.509 61.716 11.2476C61.723 11.2045 61.7294 11.1591 61.7344 11.112V11.1116C61.7393 11.0643 61.7429 11.0155 61.7449 10.9652V10.9648L61.7453 10.9581L61.7476 10.925L61.775 10.9115C61.7867 10.9065 62.0472 10.7713 62.0547 10.3088V10.3083V10.2479H62.1027C62.1039 10.2479 62.1085 10.248 62.1152 10.2466C62.1355 10.2423 62.1775 10.2272 62.2222 10.1781C62.2297 10.1699 62.2374 10.161 62.2449 10.1508V10.1504C62.2524 10.1402 62.2601 10.1292 62.2675 10.1168V10.1163C62.275 10.1038 62.2822 10.0902 62.2894 10.0752C62.3038 10.0451 62.3174 10.0097 62.3296 9.96823C62.3358 9.94753 62.3415 9.92542 62.3468 9.90155C62.3575 9.85377 62.3666 9.79961 62.373 9.73777L62.3816 9.66393L62.391 9.66751L62.4378 9.68676C62.4378 9.68676 62.5261 9.7182 62.6601 9.58831C62.7088 9.54137 62.7634 9.47259 62.8222 9.37351C62.8369 9.34882 62.852 9.32249 62.8671 9.29386V9.29341C62.8881 9.21916 63.0631 8.64481 63.2503 8.25614C63.2497 8.25672 63.249 8.25736 63.2484 8.25794C63.249 8.25663 63.2497 8.25516 63.2503 8.25386ZM56.6369 16.9611C56.0811 16.9543 55.5192 17.0395 54.999 17.2618C54.999 17.2618 55.0338 17.2584 55.1002 17.2569C55.1665 17.2554 55.2643 17.2558 55.3912 17.2632C55.3914 17.2632 55.3914 17.2632 55.3916 17.2632C55.3961 17.2634 55.4019 17.2642 55.4064 17.2645C55.9179 17.2961 56.8794 17.4412 58.111 18.0252C58.2659 18.0988 58.4252 18.1788 58.5883 18.2669C58.7512 18.3548 58.918 18.4505 59.0883 18.5542C59.0891 18.5547 59.0899 18.555 59.0907 18.5555C59.0909 18.5557 59.0912 18.5558 59.0914 18.556C59.2622 18.6601 59.4365 18.7725 59.6141 18.8938C59.7919 19.0152 59.9728 19.1454 60.1567 19.2854C61.0965 20.0019 62.0221 20.846 62.8074 21.6132C62.5878 21.8446 62.3667 22.0853 62.1453 22.3359C61.924 22.586 61.7023 22.8461 61.4808 23.1167L61.4402 23.0706H61.4383H61.35H61.348L61.332 23.1391L61.2648 23.033C61.3087 22.9169 61.2763 22.7692 61.1793 22.6737C61.1491 22.6431 61.1157 22.6204 61.0809 22.6052C61.0747 22.6025 61.0684 22.6012 61.0621 22.599C60.9644 22.5638 60.8591 22.5879 60.7942 22.6737C60.7819 22.6894 60.7722 22.7064 60.7637 22.7243C60.7555 22.7415 60.7489 22.7593 60.7442 22.778C60.7346 22.8155 60.732 22.855 60.7359 22.8948C60.7439 22.9742 60.7783 23.0536 60.8383 23.1131C60.8579 23.133 60.8786 23.1496 60.9 23.1628C60.9429 23.1893 60.9885 23.2025 61.0332 23.2031C61.0555 23.2034 61.0774 23.2006 61.0988 23.1946C61.1588 23.3035 61.1223 23.4116 61.1223 23.4116C61.0927 23.4862 61.0394 23.5591 60.9695 23.626C60.9345 23.6595 60.8951 23.6916 60.8527 23.7217C60.6841 23.8419 60.4657 23.9315 60.2582 23.9602C60.2065 23.9674 60.1552 23.9705 60.1059 23.9696C60.0671 23.9693 60.0299 23.9674 59.9938 23.9634C59.9814 23.962 59.9699 23.959 59.9578 23.9571C59.7263 23.921 59.5367 23.7945 59.2793 23.5038C59.1683 23.3766 59.0617 23.3295 58.9676 23.3248C58.8736 23.3201 58.7919 23.3579 58.7309 23.4004C58.6577 23.4515 58.6145 23.5096 58.6145 23.5096C58.5836 23.5604 58.5583 23.6108 58.5387 23.6609C58.5191 23.7109 58.505 23.76 58.4957 23.809C58.4957 23.8091 58.4958 23.8093 58.4957 23.8094C58.4866 23.8582 58.4822 23.9065 58.4825 23.954C58.4825 23.959 58.4839 23.9637 58.484 23.9687C58.4961 24.4388 58.9476 24.8322 59.4168 24.9948C59.5116 25.0277 59.6071 25.0514 59.6996 25.0642C59.7459 25.0706 59.7915 25.0744 59.836 25.0754C60.6968 25.0966 61.4821 24.4857 61.6805 24.2104C61.7536 24.1162 61.8069 24.074 61.8727 24.1124C61.908 24.1299 61.9318 24.1935 61.9437 24.2569C61.9443 24.26 61.9456 24.2627 61.9461 24.2659C61.9461 24.266 61.9461 24.2662 61.9461 24.2663C61.9461 24.2665 61.9461 24.2666 61.9461 24.2668C61.9352 24.372 61.9698 24.4803 62.05 24.5594C62.0947 24.6056 62.1472 24.6338 62.2004 24.6449C62.2061 24.6461 62.2118 24.6459 62.2176 24.6467C62.2993 24.6586 62.3812 24.6305 62.4379 24.5594C62.5185 24.451 62.5143 24.2874 62.4301 24.167C62.43 24.1668 62.4298 24.1667 62.4297 24.1665C62.4292 24.1659 62.4286 24.1654 62.4281 24.1647C62.4165 24.1484 62.4036 24.1326 62.3891 24.1182C62.389 24.1181 62.3891 24.1178 62.3891 24.1177C62.3267 24.0546 62.2463 24.0228 62.1727 24.0278H62.1723L62.1496 24.0197L62.1746 23.9987V23.898L62.0758 23.7871C62.1657 23.6854 62.3394 23.4912 62.5789 23.2317C62.6987 23.102 62.8345 22.9556 62.9851 22.7968C62.9852 22.7967 62.9855 22.7968 62.9855 22.7968C63.136 22.638 63.3008 22.4663 63.4777 22.2853C63.8319 22.6475 64.1375 22.9723 64.3769 23.2317C64.6163 23.4913 64.7892 23.6854 64.8784 23.7871L64.7812 23.8981V23.9987L64.8089 24.0198L64.7835 24.0278C64.7099 24.0228 64.6291 24.0547 64.5667 24.1178C64.5667 24.1178 64.5668 24.1181 64.5667 24.1182C64.5515 24.1333 64.5377 24.1494 64.5257 24.1665C64.4776 24.2355 64.4557 24.3183 64.4613 24.3966C64.4613 24.3968 64.4612 24.3972 64.4613 24.3974C64.4654 24.4565 64.4848 24.5129 64.5202 24.5594C64.5781 24.6355 64.6684 24.6639 64.7566 24.6449C64.8095 24.6335 64.8615 24.6051 64.9058 24.5594C64.9818 24.4829 65.0214 24.3719 65.0097 24.2663C65.0155 24.2331 65.024 24.1992 65.0358 24.1715C65.0477 24.1437 65.0626 24.1221 65.0812 24.1128C65.1479 24.0732 65.2012 24.1155 65.2753 24.2104C65.3004 24.2448 65.3345 24.2843 65.3769 24.3272C65.6729 24.6283 66.3672 25.094 67.1249 25.0754C67.169 25.0744 67.214 25.0706 67.26 25.0642C67.3063 25.0577 67.3534 25.0486 67.4006 25.0369C67.9188 24.9089 68.4692 24.478 68.4737 23.9544C68.4737 23.9543 68.4737 23.9541 68.4737 23.954C68.4737 23.9493 68.4725 23.9444 68.4725 23.9397C68.4717 23.8645 68.4573 23.7874 68.4322 23.7092C68.427 23.6929 68.4249 23.6768 68.4186 23.6604C68.3992 23.6104 68.3746 23.5604 68.344 23.5096C68.344 23.5096 68.3243 23.4839 68.2897 23.4514C68.2551 23.4192 68.2054 23.3804 68.1448 23.3543C68.1444 23.3542 68.1439 23.354 68.1436 23.3539C68.1135 23.341 68.0808 23.3315 68.0459 23.327C68.0302 23.3251 68.0141 23.3248 67.9975 23.3253C67.9948 23.3253 67.9924 23.3247 67.9897 23.3248C67.8957 23.3295 67.7894 23.3766 67.6791 23.5038C67.4083 23.8097 67.2117 23.9354 66.9643 23.9634C66.9296 23.9673 66.8936 23.9693 66.8565 23.9696C66.8063 23.9706 66.7546 23.9674 66.7022 23.9602C66.6621 23.9548 66.6216 23.9454 66.5811 23.9356C66.5682 23.9325 66.5553 23.9311 66.5425 23.9276C66.4375 23.899 66.3338 23.8572 66.2389 23.8059C66.2386 23.8057 66.2381 23.8056 66.2378 23.8054C66.0476 23.7024 65.8927 23.5612 65.8339 23.4121C65.8339 23.4121 65.7994 23.3035 65.8569 23.1946C65.8784 23.2006 65.9008 23.2034 65.9233 23.2031C65.9259 23.2031 65.9285 23.2019 65.9311 23.2018C65.9736 23.1997 66.0167 23.1877 66.0569 23.1628C66.0571 23.1627 66.0572 23.1625 66.0573 23.1624C66.0787 23.1491 66.0991 23.133 66.1182 23.1131C66.158 23.0728 66.1861 23.0231 66.2034 22.9708C66.2053 22.9651 66.208 22.9596 66.2096 22.9538C66.2097 22.9537 66.2096 22.9535 66.2096 22.9534C66.215 22.9341 66.2188 22.9144 66.221 22.8948C66.221 22.8945 66.2209 22.8942 66.221 22.8939C66.2297 22.8148 66.2124 22.7357 66.1663 22.6764C66.1657 22.6757 66.1649 22.6753 66.1643 22.6746C66.1641 22.6744 66.1641 22.6739 66.1639 22.6737C66.0917 22.5826 65.9791 22.56 65.8757 22.6053C65.8409 22.6205 65.8073 22.6431 65.7765 22.6737C65.7292 22.7215 65.6973 22.7821 65.6823 22.8456C65.6671 22.909 65.6688 22.975 65.6886 23.0331L65.6241 23.1382L65.6058 23.0706H65.6054H65.5175L65.4749 23.1167C65.2535 22.8461 65.0317 22.586 64.8105 22.3359C64.5889 22.0853 64.3679 21.8446 64.1487 21.6132C64.5412 21.2295 64.9689 20.8264 65.4159 20.43C65.8629 20.0336 66.3292 19.6435 66.7991 19.2853C69.005 17.6072 70.8022 17.3079 71.5626 17.2631C71.6893 17.2557 71.7873 17.2554 71.8536 17.2569C71.9197 17.2584 71.9541 17.2618 71.9544 17.2618C71.8506 17.2174 71.7451 17.1784 71.6384 17.1445C71.6382 17.1445 71.6381 17.1446 71.638 17.1445C71.5312 17.1107 71.4235 17.0817 71.3145 17.0577C71.3144 17.0577 71.3143 17.0578 71.3141 17.0577C71.2052 17.0338 71.0952 17.0148 70.9849 17C70.9847 17 70.9846 17 70.9845 17C70.8741 16.9852 70.7631 16.9746 70.652 16.9682C70.6519 16.9682 70.6518 16.9682 70.6517 16.9682C70.207 16.9428 69.7601 16.982 69.3353 17.0626C68.4856 17.2237 67.7249 17.5501 67.2493 17.8569C66.5704 18.2963 65.1164 19.3251 63.478 20.933C62.946 20.411 62.4376 19.9569 61.9648 19.5574C60.9813 18.7261 60.1648 18.1538 59.7062 17.857C59.2307 17.5501 58.4702 17.2237 57.6202 17.0627C57.3015 17.0022 56.9701 16.9652 56.6367 16.9611L56.6369 16.9611Z" fill="white"/>
</svg>
