<svg width="200" height="200" viewBox="0 0 200 200" fill="none" xmlns="http://www.w3.org/2000/svg">
<rect x="2.5" y="2.5" width="195" height="195" rx="22.5" fill="#009FFB" stroke="white" stroke-width="5"/>
<path d="M28.7877 53.4175C28.3177 54.5452 28.2086 54.7783 28.0059 55.1145C27.7386 55.5536 27.4118 55.8952 26.9463 56.2259C26.5008 56.5404 26.1496 56.703 24.9861 57.1205C24.4715 57.3102 24.026 57.4783 24.0011 57.5054C23.9814 57.5271 24.2239 57.6355 24.5457 57.7385C26.6099 58.4325 27.273 58.8283 27.8967 59.75C28.1592 60.1295 28.5553 60.9428 28.8672 61.7398C28.9214 61.8861 28.9956 62 29.0354 62C29.0699 62 29.1542 61.8591 29.2184 61.6856C29.4315 61.1163 29.8718 60.1892 30.0946 59.8476C30.5007 59.2241 31.0747 58.7036 31.6787 58.4163C32.0203 58.2536 32.8174 57.9609 33.3716 57.7928C33.9111 57.6301 34.0499 57.5651 33.9853 57.4946C33.9608 57.4675 33.4804 57.2777 32.9161 57.0663C31.8172 56.6596 31.5451 56.5295 31.0747 56.1825C30.357 55.6458 30.0255 55.1741 29.4512 53.8512C29.2433 53.385 29.0502 53 29.0205 53C28.9908 53 28.8869 53.1898 28.7877 53.4175Z" fill="white"/>
<path d="M38.7877 53.4175C38.3177 54.5452 38.2086 54.7783 38.0059 55.1145C37.7386 55.5536 37.4118 55.8952 36.9463 56.2259C36.5008 56.5404 36.1496 56.703 34.9861 57.1205C34.4715 57.3102 34.026 57.4783 34.0011 57.5054C33.9814 57.5271 34.2239 57.6355 34.5457 57.7385C36.6099 58.4325 37.273 58.8283 37.8967 59.75C38.1592 60.1295 38.5553 60.9428 38.8672 61.7398C38.9214 61.8861 38.9956 62 39.0354 62C39.0699 62 39.1542 61.8591 39.2184 61.6856C39.4315 61.1163 39.8718 60.1892 40.0946 59.8476C40.5007 59.2241 41.0747 58.7036 41.6787 58.4163C42.0203 58.2536 42.8174 57.9609 43.3716 57.7928C43.9111 57.6301 44.0499 57.5651 43.9853 57.4946C43.9608 57.4675 43.4804 57.2777 42.9161 57.0663C41.8172 56.6596 41.5451 56.5295 41.0747 56.1825C40.357 55.6458 40.0255 55.1741 39.4512 53.8512C39.2433 53.385 39.0502 53 39.0205 53C38.9908 53 38.8869 53.1898 38.7877 53.4175Z" fill="white"/>
<path d="M48.7877 53.4175C48.3177 54.5452 48.2086 54.7783 48.0059 55.1145C47.7386 55.5536 47.4118 55.8952 46.9463 56.2259C46.5008 56.5404 46.1496 56.703 44.9861 57.1205C44.4715 57.3102 44.026 57.4783 44.0011 57.5054C43.9814 57.5271 44.2239 57.6355 44.5457 57.7385C46.6099 58.4325 47.273 58.8283 47.8967 59.75C48.1592 60.1295 48.5553 60.9428 48.8672 61.7398C48.9214 61.8861 48.9956 62 49.0354 62C49.0699 62 49.1542 61.8591 49.2184 61.6856C49.4315 61.1163 49.8718 60.1892 50.0946 59.8476C50.5007 59.2241 51.0747 58.7036 51.6787 58.4163C52.0203 58.2536 52.8174 57.9609 53.3716 57.7928C53.9111 57.6301 54.0499 57.5651 53.9853 57.4946C53.9608 57.4675 53.4804 57.2777 52.9161 57.0663C51.8172 56.6596 51.5451 56.5295 51.0747 56.1825C50.357 55.6458 50.0255 55.1741 49.4512 53.8512C49.2433 53.385 49.0502 53 49.0205 53C48.9908 53 48.8869 53.1898 48.7877 53.4175Z" fill="white"/>
<path d="M48.7877 41.4175C48.3177 42.5452 48.2086 42.7783 48.0059 43.1145C47.7386 43.5536 47.4118 43.8952 46.9463 44.2259C46.5008 44.5404 46.1496 44.703 44.9861 45.1205C44.4715 45.3102 44.026 45.4783 44.0011 45.5054C43.9814 45.5271 44.2239 45.6355 44.5457 45.7385C46.6099 46.4325 47.273 46.8283 47.8967 47.75C48.1592 48.1295 48.5553 48.9428 48.8672 49.7398C48.9214 49.8861 48.9956 50 49.0354 50C49.0699 50 49.1542 49.8591 49.2184 49.6856C49.4315 49.1163 49.8718 48.1892 50.0946 47.8476C50.5007 47.2241 51.0747 46.7036 51.6787 46.4163C52.0203 46.2536 52.8174 45.9609 53.3716 45.7928C53.9111 45.6301 54.0499 45.5651 53.9853 45.4946C53.9608 45.4675 53.4804 45.2777 52.9161 45.0663C51.8172 44.6596 51.5451 44.5295 51.0747 44.1825C50.357 43.6458 50.0255 43.1741 49.4512 41.8512C49.2433 41.385 49.0502 41 49.0205 41C48.9908 41 48.8869 41.1898 48.7877 41.4175Z" fill="white"/>
<path d="M31.7877 64.4175C31.3177 65.5452 31.2086 65.7783 31.0059 66.1145C30.7386 66.5536 30.4118 66.8952 29.9463 67.2259C29.5008 67.5404 29.1496 67.703 27.9861 68.1205C27.4715 68.3102 27.026 68.4783 27.0011 68.5054C26.9814 68.5271 27.2239 68.6355 27.5457 68.7385C29.6099 69.4325 30.273 69.8283 30.8967 70.75C31.1592 71.1295 31.5553 71.9428 31.8672 72.7398C31.9214 72.8861 31.9956 73 32.0354 73C32.0699 73 32.1542 72.8591 32.2184 72.6856C32.4315 72.1163 32.8718 71.1892 33.0946 70.8476C33.5007 70.2241 34.0747 69.7036 34.6787 69.4163C35.0203 69.2536 35.8174 68.9609 36.3716 68.7928C36.9111 68.6301 37.0499 68.5651 36.9853 68.4946C36.9608 68.4675 36.4804 68.2777 35.9161 68.0663C34.8172 67.6596 34.5451 67.5295 34.0747 67.1825C33.357 66.6458 33.0255 66.1741 32.4512 64.8512C32.2433 64.385 32.0502 64 32.0205 64C31.9908 64 31.8869 64.1898 31.7877 64.4175Z" fill="white"/>
<path d="M48.7877 65.4175C48.3177 66.5452 48.2086 66.7783 48.0059 67.1145C47.7386 67.5536 47.4118 67.8952 46.9463 68.2259C46.5008 68.5404 46.1496 68.703 44.9861 69.1205C44.4715 69.3102 44.026 69.4783 44.0011 69.5054C43.9814 69.5271 44.2239 69.6355 44.5457 69.7385C46.6099 70.4325 47.273 70.8283 47.8967 71.75C48.1592 72.1295 48.5553 72.9428 48.8672 73.7398C48.9214 73.8861 48.9956 74 49.0354 74C49.0699 74 49.1542 73.8591 49.2184 73.6856C49.4315 73.1163 49.8718 72.1892 50.0946 71.8476C50.5007 71.2241 51.0747 70.7036 51.6787 70.4163C52.0203 70.2536 52.8174 69.9609 53.3716 69.7928C53.9111 69.6301 54.0499 69.5651 53.9853 69.4946C53.9608 69.4675 53.4804 69.2777 52.9161 69.0663C51.8172 68.6596 51.5451 68.5295 51.0747 68.1825C50.357 67.6458 50.0255 67.1741 49.4512 65.8512C49.2433 65.385 49.0502 65 49.0205 65C48.9908 65 48.8869 65.1898 48.7877 65.4175Z" fill="white"/>
<path d="M53.7877 14.4175C53.3177 15.5452 53.2086 15.7783 53.0059 16.1145C52.7386 16.5536 52.4118 16.8952 51.9463 17.2259C51.5008 17.5404 51.1496 17.703 49.9861 18.1205C49.4715 18.3102 49.026 18.4783 49.0011 18.5054C48.9814 18.5271 49.2239 18.6355 49.5457 18.7385C51.6099 19.4325 52.273 19.8283 52.8967 20.75C53.1592 21.1295 53.5553 21.9428 53.8672 22.7398C53.9214 22.8861 53.9956 23 54.0354 23C54.0699 23 54.1542 22.8591 54.2184 22.6856C54.4315 22.1163 54.8718 21.1892 55.0946 20.8476C55.5007 20.2241 56.0747 19.7036 56.6787 19.4163C57.0203 19.2536 57.8174 18.9609 58.3716 18.7928C58.9111 18.6301 59.0499 18.5651 58.9853 18.4946C58.9608 18.4675 58.4804 18.2777 57.9161 18.0663C56.8172 17.6596 56.5451 17.5295 56.0747 17.1825C55.357 16.6458 55.0255 16.1741 54.4512 14.8512C54.2433 14.385 54.0502 14 54.0205 14C53.9908 14 53.8869 14.1898 53.7877 14.4175Z" fill="white"/>
<path d="M63.7877 14.4175C63.3177 15.5452 63.2086 15.7783 63.0059 16.1145C62.7386 16.5536 62.4118 16.8952 61.9463 17.2259C61.5008 17.5404 61.1496 17.703 59.9861 18.1205C59.4715 18.3102 59.026 18.4783 59.0011 18.5054C58.9814 18.5271 59.2239 18.6355 59.5457 18.7385C61.6099 19.4325 62.273 19.8283 62.8967 20.75C63.1592 21.1295 63.5553 21.9428 63.8672 22.7398C63.9214 22.8861 63.9956 23 64.0354 23C64.0699 23 64.1542 22.8591 64.2184 22.6856C64.4315 22.1163 64.8718 21.1892 65.0946 20.8476C65.5007 20.2241 66.0747 19.7036 66.6787 19.4163C67.0203 19.2536 67.8174 18.9609 68.3716 18.7928C68.9111 18.6301 69.0499 18.5651 68.9853 18.4946C68.9608 18.4675 68.4804 18.2777 67.9161 18.0663C66.8172 17.6596 66.5451 17.5295 66.0747 17.1825C65.357 16.6458 65.0255 16.1741 64.4512 14.8512C64.2433 14.385 64.0502 14 64.0205 14C63.9908 14 63.8869 14.1898 63.7877 14.4175Z" fill="white"/>
<path d="M63.7877 31.4175C63.3177 32.5452 63.2086 32.7783 63.0059 33.1145C62.7386 33.5536 62.4118 33.8952 61.9463 34.2259C61.5008 34.5404 61.1496 34.703 59.9861 35.1205C59.4715 35.3102 59.026 35.4783 59.0011 35.5054C58.9814 35.5271 59.2239 35.6355 59.5457 35.7385C61.6099 36.4325 62.273 36.8283 62.8967 37.75C63.1592 38.1295 63.5553 38.9428 63.8672 39.7398C63.9214 39.8861 63.9956 40 64.0354 40C64.0699 40 64.1542 39.8591 64.2184 39.6856C64.4315 39.1163 64.8718 38.1892 65.0946 37.8476C65.5007 37.2241 66.0747 36.7036 66.6787 36.4163C67.0203 36.2536 67.8174 35.9609 68.3716 35.7928C68.9111 35.6301 69.0499 35.5651 68.9853 35.4946C68.9608 35.4675 68.4804 35.2777 67.9161 35.0663C66.8172 34.6596 66.5451 34.5295 66.0747 34.1825C65.357 33.6458 65.0255 33.1741 64.4512 31.8512C64.2433 31.385 64.0502 31 64.0205 31C63.9908 31 63.8869 31.1898 63.7877 31.4175Z" fill="white"/>
<path d="M73.7877 14.4175C73.3177 15.5452 73.2086 15.7783 73.0059 16.1145C72.7386 16.5536 72.4118 16.8952 71.9463 17.2259C71.5008 17.5404 71.1496 17.703 69.9861 18.1205C69.4715 18.3102 69.026 18.4783 69.0011 18.5054C68.9814 18.5271 69.2239 18.6355 69.5457 18.7385C71.6099 19.4325 72.273 19.8283 72.8967 20.75C73.1592 21.1295 73.5553 21.9428 73.8672 22.7398C73.9214 22.8861 73.9956 23 74.0354 23C74.0699 23 74.1542 22.8591 74.2184 22.6856C74.4315 22.1163 74.8718 21.1892 75.0946 20.8476C75.5007 20.2241 76.0747 19.7036 76.6787 19.4163C77.0203 19.2536 77.8173 18.9609 78.3716 18.7928C78.9111 18.6301 79.0499 18.5651 78.9853 18.4946C78.9608 18.4675 78.4804 18.2777 77.9161 18.0663C76.8172 17.6596 76.5451 17.5295 76.0747 17.1825C75.357 16.6458 75.0255 16.1741 74.4512 14.8512C74.2433 14.385 74.0502 14 74.0205 14C73.9908 14 73.8869 14.1898 73.7877 14.4175Z" fill="white"/>
<path d="M88.7877 14.4175C88.3177 15.5452 88.2086 15.7783 88.0059 16.1145C87.7386 16.5536 87.4118 16.8952 86.9463 17.2259C86.5008 17.5404 86.1496 17.703 84.9861 18.1205C84.4715 18.3102 84.026 18.4783 84.0011 18.5054C83.9814 18.5271 84.2239 18.6355 84.5457 18.7385C86.6099 19.4325 87.273 19.8283 87.8967 20.75C88.1592 21.1295 88.5553 21.9428 88.8672 22.7398C88.9214 22.8861 88.9956 23 89.0354 23C89.0699 23 89.1542 22.8591 89.2184 22.6856C89.4315 22.1163 89.8718 21.1892 90.0946 20.8476C90.5007 20.2241 91.0747 19.7036 91.6787 19.4163C92.0203 19.2536 92.8174 18.9609 93.3716 18.7928C93.9111 18.6301 94.0499 18.5651 93.9853 18.4946C93.9608 18.4675 93.4804 18.2777 92.9161 18.0663C91.8172 17.6596 91.5451 17.5295 91.0747 17.1825C90.357 16.6458 90.0255 16.1741 89.4512 14.8512C89.2433 14.385 89.0502 14 89.0205 14C88.9908 14 88.8869 14.1898 88.7877 14.4175Z" fill="white"/>
<path d="M99.7877 14.4175C99.3177 15.5452 99.2086 15.7783 99.0059 16.1145C98.7386 16.5536 98.4118 16.8952 97.9463 17.2259C97.5008 17.5404 97.1496 17.703 95.9861 18.1205C95.4715 18.3102 95.026 18.4783 95.0011 18.5054C94.9814 18.5271 95.2239 18.6355 95.5457 18.7385C97.6099 19.4325 98.273 19.8283 98.8967 20.75C99.1592 21.1295 99.5553 21.9428 99.8672 22.7398C99.9214 22.8861 99.9956 23 100.035 23C100.07 23 100.154 22.8591 100.218 22.6856C100.431 22.1163 100.872 21.1892 101.095 20.8476C101.501 20.2241 102.075 19.7036 102.679 19.4163C103.02 19.2536 103.817 18.9609 104.372 18.7928C104.911 18.6301 105.05 18.5651 104.985 18.4946C104.961 18.4675 104.48 18.2777 103.916 18.0663C102.817 17.6596 102.545 17.5295 102.075 17.1825C101.357 16.6458 101.026 16.1741 100.451 14.8512C100.243 14.385 100.05 14 100.021 14C99.9908 14 99.8869 14.1898 99.7877 14.4175Z" fill="white"/>
<path d="M88.7877 25.4175C88.3177 26.5452 88.2086 26.7783 88.0059 27.1145C87.7386 27.5536 87.4118 27.8952 86.9463 28.2259C86.5008 28.5404 86.1496 28.703 84.9861 29.1205C84.4715 29.3102 84.026 29.4783 84.0011 29.5054C83.9814 29.5271 84.2239 29.6355 84.5457 29.7385C86.6099 30.4325 87.273 30.8283 87.8967 31.75C88.1592 32.1295 88.5553 32.9428 88.8672 33.7398C88.9214 33.8861 88.9956 34 89.0354 34C89.0699 34 89.1542 33.8591 89.2184 33.6856C89.4315 33.1163 89.8718 32.1892 90.0946 31.8476C90.5007 31.2241 91.0747 30.7036 91.6787 30.4163C92.0203 30.2536 92.8173 29.9609 93.3716 29.7928C93.9111 29.6301 94.0499 29.5651 93.9853 29.4946C93.9608 29.4675 93.4804 29.2777 92.9161 29.0663C91.8172 28.6596 91.5451 28.5295 91.0747 28.1825C90.357 27.6458 90.0255 27.1741 89.4512 25.8512C89.2433 25.385 89.0502 25 89.0205 25C88.9908 25 88.8869 25.1898 88.7877 25.4175Z" fill="white"/>
<path d="M99.7877 25.4175C99.3177 26.5452 99.2086 26.7783 99.0059 27.1145C98.7386 27.5536 98.4118 27.8952 97.9463 28.2259C97.5008 28.5404 97.1496 28.703 95.9861 29.1205C95.4715 29.3102 95.026 29.4783 95.0011 29.5054C94.9814 29.5271 95.2239 29.6355 95.5457 29.7385C97.6099 30.4325 98.273 30.8283 98.8967 31.75C99.1592 32.1295 99.5553 32.9428 99.8672 33.7398C99.9214 33.8861 99.9956 34 100.035 34C100.07 34 100.154 33.8591 100.218 33.6856C100.431 33.1163 100.872 32.1892 101.095 31.8476C101.501 31.2241 102.075 30.7036 102.679 30.4163C103.02 30.2536 103.817 29.9609 104.372 29.7928C104.911 29.6301 105.05 29.5651 104.985 29.4946C104.961 29.4675 104.48 29.2777 103.916 29.0663C102.817 28.6596 102.545 28.5295 102.075 28.1825C101.357 27.6458 101.026 27.1741 100.451 25.8512C100.243 25.385 100.05 25 100.021 25C99.9908 25 99.8869 25.1898 99.7877 25.4175Z" fill="white"/>
<path d="M118.788 14.4175C118.318 15.5452 118.209 15.7783 118.006 16.1145C117.739 16.5536 117.412 16.8952 116.946 17.2259C116.501 17.5404 116.15 17.703 114.986 18.1205C114.472 18.3102 114.026 18.4783 114.001 18.5054C113.981 18.5271 114.224 18.6355 114.546 18.7385C116.61 19.4325 117.273 19.8283 117.897 20.75C118.159 21.1295 118.555 21.9428 118.867 22.7398C118.921 22.8861 118.996 23 119.035 23C119.07 23 119.154 22.8591 119.218 22.6856C119.431 22.1163 119.872 21.1892 120.095 20.8476C120.501 20.2241 121.075 19.7036 121.679 19.4163C122.02 19.2536 122.817 18.9609 123.372 18.7928C123.911 18.6301 124.05 18.5651 123.985 18.4946C123.961 18.4675 123.48 18.2777 122.916 18.0663C121.817 17.6596 121.545 17.5295 121.075 17.1825C120.357 16.6458 120.026 16.1741 119.451 14.8512C119.243 14.385 119.05 14 119.021 14C118.991 14 118.887 14.1898 118.788 14.4175Z" fill="white"/>
<path d="M128.788 14.4175C128.318 15.5452 128.209 15.7783 128.006 16.1145C127.739 16.5536 127.412 16.8952 126.946 17.2259C126.501 17.5404 126.15 17.703 124.986 18.1205C124.472 18.3102 124.026 18.4783 124.001 18.5054C123.981 18.5271 124.224 18.6355 124.546 18.7385C126.61 19.4325 127.273 19.8283 127.897 20.75C128.159 21.1295 128.555 21.9428 128.867 22.7398C128.921 22.8861 128.996 23 129.035 23C129.07 23 129.154 22.8591 129.218 22.6856C129.431 22.1163 129.872 21.1892 130.095 20.8476C130.501 20.2241 131.075 19.7036 131.679 19.4163C132.02 19.2536 132.817 18.9609 133.372 18.7928C133.911 18.6301 134.05 18.5651 133.985 18.4946C133.961 18.4675 133.48 18.2777 132.916 18.0663C131.817 17.6596 131.545 17.5295 131.075 17.1825C130.357 16.6458 130.026 16.1741 129.451 14.8512C129.243 14.385 129.05 14 129.021 14C128.991 14 128.887 14.1898 128.788 14.4175Z" fill="white"/>
<path d="M138.788 14.4175C138.318 15.5452 138.209 15.7783 138.006 16.1145C137.739 16.5536 137.412 16.8952 136.946 17.2259C136.501 17.5404 136.15 17.703 134.986 18.1205C134.472 18.3102 134.026 18.4783 134.001 18.5054C133.981 18.5271 134.224 18.6355 134.546 18.7385C136.61 19.4325 137.273 19.8283 137.897 20.75C138.159 21.1295 138.555 21.9428 138.867 22.7398C138.921 22.8861 138.996 23 139.035 23C139.07 23 139.154 22.8591 139.218 22.6856C139.431 22.1163 139.872 21.1892 140.095 20.8476C140.501 20.2241 141.075 19.7036 141.679 19.4163C142.02 19.2536 142.817 18.9609 143.372 18.7928C143.911 18.6301 144.05 18.5651 143.985 18.4946C143.961 18.4675 143.48 18.2777 142.916 18.0663C141.817 17.6596 141.545 17.5295 141.075 17.1825C140.357 16.6458 140.026 16.1741 139.451 14.8512C139.243 14.385 139.05 14 139.021 14C138.991 14 138.887 14.1898 138.788 14.4175Z" fill="white"/>
<path d="M148.788 14.4175C148.318 15.5452 148.209 15.7783 148.006 16.1145C147.739 16.5536 147.412 16.8952 146.946 17.2259C146.501 17.5404 146.15 17.703 144.986 18.1205C144.472 18.3102 144.026 18.4783 144.001 18.5054C143.981 18.5271 144.224 18.6355 144.546 18.7385C146.61 19.4325 147.273 19.8283 147.897 20.75C148.159 21.1295 148.555 21.9428 148.867 22.7398C148.921 22.8861 148.996 23 149.035 23C149.07 23 149.154 22.8591 149.218 22.6856C149.431 22.1163 149.872 21.1892 150.095 20.8476C150.501 20.2241 151.075 19.7036 151.679 19.4163C152.02 19.2536 152.817 18.9609 153.372 18.7928C153.911 18.6301 154.05 18.5651 153.985 18.4946C153.961 18.4675 153.48 18.2777 152.916 18.0663C151.817 17.6596 151.545 17.5295 151.075 17.1825C150.357 16.6458 150.026 16.1741 149.451 14.8512C149.243 14.385 149.05 14 149.021 14C148.991 14 148.887 14.1898 148.788 14.4175Z" fill="white"/>
<path d="M159.788 45.4175C159.318 46.5452 159.209 46.7783 159.006 47.1145C158.739 47.5536 158.412 47.8952 157.946 48.2259C157.501 48.5404 157.15 48.703 155.986 49.1205C155.472 49.3102 155.026 49.4783 155.001 49.5054C154.981 49.5271 155.224 49.6355 155.546 49.7385C157.61 50.4325 158.273 50.8283 158.897 51.75C159.159 52.1295 159.555 52.9428 159.867 53.7398C159.921 53.8861 159.996 54 160.035 54C160.07 54 160.154 53.8591 160.218 53.6856C160.431 53.1163 160.872 52.1892 161.095 51.8476C161.501 51.2241 162.075 50.7036 162.679 50.4163C163.02 50.2536 163.817 49.9609 164.372 49.7928C164.911 49.6301 165.05 49.5651 164.985 49.4946C164.961 49.4675 164.48 49.2777 163.916 49.0663C162.817 48.6596 162.545 48.5295 162.075 48.1825C161.357 47.6458 161.026 47.1741 160.451 45.8512C160.243 45.385 160.05 45 160.021 45C159.991 45 159.887 45.1898 159.788 45.4175Z" fill="white"/>
<path d="M148.788 26.4175C148.318 27.5452 148.209 27.7783 148.006 28.1145C147.739 28.5536 147.412 28.8952 146.946 29.2259C146.501 29.5404 146.15 29.703 144.986 30.1205C144.472 30.3102 144.026 30.4783 144.001 30.5054C143.981 30.5271 144.224 30.6355 144.546 30.7385C146.61 31.4325 147.273 31.8283 147.897 32.75C148.159 33.1295 148.555 33.9428 148.867 34.7398C148.921 34.8861 148.996 35 149.035 35C149.07 35 149.154 34.8591 149.218 34.6856C149.431 34.1163 149.872 33.1892 150.095 32.8476C150.501 32.2241 151.075 31.7036 151.679 31.4163C152.02 31.2536 152.817 30.9609 153.372 30.7928C153.911 30.6301 154.05 30.5651 153.985 30.4946C153.961 30.4675 153.48 30.2777 152.916 30.0663C151.817 29.6596 151.545 29.5295 151.075 29.1825C150.357 28.6458 150.026 28.1741 149.451 26.8512C149.243 26.385 149.05 26 149.021 26C148.991 26 148.887 26.1898 148.788 26.4175Z" fill="white"/>
<path d="M148.788 45.4175C148.318 46.5452 148.209 46.7783 148.006 47.1145C147.739 47.5536 147.412 47.8952 146.946 48.2259C146.501 48.5404 146.15 48.703 144.986 49.1205C144.472 49.3102 144.026 49.4783 144.001 49.5054C143.981 49.5271 144.224 49.6355 144.546 49.7385C146.61 50.4325 147.273 50.8283 147.897 51.75C148.159 52.1295 148.555 52.9428 148.867 53.7398C148.921 53.8861 148.996 54 149.035 54C149.07 54 149.154 53.8591 149.218 53.6856C149.431 53.1163 149.872 52.1892 150.095 51.8476C150.501 51.2241 151.075 50.7036 151.679 50.4163C152.02 50.2536 152.817 49.9609 153.372 49.7928C153.911 49.6301 154.05 49.5651 153.985 49.4946C153.961 49.4675 153.48 49.2777 152.916 49.0663C151.817 48.6596 151.545 48.5295 151.075 48.1825C150.357 47.6458 150.026 47.1741 149.451 45.8512C149.243 45.385 149.05 45 149.021 45C148.991 45 148.887 45.1898 148.788 45.4175Z" fill="white"/>
<path d="M166.788 72.4175C166.318 73.5452 166.209 73.7783 166.006 74.1145C165.739 74.5536 165.412 74.8952 164.946 75.2259C164.501 75.5404 164.15 75.703 162.986 76.1205C162.472 76.3102 162.026 76.4783 162.001 76.5054C161.981 76.5271 162.224 76.6355 162.546 76.7385C164.61 77.4325 165.273 77.8283 165.897 78.75C166.159 79.1295 166.555 79.9428 166.867 80.7398C166.921 80.8861 166.996 81 167.035 81C167.07 81 167.154 80.8591 167.218 80.6856C167.431 80.1163 167.872 79.1892 168.095 78.8476C168.501 78.2241 169.075 77.7036 169.679 77.4163C170.02 77.2536 170.817 76.9609 171.372 76.7928C171.911 76.6301 172.05 76.5651 171.985 76.4946C171.961 76.4675 171.48 76.2777 170.916 76.0663C169.817 75.6596 169.545 75.5295 169.075 75.1825C168.357 74.6458 168.026 74.1741 167.451 72.8512C167.243 72.385 167.05 72 167.021 72C166.991 72 166.887 72.1898 166.788 72.4175Z" fill="white"/>
<path d="M156.788 64.4175C156.318 65.5452 156.209 65.7783 156.006 66.1145C155.739 66.5536 155.412 66.8952 154.946 67.2259C154.501 67.5404 154.15 67.703 152.986 68.1205C152.472 68.3102 152.026 68.4783 152.001 68.5054C151.981 68.5271 152.224 68.6355 152.546 68.7385C154.61 69.4325 155.273 69.8283 155.897 70.75C156.159 71.1295 156.555 71.9428 156.867 72.7398C156.921 72.8861 156.996 73 157.035 73C157.07 73 157.154 72.8591 157.218 72.6856C157.431 72.1163 157.872 71.1892 158.095 70.8476C158.501 70.2241 159.075 69.7036 159.679 69.4163C160.02 69.2536 160.817 68.9609 161.372 68.7928C161.911 68.6301 162.05 68.5651 161.985 68.4946C161.961 68.4675 161.48 68.2777 160.916 68.0663C159.817 67.6596 159.545 67.5295 159.075 67.1825C158.357 66.6458 158.026 66.1741 157.451 64.8512C157.243 64.385 157.05 64 157.021 64C156.991 64 156.887 64.1898 156.788 64.4175Z" fill="white"/>
<path d="M170.788 45.4175C170.318 46.5452 170.209 46.7783 170.006 47.1145C169.739 47.5536 169.412 47.8952 168.946 48.2259C168.501 48.5404 168.15 48.703 166.986 49.1205C166.472 49.3102 166.026 49.4783 166.001 49.5054C165.981 49.5271 166.224 49.6355 166.546 49.7385C168.61 50.4325 169.273 50.8283 169.897 51.75C170.159 52.1295 170.555 52.9428 170.867 53.7398C170.921 53.8861 170.996 54 171.035 54C171.07 54 171.154 53.8591 171.218 53.6856C171.431 53.1163 171.872 52.1892 172.095 51.8476C172.501 51.2241 173.075 50.7036 173.679 50.4163C174.02 50.2536 174.817 49.9609 175.372 49.7928C175.911 49.6301 176.05 49.5651 175.985 49.4946C175.961 49.4675 175.48 49.2777 174.916 49.0663C173.817 48.6596 173.545 48.5295 173.075 48.1825C172.357 47.6458 172.026 47.1741 171.451 45.8512C171.243 45.385 171.05 45 171.021 45C170.991 45 170.887 45.1898 170.788 45.4175Z" fill="white"/>
<path d="M181.788 45.4175C181.318 46.5452 181.209 46.7783 181.006 47.1145C180.739 47.5536 180.412 47.8952 179.946 48.2259C179.501 48.5404 179.15 48.703 177.986 49.1205C177.472 49.3102 177.026 49.4783 177.001 49.5054C176.981 49.5271 177.224 49.6355 177.546 49.7385C179.61 50.4325 180.273 50.8283 180.897 51.75C181.159 52.1295 181.555 52.9428 181.867 53.7398C181.921 53.8861 181.996 54 182.035 54C182.07 54 182.154 53.8591 182.218 53.6856C182.431 53.1163 182.872 52.1892 183.095 51.8476C183.501 51.2241 184.075 50.7036 184.679 50.4163C185.02 50.2536 185.817 49.9609 186.372 49.7928C186.911 49.6301 187.05 49.5651 186.985 49.4946C186.961 49.4675 186.48 49.2777 185.916 49.0663C184.817 48.6596 184.545 48.5295 184.075 48.1825C183.357 47.6458 183.026 47.1741 182.451 45.8512C182.243 45.385 182.05 45 182.021 45C181.991 45 181.887 45.1898 181.788 45.4175Z" fill="white"/>
<path d="M181.788 68.4175C181.318 69.5452 181.209 69.7783 181.006 70.1145C180.739 70.5536 180.412 70.8952 179.946 71.2259C179.501 71.5404 179.15 71.703 177.986 72.1205C177.472 72.3102 177.026 72.4783 177.001 72.5054C176.981 72.5271 177.224 72.6355 177.546 72.7385C179.61 73.4325 180.273 73.8283 180.897 74.75C181.159 75.1295 181.555 75.9428 181.867 76.7398C181.921 76.8861 181.996 77 182.035 77C182.07 77 182.154 76.8591 182.218 76.6856C182.431 76.1163 182.872 75.1892 183.095 74.8476C183.501 74.2241 184.075 73.7036 184.679 73.4163C185.02 73.2536 185.817 72.9609 186.372 72.7928C186.911 72.6301 187.05 72.5651 186.985 72.4946C186.961 72.4675 186.48 72.2777 185.916 72.0663C184.817 71.6596 184.545 71.5295 184.075 71.1825C183.357 70.6458 183.026 70.1741 182.451 68.8512C182.243 68.385 182.05 68 182.021 68C181.991 68 181.887 68.1898 181.788 68.4175Z" fill="white"/>
<path d="M181.788 77.4175C181.318 78.5452 181.209 78.7783 181.006 79.1145C180.739 79.5536 180.412 79.8952 179.946 80.2259C179.501 80.5404 179.15 80.703 177.986 81.1205C177.472 81.3102 177.026 81.4783 177.001 81.5054C176.981 81.5271 177.224 81.6355 177.546 81.7385C179.61 82.4325 180.273 82.8283 180.897 83.75C181.159 84.1295 181.555 84.9428 181.867 85.7398C181.921 85.8861 181.996 86 182.035 86C182.07 86 182.154 85.8591 182.218 85.6856C182.431 85.1163 182.872 84.1892 183.095 83.8476C183.501 83.2241 184.075 82.7036 184.679 82.4163C185.02 82.2536 185.817 81.9609 186.372 81.7928C186.911 81.6301 187.05 81.5651 186.985 81.4946C186.961 81.4675 186.48 81.2777 185.916 81.0663C184.817 80.6596 184.545 80.5295 184.075 80.1825C183.357 79.6458 183.026 79.1741 182.451 77.8512C182.243 77.385 182.05 77 182.021 77C181.991 77 181.887 77.1898 181.788 77.4175Z" fill="white"/>
<path d="M166.788 87.4175C166.318 88.5452 166.209 88.7783 166.006 89.1145C165.739 89.5536 165.412 89.8952 164.946 90.2259C164.501 90.5404 164.15 90.703 162.986 91.1205C162.472 91.3102 162.026 91.4783 162.001 91.5054C161.981 91.5271 162.224 91.6355 162.546 91.7385C164.61 92.4325 165.273 92.8283 165.897 93.75C166.159 94.1295 166.555 94.9428 166.867 95.7398C166.921 95.8861 166.996 96 167.035 96C167.07 96 167.154 95.8591 167.218 95.6856C167.431 95.1163 167.872 94.1892 168.095 93.8476C168.501 93.2241 169.075 92.7036 169.679 92.4163C170.02 92.2536 170.817 91.9609 171.372 91.7928C171.911 91.6301 172.05 91.5651 171.985 91.4946C171.961 91.4675 171.48 91.2777 170.916 91.0663C169.817 90.6596 169.545 90.5295 169.075 90.1825C168.357 89.6458 168.026 89.1741 167.451 87.8512C167.243 87.385 167.05 87 167.021 87C166.991 87 166.887 87.1898 166.788 87.4175Z" fill="white"/>
<path d="M166.788 100.417C166.318 101.545 166.209 101.778 166.006 102.114C165.739 102.554 165.412 102.895 164.946 103.226C164.501 103.54 164.15 103.703 162.986 104.12C162.472 104.31 162.026 104.478 162.001 104.505C161.981 104.527 162.224 104.636 162.546 104.739C164.61 105.433 165.273 105.828 165.897 106.75C166.159 107.13 166.555 107.943 166.867 108.74C166.921 108.886 166.996 109 167.035 109C167.07 109 167.154 108.859 167.218 108.686C167.431 108.116 167.872 107.189 168.095 106.848C168.501 106.224 169.075 105.704 169.679 105.416C170.02 105.254 170.817 104.961 171.372 104.793C171.911 104.63 172.05 104.565 171.985 104.495C171.961 104.467 171.48 104.278 170.916 104.066C169.817 103.66 169.545 103.53 169.075 103.183C168.357 102.646 168.026 102.174 167.451 100.851C167.243 100.385 167.05 100 167.021 100C166.991 100 166.887 100.19 166.788 100.417Z" fill="white"/>
<path d="M181.788 93.4175C181.318 94.5452 181.209 94.7783 181.006 95.1145C180.739 95.5536 180.412 95.8952 179.946 96.2259C179.501 96.5404 179.15 96.703 177.986 97.1205C177.472 97.3102 177.026 97.4783 177.001 97.5054C176.981 97.5271 177.224 97.6355 177.546 97.7385C179.61 98.4325 180.273 98.8283 180.897 99.75C181.159 100.13 181.555 100.943 181.867 101.74C181.921 101.886 181.996 102 182.035 102C182.07 102 182.154 101.859 182.218 101.686C182.431 101.116 182.872 100.189 183.095 99.8476C183.501 99.2241 184.075 98.7036 184.679 98.4163C185.02 98.2536 185.817 97.9609 186.372 97.7928C186.911 97.6301 187.05 97.5651 186.985 97.4946C186.961 97.4675 186.48 97.2777 185.916 97.0663C184.817 96.6596 184.545 96.5295 184.075 96.1825C183.357 95.6458 183.026 95.1741 182.451 93.8512C182.243 93.385 182.05 93 182.021 93C181.991 93 181.887 93.1898 181.788 93.4175Z" fill="white"/>
<path d="M181.788 106.417C181.318 107.545 181.209 107.778 181.006 108.114C180.739 108.554 180.412 108.895 179.946 109.226C179.501 109.54 179.15 109.703 177.986 110.12C177.472 110.31 177.026 110.478 177.001 110.505C176.981 110.527 177.224 110.636 177.546 110.739C179.61 111.433 180.273 111.828 180.897 112.75C181.159 113.13 181.555 113.943 181.867 114.74C181.921 114.886 181.996 115 182.035 115C182.07 115 182.154 114.859 182.218 114.686C182.431 114.116 182.872 113.189 183.095 112.848C183.501 112.224 184.075 111.704 184.679 111.416C185.02 111.254 185.817 110.961 186.372 110.793C186.911 110.63 187.05 110.565 186.985 110.495C186.961 110.467 186.48 110.278 185.916 110.066C184.817 109.66 184.545 109.53 184.075 109.183C183.357 108.646 183.026 108.174 182.451 106.851C182.243 106.385 182.05 106 182.021 106C181.991 106 181.887 106.19 181.788 106.417Z" fill="white"/>
<path d="M163.788 115.417C163.318 116.545 163.209 116.778 163.006 117.114C162.739 117.554 162.412 117.895 161.946 118.226C161.501 118.54 161.15 118.703 159.986 119.12C159.472 119.31 159.026 119.478 159.001 119.505C158.981 119.527 159.224 119.636 159.546 119.739C161.61 120.433 162.273 120.828 162.897 121.75C163.159 122.13 163.555 122.943 163.867 123.74C163.921 123.886 163.996 124 164.035 124C164.07 124 164.154 123.859 164.218 123.686C164.431 123.116 164.872 122.189 165.095 121.848C165.501 121.224 166.075 120.704 166.679 120.416C167.02 120.254 167.817 119.961 168.372 119.793C168.911 119.63 169.05 119.565 168.985 119.495C168.961 119.467 168.48 119.278 167.916 119.066C166.817 118.66 166.545 118.53 166.075 118.183C165.357 117.646 165.026 117.174 164.451 115.851C164.243 115.385 164.05 115 164.021 115C163.991 115 163.887 115.19 163.788 115.417Z" fill="white"/>
<path d="M161.788 126.417C161.318 127.545 161.209 127.778 161.006 128.114C160.739 128.554 160.412 128.895 159.946 129.226C159.501 129.54 159.15 129.703 157.986 130.12C157.472 130.31 157.026 130.478 157.001 130.505C156.981 130.527 157.224 130.636 157.546 130.739C159.61 131.433 160.273 131.828 160.897 132.75C161.159 133.13 161.555 133.943 161.867 134.74C161.921 134.886 161.996 135 162.035 135C162.07 135 162.154 134.859 162.218 134.686C162.431 134.116 162.872 133.189 163.095 132.848C163.501 132.224 164.075 131.704 164.679 131.416C165.02 131.254 165.817 130.961 166.372 130.793C166.911 130.63 167.05 130.565 166.985 130.495C166.961 130.467 166.48 130.278 165.916 130.066C164.817 129.66 164.545 129.53 164.075 129.183C163.357 128.646 163.026 128.174 162.451 126.851C162.243 126.385 162.05 126 162.021 126C161.991 126 161.887 126.19 161.788 126.417Z" fill="white"/>
<path d="M181.788 149.417C181.318 150.545 181.209 150.778 181.006 151.114C180.739 151.554 180.412 151.895 179.946 152.226C179.501 152.54 179.15 152.703 177.986 153.12C177.472 153.31 177.026 153.478 177.001 153.505C176.981 153.527 177.224 153.636 177.546 153.739C179.61 154.433 180.273 154.828 180.897 155.75C181.159 156.13 181.555 156.943 181.867 157.74C181.921 157.886 181.996 158 182.035 158C182.07 158 182.154 157.859 182.218 157.686C182.431 157.116 182.872 156.189 183.095 155.848C183.501 155.224 184.075 154.704 184.679 154.416C185.02 154.254 185.817 153.961 186.372 153.793C186.911 153.63 187.05 153.565 186.985 153.495C186.961 153.467 186.48 153.278 185.916 153.066C184.817 152.66 184.545 152.53 184.075 152.183C183.357 151.646 183.026 151.174 182.451 149.851C182.243 149.385 182.05 149 182.021 149C181.991 149 181.887 149.19 181.788 149.417Z" fill="white"/>
<path d="M170.788 149.417C170.318 150.545 170.209 150.778 170.006 151.114C169.739 151.554 169.412 151.895 168.946 152.226C168.501 152.54 168.15 152.703 166.986 153.12C166.472 153.31 166.026 153.478 166.001 153.505C165.981 153.527 166.224 153.636 166.546 153.739C168.61 154.433 169.273 154.828 169.897 155.75C170.159 156.13 170.555 156.943 170.867 157.74C170.921 157.886 170.996 158 171.035 158C171.07 158 171.154 157.859 171.218 157.686C171.431 157.116 171.872 156.189 172.095 155.848C172.501 155.224 173.075 154.704 173.679 154.416C174.02 154.254 174.817 153.961 175.372 153.793C175.911 153.63 176.05 153.565 175.985 153.495C175.961 153.467 175.48 153.278 174.916 153.066C173.817 152.66 173.545 152.53 173.075 152.183C172.357 151.646 172.026 151.174 171.451 149.851C171.243 149.385 171.05 149 171.021 149C170.991 149 170.887 149.19 170.788 149.417Z" fill="white"/>
<path d="M159.788 149.417C159.318 150.545 159.209 150.778 159.006 151.114C158.739 151.554 158.412 151.895 157.946 152.226C157.501 152.54 157.15 152.703 155.986 153.12C155.472 153.31 155.026 153.478 155.001 153.505C154.981 153.527 155.224 153.636 155.546 153.739C157.61 154.433 158.273 154.828 158.897 155.75C159.159 156.13 159.555 156.943 159.867 157.74C159.921 157.886 159.996 158 160.035 158C160.07 158 160.154 157.859 160.218 157.686C160.431 157.116 160.872 156.189 161.095 155.848C161.501 155.224 162.075 154.704 162.679 154.416C163.02 154.254 163.817 153.961 164.372 153.793C164.911 153.63 165.05 153.565 164.985 153.495C164.961 153.467 164.48 153.278 163.916 153.066C162.817 152.66 162.545 152.53 162.075 152.183C161.357 151.646 161.026 151.174 160.451 149.851C160.243 149.385 160.05 149 160.021 149C159.991 149 159.887 149.19 159.788 149.417Z" fill="white"/>
<path d="M148.788 149.417C148.318 150.545 148.209 150.778 148.006 151.114C147.739 151.554 147.412 151.895 146.946 152.226C146.501 152.54 146.15 152.703 144.986 153.12C144.472 153.31 144.026 153.478 144.001 153.505C143.981 153.527 144.224 153.636 144.546 153.739C146.61 154.433 147.273 154.828 147.897 155.75C148.159 156.13 148.555 156.943 148.867 157.74C148.921 157.886 148.996 158 149.035 158C149.07 158 149.154 157.859 149.218 157.686C149.431 157.116 149.872 156.189 150.095 155.848C150.501 155.224 151.075 154.704 151.679 154.416C152.02 154.254 152.817 153.961 153.372 153.793C153.911 153.63 154.05 153.565 153.985 153.495C153.961 153.467 153.48 153.278 152.916 153.066C151.817 152.66 151.545 152.53 151.075 152.183C150.357 151.646 150.026 151.174 149.451 149.851C149.243 149.385 149.05 149 149.021 149C148.991 149 148.887 149.19 148.788 149.417Z" fill="white"/>
<path d="M148.788 161.417C148.318 162.545 148.209 162.778 148.006 163.114C147.739 163.554 147.412 163.895 146.946 164.226C146.501 164.54 146.15 164.703 144.986 165.12C144.472 165.31 144.026 165.478 144.001 165.505C143.981 165.527 144.224 165.636 144.546 165.739C146.61 166.433 147.273 166.828 147.897 167.75C148.159 168.13 148.555 168.943 148.867 169.74C148.921 169.886 148.996 170 149.035 170C149.07 170 149.154 169.859 149.218 169.686C149.431 169.116 149.872 168.189 150.095 167.848C150.501 167.224 151.075 166.704 151.679 166.416C152.02 166.254 152.817 165.961 153.372 165.793C153.911 165.63 154.05 165.565 153.985 165.495C153.961 165.467 153.48 165.278 152.916 165.066C151.817 164.66 151.545 164.53 151.075 164.183C150.357 163.646 150.026 163.174 149.451 161.851C149.243 161.385 149.05 161 149.021 161C148.991 161 148.887 161.19 148.788 161.417Z" fill="white"/>
<path d="M148.788 181.417C148.318 182.545 148.209 182.778 148.006 183.114C147.739 183.554 147.412 183.895 146.946 184.226C146.501 184.54 146.15 184.703 144.986 185.12C144.472 185.31 144.026 185.478 144.001 185.505C143.981 185.527 144.224 185.636 144.546 185.739C146.61 186.433 147.273 186.828 147.897 187.75C148.159 188.13 148.555 188.943 148.867 189.74C148.921 189.886 148.996 190 149.035 190C149.07 190 149.154 189.859 149.218 189.686C149.431 189.116 149.872 188.189 150.095 187.848C150.501 187.224 151.075 186.704 151.679 186.416C152.02 186.254 152.817 185.961 153.372 185.793C153.911 185.63 154.05 185.565 153.985 185.495C153.961 185.467 153.48 185.278 152.916 185.066C151.817 184.66 151.545 184.53 151.075 184.183C150.357 183.646 150.026 183.174 149.451 181.851C149.243 181.385 149.05 181 149.021 181C148.991 181 148.887 181.19 148.788 181.417Z" fill="white"/>
<path d="M130.788 161.417C130.318 162.545 130.209 162.778 130.006 163.114C129.739 163.554 129.412 163.895 128.946 164.226C128.501 164.54 128.15 164.703 126.986 165.12C126.472 165.31 126.026 165.478 126.001 165.505C125.981 165.527 126.224 165.636 126.546 165.739C128.61 166.433 129.273 166.828 129.897 167.75C130.159 168.13 130.555 168.943 130.867 169.74C130.921 169.886 130.996 170 131.035 170C131.07 170 131.154 169.859 131.218 169.686C131.431 169.116 131.872 168.189 132.095 167.848C132.501 167.224 133.075 166.704 133.679 166.416C134.02 166.254 134.817 165.961 135.372 165.793C135.911 165.63 136.05 165.565 135.985 165.495C135.961 165.467 135.48 165.278 134.916 165.066C133.817 164.66 133.545 164.53 133.075 164.183C132.357 163.646 132.026 163.174 131.451 161.851C131.243 161.385 131.05 161 131.021 161C130.991 161 130.887 161.19 130.788 161.417Z" fill="white"/>
<path d="M120.788 161.417C120.318 162.545 120.209 162.778 120.006 163.114C119.739 163.554 119.412 163.895 118.946 164.226C118.501 164.54 118.15 164.703 116.986 165.12C116.472 165.31 116.026 165.478 116.001 165.505C115.981 165.527 116.224 165.636 116.546 165.739C118.61 166.433 119.273 166.828 119.897 167.75C120.159 168.13 120.555 168.943 120.867 169.74C120.921 169.886 120.996 170 121.035 170C121.07 170 121.154 169.859 121.218 169.686C121.431 169.116 121.872 168.189 122.095 167.848C122.501 167.224 123.075 166.704 123.679 166.416C124.02 166.254 124.817 165.961 125.372 165.793C125.911 165.63 126.05 165.565 125.985 165.495C125.961 165.467 125.48 165.278 124.916 165.066C123.817 164.66 123.545 164.53 123.075 164.183C122.357 163.646 122.026 163.174 121.451 161.851C121.243 161.385 121.05 161 121.021 161C120.991 161 120.887 161.19 120.788 161.417Z" fill="white"/>
<path d="M119.788 181.417C119.318 182.545 119.209 182.778 119.006 183.114C118.739 183.554 118.412 183.895 117.946 184.226C117.501 184.54 117.15 184.703 115.986 185.12C115.472 185.31 115.026 185.478 115.001 185.505C114.981 185.527 115.224 185.636 115.546 185.739C117.61 186.433 118.273 186.828 118.897 187.75C119.159 188.13 119.555 188.943 119.867 189.74C119.921 189.886 119.996 190 120.035 190C120.07 190 120.154 189.859 120.218 189.686C120.431 189.116 120.872 188.189 121.095 187.848C121.501 187.224 122.075 186.704 122.679 186.416C123.02 186.254 123.817 185.961 124.372 185.793C124.911 185.63 125.05 185.565 124.985 185.495C124.961 185.467 124.48 185.278 123.916 185.066C122.817 184.66 122.545 184.53 122.075 184.183C121.357 183.646 121.026 183.174 120.451 181.851C120.243 181.385 120.05 181 120.021 181C119.991 181 119.887 181.19 119.788 181.417Z" fill="white"/>
<path d="M107.788 181.417C107.318 182.545 107.209 182.778 107.006 183.114C106.739 183.554 106.412 183.895 105.946 184.226C105.501 184.54 105.15 184.703 103.986 185.12C103.472 185.31 103.026 185.478 103.001 185.505C102.981 185.527 103.224 185.636 103.546 185.739C105.61 186.433 106.273 186.828 106.897 187.75C107.159 188.13 107.555 188.943 107.867 189.74C107.921 189.886 107.996 190 108.035 190C108.07 190 108.154 189.859 108.218 189.686C108.431 189.116 108.872 188.189 109.095 187.848C109.501 187.224 110.075 186.704 110.679 186.416C111.02 186.254 111.817 185.961 112.372 185.793C112.911 185.63 113.05 185.565 112.985 185.495C112.961 185.467 112.48 185.278 111.916 185.066C110.817 184.66 110.545 184.53 110.075 184.183C109.357 183.646 109.026 183.174 108.451 181.851C108.243 181.385 108.05 181 108.021 181C107.991 181 107.887 181.19 107.788 181.417Z" fill="white"/>
<path d="M95.7877 181.417C95.3177 182.545 95.2086 182.778 95.0059 183.114C94.7386 183.554 94.4118 183.895 93.9463 184.226C93.5008 184.54 93.1496 184.703 91.9861 185.12C91.4715 185.31 91.026 185.478 91.0011 185.505C90.9814 185.527 91.2239 185.636 91.5457 185.739C93.6099 186.433 94.273 186.828 94.8967 187.75C95.1592 188.13 95.5553 188.943 95.8672 189.74C95.9214 189.886 95.9956 190 96.0354 190C96.0699 190 96.1542 189.859 96.2184 189.686C96.4315 189.116 96.8718 188.189 97.0946 187.848C97.5007 187.224 98.0747 186.704 98.6787 186.416C99.0203 186.254 99.8174 185.961 100.372 185.793C100.911 185.63 101.05 185.565 100.985 185.495C100.961 185.467 100.48 185.278 99.9161 185.066C98.8172 184.66 98.5451 184.53 98.0747 184.183C97.357 183.646 97.0255 183.174 96.4512 181.851C96.2433 181.385 96.0502 181 96.0205 181C95.9908 181 95.8869 181.19 95.7877 181.417Z" fill="white"/>
<path d="M106.788 159.417C106.318 160.545 106.209 160.778 106.006 161.114C105.739 161.554 105.412 161.895 104.946 162.226C104.501 162.54 104.15 162.703 102.986 163.12C102.472 163.31 102.026 163.478 102.001 163.505C101.981 163.527 102.224 163.636 102.546 163.739C104.61 164.433 105.273 164.828 105.897 165.75C106.159 166.13 106.555 166.943 106.867 167.74C106.921 167.886 106.996 168 107.035 168C107.07 168 107.154 167.859 107.218 167.686C107.431 167.116 107.872 166.189 108.095 165.848C108.501 165.224 109.075 164.704 109.679 164.416C110.02 164.254 110.817 163.961 111.372 163.793C111.911 163.63 112.05 163.565 111.985 163.495C111.961 163.467 111.48 163.278 110.916 163.066C109.817 162.66 109.545 162.53 109.075 162.183C108.357 161.646 108.026 161.174 107.451 159.851C107.243 159.385 107.05 159 107.021 159C106.991 159 106.887 159.19 106.788 159.417Z" fill="white"/>
<path d="M94.7877 159.417C94.3177 160.545 94.2086 160.778 94.0059 161.114C93.7386 161.554 93.4118 161.895 92.9463 162.226C92.5008 162.54 92.1496 162.703 90.9861 163.12C90.4715 163.31 90.026 163.478 90.0011 163.505C89.9814 163.527 90.2239 163.636 90.5457 163.739C92.6099 164.433 93.273 164.828 93.8967 165.75C94.1592 166.13 94.5553 166.943 94.8672 167.74C94.9214 167.886 94.9956 168 95.0354 168C95.0699 168 95.1542 167.859 95.2184 167.686C95.4315 167.116 95.8718 166.189 96.0946 165.848C96.5007 165.224 97.0747 164.704 97.6787 164.416C98.0203 164.254 98.8174 163.961 99.3716 163.793C99.9111 163.63 100.05 163.565 99.9853 163.495C99.9608 163.467 99.4804 163.278 98.9161 163.066C97.8172 162.66 97.5451 162.53 97.0747 162.183C96.357 161.646 96.0255 161.174 95.4512 159.851C95.2433 159.385 95.0502 159 95.0205 159C94.9908 159 94.8869 159.19 94.7877 159.417Z" fill="white"/>
<path d="M82.7877 159.417C82.3177 160.545 82.2086 160.778 82.0059 161.114C81.7386 161.554 81.4118 161.895 80.9463 162.226C80.5008 162.54 80.1496 162.703 78.9861 163.12C78.4715 163.31 78.026 163.478 78.0011 163.505C77.9814 163.527 78.2239 163.636 78.5457 163.739C80.6099 164.433 81.273 164.828 81.8967 165.75C82.1592 166.13 82.5553 166.943 82.8672 167.74C82.9214 167.886 82.9956 168 83.0354 168C83.0699 168 83.1542 167.859 83.2184 167.686C83.4315 167.116 83.8718 166.189 84.0946 165.848C84.5007 165.224 85.0747 164.704 85.6787 164.416C86.0203 164.254 86.8174 163.961 87.3716 163.793C87.9111 163.63 88.0499 163.565 87.9853 163.495C87.9608 163.467 87.4804 163.278 86.9161 163.066C85.8172 162.66 85.5451 162.53 85.0747 162.183C84.357 161.646 84.0255 161.174 83.4512 159.851C83.2433 159.385 83.0502 159 83.0205 159C82.9908 159 82.8869 159.19 82.7877 159.417Z" fill="white"/>
<path d="M73.7877 181.417C73.3177 182.545 73.2086 182.778 73.0059 183.114C72.7386 183.554 72.4118 183.895 71.9463 184.226C71.5008 184.54 71.1496 184.703 69.9861 185.12C69.4715 185.31 69.026 185.478 69.0011 185.505C68.9814 185.527 69.2239 185.636 69.5457 185.739C71.6099 186.433 72.273 186.828 72.8967 187.75C73.1592 188.13 73.5553 188.943 73.8672 189.74C73.9214 189.886 73.9956 190 74.0354 190C74.0699 190 74.1542 189.859 74.2184 189.686C74.4315 189.116 74.8718 188.189 75.0946 187.848C75.5007 187.224 76.0747 186.704 76.6787 186.416C77.0203 186.254 77.8174 185.961 78.3716 185.793C78.9111 185.63 79.0499 185.565 78.9853 185.495C78.9608 185.467 78.4804 185.278 77.9161 185.066C76.8172 184.66 76.5451 184.53 76.0747 184.183C75.357 183.646 75.0255 183.174 74.4512 181.851C74.2433 181.385 74.0502 181 74.0205 181C73.9908 181 73.8869 181.19 73.7877 181.417Z" fill="white"/>
<path d="M58.7877 181.417C58.3177 182.545 58.2086 182.778 58.0059 183.114C57.7386 183.554 57.4118 183.895 56.9463 184.226C56.5008 184.54 56.1496 184.703 54.9861 185.12C54.4715 185.31 54.026 185.478 54.0011 185.505C53.9814 185.527 54.2239 185.636 54.5457 185.739C56.6099 186.433 57.273 186.828 57.8967 187.75C58.1592 188.13 58.5553 188.943 58.8672 189.74C58.9214 189.886 58.9956 190 59.0354 190C59.0699 190 59.1542 189.859 59.2184 189.686C59.4315 189.116 59.8718 188.189 60.0946 187.848C60.5007 187.224 61.0747 186.704 61.6787 186.416C62.0203 186.254 62.8174 185.961 63.3716 185.793C63.9111 185.63 64.0499 185.565 63.9853 185.495C63.9608 185.467 63.4804 185.278 62.9161 185.066C61.8172 184.66 61.5451 184.53 61.0747 184.183C60.357 183.646 60.0255 183.174 59.4512 181.851C59.2433 181.385 59.0502 181 59.0205 181C58.9908 181 58.8869 181.19 58.7877 181.417Z" fill="white"/>
<path d="M56.7877 161.417C56.3177 162.545 56.2086 162.778 56.0059 163.114C55.7386 163.554 55.4118 163.895 54.9463 164.226C54.5008 164.54 54.1496 164.703 52.9861 165.12C52.4715 165.31 52.026 165.478 52.0011 165.505C51.9814 165.527 52.2239 165.636 52.5457 165.739C54.6099 166.433 55.273 166.828 55.8967 167.75C56.1592 168.13 56.5553 168.943 56.8672 169.74C56.9214 169.886 56.9956 170 57.0354 170C57.0699 170 57.1542 169.859 57.2184 169.686C57.4315 169.116 57.8718 168.189 58.0946 167.848C58.5007 167.224 59.0747 166.704 59.6787 166.416C60.0203 166.254 60.8174 165.961 61.3716 165.793C61.9111 165.63 62.0499 165.565 61.9853 165.495C61.9608 165.467 61.4804 165.278 60.9161 165.066C59.8172 164.66 59.5451 164.53 59.0747 164.183C58.357 163.646 58.0255 163.174 57.4512 161.851C57.2433 161.385 57.0502 161 57.0205 161C56.9908 161 56.8869 161.19 56.7877 161.417Z" fill="white"/>
<path d="M30.7877 149.417C30.3177 150.545 30.2086 150.778 30.0059 151.114C29.7386 151.554 29.4118 151.895 28.9463 152.226C28.5008 152.54 28.1496 152.703 26.9861 153.12C26.4715 153.31 26.026 153.478 26.0011 153.505C25.9814 153.527 26.2239 153.636 26.5457 153.739C28.6099 154.433 29.273 154.828 29.8967 155.75C30.1592 156.13 30.5553 156.943 30.8672 157.74C30.9214 157.886 30.9956 158 31.0354 158C31.0699 158 31.1542 157.859 31.2184 157.686C31.4315 157.116 31.8718 156.189 32.0946 155.848C32.5007 155.224 33.0747 154.704 33.6787 154.416C34.0203 154.254 34.8174 153.961 35.3716 153.793C35.9111 153.63 36.0499 153.565 35.9853 153.495C35.9608 153.467 35.4804 153.278 34.9161 153.066C33.8172 152.66 33.5451 152.53 33.0747 152.183C32.357 151.646 32.0255 151.174 31.4512 149.851C31.2433 149.385 31.0502 149 31.0205 149C30.9908 149 30.8869 149.19 30.7877 149.417Z" fill="white"/>
<path d="M43.7877 149.417C43.3177 150.545 43.2086 150.778 43.0059 151.114C42.7386 151.554 42.4118 151.895 41.9463 152.226C41.5008 152.54 41.1496 152.703 39.9861 153.12C39.4715 153.31 39.026 153.478 39.0011 153.505C38.9814 153.527 39.2239 153.636 39.5457 153.739C41.6099 154.433 42.273 154.828 42.8967 155.75C43.1592 156.13 43.5553 156.943 43.8672 157.74C43.9214 157.886 43.9956 158 44.0354 158C44.0699 158 44.1542 157.859 44.2184 157.686C44.4315 157.116 44.8718 156.189 45.0946 155.848C45.5007 155.224 46.0747 154.704 46.6787 154.416C47.0203 154.254 47.8174 153.961 48.3716 153.793C48.9111 153.63 49.0499 153.565 48.9853 153.495C48.9608 153.467 48.4804 153.278 47.9161 153.066C46.8172 152.66 46.5451 152.53 46.0747 152.183C45.357 151.646 45.0255 151.174 44.4512 149.851C44.2433 149.385 44.0502 149 44.0205 149C43.9908 149 43.8869 149.19 43.7877 149.417Z" fill="white"/>
<path d="M17.7877 149.417C17.3177 150.545 17.2086 150.778 17.0059 151.114C16.7386 151.554 16.4118 151.895 15.9463 152.226C15.5008 152.54 15.1496 152.703 13.9861 153.12C13.4715 153.31 13.026 153.478 13.0011 153.505C12.9814 153.527 13.2239 153.636 13.5457 153.739C15.6099 154.433 16.273 154.828 16.8967 155.75C17.1592 156.13 17.5553 156.943 17.8672 157.74C17.9214 157.886 17.9956 158 18.0354 158C18.0699 158 18.1542 157.859 18.2184 157.686C18.4315 157.116 18.8718 156.189 19.0946 155.848C19.5007 155.224 20.0747 154.704 20.6787 154.416C21.0203 154.254 21.8174 153.961 22.3716 153.793C22.9111 153.63 23.0499 153.565 22.9853 153.495C22.9608 153.467 22.4804 153.278 21.9161 153.066C20.8172 152.66 20.5451 152.53 20.0747 152.183C19.357 151.646 19.0255 151.174 18.4512 149.851C18.2433 149.385 18.0502 149 18.0205 149C17.9908 149 17.8869 149.19 17.7877 149.417Z" fill="white"/>
<path d="M17.7877 138.417C17.3177 139.545 17.2086 139.778 17.0059 140.114C16.7386 140.554 16.4118 140.895 15.9463 141.226C15.5008 141.54 15.1496 141.703 13.9861 142.12C13.4715 142.31 13.026 142.478 13.0011 142.505C12.9814 142.527 13.2239 142.636 13.5457 142.739C15.6099 143.433 16.273 143.828 16.8967 144.75C17.1592 145.13 17.5553 145.943 17.8672 146.74C17.9214 146.886 17.9956 147 18.0354 147C18.0699 147 18.1542 146.859 18.2184 146.686C18.4315 146.116 18.8718 145.189 19.0946 144.848C19.5007 144.224 20.0747 143.704 20.6787 143.416C21.0203 143.254 21.8174 142.961 22.3716 142.793C22.9111 142.63 23.0499 142.565 22.9853 142.495C22.9608 142.467 22.4804 142.278 21.9161 142.066C20.8172 141.66 20.5451 141.53 20.0747 141.183C19.357 140.646 19.0255 140.174 18.4512 138.851C18.2433 138.385 18.0502 138 18.0205 138C17.9908 138 17.8869 138.19 17.7877 138.417Z" fill="white"/>
<path d="M17.7877 127.417C17.3177 128.545 17.2086 128.778 17.0059 129.114C16.7386 129.554 16.4118 129.895 15.9463 130.226C15.5008 130.54 15.1496 130.703 13.9861 131.12C13.4715 131.31 13.026 131.478 13.0011 131.505C12.9814 131.527 13.2239 131.636 13.5457 131.739C15.6099 132.433 16.273 132.828 16.8967 133.75C17.1592 134.13 17.5553 134.943 17.8672 135.74C17.9214 135.886 17.9956 136 18.0354 136C18.0699 136 18.1542 135.859 18.2184 135.686C18.4315 135.116 18.8718 134.189 19.0946 133.848C19.5007 133.224 20.0747 132.704 20.6787 132.416C21.0203 132.254 21.8174 131.961 22.3716 131.793C22.9111 131.63 23.0499 131.565 22.9853 131.495C22.9608 131.467 22.4804 131.278 21.9161 131.066C20.8172 130.66 20.5451 130.53 20.0747 130.183C19.357 129.646 19.0255 129.174 18.4512 127.851C18.2433 127.385 18.0502 127 18.0205 127C17.9908 127 17.8869 127.19 17.7877 127.417Z" fill="white"/>
<path d="M27.7877 113.417C27.3177 114.545 27.2086 114.778 27.0059 115.114C26.7386 115.554 26.4118 115.895 25.9463 116.226C25.5008 116.54 25.1496 116.703 23.9861 117.12C23.4715 117.31 23.026 117.478 23.0011 117.505C22.9814 117.527 23.2239 117.636 23.5457 117.739C25.6099 118.433 26.273 118.828 26.8967 119.75C27.1592 120.13 27.5553 120.943 27.8672 121.74C27.9214 121.886 27.9956 122 28.0354 122C28.0699 122 28.1542 121.859 28.2184 121.686C28.4315 121.116 28.8718 120.189 29.0946 119.848C29.5007 119.224 30.0747 118.704 30.6787 118.416C31.0203 118.254 31.8174 117.961 32.3716 117.793C32.9111 117.63 33.0499 117.565 32.9853 117.495C32.9608 117.467 32.4804 117.278 31.9161 117.066C30.8172 116.66 30.5451 116.53 30.0747 116.183C29.357 115.646 29.0255 115.174 28.4512 113.851C28.2433 113.385 28.0502 113 28.0205 113C27.9908 113 27.8869 113.19 27.7877 113.417Z" fill="white"/>
<path d="M27.7877 101.417C27.3177 102.545 27.2086 102.778 27.0059 103.114C26.7386 103.554 26.4118 103.895 25.9463 104.226C25.5008 104.54 25.1496 104.703 23.9861 105.12C23.4715 105.31 23.026 105.478 23.0011 105.505C22.9814 105.527 23.2239 105.636 23.5457 105.739C25.6099 106.433 26.273 106.828 26.8967 107.75C27.1592 108.13 27.5553 108.943 27.8672 109.74C27.9214 109.886 27.9956 110 28.0354 110C28.0699 110 28.1542 109.859 28.2184 109.686C28.4315 109.116 28.8718 108.189 29.0946 107.848C29.5007 107.224 30.0747 106.704 30.6787 106.416C31.0203 106.254 31.8174 105.961 32.3716 105.793C32.9111 105.63 33.0499 105.565 32.9853 105.495C32.9608 105.467 32.4804 105.278 31.9161 105.066C30.8172 104.66 30.5451 104.53 30.0747 104.183C29.357 103.646 29.0255 103.174 28.4512 101.851C28.2433 101.385 28.0502 101 28.0205 101C27.9908 101 27.8869 101.19 27.7877 101.417Z" fill="white"/>
<path d="M17.7877 89.4175C17.3177 90.5452 17.2086 90.7783 17.0059 91.1145C16.7386 91.5536 16.4118 91.8952 15.9463 92.2259C15.5008 92.5404 15.1496 92.703 13.9861 93.1205C13.4715 93.3102 13.026 93.4783 13.0011 93.5054C12.9814 93.5271 13.2239 93.6355 13.5457 93.7385C15.6099 94.4325 16.273 94.8283 16.8967 95.75C17.1592 96.1295 17.5553 96.9428 17.8672 97.7398C17.9214 97.8861 17.9956 98 18.0354 98C18.0699 98 18.1542 97.8591 18.2184 97.6856C18.4315 97.1163 18.8718 96.1892 19.0946 95.8476C19.5007 95.2241 20.0747 94.7036 20.6787 94.4163C21.0203 94.2536 21.8174 93.9609 22.3716 93.7928C22.9111 93.6301 23.0499 93.5651 22.9853 93.4946C22.9608 93.4675 22.4804 93.2777 21.9161 93.0663C20.8172 92.6596 20.5451 92.5295 20.0747 92.1825C19.357 91.6458 19.0255 91.1741 18.4512 89.8512C18.2433 89.385 18.0502 89 18.0205 89C17.9908 89 17.8869 89.1898 17.7877 89.4175Z" fill="white"/>
<path d="M17.7877 78.4175C17.3177 79.5452 17.2086 79.7783 17.0059 80.1145C16.7386 80.5536 16.4118 80.8952 15.9463 81.2259C15.5008 81.5404 15.1496 81.703 13.9861 82.1205C13.4715 82.3102 13.026 82.4783 13.0011 82.5054C12.9814 82.5271 13.2239 82.6355 13.5457 82.7385C15.6099 83.4325 16.273 83.8283 16.8967 84.75C17.1592 85.1295 17.5553 85.9428 17.8672 86.7398C17.9214 86.8861 17.9956 87 18.0354 87C18.0699 87 18.1542 86.8591 18.2184 86.6856C18.4315 86.1163 18.8718 85.1892 19.0946 84.8476C19.5007 84.2241 20.0747 83.7036 20.6787 83.4163C21.0203 83.2536 21.8174 82.9609 22.3716 82.7928C22.9111 82.6301 23.0499 82.5651 22.9853 82.4946C22.9608 82.4675 22.4804 82.2777 21.9161 82.0663C20.8172 81.6596 20.5451 81.5295 20.0747 81.1825C19.357 80.6458 19.0255 80.1741 18.4512 78.8512C18.2433 78.385 18.0502 78 18.0205 78C17.9908 78 17.8869 78.1898 17.7877 78.4175Z" fill="white"/>
<path d="M27.7877 77.4175C27.3177 78.5452 27.2086 78.7783 27.0059 79.1145C26.7386 79.5536 26.4118 79.8952 25.9463 80.2259C25.5008 80.5404 25.1496 80.703 23.9861 81.1205C23.4715 81.3102 23.026 81.4783 23.0011 81.5054C22.9814 81.5271 23.2239 81.6355 23.5457 81.7385C25.6099 82.4325 26.273 82.8283 26.8967 83.75C27.1592 84.1295 27.5553 84.9428 27.8672 85.7398C27.9214 85.8861 27.9956 86 28.0354 86C28.0699 86 28.1542 85.8591 28.2184 85.6856C28.4315 85.1163 28.8718 84.1892 29.0946 83.8476C29.5007 83.2241 30.0747 82.7036 30.6787 82.4163C31.0203 82.2536 31.8174 81.9609 32.3716 81.7928C32.9111 81.6301 33.0499 81.5651 32.9853 81.4946C32.9608 81.4675 32.4804 81.2777 31.9161 81.0663C30.8172 80.6596 30.5451 80.5295 30.0747 80.1825C29.357 79.6458 29.0255 79.1741 28.4512 77.8512C28.2433 77.385 28.0502 77 28.0205 77C27.9908 77 27.8869 77.1898 27.7877 77.4175Z" fill="white"/>
<path d="M17.7877 64.4175C17.3177 65.5452 17.2086 65.7783 17.0059 66.1145C16.7386 66.5536 16.4118 66.8952 15.9463 67.2259C15.5008 67.5404 15.1496 67.703 13.9861 68.1205C13.4715 68.3102 13.026 68.4783 13.0011 68.5054C12.9814 68.5271 13.2239 68.6355 13.5457 68.7385C15.6099 69.4325 16.273 69.8283 16.8967 70.75C17.1592 71.1295 17.5553 71.9428 17.8672 72.7398C17.9214 72.8861 17.9956 73 18.0354 73C18.0699 73 18.1542 72.8591 18.2184 72.6856C18.4315 72.1163 18.8718 71.1892 19.0946 70.8476C19.5007 70.2241 20.0747 69.7036 20.6787 69.4163C21.0203 69.2536 21.8174 68.9609 22.3716 68.7928C22.9111 68.6301 23.0499 68.5651 22.9853 68.4946C22.9608 68.4675 22.4804 68.2777 21.9161 68.0663C20.8172 67.6596 20.5451 67.5295 20.0747 67.1825C19.357 66.6458 19.0255 66.1741 18.4512 64.8512C18.2433 64.385 18.0502 64 18.0205 64C17.9908 64 17.8869 64.1898 17.7877 64.4175Z" fill="white"/>
<path d="M17.7877 53.4175C17.3177 54.5452 17.2086 54.7783 17.0059 55.1145C16.7386 55.5536 16.4118 55.8952 15.9463 56.2259C15.5008 56.5404 15.1496 56.703 13.9861 57.1205C13.4715 57.3102 13.026 57.4783 13.0011 57.5054C12.9814 57.5271 13.2239 57.6355 13.5457 57.7385C15.6099 58.4325 16.273 58.8283 16.8967 59.75C17.1592 60.1295 17.5553 60.9428 17.8672 61.7398C17.9214 61.8861 17.9956 62 18.0354 62C18.0699 62 18.1542 61.8591 18.2184 61.6856C18.4315 61.1163 18.8718 60.1892 19.0946 59.8476C19.5007 59.2241 20.0747 58.7036 20.6787 58.4163C21.0203 58.2536 21.8174 57.9609 22.3716 57.7928C22.9111 57.6301 23.0499 57.5651 22.9853 57.4946C22.9608 57.4675 22.4804 57.2777 21.9161 57.0663C20.8172 56.6596 20.5451 56.5295 20.0747 56.1825C19.357 55.6458 19.0255 55.1741 18.4512 53.8512C18.2433 53.385 18.0502 53 18.0205 53C17.9908 53 17.8869 53.1898 17.7877 53.4175Z" fill="white"/>
<path d="M56.7877 149.417C56.3177 150.545 56.2086 150.778 56.0059 151.114C55.7386 151.554 55.4118 151.895 54.9463 152.226C54.5008 152.54 54.1496 152.703 52.9861 153.12C52.4715 153.31 52.026 153.478 52.0011 153.505C51.9814 153.527 52.2239 153.636 52.5457 153.739C54.6099 154.433 55.273 154.828 55.8967 155.75C56.1592 156.13 56.5553 156.943 56.8672 157.74C56.9214 157.886 56.9956 158 57.0354 158C57.0699 158 57.1542 157.859 57.2184 157.686C57.4315 157.116 57.8718 156.189 58.0946 155.848C58.5007 155.224 59.0747 154.704 59.6787 154.416C60.0203 154.254 60.8174 153.961 61.3716 153.793C61.9111 153.63 62.0499 153.565 61.9853 153.495C61.9608 153.467 61.4804 153.278 60.9161 153.066C59.8172 152.66 59.5451 152.53 59.0747 152.183C58.357 151.646 58.0255 151.174 57.4512 149.851C57.2433 149.385 57.0502 149 57.0205 149C56.9908 149 56.8869 149.19 56.7877 149.417Z" fill="white"/>
<path d="M176.788 122.417C176.318 123.545 176.209 123.778 176.006 124.114C175.739 124.554 175.412 124.895 174.946 125.226C174.501 125.54 174.15 125.703 172.986 126.12C172.472 126.31 172.026 126.478 172.001 126.505C171.981 126.527 172.224 126.636 172.546 126.739C174.61 127.433 175.273 127.828 175.897 128.75C176.159 129.13 176.555 129.943 176.867 130.74C176.921 130.886 176.996 131 177.035 131C177.07 131 177.154 130.859 177.218 130.686C177.431 130.116 177.872 129.189 178.095 128.848C178.501 128.224 179.075 127.704 179.679 127.416C180.02 127.254 180.817 126.961 181.372 126.793C181.911 126.63 182.05 126.565 181.985 126.495C181.961 126.467 181.48 126.278 180.916 126.066C179.817 125.66 179.545 125.53 179.075 125.183C178.357 124.646 178.026 124.174 177.451 122.851C177.243 122.385 177.05 122 177.021 122C176.991 122 176.887 122.19 176.788 122.417Z" fill="white"/>
<path d="M176.788 136.417C176.318 137.545 176.209 137.778 176.006 138.114C175.739 138.554 175.412 138.895 174.946 139.226C174.501 139.54 174.15 139.703 172.986 140.12C172.472 140.31 172.026 140.478 172.001 140.505C171.981 140.527 172.224 140.636 172.546 140.739C174.61 141.433 175.273 141.828 175.897 142.75C176.159 143.13 176.555 143.943 176.867 144.74C176.921 144.886 176.996 145 177.035 145C177.07 145 177.154 144.859 177.218 144.686C177.431 144.116 177.872 143.189 178.095 142.848C178.501 142.224 179.075 141.704 179.679 141.416C180.02 141.254 180.817 140.961 181.372 140.793C181.911 140.63 182.05 140.565 181.985 140.495C181.961 140.467 181.48 140.278 180.916 140.066C179.817 139.66 179.545 139.53 179.075 139.183C178.357 138.646 178.026 138.174 177.451 136.851C177.243 136.385 177.05 136 177.021 136C176.991 136 176.887 136.19 176.788 136.417Z" fill="white"/>
<path d="M134.652 102.555L128.782 99.6096C128.542 99.4895 128.391 99.2541 128.387 98.9958L128.197 87.2719C128.182 86.2854 127.628 85.3784 126.737 84.8798L103.378 71.8095C101.58 70.8034 99.36 70.7767 97.536 71.7394L73.2957 84.5322C72.825 84.7807 72.5328 85.2538 72.5328 85.7676V89.3286C72.5328 89.8324 72.8138 90.2979 73.2701 90.5502L82.6054 95.7113C83.0977 95.9835 83.7138 95.644 83.7138 95.1005V91.1828C83.7138 89.6363 84.5962 88.2128 86.0156 87.4697L97.1787 81.6253C98.9647 80.6903 101.129 80.7 102.905 81.6511L114.578 87.8997C115.977 88.6485 116.843 90.0612 116.843 91.5934V94.3851C116.843 95.3853 117.397 96.3108 118.299 96.818L133.088 105.131C134.892 106.145 136 107.996 136 109.996V116.613C136 118.664 134.837 120.553 132.961 121.548L103.307 137.29C101.489 138.255 99.2722 138.235 97.4726 137.237L67.9424 120.861C66.121 119.851 65 117.991 65 115.979V98.8351C65 98.2973 65.6046 97.9571 66.0968 98.2181L72.1526 101.429C72.3872 101.553 72.5328 101.79 72.5328 102.046V113.543C72.5328 114.555 73.0995 115.489 74.0183 115.992L97.4869 128.84C99.2795 129.822 101.478 129.837 103.286 128.881L127.115 116.273C127.585 116.025 127.876 115.552 127.876 115.039V111.151C127.876 110.648 127.596 110.183 127.14 109.93L110.517 100.724C109.606 100.22 109.045 99.289 109.045 98.2823V94.7122C109.045 93.6714 108.445 92.715 107.485 92.2237L101.402 89.1125C100.554 88.6789 99.5383 88.6667 98.6794 89.08L93.2561 91.6891C92.2594 92.1687 91.6305 93.1439 91.6305 94.2102V106.105C91.6305 107.102 92.1807 108.025 93.078 108.533L100.013 112.462C100.237 112.589 100.374 112.82 100.374 113.069V119.357C100.374 119.895 99.7694 120.235 99.2772 119.973L86.7514 113.321C84.8765 112.325 83.7138 110.436 83.7138 108.386V106.508C83.7138 105.499 83.1497 104.566 82.2345 104.062L67.9586 96.2028C66.1281 95.1951 65 93.3301 65 91.3114V84.1893C65 82.1331 66.1701 80.2395 68.0544 79.2463L97.5453 63.7022C99.3644 62.7434 101.577 62.7679 103.372 63.7668L132.799 80.1405C134.616 81.1516 135.734 83.0095 135.734 85.0188V101.931C135.734 102.461 135.144 102.802 134.652 102.555Z" fill="white"/>
<path d="M101.423 95.8866C101.423 95.8086 101.489 95.7454 101.571 95.7454H105.706C105.788 95.7454 105.854 95.8086 105.854 95.8866V99.8382C105.854 99.9161 105.788 99.9793 105.706 99.9793H101.571C101.489 99.9793 101.423 99.9161 101.423 99.8382V95.8866Z" fill="white"/>
<path d="M95.1311 95.8866C95.1311 95.8086 95.1972 95.7454 95.2788 95.7454H99.4144C99.496 95.7454 99.5621 95.8086 99.5621 95.8866V99.8382C99.5621 99.9161 99.496 99.9793 99.4144 99.9793H95.2788C95.1972 99.9793 95.1311 99.9161 95.1311 99.8382V95.8866Z" fill="white"/>
<path d="M95.1311 101.137C95.1311 101.059 95.1972 100.995 95.2788 100.995H99.4144C99.496 100.995 99.5621 101.059 99.5621 101.137V105.088C99.5621 105.166 99.496 105.229 99.4144 105.229H95.2788C95.1972 105.229 95.1311 105.166 95.1311 105.088V101.137Z" fill="white"/>
<path d="M101.423 101.137C101.423 101.059 101.489 100.995 101.571 100.995H105.706C105.788 100.995 105.854 101.059 105.854 101.137V105.088C105.854 105.166 105.788 105.229 105.706 105.229H101.571C101.489 105.229 101.423 105.166 101.423 105.088V101.137Z" fill="white"/>
<rect x="160" y="15" width="24" height="24" rx="7" stroke="white" stroke-width="6"/>
<rect x="16" y="15" width="24" height="24" rx="7" stroke="white" stroke-width="6"/>
<rect x="16" y="163" width="24" height="24" rx="7" stroke="white" stroke-width="6"/>
<rect x="160" y="163" width="24" height="24" rx="7" stroke="white" stroke-width="6"/>
<circle cx="172" cy="27" r="5" fill="white"/>
<circle cx="28" cy="27" r="5" fill="white"/>
<circle cx="28" cy="175" r="5" fill="white"/>
<circle cx="172" cy="175" r="5" fill="white"/>
</svg>
