<svg width="16" height="16" viewBox="0 0 16 16" fill="none" xmlns="http://www.w3.org/2000/svg">
<path d="M5.81818 0H1.45455C1.06891 0.000441035 0.699198 0.153829 0.426513 0.426514C0.153829 0.699198 0.000441035 1.06891 0 1.45455V5.81818C0.000441035 6.20382 0.153829 6.57353 0.426513 6.84621C0.699198 7.1189 1.06891 7.27229 1.45455 7.27273H5.81818C6.20382 7.27229 6.57353 7.1189 6.84621 6.84621C7.1189 6.57353 7.27229 6.20382 7.27273 5.81818V1.45455C7.27229 1.06891 7.1189 0.699198 6.84621 0.426514C6.57353 0.153829 6.20382 0.000441035 5.81818 0ZM5.81818 5.81818H1.45455V1.45455H5.81818L5.81907 5.81818H5.81818ZM5.81818 8.72727H1.45455C1.06891 8.72771 0.699198 8.8811 0.426513 9.15379C0.153829 9.42647 0.000441035 9.79618 0 10.1818V14.5455C0.000441035 14.9311 0.153829 15.3008 0.426513 15.5735C0.699198 15.8462 1.06891 15.9996 1.45455 16H5.81818C6.20382 15.9996 6.57353 15.8462 6.84621 15.5735C7.1189 15.3008 7.27229 14.9311 7.27273 14.5455V10.1818C7.27229 9.79618 7.1189 9.42647 6.84621 9.15379C6.57353 8.8811 6.20382 8.72771 5.81818 8.72727ZM5.81818 14.5455H1.45455V10.1818H5.81818L5.81907 14.5455H5.81818ZM14.5455 0H10.1818C9.79618 0.000441035 9.42647 0.153829 9.15379 0.426514C8.8811 0.699198 8.72771 1.06891 8.72727 1.45455V5.81818C8.72771 6.20382 8.8811 6.57353 9.15379 6.84621C9.42647 7.1189 9.79618 7.27229 10.1818 7.27273H14.5455C14.9311 7.27229 15.3008 7.1189 15.5735 6.84621C15.8462 6.57353 15.9996 6.20382 16 5.81818V1.45455C15.9996 1.06891 15.8462 0.699198 15.5735 0.426514C15.3008 0.153829 14.9311 0.000441035 14.5455 0ZM14.5455 5.81818H10.1818V1.45455H14.5455L14.5463 5.81818H14.5455ZM8.72727 12.3636V9.45455C8.72727 9.26166 8.8039 9.07668 8.94029 8.94029C9.07668 8.8039 9.26166 8.72727 9.45455 8.72727C9.64743 8.72727 9.83242 8.8039 9.96881 8.94029C10.1052 9.07668 10.1818 9.26166 10.1818 9.45455V12.3636C10.1818 12.5565 10.1052 12.7415 9.96881 12.8779C9.83242 13.0143 9.64743 13.0909 9.45455 13.0909C9.26166 13.0909 9.07668 13.0143 8.94029 12.8779C8.8039 12.7415 8.72727 12.5565 8.72727 12.3636ZM16 10.9091C16 11.102 15.9234 11.287 15.787 11.4233C15.6506 11.5597 15.4656 11.6364 15.2727 11.6364H13.0909V15.2727C13.0909 15.4656 13.0143 15.6506 12.8779 15.787C12.7415 15.9234 12.5565 16 12.3636 16H9.45455C9.26166 16 9.07668 15.9234 8.94029 15.787C8.8039 15.6506 8.72727 15.4656 8.72727 15.2727C8.72727 15.0798 8.8039 14.8949 8.94029 14.7585C9.07668 14.6221 9.26166 14.5455 9.45455 14.5455H11.6364V9.45455C11.6364 9.26166 11.713 9.07668 11.8494 8.94029C11.9858 8.8039 12.1708 8.72727 12.3636 8.72727C12.5565 8.72727 12.7415 8.8039 12.8779 8.94029C13.0143 9.07668 13.0909 9.26166 13.0909 9.45455V10.1818H15.2727C15.4656 10.1818 15.6506 10.2585 15.787 10.3948C15.9234 10.5312 16 10.7162 16 10.9091ZM16 13.8182V15.2727C16 15.4656 15.9234 15.6506 15.787 15.787C15.6506 15.9234 15.4656 16 15.2727 16C15.0798 16 14.8949 15.9234 14.7585 15.787C14.6221 15.6506 14.5455 15.4656 14.5455 15.2727V13.8182C14.5455 13.6253 14.6221 13.4403 14.7585 13.3039C14.8949 13.1675 15.0798 13.0909 15.2727 13.0909C15.4656 13.0909 15.6506 13.1675 15.787 13.3039C15.9234 13.4403 16 13.6253 16 13.8182Z" fill="black"/>
</svg>
