<svg width="24" height="25" viewBox="0 0 24 25" fill="none" xmlns="http://www.w3.org/2000/svg">
<path d="M12.4818 13.0594V20.739C12.4818 21.1209 12.3301 21.4871 12.0601 21.7572C11.7901 22.0272 11.4238 22.1789 11.042 22.1789C10.6601 22.1789 10.2939 22.0272 10.0239 21.7572C9.75391 21.4871 9.60222 21.1209 9.60222 20.739V16.5392L2.46212 23.6776C2.32819 23.8116 2.1692 23.9178 1.99421 23.9903C1.81923 24.0628 1.63168 24.1001 1.44228 24.1001C1.25287 24.1001 1.06533 24.0628 0.89034 23.9903C0.715355 23.9178 0.55636 23.8116 0.422433 23.6776C0.288505 23.5437 0.182268 23.3847 0.109787 23.2097C0.0373055 23.0347 0 22.8471 0 22.6577C0 22.4683 0.0373055 22.2807 0.109787 22.1057C0.182268 21.9307 0.288505 21.7717 0.422433 21.6377L7.56253 14.4993H3.36318C2.98133 14.4993 2.61511 14.3476 2.3451 14.0776C2.07509 13.8075 1.9234 13.4413 1.9234 13.0594C1.9234 12.6775 2.07509 12.3113 2.3451 12.0412C2.61511 11.7712 2.98133 11.6195 3.36318 11.6195H11.042C11.4238 11.6195 11.7901 11.7712 12.0601 12.0412C12.3301 12.3113 12.4818 12.6775 12.4818 13.0594ZM21.6004 0.100098H6.24274C5.60631 0.100098 4.99596 0.35294 4.54594 0.803003C4.09592 1.25307 3.84311 1.86348 3.84311 2.49997V7.77968C3.84311 8.16157 3.9948 8.52782 4.26481 8.79786C4.53482 9.0679 4.90103 9.2196 5.28288 9.2196C5.66474 9.2196 6.03095 9.0679 6.30096 8.79786C6.57097 8.52782 6.72266 8.16157 6.72266 7.77968V2.97994H21.1204V17.3792H16.3212C15.9393 17.3792 15.5731 17.5309 15.3031 17.8009C15.0331 18.0709 14.8814 18.4372 14.8814 18.8191C14.8814 19.201 15.0331 19.5672 15.3031 19.8373C15.5731 20.1073 15.9393 20.259 16.3212 20.259H21.6004C22.2368 20.259 22.8471 20.0062 23.2972 19.5561C23.7472 19.106 24 18.4956 24 17.8591V2.49997C24 1.86348 23.7472 1.25307 23.2972 0.803003C22.8471 0.35294 22.2368 0.100098 21.6004 0.100098Z" fill="#C2C2C2"/>
</svg>
