<svg width="77" height="79" viewBox="0 0 77 79" fill="none" xmlns="http://www.w3.org/2000/svg">
<path fill-rule="evenodd" clip-rule="evenodd" d="M68.0318 4.72949C67.5085 4.47664 67.0611 4.52018 66.705 4.79835C66.3268 2.24369 64.125 0.251566 61.4716 0.251566H12.8383C9.92292 0.251566 7.53619 2.64811 7.53619 5.56341C7.53494 6.31191 7.53619 7.03974 7.53619 7.78778H5.30206C2.38673 7.78763 -9.44879e-06 10.1744 0 13.0897V72.7981C-9.44879e-06 75.7135 2.38673 78.1002 5.30206 78.1002H54.4186C57.0708 78.1002 59.2473 75.9236 59.2473 73.2714V64.6757L66.293 57.7551C66.6078 57.4406 66.7657 57.2986 66.7618 56.8701L66.7844 24.6945L69.2834 20.3685C69.4786 20.158 70.2501 19.3188 71.059 18.2349C72.8716 15.5386 74.3192 12.7458 75.1765 10.0831C75.3112 9.66167 75.2145 9.20073 74.9215 8.86923C74.8263 8.75773 74.7198 8.64239 74.6247 8.53543L76.2433 5.72985C77.2874 3.92154 76.603 1.60752 74.8234 0.579944C72.5713 -0.484862 70.6186 0.32334 69.5993 2.01215L68.0318 4.72949ZM73.0837 2.59347C73.2517 2.61237 73.4167 2.66224 73.5693 2.75068C74.2309 3.13268 74.4375 3.84416 74.072 4.47712L72.7207 6.81914C72.0212 6.30834 71.2687 5.87539 70.4768 5.52443L71.779 3.27064C72.0531 2.7959 72.5798 2.54214 73.0837 2.59347ZM61.4716 2.76245C63.0298 2.76245 64.2723 4.00492 64.2723 5.56307V7.64026C62.6172 10.1861 61.235 12.8533 60.4417 15.3309L53.8962 26.6487L53.8128 26.7369C52.8094 27.8308 52.3875 28.3343 52.0962 28.9759C51.8252 29.5725 51.734 30.0291 51.2942 31.1217L51.2602 31.1595C49.1757 33.4321 47.5188 36.0413 46.3383 38.8772C46.1036 39.4277 46.0909 39.9916 46.0244 40.4934L45.296 46.6512C45.1581 47.8072 45.7724 48.8631 46.6522 49.371C47.5319 49.8789 48.761 49.8893 49.6931 49.1922L54.6568 45.4743C55.1761 45.1961 55.5573 44.7307 55.9051 44.4027C57.7215 41.7314 59.2895 38.8572 60.1308 36.2436C60.8672 35.3016 61.2161 34.9997 61.5998 34.4632C62.1985 33.3956 62.4237 32.6482 62.7058 31.7582L64.2729 29.0458V55.5047H52.7418C52.0484 55.502 51.484 56.0619 51.4813 56.7553V68.0535H12.3654C11.0704 68.0535 10.0479 67.0311 10.0479 65.7361V60.1225C10.7422 59.935 11.3772 59.9903 11.8479 60.1452C12.4719 60.3531 12.5616 60.7343 12.5616 60.5254C12.5641 61.215 13.1227 61.7734 13.8123 61.776C14.5057 61.7788 15.0701 61.2189 15.0728 60.5254C15.0728 59.0606 13.9044 58.1838 12.6449 57.764C11.6858 57.4658 10.9184 57.4929 10.0479 57.5874V52.5747C10.7987 52.3385 11.4798 52.3328 11.9215 52.4523C12.4965 52.6076 12.5616 52.7289 12.5616 52.9893C12.5628 53.6799 13.1217 54.2399 13.8123 54.2426C14.5067 54.2453 15.0715 53.6837 15.0728 52.9893C15.0728 51.5163 13.8773 50.3776 12.5689 50.0244C11.7214 49.7644 10.8344 49.8925 10.0479 49.9817V45.0499C10.7987 44.8107 11.4798 44.7982 11.9215 44.9177C12.4965 45.073 12.5616 45.1966 12.5616 45.4572C12.5641 46.1469 13.1227 46.7053 13.8123 46.708C14.5057 46.7108 15.0701 46.1507 15.0728 45.4572C15.0728 43.9842 13.8773 42.843 12.5689 42.4898C11.7212 42.2324 10.8342 42.3602 10.0479 42.4471V37.5129C10.7987 37.2748 11.4798 37.2639 11.9215 37.3829C12.4965 37.5383 12.5616 37.6596 12.5616 37.92C12.5591 38.6134 13.1188 39.1778 13.8123 39.1805C14.5096 39.1833 15.0755 38.6173 15.0728 37.92C15.0728 36.4469 13.8773 35.3156 12.5689 34.9625C11.7218 34.704 10.8343 34.8283 10.0479 34.9137V29.9771C10.7987 29.7389 11.4798 29.728 11.9215 29.8471C12.4965 30.0024 12.5616 30.1237 12.5616 30.3841C12.5591 31.0775 13.1188 31.6419 13.8123 31.6447C14.5096 31.6474 15.0755 31.0814 15.0728 30.3841C15.0728 28.911 13.8773 27.7797 12.5689 27.4265C11.7212 27.1691 10.8341 27.2969 10.0479 27.3838V22.4422C10.7988 22.2064 11.4798 22.2003 11.9215 22.3197C12.4965 22.4751 12.5616 22.5964 12.5616 22.8569C12.5641 23.5465 13.1227 24.1049 13.8123 24.1076C14.5096 24.1104 15.0755 23.5444 15.0728 22.8471C15.0728 21.374 13.8773 20.2451 12.5689 19.8919C11.7214 19.6319 10.8344 19.76 10.0479 19.8492V14.9076C10.7987 14.6714 11.4798 14.6658 11.9215 14.7852C12.4965 14.9406 12.5616 15.0618 12.5616 15.3223C12.5628 16.0129 13.1217 16.5728 13.8123 16.5755C14.5067 16.578 15.0715 16.0167 15.0728 15.3223C15.0728 13.8492 13.8773 12.7105 12.5689 12.3574C11.7214 12.0974 10.8345 12.2254 10.0479 12.3146V9.04074V7.38293C10.7987 7.14369 11.4798 7.1312 11.9215 7.25064C12.4965 7.40597 12.5616 7.52957 12.5616 7.79021C12.5641 8.47982 13.1227 9.03814 13.8123 9.04086C14.5057 9.04332 15.0701 8.48364 15.0728 7.79021C15.0728 6.31713 13.8773 5.17581 12.5689 4.82269C11.7633 4.57928 10.9307 4.6837 10.1778 4.76155C10.5186 3.60404 11.5624 2.76529 12.2003 2.76533L61.4716 2.76245ZM38.1421 5.55338L33.6469 9.14859C32.0643 6.81537 29.3915 5.27379 26.3706 5.27379C21.5312 5.27379 17.5837 9.22131 17.5837 14.0607C17.5837 18.9 21.5312 22.8476 26.3706 22.8476C31.21 22.8476 35.1575 18.9 35.1575 14.0607C35.1575 13.1568 35.0207 12.2853 34.7652 11.4636L39.7092 7.50796C40.2473 7.07419 40.3339 6.2874 39.9029 5.74715C39.5154 5.29111 38.685 5.17025 38.1421 5.55338ZM67.8307 7.37544C69.6024 7.81443 71.2008 8.73205 72.4633 10.051C71.2705 13.1995 69.9182 15.7776 67.9558 18.0311C66.3857 17.1263 64.8166 16.2198 63.2472 15.3139C64.2625 12.3984 65.7933 9.69644 67.8307 7.37544ZM26.3706 7.78732C28.6198 7.78732 30.5679 8.96175 31.6751 10.7253L26.6575 14.7377L24.9065 12.1161C24.5233 11.536 23.7416 11.3777 23.1628 11.7632C22.5835 12.1471 22.4263 12.9287 22.8121 13.5068L25.3234 17.2688C25.7309 17.8809 26.5749 18.0134 27.1504 17.556L32.5825 13.2104C32.6199 13.49 32.6462 13.7712 32.6462 14.0614C32.6462 17.5435 29.8527 20.3468 26.3706 20.3468C22.8884 20.3468 20.0949 17.5435 20.0949 14.0614C20.0949 10.5792 22.8884 7.78732 26.3706 7.78732ZM5.30206 10.2985H7.53619C7.53494 28.7316 7.53601 48.1373 7.53619 65.7349C7.53619 68.3871 9.71276 70.5636 12.3649 70.5636H52.6112C53.1297 70.5749 53.2975 70.5028 53.6216 70.203L56.7361 67.1426V73.271C56.7361 74.566 55.7137 75.5885 54.4186 75.5885H5.30212C3.74397 75.5885 2.51376 74.3558 2.51376 72.7977V13.0894C2.51376 11.5312 3.74391 10.2985 5.30206 10.2985ZM40.1824 15.3211C39.4909 15.3224 38.9306 15.8827 38.9292 16.5742C38.9267 17.2686 39.488 17.8334 40.1824 17.8348H42.6937C43.3871 17.8323 43.9471 17.2677 43.9444 16.5742C43.9431 15.8836 43.3843 15.3238 42.6937 15.3211H40.1824ZM47.7162 15.3211C47.0218 15.3186 46.457 15.8798 46.4556 16.5742C46.4531 17.2715 47.0189 17.8375 47.7162 17.8348H56.5031C57.2004 17.8373 57.7664 17.2715 57.7636 16.5742C57.7624 15.8798 57.1975 15.3184 56.5031 15.3211H47.7162ZM62.0627 17.5331C63.5504 18.3924 65.0381 19.2516 66.526 20.1106L61.3049 29.1502C60.0189 27.9818 58.4984 27.1031 56.844 26.5726L62.0627 17.5331ZM18.8344 27.8724C18.1409 27.8752 17.5809 28.4395 17.5836 29.133C17.5861 29.8226 18.1447 30.381 18.8344 30.3836H47.7162C48.4068 30.3823 48.9667 29.8236 48.9694 29.133C48.9719 28.4386 48.4106 27.8738 47.7162 27.8724H18.8344ZM55.3382 28.846C57.1619 29.2807 58.8052 30.2306 60.0934 31.5928C59.8738 32.2457 59.6718 32.833 59.5539 32.9979C59.4637 33.1241 59.2419 33.3672 58.931 33.7288C57.5493 32.4231 55.8796 31.4594 54.0581 30.9158C54.2159 30.4655 54.3177 30.1521 54.3818 30.011C54.4655 29.8265 54.8823 29.363 55.3382 28.846ZM18.8344 32.8949C18.1409 32.8976 17.5809 33.462 17.5836 34.1554C17.5849 34.8461 18.1438 35.4059 18.8344 35.4086H21.3481C22.0387 35.4059 22.5974 34.846 22.5988 34.1554C22.6013 33.462 22.0415 32.8976 21.3481 32.8949H18.8344ZM26.3706 32.8949C25.6733 32.8921 25.1073 33.4581 25.11 34.1554C25.1113 34.8499 25.6761 35.4113 26.3706 35.4086H28.8818C29.5734 35.4073 30.1336 34.847 30.135 34.1554C30.1375 33.4611 29.5762 32.8962 28.8818 32.8949H26.3706ZM33.9068 32.8949C33.2095 32.8921 32.6435 33.4581 32.6462 34.1554C32.6475 34.8499 33.2123 35.4113 33.9068 35.4086H41.4331C42.1276 35.4114 42.6923 34.8499 42.6937 34.1554C42.6962 33.4581 42.1304 32.8921 41.4331 32.8949H33.9068ZM52.8343 33.2945C54.614 33.7297 56.216 34.6578 57.4841 35.9799C56.6451 38.4523 55.4849 40.8076 53.9036 42.876C53.5885 43.2879 52.4832 43.528 51.9981 43.2756C51.0596 42.7895 50.1465 42.2635 49.2563 41.6938C48.7951 41.3998 48.4512 40.3212 48.6505 39.8423C49.6511 37.4387 51.1128 35.2571 52.8343 33.2945ZM18.8344 37.9197C18.1409 37.9225 17.5809 38.4868 17.5836 39.1802C17.5861 39.8698 18.1447 40.4283 18.8344 40.431H28.7445C29.4379 40.4338 30.0023 39.8737 30.005 39.1802C30.0075 38.4829 29.4418 37.917 28.7445 37.9197H18.8344ZM33.9068 37.9197C33.2095 37.917 32.6435 38.4829 32.6462 39.1802C32.6487 39.8737 33.2133 40.4337 33.9068 40.431H40.1824C40.8721 40.4284 41.4305 39.8698 41.4331 39.1802C41.4357 38.4868 40.8759 37.9225 40.1824 37.9197H33.9068ZM18.8344 42.9422C18.1438 42.9448 17.585 43.5048 17.5836 44.1954C17.5811 44.8888 18.1409 45.4533 18.8344 45.456H38.9292C39.6237 45.4546 40.1851 44.8898 40.1824 44.1954C40.1812 43.5038 39.6208 42.9435 38.9292 42.9422H18.8344ZM48.1453 43.9526C48.9487 44.4569 49.7667 44.929 50.6051 45.3726L48.1895 47.18C48.0601 47.2767 48.0044 47.2472 47.9099 47.1951C47.8155 47.1407 47.7707 47.11 47.7898 46.9497L48.1453 43.9526ZM18.8319 47.9622C18.1385 47.965 17.5785 48.5294 17.5812 49.2228C17.5837 49.9124 18.1423 50.4708 18.8319 50.4734H21.3432C22.0366 50.4762 22.601 49.9163 22.6037 49.2228C22.6062 48.5255 22.0405 47.9595 21.3432 47.9622H18.8319ZM26.3681 47.9622C25.6737 47.9636 25.1122 48.5284 25.1149 49.2228C25.1174 49.9134 25.6775 50.4721 26.3681 50.4734H28.8794C29.5728 50.4762 30.1372 49.9163 30.1399 49.2228C30.1424 48.5255 29.5767 47.9595 28.8794 47.9622H26.3681ZM33.9019 47.9622C33.2084 47.965 32.6484 48.5294 32.6511 49.2228C32.6536 49.9124 33.2122 50.4708 33.9019 50.4734H41.438C42.1277 50.4708 42.6861 49.9124 42.6888 49.2228C42.6913 48.5294 42.1315 47.9649 41.438 47.9622H33.9019ZM18.8319 52.9872C18.1385 52.99 17.5785 53.5544 17.5812 54.2478C17.5837 54.9374 18.1423 55.4958 18.8319 55.4984H28.7494C29.439 55.4958 29.9974 54.9374 30.0001 54.2478C30.0026 53.5544 29.4428 52.9899 28.7494 52.9872H18.8319ZM33.9019 52.9872C33.2084 52.99 32.6484 53.5544 32.6511 54.2478C32.6536 54.9374 33.2122 55.4958 33.9019 55.4984H46.463C47.1526 55.4958 47.711 54.9374 47.7137 54.2478C47.7162 53.5544 47.1565 52.9899 46.463 52.9872H33.9019ZM18.8319 58.0098C18.1385 58.0125 17.5785 58.5768 17.5812 59.2702C17.5837 59.9599 18.1423 60.5183 18.8319 60.521H38.9268C39.6164 60.5184 40.1748 59.9599 40.1775 59.2702C40.18 58.5768 39.6203 58.0125 38.9268 58.0098H18.8319ZM43.9493 58.0098C43.252 58.007 42.686 58.5729 42.6888 59.2702C42.6913 59.9637 43.2558 60.5237 43.9493 60.521H46.463C47.1526 60.5184 47.711 59.9599 47.7137 59.2702C47.7162 58.5768 47.1565 58.0125 46.463 58.0098H43.9493ZM53.9918 58.0135H62.455L57.126 63.2445L53.9918 66.3174V58.0135Z" fill="#9B9A9A"/>
</svg>
