<svg width="199" height="36" viewBox="0 0 199 36" fill="none" xmlns="http://www.w3.org/2000/svg">
<path fill-rule="evenodd" clip-rule="evenodd" d="M8.91271 18.1113L17.2167 34.9856H22.7568L14.4528 18.1113H8.91271ZM5.01047 10.1817H10.5506L5.54009 0H0L5.01047 10.1817Z" fill="#022E47"/>
<path fill-rule="evenodd" clip-rule="evenodd" d="M5.54009 0H32.2047C40.3759 0 47 6.2768 47 14.0196C47 20.0612 42.967 25.2102 37.313 27.1812L41.9257 35H27.1751L19.6448 19.6973H15.2333L14.4528 18.1113H27.14L26.2967 22.1396L32.0606 18.9486L38.4475 22.1396L36.455 15.5979L41.3765 10.1763H34.7765L32.0606 5.39216L29.3447 10.1763H20.556L20.563 10.1817H14.9621L10.732 1.58593H6.32037L5.54009 0Z" fill="#022E47"/>
<path d="M193.84 33.36H187.312L174 19.92H188.08V6.48H171.44V33.36H166.32V10.896L170.8 6.48H166.32V2H188.72C189.915 2 190.96 2.448 191.856 3.344C192.752 4.24 193.2 5.28533 193.2 6.48V18.64C193.2 22.0533 191.707 23.76 188.72 23.76H184.88V24.464L193.84 33.36Z" fill="#022E47"/>
<path d="M156.38 33.36H151.26V29.52L147.42 33.36H133.98C132.785 33.36 131.74 32.912 130.844 32.016C129.948 31.12 129.5 30.0747 129.5 28.88V6.48C129.5 5.28533 129.948 4.24 130.844 3.344C131.74 2.448 132.785 2 133.98 2H156.38V6.48H134.62V28.88H151.26V19.92H142.94L147.42 15.44H156.38V33.36Z" fill="#022E47"/>
<path d="M118.63 28.88C118.63 30.1173 118.182 31.184 117.286 32.08C116.433 32.9333 115.387 33.36 114.15 33.36H96.23C94.9927 33.36 93.926 32.9333 93.03 32.08C92.1767 31.184 91.75 30.1173 91.75 28.88V6.48C91.75 5.24267 92.1767 4.19733 93.03 3.344C93.926 2.448 94.9927 2 96.23 2H114.15C115.387 2 116.433 2.448 117.286 3.344C118.182 4.19733 118.63 5.24267 118.63 6.48V28.88ZM113.51 28.88V6.48H96.87V28.88H113.51Z" fill="#022E47"/>
<path d="M80.88 28.88C80.88 30.1173 80.432 31.184 79.536 32.08C78.6827 32.9333 77.6373 33.36 76.4 33.36H58.48C57.2427 33.36 56.176 32.9333 55.28 32.08C54.4267 31.184 54 30.1173 54 28.88V6.48C54 5.24267 54.4267 4.19733 55.28 3.344C56.176 2.448 57.2427 2 58.48 2H76.4C77.6373 2 78.6827 2.448 79.536 3.344C80.432 4.19733 80.88 5.24267 80.88 6.48V28.88ZM75.76 28.88V6.48H59.12V28.88H75.76Z" fill="#022E47"/>
<path fill-rule="evenodd" clip-rule="evenodd" d="M198.693 35.36H186.478L173.44 22.1967V35.36H164.32V10.0591L165.922 8.48H164.32V0H188.72C190.48 0 192.024 0.683965 193.27 1.92979C194.516 3.17561 195.2 4.72022 195.2 6.48V18.64C195.2 20.5942 194.778 22.4334 193.585 23.797C192.413 25.1361 190.782 25.699 189.019 25.7553L198.693 35.36ZM184.88 24.464V23.76H188.72C191.707 23.76 193.2 22.0533 193.2 18.64V6.48C193.2 5.28533 192.752 4.24 191.856 3.344C190.96 2.448 189.915 2 188.72 2H166.32V6.48H170.8L166.32 10.896V33.36H171.44V6.48H188.08V19.92H174L187.312 33.36H193.84L184.88 24.464ZM186.08 17.92V8.48H173.44V17.92H186.08Z" fill="#022E47"/>
<path fill-rule="evenodd" clip-rule="evenodd" d="M158.38 35.36H149.26V34.3484L148.248 35.36H133.98C132.22 35.36 130.676 34.676 129.43 33.4302C128.184 32.1844 127.5 30.6398 127.5 28.88V6.48C127.5 4.72023 128.184 3.17561 129.43 1.92979C130.676 0.683965 132.22 0 133.98 0H158.38V8.48H136.62V26.88H149.26V21.92H138.112L146.592 13.44H158.38V35.36ZM151.26 19.92V28.88H134.62V6.48H156.38V2H133.98C132.785 2 131.74 2.448 130.844 3.344C129.948 4.24 129.5 5.28533 129.5 6.48V28.88C129.5 30.0747 129.948 31.12 130.844 32.016C131.74 32.912 132.785 33.36 133.98 33.36H147.42L151.26 29.52V33.36H156.38V15.44H147.42L142.94 19.92H151.26Z" fill="#022E47"/>
<path fill-rule="evenodd" clip-rule="evenodd" d="M91.6154 33.4946L91.5817 33.4593C90.3742 32.1914 89.75 30.6309 89.75 28.88V6.48C89.75 4.72726 90.3769 3.16869 91.6158 1.92978C92.8767 0.668833 94.4481 0 96.23 0H114.15C115.918 0 117.475 0.660112 118.701 1.92946C119.97 3.15515 120.63 4.71158 120.63 6.48V28.88C120.63 30.6619 119.961 32.2333 118.7 33.4942C117.461 34.7331 115.903 35.36 114.15 35.36H96.23C94.4791 35.36 92.9186 34.7358 91.6507 33.5283L91.6154 33.4946ZM117.286 3.344C116.433 2.448 115.387 2 114.15 2H96.23C94.9927 2 93.926 2.448 93.03 3.344C92.1767 4.19733 91.75 5.24267 91.75 6.48V28.88C91.75 30.1173 92.1767 31.184 93.03 32.08C93.926 32.9333 94.9927 33.36 96.23 33.36H114.15C115.387 33.36 116.433 32.9333 117.286 32.08C118.182 31.184 118.63 30.1173 118.63 28.88V6.48C118.63 5.24267 118.182 4.19733 117.286 3.344ZM113.51 6.48V28.88H96.87V6.48H113.51ZM98.87 8.48V26.88H111.51V8.48H98.87Z" fill="#022E47"/>
<path fill-rule="evenodd" clip-rule="evenodd" d="M53.8654 33.4946L53.8317 33.4593C52.6242 32.1914 52 30.6309 52 28.88V6.48C52 4.72726 52.6269 3.16869 53.8658 1.92978C55.1267 0.668833 56.6981 0 58.48 0H76.4C78.1684 0 79.7249 0.660132 80.9505 1.92951C82.2199 3.1552 82.88 4.7116 82.88 6.48V28.88C82.88 30.6619 82.2112 32.2333 80.9502 33.4942C79.7113 34.7331 78.1527 35.36 76.4 35.36H58.48C56.7291 35.36 55.1686 34.7358 53.9007 33.5283L53.8654 33.4946ZM79.536 3.344C78.6827 2.448 77.6373 2 76.4 2H58.48C57.2427 2 56.176 2.448 55.28 3.344C54.4267 4.19733 54 5.24267 54 6.48V28.88C54 30.1173 54.4267 31.184 55.28 32.08C56.176 32.9333 57.2427 33.36 58.48 33.36H76.4C77.6373 33.36 78.6827 32.9333 79.536 32.08C80.432 31.184 80.88 30.1173 80.88 28.88V6.48C80.88 5.24267 80.432 4.19733 79.536 3.344ZM75.76 6.48V28.88H59.12V6.48H75.76ZM61.12 8.48V26.88H73.76V8.48H61.12Z" fill="#022E47"/>
</svg>
