<svg width="18" height="20" viewBox="0 0 18 20" fill="none" xmlns="http://www.w3.org/2000/svg">
<path d="M13.0909 12.5925C13.0909 12.789 13.0047 12.9774 12.8513 13.1163C12.6978 13.2552 12.4897 13.3333 12.2727 13.3333H5.72727C5.51028 13.3333 5.30217 13.2552 5.14873 13.1163C4.99529 12.9774 4.90909 12.789 4.90909 12.5925C4.90909 12.3961 4.99529 12.2077 5.14873 12.0688C5.30217 11.9298 5.51028 11.8518 5.72727 11.8518H12.2727C12.4897 11.8518 12.6978 11.9298 12.8513 12.0688C13.0047 12.2077 13.0909 12.3961 13.0909 12.5925ZM12.2727 8.88881H5.72727C5.51028 8.88881 5.30217 8.96686 5.14873 9.10577C4.99529 9.24469 4.90909 9.4331 4.90909 9.62956C4.90909 9.82602 4.99529 10.0144 5.14873 10.1533C5.30217 10.2923 5.51028 10.3703 5.72727 10.3703H12.2727C12.4897 10.3703 12.6978 10.2923 12.8513 10.1533C13.0047 10.0144 13.0909 9.82602 13.0909 9.62956C13.0909 9.4331 13.0047 9.24469 12.8513 9.10577C12.6978 8.96686 12.4897 8.88881 12.2727 8.88881ZM18 2.96285V18.5185C18 18.9114 17.8276 19.2882 17.5207 19.5661C17.2138 19.8439 16.7976 20 16.3636 20H1.63636C1.20237 20 0.786157 19.8439 0.47928 19.5661C0.172402 19.2882 0 18.9114 0 18.5185V2.96285C0 2.56993 0.172402 2.19311 0.47928 1.91528C0.786157 1.63744 1.20237 1.48136 1.63636 1.48136H5.34477C5.80449 1.01536 6.36774 0.642516 6.99763 0.387237C7.62753 0.131959 8.30987 0 9 0C9.69013 0 10.3725 0.131959 11.0024 0.387237C11.6323 0.642516 12.1955 1.01536 12.6552 1.48136H16.3636C16.7976 1.48136 17.2138 1.63744 17.5207 1.91528C17.8276 2.19311 18 2.56993 18 2.96285ZM5.72727 4.44434H12.2727C12.2727 3.65851 11.9279 2.90486 11.3142 2.34919C10.7004 1.79353 9.86798 1.48136 9 1.48136C8.13202 1.48136 7.29959 1.79353 6.68583 2.34919C6.07208 2.90486 5.72727 3.65851 5.72727 4.44434ZM16.3636 2.96285H13.6278C13.814 3.43861 13.9091 3.93962 13.9091 4.44434V5.18509C13.9091 5.38154 13.8229 5.56996 13.6695 5.70887C13.516 5.84779 13.3079 5.92583 13.0909 5.92583H4.90909C4.6921 5.92583 4.48399 5.84779 4.33055 5.70887C4.17711 5.56996 4.09091 5.38154 4.09091 5.18509V4.44434C4.09093 3.93962 4.18604 3.43861 4.37216 2.96285H1.63636V18.5185H16.3636V2.96285Z" fill="black"/>
</svg>
