<svg width="87" height="33" viewBox="0 0 87 33" fill="none" xmlns="http://www.w3.org/2000/svg">
<path d="M58.6604 0L57.5153 1.29934C58.2359 5.16913 58.6887 10.744 58.6887 16.9443C58.6887 23.1392 58.236 28.7141 57.5158 32.5836L57.5127 32.5871C60.9201 31.7701 65.8329 31.2521 71.2917 31.2521C76.7528 31.2521 81.6633 31.7701 85.0712 32.5871L86.2149 31.2878C82.7081 30.4588 77.7502 29.9834 72.5829 29.9834C67.3629 29.9834 62.3535 30.471 58.8406 31.3149H58.8402L58.5809 31.3773L58.5814 31.3768L58.6368 31.0826C59.3799 27.091 59.8075 21.4021 59.8075 15.476C59.8075 9.61225 59.3886 3.98281 58.6604 0ZM59.0246 0.0854825C59.7423 4.0858 60.1532 9.66792 60.1532 15.4753C60.1532 21.2884 59.7423 26.87 59.0246 30.8677C62.5471 30.0532 67.468 29.5895 72.5808 29.5895C77.7007 29.5895 82.6201 30.0532 86.1403 30.8677C85.4253 26.8761 85.0139 21.2917 85.0139 15.4753C85.0139 9.66483 85.4253 4.08014 86.1403 0.0854825C82.6201 0.899963 77.7007 1.36369 72.5808 1.36369C67.4682 1.36369 62.5471 0.899963 59.0246 0.0854825Z" fill="#157D74"/>
<path d="M29.4496 8.19821C29.0542 8.94117 28.8679 9.4283 28.8917 9.663C29.0908 11.7821 29.2482 13.5863 29.3605 15.0816C29.5939 14.4096 29.7088 13.9254 29.7088 13.6254L29.6064 10.9296C29.5335 9.16688 29.4811 8.25459 29.4496 8.19821ZM40.639 8.19821C40.2415 8.94117 40.0552 9.4283 40.0789 9.663C40.2802 11.7821 40.4345 13.5863 40.5473 15.0816C40.7807 14.4096 40.8983 13.9254 40.8983 13.6254L40.7959 10.9296C40.7201 9.16688 40.6706 8.25459 40.639 8.19821ZM7.46085 8.19922C7.24078 8.53805 7.07839 8.7848 6.97387 8.94542C7.12537 10.7852 7.25108 12.7197 7.34785 14.7528H8.78353H15.612H16.8784H18.5361C18.8845 14.7528 19.1728 14.6249 19.4006 14.3727C19.4924 14.2741 19.647 14.1494 19.861 13.995C20.0761 13.8375 20.2284 13.7069 20.3152 13.6058C20.3567 13.9654 20.3881 14.1937 20.4118 14.2922C20.482 14.5984 20.6057 14.7528 20.7787 14.7528H22.7976H24.1384C24.1827 14.7528 24.2484 14.6693 24.3374 14.4999C24.4264 14.3279 24.4816 14.2444 24.5098 14.2444C24.5263 14.2532 24.5602 14.3131 24.6072 14.4229C24.6542 14.5359 24.6961 14.6071 24.7331 14.6367C24.8348 14.7138 24.9344 14.7528 25.034 14.7528H25.2626V14.7533H27.2216C27.2924 14.7533 27.3661 14.5306 27.4397 14.0876C27.5077 13.6715 27.5416 13.3562 27.5416 13.1422L27.2925 10.3066L27.4002 10.3393L27.8274 9.3824C27.6178 9.25753 27.4027 9.12671 27.1804 8.98365C27.1229 8.94538 27.094 8.90123 27.094 8.8504L27.133 8.71061L27.1698 8.5678L27.1042 8.48735C27.0705 8.45221 27.0151 8.51111 26.9416 8.65982L26.5543 9.42665C26.52 9.49818 26.5042 9.56341 26.5042 9.63181C26.5042 9.72719 26.5516 9.8103 26.6456 9.8787L26.6983 9.90234C26.9892 11.867 27.1357 13.1336 27.1357 13.7008C27.1357 13.8376 27.1252 13.903 27.1042 13.903H25.2626V13.906H25.2329C25.1411 13.906 25.0918 13.8732 25.084 13.8079C25.0813 13.7985 25.0917 13.7155 25.1155 13.558C25.2278 12.8565 25.283 12.3246 25.283 11.965L25.2724 11.867C24.9871 12.2265 24.7613 12.5358 24.5971 12.7912L24.5758 13.9055H22.627V13.906H20.9015L20.8208 13.8527C20.6948 13.7516 20.6316 13.6144 20.6316 13.4418C20.9175 13.2843 21.3178 13.204 21.8365 13.204C21.9493 13.204 22.0353 13.2104 22.1006 13.2161C22.2528 12.8279 22.3602 12.5375 22.42 12.3411C22.3869 12.3429 22.3053 12.3459 22.1617 12.3512H21.9122C21.5406 12.3512 20.9433 12.2145 20.1238 11.9409C19.5791 11.757 19.1833 11.6648 18.9323 11.6648C18.4949 11.6648 18.1567 11.9801 17.9211 12.6101C17.8664 12.7614 17.8396 12.8833 17.8396 12.9812L17.8502 13.0139C18.1991 12.7228 18.4764 12.5774 18.6833 12.5774L19.0892 12.675C19.6571 12.8087 20.0844 12.9097 20.372 12.9812C19.704 13.5962 19.0999 13.9054 18.5574 13.9054H16.8785H15.6121H8.78357H8.40117C8.20984 13.9054 8.07669 13.8608 8.00591 13.7717L7.94033 13.6917C7.89608 13.5876 7.8144 12.8207 7.69882 11.3913L7.46085 8.19922ZM22.42 12.3411C22.4418 12.34 22.4466 12.3396 22.4205 12.3396C22.4204 12.3401 22.4202 12.3407 22.42 12.3411ZM0.427274 9.25529L0.0656801 9.95374L0.940397 10.533L1.18898 10.001L2.01406 10.5657L2.36544 9.90297L1.51155 9.31415L1.23107 9.83459L0.427274 9.25529ZM33.3967 9.25529L33.0352 9.95374L33.9099 10.533L34.1585 10.001L34.9835 10.5657L35.3349 9.90297L34.481 9.31415L34.2005 9.83459L33.3967 9.25529ZM42.9725 9.53739L42.6056 10.2147L43.451 10.7915L43.8077 10.1051L42.9725 9.53739ZM23.2241 9.58415L22.8679 10.2826L23.7218 10.8503L23.981 10.3304L24.814 10.8951L25.1703 10.2263L24.3058 9.64401L24.0311 10.1639L23.2241 9.58415ZM1.49064 11.3235L0.804249 12.3402C0.267327 13.1365 0 13.7283 0 14.1117C0 14.3671 0.113149 14.5484 0.335435 14.6613C0.518455 14.7536 0.728314 14.7829 0.96111 14.7534C1.32774 14.7032 1.64185 14.5601 1.90673 14.3254C2.04276 14.2094 2.1817 14.0463 2.32325 13.8292C2.51954 13.3598 2.6188 13.0234 2.6188 12.8245C2.6188 12.5509 2.52765 12.3193 2.34407 12.126C2.28602 12.0639 2.14518 11.9391 1.91734 11.7514C1.71275 11.5764 1.57138 11.4333 1.49064 11.3235ZM34.4601 11.3235L33.7742 12.3402C33.2373 13.1365 32.9699 13.7283 32.9699 14.1117C32.9699 14.3671 33.0831 14.5484 33.3054 14.6613C33.4884 14.7536 33.6977 14.7829 33.931 14.7534C34.2977 14.7032 34.6118 14.5601 34.8767 14.3254C35.0127 14.2094 35.1515 14.0463 35.2958 13.8292C35.4922 13.3598 35.5887 13.0234 35.5887 12.8245C35.5887 12.5509 35.497 12.3193 35.314 12.126C35.256 12.0639 35.1152 11.9391 34.8869 11.7514C34.6856 11.5764 34.5408 11.4333 34.4601 11.3235ZM47.4714 11.5236C47.2574 11.5236 47.0058 11.7853 46.7199 12.3055C46.455 12.7962 46.3244 13.1796 46.3273 13.4525C46.3328 13.7085 46.3771 13.9316 46.4606 14.1273C46.5707 14.3746 46.7227 14.5079 46.9246 14.5286C47.1574 14.5493 47.3301 14.5287 47.4435 14.4572C47.616 14.3505 47.7809 14.0945 47.9402 13.6904C47.9822 13.824 48.0004 13.9968 48.0004 14.2108C48.0088 14.6507 47.773 15.1382 47.2963 15.664C46.854 16.1484 46.3952 16.4934 45.9213 16.6923C45.8268 16.7312 45.717 16.7486 45.597 16.7486C45.4842 16.7486 45.3196 16.7193 45.0989 16.6541C44.8766 16.5913 44.7138 16.5585 44.6093 16.5585C44.5385 16.5585 44.5016 16.588 44.5016 16.6445C44.5016 16.755 44.7846 16.8768 45.3475 17.0161C45.7904 17.1234 46.1387 17.1884 46.3897 17.2122C46.6756 17.2392 46.9686 17.0821 47.2755 16.7401C47.5188 16.464 47.7181 16.1481 47.8702 15.7917C48.1605 15.1052 48.3075 14.3649 48.3075 13.5687C48.3075 13.0905 48.2024 12.6266 47.9933 12.1773C47.7965 11.7406 47.6212 11.5236 47.4714 11.5236ZM4.91872 11.9002C4.82471 12.3966 4.75945 12.7387 4.72242 12.9225C5.3821 13.4666 5.71189 13.8943 5.71189 14.2093C5.71189 14.646 5.44211 15.1608 4.89965 15.755C4.35554 16.3499 3.89181 16.6465 3.50694 16.6465C3.32888 16.6465 3.09602 16.578 2.8046 16.4444C2.51706 16.3107 2.35999 16.2427 2.33622 16.2427L2.27329 16.3111C2.27329 16.4624 2.54284 16.6522 3.07754 16.8844C3.57742 17.0952 3.931 17.1997 4.14057 17.1997C4.56525 17.1997 4.97061 16.8843 5.35603 16.2543C5.78015 15.5678 5.99234 14.9259 5.99234 14.3254C5.99234 13.6979 5.8823 13.1785 5.66222 12.7681C5.5157 12.4977 5.26928 12.209 4.91872 11.9002ZM37.8859 11.9002C37.7914 12.3966 37.7263 12.7387 37.6865 12.9225C38.3489 13.4666 38.6791 13.8943 38.6791 14.2093C38.6791 14.646 38.4098 15.1608 37.8651 15.755C37.3226 16.3499 36.8586 16.6465 36.4715 16.6465C36.2962 16.6465 36.0631 16.578 35.7723 16.4444C35.4842 16.3107 35.3272 16.2427 35.3035 16.2427L35.2401 16.3111C35.2401 16.4624 35.5106 16.6522 36.0448 16.8844C36.5447 17.0952 36.8978 17.1997 37.1074 17.1997C37.532 17.1997 37.9383 16.8843 38.3237 16.2543C38.7473 15.5678 38.9596 14.9259 38.9596 14.3254C38.9596 13.6979 38.8501 13.1785 38.6295 12.7681C38.4835 12.4977 38.2337 12.209 37.8859 11.9002ZM43.6685 11.9002C43.574 12.3966 43.5088 12.7387 43.4718 12.9225C44.132 13.4666 44.4617 13.8943 44.4617 14.2093C44.4617 14.646 44.1924 15.1608 43.6499 15.755C43.1053 16.3499 42.6416 16.6465 42.2568 16.6465C42.0787 16.6465 41.8456 16.578 41.5575 16.4444C41.2667 16.3107 41.1093 16.2427 41.0861 16.2427L41.0254 16.3111C41.0254 16.4624 41.2933 16.6522 41.8274 16.8844C42.3279 17.0952 42.6804 17.1997 42.89 17.1997C43.3147 17.1997 43.7205 16.8843 44.1059 16.2543C44.53 15.5678 44.7427 14.9259 44.7427 14.3254C44.7427 13.6979 44.6323 13.1785 44.4116 12.7681C44.2657 12.4977 44.0191 12.209 43.6685 11.9002ZM1.24062 12.3402C1.76981 12.7086 2.03904 13.0385 2.05286 13.3328C2.06005 13.4665 1.9978 13.5825 1.86675 13.6773C1.57313 13.8172 1.29824 13.8855 1.04167 13.8855C0.756353 13.8855 0.614511 13.7487 0.614511 13.4751C0.614511 13.3948 0.632866 13.3089 0.6699 13.2167C0.884456 12.854 1.07307 12.563 1.24062 12.3402ZM34.2101 12.3402C34.7393 12.7086 35.0086 13.0385 35.0241 13.3328C35.0296 13.4665 34.9668 13.5825 34.8358 13.6773C34.5422 13.8172 34.2701 13.8855 34.0102 13.8855C33.7255 13.8855 33.584 13.7487 33.584 13.4751C33.584 13.3948 33.6023 13.3089 33.6394 13.2167C33.8534 12.854 34.0453 12.563 34.2101 12.3402ZM47.2112 12.5283C47.3604 12.5371 47.4941 12.6533 47.6091 12.8823C47.7119 13.0906 47.7615 13.2832 47.7615 13.4646C47.688 13.5719 47.5335 13.625 47.3029 13.625C47.1641 13.625 47.0278 13.5957 46.8912 13.533C46.7165 13.4589 46.6248 13.3513 46.6165 13.2152C46.6137 13.0928 46.6843 12.9441 46.8314 12.7747C46.9757 12.6028 47.1034 12.5227 47.2112 12.5283ZM19.6685 15.8494L19.3069 16.5036L20.1218 17.0794L20.4803 16.3995L19.6685 15.8494Z" fill="#157D74"/>
<path d="M21.886 18.9454C21.7887 18.9454 21.7 18.9568 21.6215 18.9901C21.543 19.0165 21.4768 19.0585 21.4221 19.1118C21.3668 19.1651 21.3256 19.2243 21.2963 19.2984C21.2675 19.3699 21.2546 19.4472 21.2546 19.5307V20.1698H20.8328V20.6299H21.2546V23.0495H21.8386V20.6299H22.2684V20.1698H21.8386V19.6106C21.8386 19.5366 21.854 19.4828 21.8883 19.4527L22.0088 19.406L22.0956 19.4417C22.1498 19.4649 22.2185 19.4974 22.3026 19.5332V19.0967C22.2318 19.0459 22.1609 19.0105 22.0846 18.9836C22.011 18.9566 21.943 18.9454 21.886 18.9454ZM25.3193 18.9499C25.1468 18.9499 24.9861 18.9771 24.8368 19.0273C24.6875 19.0813 24.5541 19.1553 24.4313 19.2476C24.3108 19.3423 24.2032 19.4526 24.1092 19.5799C24.0146 19.708 23.936 19.8475 23.873 19.9993C23.8105 20.1537 23.7611 20.3141 23.7268 20.4836C23.6931 20.653 23.6767 20.8255 23.6767 20.9975C23.6767 21.3369 23.7162 21.6427 23.7919 21.9106C23.8682 22.1779 23.9804 22.4066 24.1247 22.5905C24.2663 22.7749 24.4387 22.9173 24.6427 23.0158C24.8451 23.1137 25.0705 23.1642 25.3216 23.1642C25.5394 23.1642 25.7383 23.1228 25.9136 23.0425C26.0894 22.9622 26.2439 22.8524 26.3744 22.7131C26.506 22.5732 26.613 22.4094 26.6965 22.2224C26.7806 22.0379 26.8404 21.836 26.8769 21.622H26.2906C26.2641 21.7588 26.2253 21.8922 26.1728 22.0203C26.1175 22.1508 26.0525 22.2667 25.9685 22.3677C25.8872 22.4687 25.7931 22.5495 25.6858 22.6091C25.5758 22.6712 25.4554 22.7011 25.3215 22.7011C25.191 22.7011 25.0619 22.6679 24.9369 22.5995C24.8081 22.5318 24.6953 22.4277 24.5957 22.2878C24.494 22.1478 24.4149 21.9692 24.3524 21.7553C24.2922 21.5444 24.2607 21.2915 24.2607 21.0035C24.2607 20.7895 24.2875 20.5847 24.34 20.3946C24.392 20.2013 24.4627 20.0318 24.5567 19.8862C24.6485 19.7406 24.7612 19.6247 24.8895 19.5388C25.0206 19.4528 25.1623 19.4105 25.3193 19.4105C25.5626 19.4105 25.7614 19.4823 25.9184 19.6222C26.0782 19.7647 26.2015 19.9817 26.2933 20.2729H26.8906C26.843 20.0796 26.7752 19.9045 26.689 19.7439C26.6021 19.5833 26.4947 19.4431 26.3642 19.3245C26.2353 19.2059 26.0839 19.1139 25.9109 19.048C25.7356 18.9827 25.5394 18.9499 25.3193 18.9499ZM4.37062 19.0585V19.6287H4.94756V19.0585H4.37062ZM7.99608 19.0585V19.6287H8.57479V19.0585H7.99608ZM0.537109 19.06V23.048H1.12158V20.2961L2.00914 23.048H2.39199L3.32121 20.2961V23.048H3.90523V19.06H3.23259L2.21608 22.065L1.2102 19.06H0.537109ZM11.6978 19.3431V20.1698H11.3154V20.6183H11.6978V22.52C11.6978 22.6305 11.7138 22.7195 11.7447 22.7936C11.779 22.8676 11.8238 22.9305 11.8786 22.9751C11.9333 23.0228 11.9992 23.0555 12.0722 23.0762C12.1458 23.0969 12.2219 23.1089 12.3026 23.1089C12.3629 23.1089 12.4312 23.1032 12.5042 23.0913C12.5778 23.0762 12.651 23.0612 12.7218 23.0405V22.6065C12.6383 22.6241 12.5751 22.6361 12.533 22.6417L12.444 22.6538L12.3265 22.595C12.2978 22.5561 12.2818 22.4844 12.2818 22.3777V20.6183H12.6615V20.1698H12.2818V19.3431H11.6978ZM32.7842 20.1165C32.7162 20.1165 32.6463 20.1252 32.5755 20.1371C32.5047 20.1515 32.4336 20.1754 32.3628 20.2055C32.2948 20.2381 32.2297 20.2765 32.1639 20.3241C32.1008 20.3718 32.0435 20.4312 31.9937 20.4996C31.9047 20.3597 31.8023 20.2643 31.6928 20.2085C31.58 20.1514 31.4621 20.122 31.3388 20.122C31.2315 20.122 31.1216 20.1424 31.0038 20.1813C30.886 20.2227 30.7759 20.2881 30.6763 20.3835V20.1698H30.1002V23.0496H30.6763V21.3199C30.6763 21.2395 30.6919 21.1567 30.7206 21.0669C30.7499 20.981 30.7913 20.9005 30.8438 20.8296C30.8936 20.7549 30.957 20.6953 31.025 20.6476C31.0958 20.6005 31.1712 20.5767 31.2497 20.5767L31.3676 20.6033L31.4832 20.6898C31.5175 20.7344 31.5428 20.7877 31.5665 20.8593C31.5875 20.9277 31.6011 21.0166 31.6011 21.1233V23.0496H32.1798V21.2872C32.1798 21.1862 32.1952 21.0941 32.2268 21.0081C32.2577 20.9215 32.3007 20.8444 32.3499 20.7823C32.3997 20.7171 32.4576 20.6662 32.5201 20.6305C32.5831 20.5947 32.6485 20.5772 32.7115 20.5772L32.8454 20.6033L32.9659 20.6898C33.0024 20.7344 33.0312 20.7877 33.0549 20.8593C33.0782 20.9277 33.0886 21.0166 33.0886 21.1233V23.0496H33.6647V21.0081C33.6647 20.8801 33.6434 20.7639 33.5987 20.6541C33.5544 20.5474 33.4945 20.4518 33.4188 20.3715C33.3397 20.2912 33.2455 20.2295 33.1383 20.1849C33.031 20.1372 32.9131 20.1165 32.7842 20.1165ZM36.7842 20.1165C36.7162 20.1165 36.6459 20.1252 36.5751 20.1371C36.5043 20.1515 36.4336 20.1754 36.3628 20.2055C36.2948 20.2381 36.2269 20.2765 36.1639 20.3241C36.1008 20.3718 36.0436 20.4312 35.9933 20.4996C35.9043 20.3597 35.8023 20.2643 35.6929 20.2085C35.58 20.1514 35.4621 20.122 35.3388 20.122C35.2315 20.122 35.1216 20.1424 35.0038 20.1813C34.886 20.2227 34.7759 20.2881 34.6763 20.3835V20.1698H34.1003V23.0496H34.6763V21.3199C34.6763 21.2395 34.6919 21.1567 34.7207 21.0669C34.75 20.981 34.7913 20.9005 34.8438 20.8296C34.8936 20.7549 34.9566 20.6953 35.0246 20.6476C35.0954 20.6005 35.169 20.5767 35.2497 20.5767L35.3676 20.6033L35.4833 20.6898C35.5148 20.7344 35.5428 20.7877 35.5666 20.8593C35.5876 20.9277 35.6007 21.0166 35.6007 21.1233V23.0496H36.1798V21.2872C36.1798 21.1862 36.1953 21.0941 36.2268 21.0081C36.2578 20.9215 36.3003 20.8444 36.3495 20.7823C36.3993 20.7171 36.4572 20.6662 36.5197 20.6305C36.5827 20.5947 36.6459 20.5772 36.7111 20.5772L36.8449 20.6033L36.9655 20.6898C37.002 20.7344 37.0308 20.7877 37.0545 20.8593C37.0778 20.9277 37.0882 21.0166 37.0882 21.1233V23.0496H37.6647V21.0081C37.6647 20.8801 37.6434 20.7639 37.5991 20.6541C37.5543 20.5474 37.4941 20.4518 37.4183 20.3715C37.3393 20.2912 37.2456 20.2295 37.1383 20.1849C37.031 20.1372 36.9131 20.1165 36.7842 20.1165ZM19.3512 20.1215C19.1549 20.1215 18.979 20.1609 18.827 20.2412C18.6777 20.3183 18.5495 20.4248 18.4472 20.5585C18.3427 20.6953 18.264 20.856 18.2115 21.0342C18.1567 21.2155 18.1304 21.4088 18.1304 21.6139C18.1304 21.8191 18.1567 22.0149 18.2115 22.1937C18.264 22.3745 18.3427 22.5321 18.4472 22.6664C18.5495 22.8001 18.6777 22.9065 18.827 22.9837C18.979 23.0615 19.1549 23.1029 19.3512 23.1029C19.5475 23.1029 19.723 23.0615 19.8745 22.9837C20.0299 22.9065 20.1577 22.8 20.2622 22.6664C20.3673 22.5321 20.4458 22.3744 20.501 22.1937C20.5563 22.0149 20.5821 21.8191 20.5821 21.6139C20.5821 21.4088 20.5563 21.2155 20.501 21.0342C20.4457 20.856 20.3673 20.6953 20.2622 20.5585C20.1577 20.4248 20.0299 20.3184 19.8745 20.2412C19.723 20.1609 19.5475 20.1215 19.3512 20.1215ZM28.4759 20.1215C28.2801 20.1215 28.1042 20.1609 27.9521 20.2412C27.8028 20.3183 27.6746 20.4248 27.5723 20.5585C27.4678 20.6953 27.3891 20.856 27.3366 21.0342C27.2819 21.2155 27.2555 21.4088 27.2555 21.6139C27.2555 21.8191 27.2819 22.0149 27.3366 22.1937C27.3891 22.3745 27.4678 22.5321 27.5723 22.6664C27.6746 22.8001 27.8028 22.9065 27.9521 22.9837C28.1041 23.0615 28.2801 23.1029 28.4759 23.1029C28.6727 23.1029 28.848 23.0615 29.0023 22.9837C29.1549 22.9065 29.2824 22.8 29.3869 22.6664C29.492 22.5321 29.5732 22.3744 29.6257 22.1937C29.681 22.0149 29.7073 21.8191 29.7073 21.6139C29.7073 21.4088 29.681 21.2155 29.6257 21.0342C29.5732 20.856 29.492 20.6953 29.3869 20.5585C29.2824 20.4248 29.1549 20.3184 29.0023 20.2412C28.848 20.1609 28.6727 20.1215 28.4759 20.1215ZM6.69767 20.122C6.56441 20.122 6.43282 20.1457 6.30507 20.1934C6.17402 20.238 6.05627 20.3087 5.94347 20.4041V20.1698H5.35945V23.0497H5.94347V21.3284C5.94347 21.2337 5.96204 21.1385 5.99576 21.0494C6.03281 20.9571 6.07939 20.8769 6.14243 20.8085C6.20492 20.7376 6.27871 20.6836 6.36 20.639C6.44349 20.5976 6.53264 20.5767 6.62719 20.5767C6.73447 20.5767 6.81816 20.6129 6.87843 20.6838C6.93813 20.7553 6.9675 20.8798 6.9675 21.0524V23.0497H7.54399V21.0016C7.54399 20.8648 7.52566 20.7432 7.48638 20.6365C7.44933 20.5261 7.39464 20.4346 7.3211 20.36C7.24812 20.2828 7.16173 20.2232 7.05611 20.185C6.94939 20.1429 6.83094 20.122 6.69767 20.122ZM14.1353 20.122C14.0358 20.122 13.9386 20.1491 13.8424 20.2025C13.7479 20.2558 13.6667 20.3327 13.5987 20.4313L13.5664 20.1698H13.0484V23.0497H13.6275V21.3259C13.6275 21.2337 13.6374 21.1444 13.6612 21.0584C13.6822 20.9724 13.7162 20.8978 13.7582 20.8357C13.7997 20.7704 13.8525 20.7195 13.9155 20.6813C13.9786 20.6424 14.0466 20.6245 14.1251 20.6245C14.1566 20.6245 14.2533 20.6571 14.4131 20.7255V20.1875L14.2612 20.1402L14.1353 20.122ZM41.9661 20.122C41.8665 20.122 41.7689 20.1491 41.6727 20.2025C41.5782 20.2558 41.497 20.3327 41.429 20.4313L41.3975 20.1698H40.8787V23.0497H41.4578V21.3259C41.4578 21.2337 41.4683 21.1444 41.4915 21.0584C41.5125 20.9724 41.5465 20.8978 41.5885 20.8357C41.63 20.7704 41.6833 20.7195 41.7458 20.6813C41.8089 20.6424 41.8769 20.6245 41.9554 20.6245C41.9869 20.6245 42.0836 20.6571 42.2434 20.7255V20.1875L42.0915 20.1402L41.9661 20.122ZM43.7088 20.123C43.528 20.123 43.3663 20.162 43.2192 20.2367C43.0721 20.3107 42.9467 20.4119 42.8439 20.5424C42.7394 20.6735 42.6612 20.8248 42.6037 21.0005C42.5484 21.1755 42.5195 21.3656 42.5195 21.5677C42.5195 21.7522 42.5431 21.9333 42.5851 22.1178C42.6326 22.3016 42.7008 22.4689 42.7942 22.6176C42.8888 22.7632 43.0096 22.885 43.1567 22.9741C43.3005 23.0664 43.4755 23.1134 43.6774 23.1134C43.8394 23.1134 43.9863 23.0868 44.1174 23.036C44.2479 22.9826 44.3636 22.9087 44.4603 22.8102C44.5571 22.7123 44.6364 22.5936 44.6961 22.4537C44.7536 22.3137 44.7931 22.1562 44.8113 21.978H44.2038C44.1883 22.0702 44.1675 22.1565 44.1382 22.24C44.1095 22.3203 44.0729 22.3909 44.0314 22.4537L43.8812 22.5995C43.8237 22.6352 43.7614 22.6503 43.6907 22.6503C43.5989 22.6503 43.5147 22.6199 43.4412 22.5577C43.3682 22.495 43.3053 22.4149 43.2555 22.3139C43.2035 22.2128 43.1636 22.0964 43.1354 21.9659C43.1089 21.8354 43.0956 21.7019 43.0956 21.5651C43.0956 21.434 43.1089 21.3091 43.1354 21.1905C43.1636 21.0713 43.2035 20.9648 43.2555 20.8757C43.3053 20.7866 43.3681 20.7118 43.4439 20.6585C43.5202 20.6052 43.6067 20.5781 43.7013 20.5781C43.8296 20.5781 43.9338 20.6193 44.0173 20.7028C44.0991 20.7831 44.1643 20.9232 44.2113 21.1221H44.8113C44.7875 20.9797 44.7435 20.8462 44.6855 20.7239C44.628 20.6021 44.5521 20.4952 44.463 20.4086C44.3712 20.3195 44.2643 20.2511 44.1382 20.2009C44.0132 20.1501 43.8686 20.123 43.7088 20.123ZM39.3183 20.124C39.1298 20.124 38.9595 20.1624 38.8074 20.2427C38.6553 20.3199 38.5251 20.4273 38.4206 20.561C38.3155 20.6915 38.2312 20.8465 38.1764 21.0216C38.1189 21.1973 38.0878 21.3809 38.0878 21.5742C38.0878 21.7794 38.1189 21.9757 38.1764 22.1595C38.2339 22.3471 38.3184 22.5103 38.4224 22.6503C38.5302 22.7927 38.6611 22.9027 38.8132 22.9862C38.9647 23.069 39.1356 23.1079 39.3236 23.1079C39.4574 23.1079 39.5885 23.0871 39.7118 23.0425C39.8373 22.9948 39.952 22.9298 40.0543 22.8439C40.1588 22.7573 40.2453 22.6504 40.3189 22.5256C40.3924 22.4007 40.4449 22.2577 40.4731 22.0977H39.9338C39.8188 22.4691 39.6145 22.6528 39.3236 22.6528C39.2374 22.6528 39.1557 22.6297 39.0799 22.5789C39.0064 22.528 38.9385 22.4603 38.8832 22.3737C38.8257 22.2902 38.7814 22.1925 38.7471 22.0795C38.7134 21.9697 38.6924 21.8568 38.6869 21.7351L40.513 21.7346V21.5264C40.513 21.3244 40.4841 21.1377 40.4288 20.9683C40.374 20.7957 40.2949 20.6497 40.1904 20.5217C40.0881 20.3969 39.9625 20.299 39.8159 20.2306C39.6688 20.1597 39.5019 20.124 39.3183 20.124ZM46.413 20.124C46.2244 20.124 46.054 20.1624 45.9025 20.2427C45.7498 20.3199 45.6193 20.4273 45.5148 20.561C45.4097 20.6915 45.3286 20.8465 45.271 21.0216C45.2135 21.1973 45.1846 21.3809 45.1846 21.5742C45.1846 21.7794 45.2135 21.9757 45.271 22.1595C45.3286 22.3471 45.4124 22.5103 45.5196 22.6503C45.6242 22.7927 45.7553 22.9027 45.9074 22.9862C46.0594 23.069 46.2298 23.1079 46.4178 23.1079C46.5516 23.1079 46.6827 23.0871 46.8082 23.0425C46.9315 22.9948 47.0467 22.9298 47.149 22.8439C47.2535 22.7573 47.3395 22.6504 47.4131 22.5256C47.4866 22.4007 47.5391 22.2577 47.5673 22.0977H47.028C46.913 22.4691 46.7115 22.6528 46.4178 22.6528C46.3316 22.6528 46.2509 22.6297 46.1745 22.5789C46.101 22.528 46.0354 22.4603 45.9774 22.3737C45.9204 22.2902 45.8756 22.1925 45.8413 22.0795C45.8076 21.9697 45.7866 21.8568 45.7811 21.7351L47.6071 21.7346V21.5264C47.6071 21.3244 47.5782 21.1377 47.5229 20.9683C47.4682 20.7957 47.3895 20.6497 47.285 20.5217C47.1827 20.3969 47.0571 20.299 46.9106 20.2306C46.7635 20.1597 46.5965 20.124 46.413 20.124ZM10.0358 20.1245C9.91031 20.1245 9.78971 20.1397 9.67468 20.1723C9.55634 20.2018 9.45397 20.2493 9.36495 20.3121C9.27592 20.3773 9.20512 20.4546 9.15314 20.5524C9.10063 20.6478 9.07471 20.7608 9.07471 20.8914C9.07471 21.025 9.10062 21.1349 9.15536 21.2303C9.21066 21.3225 9.28179 21.3997 9.36805 21.4681C9.45431 21.5334 9.55146 21.5899 9.65873 21.6376C9.76877 21.6853 9.87615 21.7298 9.9862 21.7743C10.0597 21.8007 10.1278 21.8308 10.1958 21.8603C10.261 21.8873 10.3219 21.9196 10.3717 21.9554L10.4945 22.0831C10.526 22.1339 10.5383 22.1933 10.5383 22.2611C10.5383 22.3389 10.5229 22.404 10.4914 22.4542L10.3686 22.5733C10.3188 22.6029 10.2663 22.6238 10.206 22.6357C10.1457 22.6476 10.0911 22.6538 10.0358 22.6538C9.97058 22.6538 9.91244 22.6449 9.85769 22.6236L9.71634 22.5291C9.67487 22.4845 9.64264 22.4246 9.61664 22.3531C9.59284 22.2847 9.58055 22.1987 9.57765 22.0977L8.98298 22.0982C8.98851 22.2645 9.01931 22.4132 9.07737 22.5412C9.13433 22.666 9.21102 22.7725 9.30558 22.856C9.40234 22.9388 9.51206 23.0046 9.63482 23.046C9.7609 23.0874 9.89428 23.1084 10.0358 23.1084C10.1802 23.1084 10.3188 23.0907 10.4493 23.0581C10.5803 23.0255 10.6954 22.9722 10.7949 22.9007C10.8978 22.8292 10.976 22.7371 11.0368 22.6241C11.0938 22.5112 11.1259 22.375 11.1259 22.2143C11.1259 22.0982 11.0965 21.994 11.0439 21.9111C10.9892 21.8245 10.9212 21.7506 10.8321 21.6854C10.7453 21.6201 10.6484 21.5631 10.5383 21.5129C10.4311 21.4652 10.3245 21.4172 10.2166 21.3726C10.1431 21.3462 10.0751 21.3161 10.007 21.2866C9.93903 21.2571 9.87878 21.2238 9.82625 21.1855L9.70351 21.0608L9.65875 20.8969C9.65875 20.8022 9.6901 20.7252 9.75535 20.6656C9.8206 20.606 9.91253 20.5796 10.0358 20.5796L10.1927 20.5972L10.3243 20.6626L10.4209 20.7843C10.4469 20.8351 10.4632 20.897 10.4732 20.9748H10.9451L11.0103 20.9774H11.0523C11.0468 20.8293 11.0179 20.7014 10.9659 20.5947C10.9106 20.4874 10.8397 20.3981 10.7479 20.3297C10.6589 20.2582 10.5522 20.2079 10.4311 20.1753C10.3078 20.1396 10.1774 20.1245 10.0358 20.1245ZM4.37052 20.1698V23.0499H4.94747V20.1698H4.37052ZM7.99599 20.1698V23.0499H8.5747V20.1698H7.99599ZM16.2835 20.1718L15.6893 22.1389L15.0871 20.1723H14.4716L15.4035 23.0395L15.2967 23.4292L15.2599 23.5479L15.2125 23.6761L15.1549 23.7802L15.0893 23.8184L15.0344 23.8094L14.9506 23.7802L14.8567 23.738L14.7676 23.6998V24.184C14.8461 24.2191 14.9139 24.2436 14.9714 24.2524C15.0323 24.2636 15.0869 24.267 15.1394 24.267C15.1991 24.267 15.263 24.2582 15.3255 24.2343C15.388 24.2136 15.4482 24.1749 15.5085 24.1247C15.5688 24.0739 15.6267 24.0088 15.6764 23.9316C15.7284 23.8513 15.7707 23.753 15.8072 23.6369L16.8835 20.1719L16.2835 20.1718ZM19.3486 20.5766C19.4481 20.5766 19.5373 20.6062 19.6158 20.6596C19.6971 20.7135 19.7648 20.7874 19.8201 20.8828C19.877 20.9744 19.922 21.0847 19.9508 21.2127C19.9823 21.3369 19.9982 21.4705 19.9982 21.6104C19.9982 21.756 19.9823 21.8898 19.9508 22.0122C19.922 22.1364 19.877 22.2468 19.8201 22.339C19.7648 22.4338 19.6971 22.5054 19.6158 22.5587C19.5373 22.6121 19.4481 22.6392 19.3486 22.6392C19.2513 22.6392 19.1621 22.6121 19.0814 22.5587C19.0023 22.5054 18.9345 22.4338 18.8798 22.339C18.8223 22.2468 18.78 22.1364 18.7513 22.0122C18.7198 21.8898 18.7065 21.756 18.7065 21.6104C18.7065 21.4705 18.7198 21.3369 18.7513 21.2127C18.78 21.0847 18.8223 20.9744 18.8798 20.8828C18.9345 20.7874 19.0023 20.7135 19.0814 20.6596C19.1621 20.6062 19.2513 20.5766 19.3486 20.5766ZM28.4737 20.5766C28.5733 20.5766 28.662 20.6062 28.7405 20.6596C28.8218 20.7135 28.8899 20.7874 28.9452 20.8828C29.0022 20.9744 29.0472 21.0847 29.0759 21.2127C29.108 21.3369 29.1233 21.4705 29.1233 21.6104C29.1233 21.756 29.108 21.8898 29.0759 22.0122C29.0472 22.1364 29.0022 22.2468 28.9452 22.339C28.8899 22.4338 28.8218 22.5054 28.7405 22.5587C28.662 22.6121 28.5733 22.6392 28.4737 22.6392C28.3764 22.6392 28.2873 22.6121 28.2065 22.5587C28.1275 22.5054 28.0593 22.4338 28.004 22.339C27.9498 22.2468 27.9052 22.1364 27.8764 22.0122C27.8471 21.8898 27.8317 21.756 27.8317 21.6104C27.8317 21.4705 27.8471 21.3369 27.8764 21.2127C27.9052 21.0847 27.9498 20.9744 28.004 20.8828C28.0593 20.7874 28.1275 20.7135 28.2065 20.6596C28.2873 20.6062 28.3764 20.5766 28.4737 20.5766ZM39.2959 20.5786C39.3871 20.5786 39.4704 20.5967 39.5467 20.6349C39.6202 20.6738 39.6857 20.7238 39.7377 20.7928C39.793 20.8581 39.8351 20.9354 39.8666 21.0276C39.8954 21.1167 39.9162 21.2176 39.9211 21.3243H38.6875C38.693 21.2233 38.7114 21.1288 38.7451 21.0397C38.7766 20.9506 38.8215 20.8702 38.874 20.8018C38.9293 20.7334 38.9916 20.6793 39.0624 20.6379C39.1331 20.599 39.2113 20.5786 39.2959 20.5786ZM46.3903 20.5786C46.4815 20.5786 46.5658 20.5967 46.6415 20.6349C46.715 20.6738 46.78 20.7238 46.8347 20.7928C46.8872 20.8581 46.9295 20.9354 46.961 21.0276C46.992 21.1167 47.011 21.2176 47.0159 21.3243H45.7823C45.7878 21.2233 45.8058 21.1288 45.8395 21.0397C45.871 20.9506 45.9159 20.8702 45.9684 20.8018C46.0237 20.7334 46.0864 20.6793 46.1572 20.6379C46.228 20.599 46.3057 20.5786 46.3903 20.5786Z" fill="#157D74"/>
<path d="M71.1245 4.17499C71.0891 4.22832 71.0413 4.30925 70.9942 4.4244C70.9824 4.4531 70.9707 4.48388 70.9592 4.51692V4.51742C70.9248 4.61647 70.8923 4.735 70.8679 4.87644L70.8551 4.96846L70.7873 4.92673L70.7478 4.90913L70.7053 4.93578C70.619 5.05186 70.5901 5.45251 70.6322 5.93442L70.6401 6.01185H70.598C70.5853 6.0652 70.6012 6.19608 70.6277 6.37993L70.6428 6.48754L70.6747 6.66555C70.6963 6.77928 70.7213 6.90413 70.7491 7.03716V7.03766C70.777 7.17055 70.8078 7.31159 70.8409 7.45855C70.8409 7.45888 70.8408 7.45922 70.8409 7.45955C70.8739 7.60638 70.9093 7.75894 70.9463 7.91463C70.9835 8.07079 71.022 8.23006 71.062 8.38932L71.0748 8.43055L71.1223 8.61862L71.1245 8.64225L71.1329 8.61862L71.1799 8.43055L71.19 8.38932C71.3099 7.91043 71.4208 7.43615 71.5051 7.03717C71.5332 6.90415 71.5584 6.77931 71.58 6.66556L71.6115 6.48756L71.6279 6.37995C71.6565 6.19609 71.6693 6.06521 71.6593 6.01187H71.6146L71.6199 5.93443C71.6591 5.4525 71.6297 5.05188 71.549 4.93579L71.5078 4.90914L71.4621 4.92674L71.3996 4.96848L71.3841 4.87646C71.3595 4.735 71.3276 4.61648 71.2933 4.51744V4.51694C71.2361 4.35137 71.1721 4.24159 71.1245 4.17499ZM73.5048 5.37426C73.4902 5.37426 73.4753 5.37619 73.4605 5.37828C73.3383 5.39508 73.2195 5.47231 73.2195 5.47231L73.1933 5.49293L73.1783 5.48036L73.1672 5.46929C73.1157 5.42466 73.0658 5.39555 73.0161 5.38381C73.0082 5.38186 73.0004 5.38029 72.9926 5.37929H72.9922C72.9882 5.37878 72.9841 5.37904 72.9802 5.37878C72.9762 5.37854 72.9718 5.37779 72.9678 5.37778C72.952 5.37781 72.9368 5.37965 72.9226 5.38281C72.8649 5.39574 72.8205 5.43098 72.7932 5.45874C72.7864 5.46568 72.7806 5.47228 72.7759 5.47784C72.7663 5.48896 72.7613 5.49645 72.7613 5.49645L72.7555 5.506L72.7254 5.55126L72.6798 5.505L72.6018 5.46376C72.601 5.46376 72.6003 5.46425 72.5996 5.46426L72.5991 5.46376C72.4603 5.46376 72.3053 5.79068 72.2632 5.90929L72.2295 6.00784L72.1693 5.92437L72.1626 5.91632L72.1325 5.8766C72.1319 5.8766 72.1313 5.87708 72.1307 5.8771L72.1303 5.8766C72.0413 5.8766 71.9312 6.1945 71.8759 6.48252L71.8573 6.59566L71.8201 6.55794L71.7869 6.52174L71.7554 6.50263L71.724 6.48252C71.6244 7.12445 71.3814 8.12371 71.2343 8.6734L71.2161 8.75335L71.334 8.61054L71.4652 8.45869C71.6609 8.24787 71.8522 8.06993 71.8892 8.03731C72.1563 7.64763 72.0674 7.45433 72.0674 7.45202L72.0332 7.39218L72.0301 7.38615L72.0408 7.38011L72.0908 7.35346C72.1876 7.30012 72.2507 7.24651 72.3004 7.19004C72.3694 7.10548 72.3877 7.02721 72.3926 6.97583C72.3932 6.97119 72.3944 6.96543 72.3948 6.96125L72.3939 6.95421L72.3917 6.91951L72.3837 6.87777L72.3771 6.85917L72.3762 6.85464L72.4125 6.84207L72.4307 6.83654C72.5723 6.78006 72.6613 6.68466 72.7139 6.5987C72.7874 6.47696 72.7945 6.36689 72.7945 6.36689L72.7976 6.31912L72.8317 6.30755C73.1248 6.18269 73.3264 5.95981 73.3293 5.95355L73.3422 5.94148L73.3581 5.93947C73.4599 5.91563 73.6014 5.65697 73.675 5.4844C73.6512 5.42843 73.6141 5.39463 73.5611 5.38132C73.5528 5.37916 73.544 5.3774 73.535 5.37629C73.5254 5.37516 73.5153 5.37426 73.5048 5.37426ZM68.7489 5.37577C68.6654 5.37577 68.6129 5.41184 68.5814 5.48338C68.6549 5.65844 68.7936 5.91675 68.8986 5.93745L68.9115 5.94398L68.927 5.95555C68.9297 5.95807 69.1309 6.1843 69.425 6.30602C69.4256 6.30626 69.4262 6.30628 69.4268 6.30652L69.4401 6.31256L69.4578 6.32111L69.4596 6.33569L69.4618 6.36536C69.4618 6.37477 69.4722 6.48158 69.5403 6.59767C69.5922 6.68363 69.6819 6.78154 69.8278 6.83551L69.8438 6.84104L69.8784 6.85613L69.8726 6.87674L69.8628 6.9215V6.96273C69.8628 7.01356 69.8783 7.09978 69.959 7.19202C70.0006 7.24093 70.0602 7.28946 70.1442 7.33885C70.1517 7.34333 70.1581 7.34794 70.1659 7.35243H70.1664L70.2151 7.37858L70.2156 7.37908L70.2293 7.38511L70.2262 7.39416L70.1894 7.45652C70.1894 7.45652 70.0976 7.64977 70.368 8.0388C70.3863 8.05354 70.4432 8.10553 70.5195 8.1806H70.52C70.5581 8.21808 70.6009 8.26157 70.6463 8.30883H70.6467C70.6921 8.35611 70.7394 8.40762 70.7872 8.46119L70.8962 8.57986L70.9228 8.60952L70.9396 8.63014L71.038 8.75485L71.0367 8.74982L71.0406 8.75485L71.0194 8.67188C70.8778 8.12471 70.6314 7.12646 70.5324 6.48452L70.5302 6.48553C70.5301 6.48523 70.5302 6.48483 70.5302 6.48452L70.4668 6.52274L70.3981 6.59565L70.3804 6.48452C70.3257 6.19023 70.2178 5.87861 70.142 5.87861L70.1416 5.87911C70.1411 5.87909 70.1407 5.87861 70.1402 5.87861L70.1238 5.89269L70.0839 5.92286L70.0543 5.96962L70.0286 6.00683L69.99 5.91129C69.948 5.79207 69.7937 5.46476 69.6577 5.46476L69.6572 5.46527C69.6565 5.46525 69.6557 5.46476 69.655 5.46476L69.5739 5.5065L69.5305 5.55326L69.4951 5.49745C69.4951 5.49745 69.4136 5.37878 69.2881 5.37878C69.2738 5.37878 69.2592 5.38055 69.2447 5.38381C69.2432 5.38415 69.2413 5.38444 69.2398 5.38481C69.2276 5.38788 69.215 5.39256 69.2026 5.39789C69.199 5.39938 69.1955 5.40075 69.192 5.40241L69.1915 5.40291C69.1592 5.41812 69.1265 5.4402 69.094 5.46828L69.0745 5.48588L69.0639 5.49343L69.0342 5.47382C69.0318 5.47382 68.9176 5.39843 68.7994 5.38029C68.7825 5.37761 68.7656 5.37577 68.7489 5.37577ZM68.1507 6.16824C68.142 6.16824 68.1334 6.16857 68.1254 6.16975C68.1174 6.17094 68.1092 6.17289 68.1019 6.17528C68.0946 6.17771 68.0877 6.18121 68.0811 6.18483C68.0745 6.18846 68.0675 6.19257 68.0616 6.1974C68.0588 6.19966 68.0567 6.20292 68.0541 6.20545C68.051 6.20837 68.0476 6.21122 68.0448 6.2145C68.034 6.22685 68.0243 6.24187 68.016 6.25925C68.0118 6.268 68.008 6.27737 68.0044 6.28741L67.9809 6.35178L67.9278 6.32563C67.9278 6.32563 67.9126 6.31609 67.8874 6.30652C67.875 6.30178 67.86 6.29702 67.8431 6.29345H67.8427C67.8343 6.29168 67.8254 6.28996 67.8161 6.28892H67.8157C67.8062 6.28787 67.7966 6.28741 67.7864 6.28741C67.7213 6.28741 67.6629 6.30969 67.6114 6.35328C67.5727 6.38611 67.5377 6.43087 67.5059 6.48754V6.48804C67.4954 6.50683 67.4847 6.52703 67.4749 6.54839V6.54889L67.4594 6.58711L67.4226 6.58409H67.396C67.3791 6.58409 67.3513 6.58459 67.3185 6.58761C67.3021 6.58913 67.284 6.59118 67.2653 6.59415C67.262 6.59467 67.2584 6.59558 67.2551 6.59616C67.2254 6.60127 67.1942 6.60895 67.163 6.61929C67.1576 6.62105 67.1519 6.62237 67.1466 6.62432C67.1267 6.63162 67.1067 6.64032 67.0881 6.65046C67.06 6.6658 67.0337 6.68513 67.0114 6.70829C67.0041 6.7159 66.997 6.72386 66.9906 6.73243V6.73293C66.9649 6.76399 66.9481 6.80192 66.9414 6.84657V6.84707C66.9412 6.8482 66.9411 6.84946 66.941 6.85059C66.939 6.86423 66.9379 6.87876 66.9379 6.89384C66.9641 6.91831 66.9987 6.94892 67.0384 6.98133H67.0389C67.0587 6.99747 67.0796 7.01426 67.1014 7.03061H67.1018C67.1236 7.04697 67.1458 7.06347 67.1687 7.07888H67.1692C67.1922 7.09438 67.2155 7.10875 67.2387 7.12213C67.262 7.1355 67.2848 7.14774 67.3074 7.15783H67.3079C67.3192 7.16287 67.3301 7.1674 67.3411 7.17141C67.3521 7.17541 67.3629 7.17865 67.3734 7.18146H67.3739C67.3843 7.18424 67.3946 7.18652 67.4045 7.188C67.4143 7.18946 67.4245 7.19049 67.4337 7.19051L67.4532 7.188L67.4722 7.18498H67.4727L67.4802 7.18197L67.4878 7.17845H67.4882L67.5011 7.18498H67.5015C67.5053 7.1885 67.7116 7.26494 67.9885 7.26494C68.0515 7.26494 68.1165 7.25901 68.179 7.25337L68.2136 7.24432L68.2344 7.28254C68.2365 7.28701 68.2573 7.32869 68.2996 7.37908C68.3136 7.39581 68.3298 7.41379 68.3487 7.43137H68.3492C68.3586 7.44013 68.3686 7.44895 68.3793 7.45752H68.3798C68.3905 7.4661 68.4018 7.47503 68.4139 7.48317H68.4143C68.4264 7.4913 68.439 7.49936 68.4524 7.5068H68.4529C68.4663 7.51423 68.4802 7.52144 68.495 7.52792H68.4954C68.5102 7.53439 68.5253 7.54027 68.5415 7.54552H68.5419C68.5745 7.55604 68.6099 7.5641 68.6483 7.56815H68.6487C68.6678 7.57016 68.6884 7.57115 68.709 7.57116L68.8238 7.56261L68.8734 7.55356L68.8845 7.61893C68.887 7.62176 68.8912 7.64087 68.9026 7.66872C68.9109 7.6896 68.9237 7.71547 68.9434 7.74263C68.9499 7.75169 68.9574 7.76103 68.9656 7.77029L69.0174 7.81152H69.0178L69.1459 7.87739L69.1982 7.88946H69.1986C69.2123 7.89246 69.2268 7.89485 69.2416 7.89701H69.2421C69.2569 7.89916 69.2723 7.90129 69.2881 7.90254H69.2886C69.3045 7.90378 69.321 7.90429 69.3378 7.90455H69.3382H69.3387C69.3553 7.90478 69.3722 7.90485 69.3896 7.90405L69.4189 7.90153L69.4605 7.89801V7.91913L69.4472 7.98148V7.98701V7.98752C69.4473 8.0049 69.4502 8.06146 69.4884 8.13887C69.5103 8.18337 69.5443 8.23492 69.5952 8.28972C69.6079 8.30334 69.6215 8.31747 69.6364 8.33146H69.6369C69.6668 8.35953 69.7013 8.38855 69.7414 8.41744H69.7419C69.7619 8.43186 69.7833 8.44623 69.8061 8.46069H69.8066C69.8295 8.47515 69.8538 8.49003 69.8797 8.50444H69.8801C69.9175 8.51386 70.0877 8.55664 70.2967 8.62311H70.2971C70.4224 8.66296 70.5618 8.71138 70.6941 8.76591C70.748 8.78819 70.8011 8.81154 70.8514 8.8353H70.8519C70.8769 8.84713 70.9011 8.85884 70.9246 8.87101C70.9264 8.87197 70.928 8.87306 70.9299 8.87402C70.9515 8.88531 70.9725 8.89666 70.9924 8.90822H70.9928L70.9897 8.89665L70.9848 8.88207L70.851 8.71512C70.8209 8.67952 70.7894 8.64401 70.7579 8.60903C70.7265 8.57412 70.695 8.53965 70.6636 8.50645H70.6631C70.6002 8.43997 70.5394 8.37766 70.4854 8.32442H70.485C70.4311 8.27123 70.3846 8.22655 70.3512 8.19519H70.3507C70.3174 8.16397 70.2976 8.14589 70.2962 8.14491L70.2878 8.13284C70.0522 7.79398 70.0523 7.56242 70.0733 7.452H70.0729C70.0552 7.44133 70.0386 7.43032 70.0228 7.41932H70.0224C70.0066 7.40831 69.9917 7.39689 69.9776 7.38563H69.9772C69.9631 7.37436 69.9501 7.36288 69.9377 7.35143H69.9373C69.9249 7.33999 69.9135 7.32829 69.9027 7.31674C69.8375 7.24708 69.7994 7.17584 69.7778 7.11208V7.11158C69.7706 7.09029 69.7653 7.07013 69.7614 7.05074C69.7535 7.01196 69.7512 6.97762 69.7512 6.95017C69.6729 6.91298 69.6105 6.86623 69.5602 6.81642H69.5598C69.5295 6.78647 69.5039 6.75546 69.4813 6.7244L69.468 6.72088C69.4385 6.72088 69.4066 6.72765 69.3799 6.78524C69.3759 6.79347 69.372 6.80246 69.3683 6.8129L69.3599 6.83653L69.3289 6.91749L69.2717 6.82798C69.195 6.70522 69.0706 6.53734 68.9589 6.42872C68.9366 6.407 68.9151 6.38805 68.8942 6.3719C68.8525 6.33959 68.8144 6.32011 68.7843 6.32011C68.7688 6.32011 68.7348 6.31977 68.7165 6.41766L68.6926 6.52376L68.6274 6.45336C68.6255 6.45258 68.6066 6.43452 68.5769 6.4076C68.5621 6.39422 68.5448 6.37844 68.5251 6.36184H68.5246C68.5049 6.34522 68.4832 6.32722 68.46 6.30955H68.4595C68.4362 6.29188 68.4115 6.2743 68.386 6.25776H68.3855C68.3728 6.24953 68.36 6.24117 68.347 6.23362H68.3465C68.3334 6.22602 68.3204 6.21863 68.3071 6.212C68.2938 6.20537 68.28 6.19928 68.2668 6.1939C68.2536 6.18857 68.2407 6.18416 68.2278 6.18032H68.2273C68.2143 6.1765 68.2014 6.17334 68.1888 6.17127H68.1883C68.1757 6.16922 68.1628 6.16826 68.1507 6.16824ZM74.1029 6.16874C74.0626 6.16874 74.0177 6.1816 73.9722 6.20193C73.9496 6.21209 73.9262 6.22432 73.9035 6.23763C73.8809 6.25096 73.858 6.26566 73.8362 6.28087C73.8144 6.29609 73.7929 6.31231 73.7728 6.32814C73.7123 6.37586 73.6616 6.42323 73.6319 6.45335L73.6106 6.47597L73.5641 6.52224L73.5406 6.41815C73.5301 6.36921 73.5163 6.3444 73.5039 6.33216C73.4977 6.32625 73.4919 6.32311 73.4866 6.3216L73.4861 6.3211C73.4807 6.31957 73.4758 6.31959 73.472 6.31959C73.4567 6.31959 73.4391 6.32487 73.4206 6.33367C73.402 6.34255 73.3816 6.35583 73.3607 6.37189C73.3398 6.388 73.3179 6.40757 73.2956 6.42921C73.2508 6.47272 73.2042 6.52533 73.1596 6.58107L73.1591 6.58157C73.0918 6.66518 73.029 6.75505 72.9828 6.82847L72.9438 6.89182L72.9274 6.91696L72.8879 6.81338L72.8875 6.81288C72.884 6.80275 72.8802 6.79325 72.8764 6.78522C72.8726 6.77728 72.8689 6.77022 72.8649 6.7641L72.8644 6.7636C72.8602 6.75726 72.8559 6.75209 72.8516 6.74751C72.8485 6.74411 72.8455 6.74155 72.8423 6.73896C72.8414 6.73824 72.8401 6.7366 72.8392 6.73594C72.8351 6.73293 72.8304 6.73033 72.8263 6.7284C72.8139 6.72256 72.8016 6.72139 72.7909 6.72136L72.7754 6.72387C72.774 6.72589 72.7724 6.7279 72.7709 6.72991C72.7109 6.8113 72.6258 6.89141 72.506 6.94714C72.506 6.94789 72.506 6.94889 72.506 6.94965H72.5055C72.5055 6.96338 72.5049 6.97854 72.5033 6.99541C72.5017 7.01203 72.4996 7.02981 72.4958 7.04871C72.4957 7.04926 72.4954 7.04967 72.4953 7.05022C72.4914 7.06924 72.4864 7.08929 72.4794 7.11006V7.11056C72.4792 7.11093 72.479 7.1112 72.4789 7.11156C72.4755 7.12175 72.4713 7.13223 72.467 7.14274C72.4668 7.14309 72.4667 7.14339 72.4665 7.14375C72.43 7.23151 72.3616 7.32899 72.2348 7.41881L72.2343 7.41931C72.2318 7.42107 72.2289 7.42259 72.2263 7.42434C72.2127 7.43369 72.1984 7.44289 72.1834 7.452C72.1912 7.49317 72.1964 7.55183 72.1869 7.62648C72.1837 7.65076 72.1794 7.67664 72.1727 7.70442C72.1726 7.70514 72.1725 7.70571 72.1723 7.70643C72.169 7.72009 72.165 7.73418 72.1608 7.74867C72.1606 7.74935 72.1605 7.75001 72.1603 7.75068C72.1515 7.78047 72.1402 7.81198 72.1266 7.84522C72.1264 7.84571 72.1264 7.84623 72.1262 7.84673C72.1194 7.86326 72.1121 7.88014 72.104 7.89751C72.1039 7.89786 72.1038 7.89817 72.1036 7.89852C72.1026 7.90063 72.1015 7.90293 72.1005 7.90505C72.0868 7.93397 72.0709 7.9644 72.0531 7.99556C72.0504 8.00035 72.0479 8.0048 72.0451 8.00964C72.0449 8.00997 72.0449 8.01033 72.0447 8.01065C72.0415 8.01606 72.0378 8.02177 72.0345 8.02724C72.014 8.06119 71.9915 8.09589 71.9658 8.13234L71.9587 8.14441C71.958 8.14519 71.9377 8.1636 71.9046 8.19469C71.8608 8.23585 71.7906 8.30409 71.7141 8.38074C71.6968 8.39814 71.6795 8.41595 71.6614 8.43454C71.5763 8.52155 71.4866 8.6157 71.4026 8.71512L71.2719 8.88155L71.2666 8.89664L71.2639 8.90117L71.2595 8.90569C71.2602 8.90533 71.261 8.90505 71.2617 8.90469L71.259 8.90871C71.3049 8.88329 71.3536 8.85863 71.4044 8.83479C71.4552 8.81134 71.5083 8.78819 71.563 8.7659C71.607 8.74776 71.6517 8.72978 71.6964 8.7131H71.6968C71.7416 8.69643 71.7867 8.68038 71.8307 8.66533C71.9629 8.61996 72.0787 8.58589 72.1763 8.55823C72.2086 8.54908 72.2469 8.53797 72.2724 8.53107C72.2729 8.53094 72.2728 8.5307 72.2733 8.53057C72.3246 8.51671 72.3603 8.50768 72.3748 8.50392C72.4266 8.47537 72.4721 8.44662 72.5122 8.41793C72.5322 8.40362 72.5511 8.38936 72.5684 8.37519C72.5857 8.3611 72.6019 8.3468 72.6167 8.33295C72.6299 8.32062 72.6417 8.3083 72.6531 8.29625C72.6545 8.29477 72.6561 8.29319 72.6575 8.29172L72.6579 8.29122C72.6704 8.27776 72.682 8.2645 72.6925 8.25149L72.6929 8.25099C72.7034 8.238 72.7127 8.22571 72.7213 8.21328L72.7218 8.21277C72.7302 8.20055 72.7376 8.18816 72.7444 8.17657C72.7446 8.17617 72.745 8.17597 72.7452 8.17556C72.752 8.16396 72.7576 8.15274 72.763 8.14187C72.7631 8.14153 72.7632 8.14122 72.7634 8.14087C72.8014 8.06282 72.8046 8.00539 72.8046 7.987V7.98147L72.7997 7.9161V7.90101L72.8334 7.90403H72.8644C72.9024 7.90559 72.9366 7.90404 72.9686 7.90101H72.969C73.0012 7.89835 73.0314 7.89383 73.059 7.88945L73.1086 7.87436L73.1675 7.8457L73.2389 7.81201L73.2916 7.77027C73.3082 7.75121 73.3213 7.73252 73.3315 7.71496L73.3319 7.71446C73.3622 7.66432 73.3674 7.62359 73.3674 7.61892L73.3784 7.55355L73.433 7.5621L73.5482 7.57115H73.5486H73.549C73.5697 7.57112 73.5901 7.56967 73.6093 7.56763C73.648 7.56351 73.6837 7.55571 73.7165 7.545H73.717C73.7334 7.53965 73.7494 7.53348 73.7644 7.5269C73.7943 7.51372 73.8215 7.49763 73.8459 7.48114H73.8464C73.8585 7.47289 73.8706 7.46417 73.8814 7.4555C73.8925 7.44658 73.9027 7.43793 73.9124 7.42885C73.9897 7.35755 74.025 7.28584 74.025 7.28302L74.0369 7.25285L74.0409 7.2443L74.0467 7.24531L74.0799 7.25285C74.1374 7.25602 74.2052 7.2624 74.2682 7.2624H74.2687C74.3029 7.26239 74.3366 7.26092 74.3684 7.25888C74.4002 7.25684 74.4312 7.25384 74.4601 7.25034C74.489 7.24683 74.5166 7.24267 74.5421 7.23827C74.5675 7.23387 74.5915 7.22942 74.613 7.22469C74.6559 7.21521 74.6909 7.20546 74.7149 7.19804C74.7385 7.19072 74.7518 7.18528 74.7525 7.18446L74.7689 7.17893H74.7694L74.7716 7.17994L74.7818 7.18446L74.8212 7.1905C74.8306 7.19047 74.8405 7.18994 74.8505 7.18849C74.8554 7.18776 74.8605 7.186 74.8655 7.18497C74.8707 7.18386 74.8761 7.18339 74.8815 7.18195C75.0313 7.14253 75.2289 6.97952 75.3184 6.89332H75.3189C75.3175 6.85253 75.3093 6.81683 75.2954 6.78521C75.2874 6.76623 75.2784 6.74817 75.2666 6.73241C75.2395 6.69732 75.2045 6.67092 75.1664 6.65045C75.1479 6.6404 75.1284 6.63204 75.1088 6.6248C75.1085 6.62469 75.1082 6.62441 75.1079 6.6243C75.0881 6.61703 75.0683 6.61108 75.0486 6.6062H75.0481C75.0285 6.60137 75.0089 6.59758 74.9905 6.59463C74.9902 6.59458 74.9899 6.59468 74.9896 6.59463C74.9711 6.59169 74.9536 6.58959 74.9373 6.58809H74.9369C74.9206 6.5866 74.912 6.5871 74.8992 6.58658C74.8862 6.58607 74.8696 6.58458 74.8611 6.58457H74.8607H74.8341L74.8279 6.58508L74.7969 6.58759L74.7862 6.56496L74.7791 6.54586C74.7318 6.43996 74.6727 6.3656 74.6041 6.3246C74.5905 6.31642 74.5768 6.30949 74.5625 6.30399H74.562C74.5476 6.29851 74.5328 6.29419 74.5177 6.29142H74.5173C74.5021 6.28867 74.4866 6.28742 74.4707 6.28739H74.4703C74.4575 6.28739 74.4451 6.28828 74.4335 6.28991C74.3719 6.29804 74.3289 6.3231 74.3289 6.3231L74.2806 6.35075L74.2766 6.35276L74.2527 6.28739C74.2417 6.25727 74.2279 6.23298 74.2115 6.21448C74.206 6.20841 74.2003 6.20274 74.1942 6.19789H74.1938C74.1693 6.17853 74.1394 6.16882 74.1029 6.16874ZM73.8065 7.80298C73.6435 7.80298 73.4451 7.87345 73.3528 7.90858C73.3525 7.90866 73.3521 7.90899 73.3519 7.90908C73.3223 7.92034 73.3035 7.92807 73.3014 7.92819L73.2832 7.93975L73.2828 7.94026C73.2409 7.96828 73.1899 7.99354 73.1294 8.01166C73.0685 8.02986 72.9974 8.04082 72.9136 8.04082V8.04133C72.9117 8.05721 72.9085 8.07488 72.9039 8.09412V8.09463C72.8993 8.11393 72.8931 8.13486 72.8848 8.15698V8.15748C72.8351 8.29104 72.7114 8.47067 72.4134 8.63519L72.4032 8.63871C72.4032 8.63871 72.3496 8.65265 72.2645 8.67642C72.1793 8.70019 72.0625 8.73337 71.937 8.77196C71.8246 8.81008 71.7027 8.8535 71.5878 8.90018C71.5495 8.91574 71.5118 8.93164 71.4757 8.94795L71.4646 8.95348L71.6202 8.98366C72.0386 9.08902 72.4992 9.28457 72.6331 9.33917C72.6456 9.34435 72.672 9.3555 72.6779 9.35778C72.6782 9.35783 72.6785 9.35773 72.6788 9.35778C72.7516 9.3697 72.8197 9.37585 72.8826 9.37588C72.9083 9.37587 72.9325 9.37508 72.9557 9.37337C73.0017 9.37002 73.0429 9.36344 73.0798 9.35476H73.0802C73.0986 9.35043 73.1162 9.3455 73.1325 9.34018C73.1653 9.32944 73.1939 9.31689 73.2189 9.30347C73.3448 9.23637 73.3798 9.14658 73.3798 9.14658L73.401 9.08574L73.4064 9.07267L73.4285 9.08876L73.464 9.1144C73.4756 9.124 73.4871 9.13219 73.4985 9.14105C73.5064 9.14719 73.5142 9.15437 73.522 9.16016H73.5225C73.5418 9.17437 73.5607 9.18726 73.5796 9.19938C73.5985 9.2115 73.617 9.22252 73.6355 9.23257L73.6359 9.23307C73.7282 9.28332 73.8146 9.30749 73.8934 9.30749H73.9062L73.9643 9.29894L74.0192 9.28034C74.0878 9.254 74.1211 9.20944 74.1211 9.20944L74.1415 9.17927L74.1592 9.15664L74.2 9.19788C74.3137 9.30736 74.4287 9.37739 74.5474 9.40806C74.5515 9.40913 74.5556 9.41061 74.5598 9.41158H74.5602C74.5633 9.4123 74.5665 9.41243 74.5695 9.41309C74.6075 9.42128 74.646 9.42613 74.6847 9.42616C74.7042 9.42615 74.7233 9.425 74.741 9.42315C74.7765 9.41942 74.8082 9.41251 74.8354 9.40454H74.8358C74.8493 9.40057 74.8619 9.3962 74.8731 9.39197C74.8954 9.38348 74.9134 9.3747 74.9254 9.36834C74.937 9.36213 74.9435 9.35778 74.9435 9.35778L74.9776 9.33716L75.0064 9.36633C75.1779 9.52677 75.3566 9.63668 75.4921 9.70624C75.5258 9.72357 75.5566 9.73795 75.5843 9.75049C75.5845 9.75062 75.5849 9.75087 75.5851 9.751C75.6125 9.7634 75.637 9.77363 75.6569 9.78167L75.6574 9.78217C75.6977 9.79852 75.7211 9.80599 75.7216 9.80681L75.7376 9.81285L75.7469 9.82139L75.7495 9.82441C75.7571 9.83484 75.7665 9.84496 75.777 9.85408H75.7775C75.8089 9.88143 75.8532 9.90285 75.9086 9.91844H75.9091C75.9274 9.92359 75.9473 9.92815 75.968 9.93202H75.9684C75.9892 9.93588 76.0106 9.939 76.0336 9.94157C76.034 9.94162 76.0345 9.94152 76.0349 9.94157C76.0576 9.94409 76.0815 9.94633 76.1063 9.94761C76.1322 9.94896 76.1592 9.94962 76.1873 9.94962C76.2992 9.94946 76.4004 9.93723 76.4443 9.93101C76.4615 9.89399 76.4726 9.85768 76.4771 9.82089C76.482 9.7841 76.4809 9.74684 76.4732 9.70825C76.4207 9.44447 76.1079 9.23698 76.104 9.23307H76.1036L76.0721 9.21195V9.1677C76.0811 8.87369 75.9716 8.72985 75.8718 8.65982C75.8168 8.62092 75.7641 8.60456 75.7362 8.59797C75.7255 8.59545 75.719 8.5944 75.7167 8.59395H75.7159L75.6587 8.5854L75.6662 8.51701V8.51651C75.6773 8.43619 75.6605 8.3735 75.6268 8.32644C75.6013 8.29067 75.5638 8.26124 75.516 8.23844C75.4365 8.20056 75.3282 8.18112 75.1974 8.18112H75.197C75.1517 8.18112 75.1118 8.18373 75.0756 8.18715C75.0014 8.19402 74.9484 8.20425 74.9484 8.20425L74.8598 8.21933L74.8713 8.16855L74.8832 8.11826C74.9015 8.05301 74.896 8.00547 74.8832 7.97596C74.8714 7.95807 74.8516 7.94387 74.8247 7.93422C74.8114 7.9294 74.7961 7.92566 74.7791 7.92316C74.7622 7.92066 74.7435 7.91914 74.7233 7.91914C74.663 7.91914 74.5948 7.93035 74.5261 7.9468C74.4231 7.97143 74.3187 8.00862 74.2407 8.03982C74.163 8.07092 74.1109 8.09622 74.1104 8.09765L74.0675 8.11826L74.0245 8.13888L74.0258 8.11977L74.0342 8.02574C74.037 7.99154 74.0366 7.96303 74.032 7.93825C74.0298 7.92582 74.0266 7.91458 74.0223 7.90406C74.0179 7.89355 74.0125 7.88383 74.0059 7.87489H74.0054C73.9716 7.83048 73.9031 7.80298 73.8065 7.80298ZM68.4493 7.80449C68.3527 7.80449 68.2847 7.82788 68.2481 7.87539C68.2422 7.88354 68.2375 7.89241 68.2335 7.90254C68.2197 7.93445 68.216 7.97421 68.222 8.02674L68.2326 8.13536L68.1458 8.09563C68.1437 8.09268 67.8168 7.93969 67.5751 7.92165C67.5589 7.92037 67.5433 7.91964 67.5281 7.91964C67.5222 7.91964 67.5173 7.92041 67.5117 7.92064C67.4985 7.92121 67.4856 7.92192 67.474 7.92366C67.4707 7.92416 67.4683 7.92557 67.4652 7.92617C67.4527 7.92849 67.44 7.93091 67.4297 7.93472C67.4177 7.93923 67.407 7.94469 67.3982 7.95132C67.388 7.9586 67.3795 7.96694 67.3739 7.97646C67.3556 8.00595 67.3554 8.05351 67.3681 8.11876L67.392 8.21983L67.3083 8.20223C67.3083 8.20223 67.1925 8.1781 67.0593 8.1781C66.8497 8.1781 66.6979 8.23231 66.6321 8.32392C66.6317 8.32438 66.6316 8.32497 66.6312 8.32543C66.6308 8.32596 66.6303 8.32641 66.6299 8.32694C66.5958 8.37098 66.5826 8.42936 66.59 8.50243C66.5903 8.5066 66.59 8.51023 66.5904 8.5145L66.5909 8.52204L66.5935 8.58288L66.5408 8.59194C66.5341 8.59326 66.4321 8.60883 66.3392 8.69804C66.2541 8.77795 66.1758 8.91811 66.1845 9.16768V9.21143L66.1557 9.23054C66.1535 9.23309 65.946 9.37088 65.8385 9.56443C65.8128 9.60983 65.7923 9.65821 65.7813 9.70875C65.7658 9.78593 65.7759 9.85746 65.8079 9.9315C65.8549 9.93781 65.9538 9.95011 66.0693 9.95011C66.2642 9.95011 66.4072 9.91661 66.4797 9.85155C66.4893 9.84324 66.4973 9.83429 66.5045 9.8249L66.5173 9.81334L66.5328 9.8068C66.5328 9.8043 66.9074 9.68809 67.2502 9.36681L67.279 9.33765L67.3105 9.35826C67.3105 9.35826 67.3892 9.41054 67.5121 9.42363C67.5305 9.42575 67.5496 9.42715 67.5697 9.42715C67.7218 9.42715 67.8718 9.36315 68.0115 9.23557C68.025 9.22345 68.0386 9.21163 68.0518 9.19836L68.0944 9.15612L68.1307 9.20691C68.1335 9.20942 68.1673 9.25386 68.2331 9.28083L68.2907 9.29843L68.3483 9.30798H68.3607C68.4575 9.30798 68.5622 9.27202 68.6775 9.19836C68.7157 9.17454 68.7548 9.14689 68.7954 9.11489L68.8348 9.08271L68.8508 9.07014L68.8716 9.14758C68.8771 9.14758 68.9582 9.37587 69.3723 9.37587C69.4195 9.37587 69.4708 9.37151 69.5243 9.3648C69.5253 9.36467 69.5264 9.36444 69.5274 9.3643C69.5438 9.36222 69.5592 9.361 69.5762 9.35827C69.6273 9.33845 69.9407 9.2019 70.2887 9.08624C70.324 9.07462 70.3601 9.06358 70.3959 9.05255C70.4187 9.04544 70.4413 9.03822 70.4642 9.03143C70.5229 9.01424 70.5816 8.99828 70.6392 8.98417L70.6862 8.97411L70.7867 8.95399L70.7845 8.95249L70.789 8.95148L70.7805 8.94545C70.634 8.88018 70.4694 8.82016 70.3201 8.76996C70.0685 8.69278 69.8589 8.6367 69.8589 8.6367L69.8434 8.63318C69.4452 8.41607 69.3592 8.16621 69.3404 8.03882C69.1756 8.03882 69.0576 7.99674 68.9757 7.93775L68.9527 7.92619C68.9505 7.92619 68.6672 7.80449 68.4493 7.80449ZM70.9688 9.0656L70.8797 9.07716C70.419 9.14128 69.7365 9.43534 69.643 9.47591C69.6366 9.47855 69.61 9.48981 69.6093 9.48999L69.6075 9.49049L69.5969 9.49351C69.515 9.50546 69.4426 9.51161 69.374 9.51161C69.2402 9.51161 69.1352 9.49037 69.0536 9.45881C68.9179 9.40621 68.8457 9.32533 68.8077 9.26773C68.8072 9.26807 68.8068 9.26841 68.8064 9.26874C68.8061 9.2684 68.8057 9.26807 68.8055 9.26773C68.7286 9.32358 68.655 9.3665 68.5839 9.39646C68.5814 9.3975 68.5789 9.39897 68.5764 9.39998C68.5761 9.4001 68.5758 9.40036 68.5755 9.40048C68.5689 9.40313 68.5625 9.4051 68.556 9.40752C68.5261 9.41876 68.4959 9.4279 68.4669 9.43417C68.4494 9.43796 68.4314 9.4408 68.4142 9.44272C68.3969 9.44462 68.3797 9.44574 68.3628 9.44574L68.3287 9.43719L68.3291 9.44021H68.3282L68.3327 9.46786L68.342 9.53474L68.3681 9.63028H68.2901C68.1276 9.63028 67.6874 9.675 67.5851 9.88019C67.5564 9.93917 67.5566 10.0138 67.5931 10.1029L67.6246 10.1799L67.5608 10.2005C67.5608 10.2005 67.533 10.2106 67.4903 10.2297C67.4689 10.2393 67.4432 10.2515 67.4154 10.2659C67.3876 10.2803 67.3568 10.2975 67.3255 10.3167C67.294 10.3359 67.2615 10.3575 67.2293 10.3815C67.2133 10.3935 67.1971 10.4061 67.1815 10.4192C67.1026 10.4853 67.0303 10.5664 66.9878 10.6621C66.9513 10.7625 66.9412 10.8641 66.9728 10.9739L66.9829 11.0181L66.9847 11.0272L66.951 11.0563C66.949 11.0575 66.9421 11.0627 66.932 11.0719C66.8599 11.1365 66.6287 11.4031 66.7366 11.9307L66.7432 11.9554L66.7441 11.9604L66.7428 11.9629L66.7259 11.9871C66.7237 11.9958 66.3332 12.6563 66.5505 12.9857C66.5511 12.9854 66.552 12.985 66.5527 12.9847C66.5529 12.985 66.5529 12.9854 66.5531 12.9857C66.7185 12.9179 67.0737 12.7267 67.15 12.4864L67.1558 12.4718L67.1606 12.4658L67.1655 12.4597H67.166C67.1661 12.4593 67.1768 12.4465 67.1793 12.4436C67.2185 12.4001 67.4933 12.0892 67.7292 11.5682L67.7385 11.541L67.7451 11.5234L67.7478 11.5239L67.7841 11.53L67.8178 11.532H67.8204C67.8331 11.5319 67.8479 11.5309 67.8647 11.5285C67.9892 11.5114 68.2212 11.4124 68.4151 10.9437L68.4439 10.8723L68.4922 10.914L68.4993 10.9205L68.5121 10.924L68.5884 10.9467C68.6381 10.9467 68.727 10.9226 68.8365 10.8008L68.8844 10.7445C68.9413 10.673 69.0021 10.5783 69.0674 10.4534L69.1121 10.3609L69.1241 10.382L69.1383 10.4121L69.1595 10.4504C69.1606 10.4527 69.1679 10.4655 69.1835 10.4805C69.2082 10.5058 69.2562 10.5394 69.3399 10.5394C69.4704 10.5394 69.6281 10.4619 69.8189 10.3076C69.8742 10.236 70.3169 9.67759 70.7144 9.29986L70.8771 9.15152L70.9816 9.07157H70.9821V9.07106L70.9781 9.06955L70.971 9.06553H70.9692L70.9688 9.0656ZM71.2891 9.06661L71.2754 9.07214L71.3804 9.15259C71.4134 9.1821 71.4522 9.21726 71.4899 9.25115C71.5076 9.26753 71.5252 9.28345 71.5435 9.30143C71.912 9.65489 72.3133 10.153 72.4093 10.2744C72.4156 10.2826 72.4326 10.3037 72.4359 10.3081H72.4364C72.4829 10.3469 72.5283 10.3812 72.572 10.4102H72.5724C72.5941 10.4246 72.6153 10.4379 72.6362 10.4499H72.6366C72.6575 10.4619 72.6778 10.473 72.6978 10.4826H72.6982C72.7182 10.4922 72.7377 10.5005 72.7567 10.5077H72.7572C72.7762 10.5149 72.7949 10.5211 72.813 10.5258C72.8311 10.5307 72.8486 10.5345 72.8657 10.5369H72.8662C72.8832 10.5393 72.8999 10.5404 72.9158 10.5404C72.9319 10.5404 72.9474 10.5392 72.961 10.5369C72.9746 10.5346 72.987 10.5312 72.9982 10.5274C73.036 10.5141 73.0604 10.4936 73.0758 10.4771C73.087 10.4651 73.0948 10.4552 73.0957 10.4544L73.1095 10.4293L73.117 10.4157L73.1219 10.4062L73.1418 10.3695L73.1852 10.4544C73.2272 10.5337 73.2668 10.5975 73.3044 10.6546C73.3164 10.6728 73.328 10.6902 73.3394 10.7064C73.348 10.7187 73.3579 10.7344 73.366 10.7456L73.4156 10.8024C73.5003 10.8937 73.5688 10.9298 73.6208 10.9422H73.6212C73.6382 10.9462 73.6539 10.9477 73.6673 10.9477C73.6815 10.9477 73.6943 10.9464 73.705 10.9442C73.7337 10.9381 73.7491 10.9268 73.7537 10.9226C73.7543 10.9222 73.7565 10.9208 73.7568 10.9206L73.7732 10.906L73.8065 10.8773L73.8375 10.9447C73.9628 11.2448 74.1043 11.3934 74.2221 11.4662C74.2224 11.4663 74.2227 11.4665 74.223 11.4667C74.2354 11.4743 74.2479 11.4812 74.2598 11.4873H74.2602C74.2725 11.4935 74.2841 11.4992 74.2957 11.5039H74.2961C74.2998 11.5054 74.3032 11.5065 74.3067 11.5079C74.3295 11.5165 74.3496 11.5216 74.3688 11.5255C74.3752 11.5268 74.3828 11.5291 74.3887 11.53C74.389 11.5301 74.3894 11.53 74.3896 11.53C74.3918 11.5303 74.3932 11.5303 74.3954 11.5305C74.4105 11.5324 74.4247 11.5335 74.4361 11.5335H74.4711L74.5097 11.5245L74.5194 11.5451L74.5292 11.5687C74.6083 11.7457 74.6928 11.8968 74.772 12.0248C74.8174 12.0983 74.8615 12.1661 74.901 12.2219C74.9276 12.2595 74.9528 12.293 74.975 12.322C74.9753 12.3224 74.9755 12.3231 74.9758 12.3235C74.9978 12.3522 75.0177 12.377 75.0339 12.3969C75.0399 12.4042 75.039 12.4029 75.0441 12.409C75.0666 12.436 75.0865 12.4595 75.0871 12.4608L75.0999 12.4723L75.103 12.4869C75.1177 12.5321 75.142 12.5755 75.173 12.6167L75.1735 12.6172C75.194 12.6444 75.2175 12.6705 75.243 12.6956L75.2435 12.6961C75.2562 12.7086 75.2693 12.7209 75.2829 12.7328L75.2834 12.7333C75.3107 12.7573 75.3397 12.7798 75.3693 12.8012L75.3698 12.8017C75.3774 12.8072 75.3851 12.812 75.3928 12.8173C75.5053 12.8952 75.6238 12.9543 75.7021 12.9862V12.9857C75.7028 12.986 75.7037 12.9865 75.7043 12.9867C75.8673 12.7392 75.6867 12.3059 75.5865 12.1023C75.5533 12.035 75.5289 11.9927 75.5289 11.9911L75.5178 11.9735L75.5107 11.961L75.5111 11.9574L75.5187 11.9318C75.6107 11.4791 75.4537 11.2183 75.3618 11.1127C75.3466 11.0952 75.3333 11.0821 75.3233 11.073H75.3228C75.3127 11.0638 75.3062 11.0585 75.3042 11.0574L75.2705 11.0282L75.2736 11.0111L75.2825 10.9744C75.314 10.8646 75.3091 10.7635 75.2643 10.6657C75.2638 10.6645 75.2631 10.6633 75.2625 10.6621C75.1315 10.3559 74.6971 10.2046 74.6971 10.2046L74.6276 10.1814L74.6572 10.104V10.1035C74.6866 10.0369 74.6964 9.97967 74.6852 9.92902C74.6818 9.91214 74.6762 9.89593 74.6683 9.88024C74.5933 9.72881 74.326 9.66432 74.1286 9.6414H74.1282C74.0623 9.63377 74.0043 9.63033 73.9638 9.63033H73.8867L73.9044 9.56094L73.911 9.53882L73.9155 9.51066L73.9283 9.44126L73.9261 9.44177L73.9265 9.44026L73.9062 9.44679H73.9057C73.9025 9.44678 73.8992 9.44636 73.896 9.44629C73.8622 9.44567 73.8281 9.44219 73.7941 9.43523H73.7936C73.7188 9.41988 73.6434 9.38935 73.5659 9.34522H73.5654C73.5271 9.32315 73.4885 9.29757 73.4493 9.26879L73.4489 9.26929C73.4483 9.26888 73.4477 9.26869 73.4471 9.26829C73.4172 9.31409 73.3639 9.37525 73.2738 9.42467L73.2734 9.42517C73.2381 9.44449 73.1952 9.46074 73.148 9.47495C73.1304 9.48026 73.1134 9.48575 73.0939 9.49004C73.0326 9.50357 72.9626 9.51216 72.8817 9.51216H72.8812H72.8808C72.8108 9.51214 72.7348 9.50856 72.6566 9.49356L72.6499 9.49205L72.6482 9.49155C72.6454 9.49076 72.5949 9.46855 72.5135 9.43523C72.3111 9.35153 71.9129 9.19575 71.571 9.11593C71.5705 9.11582 71.5701 9.11554 71.5696 9.11543C71.536 9.1076 71.5031 9.10052 71.4708 9.09431C71.4702 9.09419 71.4697 9.09393 71.469 9.09381C71.4581 9.09171 71.4479 9.09017 71.4371 9.08828C71.4164 9.08456 71.3954 9.08061 71.3755 9.07772L71.2891 9.06661ZM71.1252 9.0837C70.9468 9.25312 70.8399 9.50266 70.7911 9.63934V9.63984C70.7749 9.68506 70.7652 9.71759 70.7614 9.73086V9.73739L70.8004 11.0362L70.5469 11.2263L70.7379 12.4301L70.4312 12.6202L70.7015 13.9753L70.3949 14.2283L70.7326 15.8152L70.476 15.9575L70.4769 15.9606L70.476 15.9611L70.8003 17.4118L70.5469 17.6934L70.5473 17.6959L70.5469 17.6964L70.8739 19.3014H69.3341C69.3341 19.3014 69.2566 19.3384 69.2149 19.4075L69.2144 19.408C69.2103 19.415 69.208 19.4231 69.2047 19.4307C69.2014 19.4381 69.1972 19.4448 69.1949 19.4528V19.4533C69.1905 19.4695 69.1881 19.487 69.1892 19.5056V19.5061C69.1903 19.5248 69.1945 19.5449 69.2029 19.5659C69.2265 19.6307 69.352 19.7961 69.5029 19.9758V19.9763C69.7545 20.2757 70.0772 20.6136 70.1197 20.5857C70.1795 20.5474 70.1794 20.2054 70.227 20.1427C70.2557 20.0981 70.4867 20.4934 70.636 20.5887C70.636 20.5887 70.8874 20.3835 71.1229 20.2141C71.3557 20.3804 71.5156 20.5887 71.5156 20.5887C71.6676 20.4934 71.997 20.0922 72.0313 20.1336C72.0362 20.1415 72.0407 20.1539 72.0446 20.1693V20.1698C72.0485 20.1852 72.052 20.2036 72.0553 20.2242C72.0553 20.2245 72.0552 20.2248 72.0553 20.2252C72.0617 20.2665 72.0673 20.3156 72.0739 20.3644C72.0739 20.365 72.0738 20.3654 72.0739 20.366C72.0804 20.4146 72.088 20.4627 72.0978 20.5012C72.1077 20.541 72.1197 20.5718 72.1363 20.5832C72.1692 20.6023 72.3825 20.3884 72.5954 20.1492C72.8084 19.9099 73.0213 19.6451 73.0553 19.5604C73.079 19.4957 73.066 19.4414 73.0407 19.3995C72.9992 19.3296 72.9224 19.2929 72.9224 19.2929H71.4194L71.707 17.6964L71.7065 17.6959L71.707 17.6934L71.4531 17.4118L71.7779 15.9611L71.777 15.9606L71.7779 15.9575L71.5262 15.8152L71.8585 14.2283L71.5554 13.9753L71.8226 12.6202L71.5155 12.4301L71.7069 11.2263L71.4531 11.0362L71.4916 9.7374C71.4916 9.7374 71.4851 9.71176 71.4712 9.67002C71.4295 9.54393 71.3218 9.26866 71.1252 9.0837ZM71.3857 9.32959C71.5053 9.57548 71.6195 9.8851 71.7017 10.1261C71.7204 10.1812 71.7382 10.2327 71.7531 10.2785C71.7888 10.3882 71.814 10.4708 71.8213 10.4972C71.8734 10.5947 71.9227 10.6712 71.9689 10.731C71.9691 10.7314 71.9695 10.7317 71.9698 10.732C71.9848 10.7515 72.0002 10.7702 72.0145 10.7863L72.015 10.7868C72.1901 10.985 72.3078 10.9397 72.3078 10.9397L72.3708 10.9171L72.3814 10.997C72.4389 11.553 72.6776 11.5703 72.6876 11.5703H72.6973L72.7399 11.5733V11.6387C72.7477 11.9469 72.8542 12.124 72.9415 12.2189C73.0025 12.2859 73.0551 12.3137 73.0594 12.316L73.0744 12.3225L73.0913 12.3316L73.0966 12.3763C73.1143 12.8306 73.2512 13.1876 73.2512 13.1909L73.261 13.2115L73.2588 13.2291C73.2455 13.3866 73.4399 13.6744 73.5787 13.8351C73.5794 13.8359 73.5802 13.8368 73.5809 13.8376L73.6886 13.7506L73.7015 13.7405V13.74C73.7823 13.6063 73.7712 13.3604 73.7546 13.2367C73.7525 13.2187 73.7504 13.2035 73.7484 13.1909L73.7413 13.1472L73.7666 13.1215C74.0442 12.8536 73.8821 12.5451 73.8738 12.5332L73.845 12.4734L73.8893 12.4351H73.8898L73.8978 12.4191L73.9655 12.2918C73.9708 12.189 73.9156 12.0655 73.8486 11.9554C73.8324 11.9285 73.8155 11.9023 73.7985 11.8775C73.7981 11.8769 73.7976 11.8766 73.7972 11.876C73.746 11.8016 73.695 11.7396 73.6616 11.7035L73.6594 11.701L73.5924 11.6316L73.6726 11.5879L73.7404 11.5044C73.7405 11.5038 73.7404 11.503 73.7404 11.5024L73.7409 11.5019C73.7453 11.3651 73.4607 11.1067 73.2561 10.9699L73.1777 10.9156L73.2535 10.8537L73.2725 10.8316L73.277 10.8276L73.2765 10.8271C73.2323 10.765 73.1849 10.6899 73.1329 10.5983C73.1325 10.5986 73.132 10.599 73.1316 10.5993C73.1314 10.5989 73.131 10.5987 73.1307 10.5983C73.1112 10.6164 73.0846 10.6348 73.0523 10.6496C73.0502 10.6505 73.0487 10.6517 73.0465 10.6526C73.0462 10.6527 73.046 10.653 73.0456 10.6531C73.037 10.6567 73.0277 10.6602 73.0182 10.6632C73.0179 10.6633 73.0176 10.6636 73.0173 10.6637C72.9879 10.6728 72.9542 10.6782 72.9154 10.6782C72.7661 10.6782 72.5799 10.5892 72.3703 10.4198L72.3602 10.4077C72.3567 10.4042 72.1416 10.13 71.8776 9.83346C71.8256 9.77501 71.7717 9.71525 71.7172 9.65696C71.7165 9.65622 71.7157 9.65569 71.715 9.65495C71.6604 9.59669 71.6056 9.53976 71.551 9.48549C71.5503 9.48478 71.5495 9.4842 71.5488 9.48348C71.542 9.47672 71.5352 9.47054 71.5284 9.46387C71.5084 9.44427 71.4883 9.42468 71.4686 9.40605C71.4406 9.37957 71.4129 9.35368 71.3857 9.32959ZM70.8691 9.3306C70.4471 9.70522 69.9052 10.4004 69.8947 10.4092L69.8836 10.4213C69.7545 10.527 69.6345 10.6015 69.5251 10.6425C69.4602 10.6668 69.3989 10.6794 69.3416 10.6797C69.3387 10.6797 69.3361 10.6793 69.3332 10.6792C69.3099 10.6788 69.2883 10.6767 69.2685 10.6727C69.2682 10.6726 69.2679 10.6727 69.2676 10.6727C69.2569 10.6705 69.2469 10.6677 69.2371 10.6646H69.2366C69.2269 10.6616 69.2176 10.6578 69.2087 10.6541H69.2083C69.1904 10.6465 69.1743 10.6377 69.16 10.6284C69.1456 10.6191 69.1332 10.6093 69.1219 10.5998L69.1214 10.6003C69.1203 10.6024 69.119 10.6042 69.1179 10.6063C69.0946 10.6493 69.0718 10.689 69.0492 10.725L69.0487 10.7255C69.0246 10.7634 69.0003 10.7975 68.9752 10.8286L68.9894 10.8411L69.0018 10.8547L69.0784 10.9161L68.996 10.9714C68.7947 11.1075 68.5088 11.3667 68.5144 11.5029L68.5148 11.5034C68.5148 11.504 68.5143 11.5047 68.5144 11.5054L68.5826 11.5889L68.6619 11.6326L68.5981 11.7025C68.5147 11.7913 68.309 12.0528 68.2928 12.2521C68.2928 12.2526 68.2928 12.2531 68.2928 12.2536C68.2918 12.2664 68.2917 12.2792 68.2924 12.2913C68.2924 12.292 68.2923 12.2927 68.2924 12.2934L68.3114 12.3301L68.3646 12.4367L68.3876 12.4528L68.4138 12.4744L68.3805 12.5317C68.3774 12.5411 68.312 12.6654 68.3309 12.8219V12.8224C68.3313 12.8253 68.3323 12.8284 68.3327 12.8314C68.3345 12.844 68.3363 12.8572 68.3393 12.8701C68.343 12.8861 68.3477 12.9025 68.3535 12.9189V12.9194C68.3769 12.9862 68.4184 13.0557 68.4878 13.1225L68.5139 13.1492L68.5086 13.1914C68.5076 13.1924 68.4983 13.2436 68.4926 13.3171C68.4926 13.3181 68.4927 13.3187 68.4926 13.3197C68.4908 13.344 68.4892 13.3705 68.4887 13.3986V13.3991C68.4886 13.401 68.4887 13.4032 68.4887 13.4051C68.4877 13.4743 68.4921 13.5511 68.5082 13.6214V13.6219C68.5115 13.6363 68.5153 13.6504 68.5197 13.6641V13.6646C68.521 13.6686 68.5227 13.6722 68.5241 13.6762C68.5321 13.6993 68.5413 13.7217 68.5529 13.7415L68.6017 13.7798L68.6739 13.8386C68.8073 13.6848 68.987 13.4224 68.996 13.2608C68.9967 13.2509 68.9966 13.2418 68.996 13.2327V13.2302V13.2126V13.2121L68.9987 13.1945C69.0008 13.1921 69.0809 12.9883 69.1285 12.6946C69.1364 12.6462 69.1437 12.5952 69.1493 12.5423V12.5418C69.155 12.4887 69.159 12.4338 69.1613 12.3774V12.3769L69.1617 12.3693L69.1644 12.3321L69.1954 12.317C69.2087 12.3113 69.5042 12.1595 69.5127 11.6397V11.6392V11.5713H69.5672C69.5685 11.5713 69.5737 11.5713 69.5814 11.5698C69.6043 11.565 69.652 11.548 69.7028 11.4928C69.7112 11.4837 69.72 11.4736 69.7285 11.4622V11.4617C69.737 11.4502 69.7458 11.4379 69.7542 11.424V11.4235C69.7627 11.4094 69.7708 11.3941 69.779 11.3772C69.7953 11.3434 69.8107 11.3036 69.8246 11.257C69.8316 11.2338 69.8381 11.2089 69.8441 11.1821C69.8562 11.1284 69.8666 11.0675 69.8738 10.9981L69.8836 10.9151L69.8942 10.9191L69.9474 10.9407C69.9474 10.9407 70.0475 10.9761 70.1995 10.8301C70.2548 10.7774 70.3167 10.7001 70.3834 10.5887C70.4 10.561 70.4172 10.5314 70.4344 10.4992V10.4987C70.4581 10.4153 70.6567 9.76991 70.8691 9.33316C70.8683 9.3338 70.8676 9.33453 70.8668 9.33517C70.8675 9.33371 70.8684 9.33205 70.8691 9.3306ZM63.3668 19.1149C62.7363 19.1072 62.0989 19.203 61.5088 19.4528C61.5088 19.4528 61.5482 19.4489 61.6236 19.4472C61.6988 19.4455 61.8098 19.446 61.9537 19.4543C61.9539 19.4543 61.9539 19.4543 61.9541 19.4543C61.9592 19.4546 61.9658 19.4555 61.971 19.4558C62.5511 19.4913 63.6419 19.6543 65.039 20.3106C65.2148 20.3932 65.3954 20.4832 65.5805 20.5822C65.7653 20.6809 65.9545 20.7885 66.1477 20.905C66.1486 20.9055 66.1494 20.9059 66.1503 20.9065C66.1506 20.9067 66.1509 20.9068 66.1512 20.907C66.345 21.024 66.5427 21.1503 66.7441 21.2866C66.9458 21.4231 67.151 21.5693 67.3596 21.7266C68.4257 22.5318 69.4757 23.4802 70.3666 24.3424C70.1175 24.6024 69.8666 24.8729 69.6155 25.1544C69.3645 25.4356 69.1129 25.7278 68.8618 26.0319L68.8157 25.9801H68.8135H68.7133H68.7111L68.6929 26.057L68.6167 25.9379C68.6665 25.8074 68.6297 25.6414 68.5197 25.5341C68.4854 25.4997 68.4475 25.4742 68.408 25.4571C68.401 25.4541 68.3938 25.4526 68.3867 25.4501C68.2759 25.4106 68.1564 25.4377 68.0828 25.5341C68.0689 25.5517 68.0579 25.5708 68.0482 25.5909C68.0389 25.6102 68.0314 25.6303 68.0261 25.6512C68.0152 25.6934 68.0122 25.7378 68.0167 25.7825C68.0258 25.8717 68.0648 25.961 68.1328 26.0279C68.1551 26.0502 68.1785 26.0688 68.2029 26.0837C68.2515 26.1134 68.3033 26.1282 68.354 26.1289C68.3793 26.1293 68.4041 26.1261 68.4284 26.1194C68.4964 26.2417 68.455 26.3633 68.455 26.3633C68.4214 26.4471 68.361 26.529 68.2817 26.6041C68.2419 26.6418 68.1972 26.6778 68.1492 26.7117C67.9579 26.8467 67.7102 26.9475 67.4748 26.9797C67.4162 26.9878 67.358 26.9913 67.302 26.9903C67.258 26.99 67.2158 26.9878 67.1748 26.9833C67.1608 26.9817 67.1478 26.9783 67.134 26.9762C66.8714 26.9357 66.6564 26.7935 66.3644 26.4668C66.2384 26.3239 66.1174 26.271 66.0107 26.2657C65.9041 26.2604 65.8114 26.3029 65.7422 26.3507C65.6592 26.4081 65.6102 26.4734 65.6102 26.4734C65.5751 26.5304 65.5465 26.5871 65.5242 26.6433C65.502 26.6995 65.4859 26.7548 65.4755 26.8098C65.4754 26.8099 65.4755 26.8101 65.4755 26.8103C65.465 26.8651 65.4601 26.9194 65.4604 26.9727C65.4604 26.9783 65.462 26.9837 65.4622 26.9893C65.4758 27.5175 65.9881 27.9595 66.5203 28.1423C66.6278 28.1792 66.7362 28.2059 66.8412 28.2202C66.8937 28.2275 66.9454 28.2317 66.9958 28.2328C67.9723 28.2566 68.8631 27.5702 69.0882 27.2608C69.1712 27.155 69.2317 27.1075 69.3062 27.1507C69.3463 27.1704 69.3733 27.2418 69.3869 27.3131C69.3875 27.3166 69.3889 27.3197 69.3895 27.3232C69.3895 27.3233 69.3895 27.3235 69.3895 27.3237C69.3895 27.3238 69.3895 27.324 69.3895 27.3242C69.3771 27.4425 69.4164 27.5642 69.5074 27.653C69.5581 27.7049 69.6176 27.7366 69.678 27.7491C69.6845 27.7504 69.691 27.7502 69.6975 27.7511C69.7902 27.7645 69.8831 27.7329 69.9474 27.653C70.0389 27.5312 70.0341 27.3473 69.9386 27.2121C69.9384 27.2119 69.9382 27.2117 69.9381 27.2115C69.9376 27.2108 69.9368 27.2103 69.9363 27.2095C69.9232 27.1912 69.9086 27.1735 69.892 27.1572C69.8919 27.1572 69.8921 27.1568 69.892 27.1567C69.8212 27.0858 69.73 27.05 69.6466 27.0557H69.6461L69.6204 27.0466L69.6488 27.023V26.9098L69.5367 26.7851C69.6387 26.6709 69.8357 26.4527 70.1074 26.1611C70.2433 26.0153 70.3974 25.8508 70.5682 25.6724C70.5683 25.6723 70.5686 25.6725 70.5687 25.6724C70.7394 25.494 70.9263 25.301 71.127 25.0976C71.5288 25.5047 71.8755 25.8696 72.147 26.1611C72.4187 26.4528 72.6148 26.671 72.716 26.7852L72.6056 26.9099V27.023L72.6371 27.0466L72.6083 27.0557C72.5248 27.05 72.4332 27.0859 72.3624 27.1568C72.3623 27.1568 72.3625 27.1572 72.3624 27.1573C72.3451 27.1742 72.3294 27.1924 72.3158 27.2116C72.2613 27.2891 72.2365 27.3821 72.2427 27.47C72.2428 27.4704 72.2427 27.4707 72.2427 27.471C72.2474 27.5373 72.2694 27.6008 72.3096 27.6531C72.3753 27.7386 72.4777 27.7705 72.5777 27.7491C72.6378 27.7363 72.6968 27.7044 72.747 27.6531C72.8333 27.5671 72.8781 27.4423 72.8649 27.3237C72.8715 27.2864 72.8811 27.2483 72.8945 27.2171C72.9079 27.1859 72.9249 27.1616 72.9459 27.1512C73.0217 27.1067 73.0821 27.1542 73.1662 27.2609C73.1947 27.2995 73.2334 27.3438 73.2814 27.3921C73.6173 27.7304 74.4048 28.2537 75.2643 28.2328C75.3144 28.2317 75.3654 28.2275 75.4176 28.2203C75.4701 28.213 75.5235 28.2028 75.5772 28.1896C76.1649 28.0458 76.7894 27.5615 76.7944 26.9732C76.7944 26.9731 76.7944 26.9729 76.7944 26.9727C76.7944 26.9674 76.7931 26.9619 76.7931 26.9566C76.7921 26.8722 76.7759 26.7855 76.7474 26.6977C76.7415 26.6794 76.7391 26.6612 76.7319 26.6428C76.7099 26.5866 76.682 26.5304 76.6473 26.4734C76.6473 26.4734 76.625 26.4444 76.5857 26.408C76.5465 26.3717 76.4901 26.3282 76.4213 26.2989C76.4209 26.2987 76.4204 26.2986 76.42 26.2984C76.3859 26.2839 76.3487 26.2732 76.3092 26.2682C76.2913 26.266 76.273 26.2658 76.2542 26.2662C76.2512 26.2663 76.2484 26.2656 76.2454 26.2657C76.1387 26.271 76.0182 26.3239 75.8931 26.4669C75.5859 26.8106 75.3628 26.9518 75.0822 26.9833C75.0428 26.9877 75.0019 26.99 74.9599 26.9903C74.9029 26.9914 74.8443 26.9878 74.7849 26.9798C74.7394 26.9736 74.6934 26.963 74.6475 26.9521C74.6328 26.9486 74.6183 26.947 74.6036 26.9431C74.4846 26.9109 74.367 26.8639 74.2593 26.8063C74.2589 26.8061 74.2584 26.806 74.258 26.8058C74.0422 26.69 73.8666 26.5313 73.7998 26.3638C73.7998 26.3638 73.7607 26.2418 73.826 26.1194C73.8503 26.1261 73.8757 26.1293 73.9013 26.129C73.9042 26.1289 73.9072 26.1276 73.9102 26.1274C73.9583 26.1251 74.0072 26.1116 74.0528 26.0837C74.053 26.0836 74.0531 26.0833 74.0533 26.0832C74.0775 26.0683 74.1007 26.0502 74.1224 26.0279C74.1676 25.9826 74.1994 25.9267 74.219 25.868C74.2212 25.8616 74.2243 25.8554 74.2261 25.8489C74.2261 25.8487 74.2261 25.8485 74.2261 25.8484C74.2322 25.8267 74.2365 25.8046 74.239 25.7825C74.239 25.7822 74.2389 25.7818 74.239 25.7815C74.2488 25.6926 74.2292 25.6037 74.1769 25.5371C74.1763 25.5363 74.1754 25.5359 74.1747 25.5351C74.1745 25.5348 74.1745 25.5344 74.1743 25.5341C74.0923 25.4317 73.9645 25.4063 73.8472 25.4572C73.8078 25.4743 73.7696 25.4997 73.7347 25.5341C73.681 25.5877 73.6449 25.6559 73.6279 25.7272C73.6106 25.7985 73.6126 25.8726 73.635 25.9379L73.5619 26.056L73.5411 25.9801H73.5406H73.4409L73.3926 26.0319C73.1415 25.7278 72.8898 25.4356 72.6389 25.1544C72.3875 24.8729 72.1368 24.6025 71.8882 24.3424C72.3334 23.9112 72.8186 23.4583 73.3257 23.0128C73.8327 22.5674 74.3617 22.1291 74.8947 21.7266C77.3972 19.8408 79.4359 19.5045 80.2985 19.4542C80.4423 19.4459 80.5534 19.4455 80.6286 19.4472C80.7036 19.4489 80.7426 19.4527 80.7429 19.4527C80.6252 19.4028 80.5055 19.359 80.3844 19.321C80.3843 19.3209 80.3841 19.321 80.384 19.321C80.2629 19.283 80.1406 19.2504 80.0171 19.2234C80.0169 19.2234 80.0168 19.2235 80.0166 19.2234C79.8931 19.1965 79.7683 19.1752 79.6431 19.1586C79.6429 19.1586 79.6428 19.1586 79.6426 19.1586C79.5174 19.142 79.3915 19.13 79.2655 19.1229C79.2654 19.1229 79.2653 19.1229 79.2651 19.1229C78.7606 19.0943 78.2537 19.1383 77.7718 19.229C76.8079 19.4099 75.945 19.7767 75.4055 20.1215C74.6354 20.6152 72.9859 21.7713 71.1273 23.5781C70.5239 22.9915 69.9471 22.4812 69.4107 22.0324C68.295 21.0982 67.3688 20.4551 66.8486 20.1216C66.3092 19.7768 65.4465 19.41 64.4823 19.229C64.1207 19.161 63.7448 19.1195 63.3665 19.1149L63.3668 19.1149Z" fill="white"/>
</svg>
