<svg width="24" height="23" viewBox="0 0 24 23" fill="none" xmlns="http://www.w3.org/2000/svg">
<path d="M17.5081 0.126221C17.4085 0.126221 7.86842 0.126221 7.86842 0.126221C6.16861 0.126221 4.65521 1.49212 4.65521 2.94105L3.72659 2.96005C2.02759 2.96005 0.638672 4.30692 0.638672 5.75585V19.8299C0.638672 21.2789 2.15211 22.6447 3.85191 22.6447H15.9015C17.6013 22.6447 19.1147 21.2789 19.1147 19.8299H19.918C21.6178 19.8299 23.1313 18.4641 23.1313 17.0151V5.77275L17.5081 0.126221ZM15.9015 21.2374H3.85191C3.00844 21.2374 2.24531 20.5471 2.24531 19.8299V5.75585C2.24531 5.03879 2.93214 4.37166 3.77561 4.37166L4.65521 4.34845V17.0151C4.65521 18.4641 6.16861 19.8299 7.86842 19.8299H17.5081C17.5081 20.547 16.7449 21.2374 15.9015 21.2374ZM21.5247 17.0151C21.5247 17.7322 20.7615 18.4225 19.918 18.4225H7.86842C7.02495 18.4225 6.26182 17.7322 6.26182 17.0151V2.94105C6.26182 2.22399 7.02495 1.53365 7.86842 1.53365H15.9015C15.8886 3.15428 15.9015 4.36606 15.9015 4.36606C15.9015 5.82835 17.4037 7.16328 19.1147 7.16328C19.1147 7.16328 19.9678 7.16328 21.5247 7.16328V17.0151ZM19.1147 5.75585C18.2592 5.75585 17.5081 4.3942 17.5081 3.66375C17.5081 3.66375 17.5081 2.92344 17.5081 1.55545V1.55403L21.5247 5.75585H19.1147ZM17.5081 9.99077H10.2784C9.83494 9.99077 9.47506 10.3053 9.47506 10.6938C9.47506 11.0822 9.83494 11.3967 10.2784 11.3967H17.5081C17.9515 11.3967 18.3114 11.0822 18.3114 10.6938C18.3114 10.3053 17.9515 9.99077 17.5081 9.99077ZM17.5081 13.5058H10.2784C9.83494 13.5058 9.47506 13.8203 9.47506 14.2087C9.47506 14.5972 9.83494 14.9117 10.2784 14.9117H17.5081C17.9515 14.9117 18.3114 14.5972 18.3114 14.2087C18.3114 13.8203 17.9515 13.5058 17.5081 13.5058Z" fill="black"/>
</svg>
