<svg width="33" height="32" viewBox="0 0 33 32" fill="none" xmlns="http://www.w3.org/2000/svg">
<path fill-rule="evenodd" clip-rule="evenodd" d="M18.351 4.51078V0.00708008L19.4756 0.00708008V4.51078H18.351Z" fill="black"/>
<path fill-rule="evenodd" clip-rule="evenodd" d="M10.9864 5.32982L9.35345 1.13332L10.4014 0.724609L12.0343 4.92112L10.9864 5.32982Z" fill="black"/>
<path fill-rule="evenodd" clip-rule="evenodd" d="M6.0464 9.66401L2.60561 6.7628L3.33008 5.90161L6.77087 8.80282L6.0464 9.66401Z" fill="black"/>
<path fill-rule="evenodd" clip-rule="evenodd" d="M4.84566 14.4552L0.365691 14.8637L0.263672 13.7424L4.74364 13.3339L4.84566 14.4552Z" fill="black"/>
<path fill-rule="evenodd" clip-rule="evenodd" d="M5.57258 20.2741L1.48119 22.1463L1.01367 21.1223L5.10506 19.2501L5.57258 20.2741Z" fill="black"/>
<path fill-rule="evenodd" clip-rule="evenodd" d="M30.3243 3.3851L4.86498 30.4073L4.04688 29.6348L29.5062 2.61253L30.3243 3.3851Z" fill="black"/>
<path fill-rule="evenodd" clip-rule="evenodd" d="M17.7703 8.23238C17.0702 8.00901 16.3238 7.88838 15.548 7.88838C11.5107 7.88838 8.23791 11.165 8.23791 15.2069C8.23791 16.27 8.46376 17.2789 8.87009 18.1892L17.7703 8.23238ZM19.6448 7.82369C19.3042 7.63382 18.949 7.46689 18.5814 7.325C17.6401 6.96165 16.6173 6.76245 15.548 6.76245C10.8896 6.76245 7.11328 10.5432 7.11328 15.2069C7.11328 16.6095 7.45485 17.9322 8.05926 19.0963C8.2406 19.4455 8.4456 19.7805 8.67213 20.099L19.6448 7.82369Z" fill="black"/>
<path fill-rule="evenodd" clip-rule="evenodd" d="M27.8068 15.7713C27.8439 15.7368 27.8813 15.7027 27.9191 15.6688C28.307 15.3213 28.7272 15.0091 29.1746 14.7374C28.765 14.6762 28.3457 14.6445 27.9191 14.6445C27.7315 14.6445 27.5453 14.6507 27.3607 14.6627C22.9627 14.9505 19.4844 18.6131 19.4844 23.089C19.4844 27.7527 23.2607 31.5334 27.9191 31.5334C28.8713 31.5334 29.7867 31.3754 30.6405 31.0842C31.2202 30.8865 31.7715 30.6274 32.2867 30.3146C31.7124 30.2288 31.157 30.085 30.6266 29.8894C27.4051 28.7013 25.1075 25.6008 25.1075 21.963C25.1075 19.5168 26.1465 17.3135 27.8068 15.7713ZM26.0571 16.01C22.9217 16.8344 20.609 19.6913 20.609 23.089C20.609 27.1309 23.8818 30.4075 27.9191 30.4075C28.2576 30.4075 28.5906 30.3845 28.9165 30.3401C25.9744 28.7084 23.9829 25.5691 23.9829 21.963C23.9829 19.7123 24.7593 17.6435 26.0571 16.01Z" fill="black"/>
</svg>
