<svg width="23" height="19" viewBox="0 0 23 19" fill="none" xmlns="http://www.w3.org/2000/svg">
<path d="M9.0197 18.6177C9.15344 18.7516 9.33578 18.8124 9.53028 18.8124H9.54242C9.73691 18.8124 9.91926 18.7394 10.053 18.6055L17.9304 10.4878C18.21 10.1957 18.21 9.74539 17.9183 9.46546L9.45734 1.00696C9.3236 0.873072 9.12911 0.800049 8.94676 0.800049L0.789722 0.812205C0.388557 0.812205 0.0603305 1.12865 0.0603305 1.53028L0.0117188 9.55068C0.0117188 9.74539 0.0846579 9.94015 0.230536 10.074L9.0197 18.6177ZM1.51911 2.26051L8.64282 2.23616L16.3744 9.97662L9.50595 17.0599L1.4705 9.24639L1.51911 2.26051Z" fill="black"/>
<path d="M13.785 1.95617C13.4933 2.23611 13.4933 2.69856 13.7729 2.99065L20.7507 10.0983L13.3717 17.717C13.0921 18.0091 13.1043 18.4716 13.3838 18.7515C13.5297 18.8854 13.7121 18.9584 13.8944 18.9584C14.0889 18.9584 14.2712 18.8854 14.4171 18.7393L22.2945 10.6094C22.5742 10.3294 22.5742 9.86699 22.2945 9.58706L14.8183 1.96833C14.5266 1.68839 14.0646 1.67623 13.785 1.95617Z" fill="black"/>
<path d="M5.08091 5.89843C5.2286 5.89843 5.34834 5.77896 5.34834 5.63159C5.34834 5.48421 5.2286 5.36475 5.08091 5.36475C4.93321 5.36475 4.81348 5.48421 4.81348 5.63159C4.81348 5.77896 4.93321 5.89843 5.08091 5.89843Z" fill="black"/>
<path d="M5.0808 4.63428C4.53376 4.63428 4.08398 5.08457 4.08398 5.63225C4.08398 6.17992 4.53376 6.63022 5.0808 6.63022C5.62785 6.63022 6.07763 6.17992 6.07763 5.63225C6.06548 5.08457 5.62785 4.63428 5.0808 4.63428ZM5.0808 6.09474C4.82552 6.09474 4.61884 5.88783 4.61884 5.63225C4.61884 5.37667 4.82552 5.16975 5.0808 5.16975C5.33609 5.16975 5.54277 5.37667 5.54277 5.63225C5.54277 5.88783 5.33609 6.09474 5.0808 6.09474Z" fill="black"/>
</svg>
