<svg width="14" height="10" viewBox="0 0 14 10" fill="none" xmlns="http://www.w3.org/2000/svg">
<path d="M12.1852 1.25H10.5272L9.72222 0.278126C9.65108 0.192436 9.55467 0.122205 9.4416 0.0736821C9.32852 0.025159 9.20227 -0.000152002 9.07407 6.8674e-07H4.92593C4.79773 -0.000152002 4.67148 0.025159 4.5584 0.0736821C4.44532 0.122205 4.34892 0.192436 4.27778 0.278126L3.47213 1.25H1.81481C1.3335 1.25 0.871891 1.40365 0.531547 1.67714C0.191203 1.95063 0 2.32156 0 2.70833V8.54167C0 8.92844 0.191203 9.29937 0.531547 9.57286C0.871891 9.84635 1.3335 10 1.81481 10H12.1852C12.4235 10 12.6595 9.96228 12.8797 9.88899C13.0999 9.8157 13.2999 9.70828 13.4685 9.57286C13.637 9.43745 13.7707 9.27668 13.8619 9.09975C13.9531 8.92281 14 8.73318 14 8.54167V2.70833C14 2.51682 13.9531 2.32719 13.8619 2.15025C13.7707 1.97332 13.637 1.81256 13.4685 1.67714C13.2999 1.54172 13.0999 1.4343 12.8797 1.36101C12.6595 1.28772 12.4235 1.25 12.1852 1.25ZM12.4444 8.54167C12.4444 8.59692 12.4171 8.64991 12.3685 8.68898C12.3199 8.72805 12.2539 8.75 12.1852 8.75H1.81481C1.74605 8.75 1.68011 8.72805 1.63149 8.68898C1.58287 8.64991 1.55556 8.59692 1.55556 8.54167V2.70833C1.55556 2.65308 1.58287 2.60009 1.63149 2.56102C1.68011 2.52195 1.74605 2.5 1.81481 2.5H3.88889C4.01708 2.50015 4.14333 2.47484 4.25641 2.42632C4.36949 2.3778 4.46589 2.30757 4.53704 2.22188L5.34204 1.25H8.65732L9.46296 2.22188C9.53411 2.30757 9.63051 2.3778 9.74359 2.42632C9.85667 2.47484 9.98292 2.50015 10.1111 2.5H12.1852C12.2539 2.5 12.3199 2.52195 12.3685 2.56102C12.4171 2.60009 12.4444 2.65308 12.4444 2.70833V8.54167ZM7 2.91667C6.38468 2.91667 5.78318 3.06329 5.27156 3.33799C4.75994 3.6127 4.36118 4.00314 4.12571 4.45996C3.89024 4.91677 3.82863 5.41944 3.94867 5.90439C4.06871 6.38935 4.36502 6.8348 4.80011 7.18443C5.23521 7.53407 5.78956 7.77217 6.39305 7.86863C6.99655 7.96509 7.62209 7.91559 8.19057 7.72637C8.75905 7.53715 9.24494 7.21672 9.58679 6.80559C9.92865 6.39447 10.1111 5.91112 10.1111 5.41667C10.1103 4.75384 9.7822 4.11835 9.19894 3.64966C8.61568 3.18097 7.82485 2.91736 7 2.91667ZM7 6.66667C6.69234 6.66667 6.39159 6.59336 6.13578 6.456C5.87997 6.31865 5.68059 6.12343 5.56285 5.89502C5.44512 5.66661 5.41431 5.41528 5.47433 5.1728C5.53436 4.93033 5.68251 4.7076 5.90006 4.53278C6.1176 4.35797 6.39478 4.23892 6.69653 4.19069C6.99827 4.14245 7.31104 4.16721 7.59529 4.26182C7.87953 4.35643 8.12247 4.51664 8.2934 4.7222C8.46432 4.92777 8.55556 5.16944 8.55556 5.41667C8.55556 5.74819 8.39167 6.06613 8.09994 6.30055C7.80822 6.53497 7.41256 6.66667 7 6.66667Z" fill="black"/>
</svg>
