<svg width="14" height="10" viewBox="0 0 14 10" fill="none" xmlns="http://www.w3.org/2000/svg">
<path d="M13.4615 0H0.538462C0.395653 0 0.258693 0.0526785 0.157712 0.146447C0.0567306 0.240215 0 0.367392 0 0.5V9C0 9.26522 0.113461 9.51957 0.315423 9.70711C0.517386 9.89464 0.791305 10 1.07692 10H12.9231C13.2087 10 13.4826 9.89464 13.6846 9.70711C13.8865 9.51957 14 9.26522 14 9V0.5C14 0.367392 13.9433 0.240215 13.8423 0.146447C13.7413 0.0526785 13.6043 0 13.4615 0ZM5.02856 5L1.07692 8.36312V1.63688L5.02856 5ZM5.82548 5.67813L6.63317 6.36875C6.73251 6.45343 6.86246 6.50041 6.99731 6.50041C7.13216 6.50041 7.2621 6.45343 7.36144 6.36875L8.16914 5.67813L12.073 9H1.92298L5.82548 5.67813ZM8.97144 5L12.9231 1.63625V8.36375L8.97144 5Z" fill="black"/>
</svg>
