<svg width="40" height="41" viewBox="0 0 40 41" fill="none" xmlns="http://www.w3.org/2000/svg">
<path fill-rule="evenodd" clip-rule="evenodd" d="M19.1666 15.5168H21.6666C22.3566 15.5168 22.9166 14.9568 22.9166 14.2668C22.9166 13.5768 22.3566 13.0168 21.6666 13.0168H19.1666C18.4766 13.0168 17.9166 13.5768 17.9166 14.2668C17.9166 14.9568 18.4766 15.5168 19.1666 15.5168Z" fill="black"/>
<path fill-rule="evenodd" clip-rule="evenodd" d="M27.9167 25.8335V25.9335C27.9167 27.5918 27.2583 29.1802 26.0867 30.3535C24.9133 31.5252 23.325 32.1835 21.6667 32.1835C18.1633 32.1835 13.5033 32.1835 10 32.1835C8.34167 32.1835 6.75333 31.5252 5.58 30.3535C4.40833 29.1802 3.75 27.5918 3.75 25.9335C3.75 22.4302 3.75 17.7702 3.75 14.2668C3.75 12.6085 4.40833 11.0202 5.58 9.84685C6.75333 8.67518 8.34167 8.01685 10 8.01685C13.5033 8.01685 18.1633 8.01685 21.6667 8.01685C23.325 8.01685 24.9133 8.67518 26.0867 9.84685C27.2583 11.0202 27.9167 12.6085 27.9167 14.2668V14.3668L31.175 10.7818C31.985 9.89018 33.2617 9.59018 34.385 10.0235C35.5083 10.4585 36.25 11.5402 36.25 12.7452C36.25 16.9352 36.25 23.2652 36.25 27.4552C36.25 28.6602 35.5083 29.7418 34.385 30.1768C33.2617 30.6102 31.985 30.3102 31.175 29.4185L27.9167 25.8335ZM25.4167 14.2668V25.9335C25.4167 26.9285 25.0217 27.8818 24.3183 28.5852C23.615 29.2885 22.6617 29.6835 21.6667 29.6835C18.1633 29.6835 13.5033 29.6835 10 29.6835C9.005 29.6835 8.05167 29.2885 7.34833 28.5852C6.645 27.8818 6.25 26.9285 6.25 25.9335C6.25 22.4302 6.25 17.7702 6.25 14.2668C6.25 13.2718 6.645 12.3185 7.34833 11.6152C8.05167 10.9118 9.005 10.5168 10 10.5168C13.5033 10.5168 18.1633 10.5168 21.6667 10.5168C22.6617 10.5168 23.615 10.9118 24.3183 11.6152C25.0217 12.3185 25.4167 13.2718 25.4167 14.2668ZM27.9167 22.1168L33.025 27.7368C33.14 27.8635 33.3233 27.9068 33.4833 27.8452C33.6433 27.7818 33.75 27.6285 33.75 27.4552C33.75 23.2652 33.75 16.9352 33.75 12.7452C33.75 12.5718 33.6433 12.4185 33.4833 12.3552C33.3233 12.2935 33.14 12.3368 33.025 12.4635L27.9167 18.0835V22.1168Z" fill="black"/>
</svg>
