<svg width="15" height="10" viewBox="0 0 15 10" fill="none" xmlns="http://www.w3.org/2000/svg">
<path d="M14.9569 4.7975C14.935 4.74813 14.4056 3.57375 13.2288 2.39687C11.6606 0.82875 9.68 0 7.5 0C5.32 0 3.33937 0.82875 1.77125 2.39687C0.594369 3.57375 0.0624941 4.75 0.043119 4.7975C0.0146898 4.86144 0 4.93064 0 5.00062C0 5.0706 0.0146898 5.1398 0.043119 5.20375C0.0649941 5.25312 0.594369 6.42688 1.77125 7.60375C3.33937 9.17125 5.32 10 7.5 10C9.68 10 11.6606 9.17125 13.2288 7.60375C14.4056 6.42688 14.935 5.25312 14.9569 5.20375C14.9853 5.1398 15 5.0706 15 5.00062C15 4.93064 14.9853 4.86144 14.9569 4.7975ZM7.5 7.5C7.00555 7.5 6.5222 7.35338 6.11107 7.07867C5.69995 6.80397 5.37952 6.41352 5.1903 5.95671C5.00108 5.49989 4.95157 4.99723 5.04803 4.51227C5.1445 4.02732 5.3826 3.58186 5.73223 3.23223C6.08186 2.8826 6.52732 2.6445 7.01227 2.54804C7.49723 2.45157 7.99989 2.50108 8.45671 2.6903C8.91352 2.87952 9.30397 3.19995 9.57868 3.61107C9.85338 4.0222 10 4.50555 10 5C10 5.66304 9.73661 6.29893 9.26777 6.76777C8.79893 7.23661 8.16304 7.5 7.5 7.5Z" fill="white"/>
</svg>
