<svg width="65" height="32" viewBox="0 0 65 32" fill="none" xmlns="http://www.w3.org/2000/svg">
<path fill-rule="evenodd" clip-rule="evenodd" d="M0.973186 31.4433L3.73976 25.2334L0.25 23.0011C3.74003 20.7432 11.1565 18.5925 17.3917 17.8748V26.6969C11.1128 27.3188 4.95117 29.7722 0.973186 31.4433Z" fill="url(#paint0_linear_210_845)"/>
<path fill-rule="evenodd" clip-rule="evenodd" d="M6.2998 25.1808L17.3915 27.2682V21.0059L6.2998 25.1808Z" fill="#818181"/>
<mask id="mask0_210_845" style="mask-type:alpha" maskUnits="userSpaceOnUse" x="47" y="18" width="18" height="14">
<path fill-rule="evenodd" clip-rule="evenodd" d="M47.5176 18.2629H64.7833V31.4527H47.5176V18.2629Z" fill="white"/>
</mask>
<g mask="url(#mask0_210_845)">
<path fill-rule="evenodd" clip-rule="evenodd" d="M64.3978 31.4527L61.6111 25.4162L65.1261 23.2462C61.6109 21.0513 54.1409 18.9606 47.8604 18.2629V26.8388C54.1848 27.4434 60.3909 29.8282 64.3978 31.4527Z" fill="url(#paint1_linear_210_845)"/>
</g>
<path fill-rule="evenodd" clip-rule="evenodd" d="M57.7249 25.1808L47.6416 27.2682V21.0059L57.7249 25.1808Z" fill="#818181"/>
<path fill-rule="evenodd" clip-rule="evenodd" d="M56.7165 17.3901C51.3774 15.7717 42.5992 13.7002 31.5113 13.6997C20.4202 13.6993 11.6394 15.7715 6.2998 17.3901V25.1808C11.28 23.4894 20.1216 21.0799 31.5113 21.0803C42.8976 21.0808 51.7366 23.4895 56.7165 25.1808V17.3901Z" fill="url(#paint2_linear_210_845)"/>
<path d="M32.5166 31.4431C40.8699 31.4431 47.6416 24.4336 47.6416 15.7871C47.6416 7.14052 40.8699 0.131104 32.5166 0.131104C24.1633 0.131104 17.3916 7.14052 17.3916 15.7871C17.3916 24.4336 24.1633 31.4431 32.5166 31.4431Z" fill="#E6E6E6"/>
<path fill-rule="evenodd" clip-rule="evenodd" d="M18.5663 9.7386C20.9324 3.89117 26.4718 0.0979842 32.5963 0.131321V0.145043C40.9223 0.167749 47.6562 7.16874 47.6416 15.7871C47.6414 22.1267 43.9478 27.8405 38.2863 30.2588C32.6248 32.6771 26.1131 31.3225 21.7938 26.8279C17.4745 22.3333 16.2002 15.5861 18.5663 9.7386ZM40.4998 19.3852C40.2875 19.8972 40.0254 20.3854 39.7177 20.8424C39.6249 20.9906 39.5295 21.1333 39.4287 21.276C38.7433 22.2173 37.8858 23.0099 36.9048 23.6086L36.8359 23.6525C36.8047 23.6716 36.7492 23.6954 36.6738 23.7277C36.6084 23.7557 36.528 23.7903 36.4356 23.8336C36.3594 23.8694 36.2753 23.912 36.1875 23.9566C36.0463 24.0281 35.8954 24.1048 35.7516 24.1657C34.6978 24.6052 33.571 24.8262 32.435 24.816H32.3555C32.3159 24.816 32.253 24.8058 32.1688 24.7923C32.0782 24.7776 31.9627 24.7589 31.8252 24.7447C31.466 24.6946 31.1112 24.6138 30.7648 24.5032C30.7236 24.491 30.6809 24.4755 30.6377 24.4598C30.6031 24.4472 30.5684 24.4346 30.5341 24.4236C30.8785 23.9987 31.1665 23.528 31.3904 23.0241C31.7532 23.0893 32.12 23.1279 32.4881 23.1393C32.6471 23.1393 32.8088 23.1393 32.9679 23.1201C33.1269 23.1009 33.2754 23.0981 33.4107 23.0981C33.9991 23.0242 34.5763 22.874 35.1286 22.6508C35.4396 22.5248 35.7425 22.3782 36.0353 22.2118C36.0989 22.1761 36.1599 22.1377 36.2208 22.0993C36.3243 22.0334 36.4276 21.9648 36.5257 21.8907C36.6131 21.8247 36.6753 21.7826 36.7421 21.7374L36.767 21.7206C37.1367 21.4398 37.4794 21.1227 37.7903 20.7738L37.8194 20.7436C37.842 20.7176 37.8639 20.6901 37.8857 20.6627C37.9076 20.6353 37.9295 20.6078 37.9521 20.5817C38.1903 20.2917 38.4057 19.9825 38.5963 19.6569C39.024 18.9157 39.327 18.1047 39.4923 17.2585C39.6568 16.4112 39.673 15.5403 39.5401 14.6871C39.405 13.8081 39.1186 12.9614 38.6943 12.1872C38.2091 11.337 37.5699 10.5915 36.812 9.99181C36.0923 9.41986 35.2693 9.00274 34.3916 8.76514C33.5963 8.55025 32.7718 8.47516 31.9525 8.54287L31.7669 8.57304C30.9272 8.68167 30.1129 8.94473 29.3623 9.34961C28.6234 9.741 27.958 10.2661 27.3979 10.9001C26.8423 11.533 26.3941 12.2585 26.0723 13.0461C26.0723 13.0632 26.0619 13.0804 26.0516 13.0976C26.0454 13.1078 26.0391 13.1182 26.0351 13.1284C26.0301 13.1453 26.0239 13.1618 26.0166 13.1778C25.8699 13.5685 25.7564 13.9715 25.6773 14.3825C25.5072 15.2425 25.483 16.1265 25.6056 16.995C25.7258 17.8855 26.0169 18.7421 26.462 19.5142L26.4832 19.5499C26.6131 19.7246 26.6587 19.9512 26.6071 20.1651C26.5554 20.379 26.4121 20.5567 26.2181 20.6476C26.0365 20.7714 25.8112 20.8055 25.603 20.7409C25.3929 20.6712 25.2164 20.521 25.1099 20.321C23.744 17.8456 23.5963 14.8455 24.7123 12.2393C24.9671 11.6583 25.2798 11.1065 25.6455 10.5927L25.725 10.4747C26.4046 9.51732 27.273 8.72042 28.2727 8.13672C30.0124 7.06189 32.068 6.67217 34.0628 7.03902C35.398 7.25755 36.6608 7.81263 37.7399 8.65538L37.8354 8.72394C38.5086 9.24597 39.0998 9.87263 39.5878 10.5818C40.0199 11.1849 40.3762 11.8423 40.6483 12.5384C41.074 13.6232 41.2789 14.7872 41.2501 15.9577C41.231 17.1346 40.9924 18.2966 40.5475 19.3797L40.4998 19.3852ZM31.1084 15.7923C31.1084 14.9557 31.7636 14.2775 32.5718 14.2775C33.3801 14.2775 34.0353 14.9557 34.0353 15.7923C34.0353 16.6289 33.3801 17.3071 32.5718 17.3071C31.7642 17.3056 31.1099 16.6283 31.1084 15.7923Z" fill="#E6E6E6"/>
<path fill-rule="evenodd" clip-rule="evenodd" d="M25.0067 2.23724C26.7252 1.20311 28.6237 0.530907 30.5934 0.259196C31.2176 0.174826 31.8463 0.132035 32.4757 0.131104C33.8228 0.131913 35.1636 0.3213 36.4617 0.694127C38.3814 1.25596 40.1833 2.18332 41.7754 3.42882C43.3587 4.67593 44.6724 6.25288 45.6321 8.05811C46.6123 9.85763 47.2532 11.8341 47.5202 13.882C47.7738 15.9227 47.6291 17.9954 47.0949 19.977C46.2465 23.302 44.3371 26.2315 41.6777 28.2883C41.159 28.706 40.6157 29.09 40.0512 29.4382C39.9793 29.4829 39.7724 29.608 39.1717 29.9059C38.6018 30.1817 38.013 30.4137 37.4101 30.6C36.5557 30.8696 35.685 31.0796 34.8035 31.2286C34.0909 31.3567 32.4355 31.4431 32.4355 31.4431C37.7457 26.8976 38.8094 25.2464 40.2249 23.049C40.3659 22.8299 40.5106 22.6054 40.6633 22.3721C41.4409 21.2442 42.0314 19.9897 42.4105 18.6603C42.7962 17.3084 42.9058 15.888 42.7324 14.4898C42.5501 13.0991 42.111 11.758 41.4392 10.5397C40.776 9.31285 39.8759 8.241 38.7953 7.39081C37.7169 6.53971 36.4889 5.91445 35.18 5.54985C32.5523 4.79899 29.7436 5.1781 27.3891 6.60139C26.1868 7.2957 25.139 8.24481 24.3141 9.38674C23.5273 10.4861 22.9401 11.7246 22.5811 13.042C21.8495 15.774 22.1992 18.6956 23.5526 21.1596C23.7924 21.5882 24.1792 21.9073 24.6359 22.0533C25.12 22.2038 25.6431 22.1322 26.0729 21.8567C26.4815 21.6285 26.7856 21.2408 26.9177 20.7796C27.0499 20.3184 26.9992 19.8215 26.7769 19.3991L26.708 19.268C26.2904 18.5449 26.0158 17.7429 25.9005 16.9086C25.7838 16.0828 25.8061 15.2422 25.9665 14.4242C26.1222 13.6253 26.4142 12.8617 26.8287 12.1691C27.2537 11.4626 27.7967 10.8402 28.4323 10.3311L28.461 10.3072C28.5516 10.2258 28.6476 10.1511 28.7484 10.0838L29.1593 9.83061C29.9268 9.34865 30.7854 9.04378 31.6768 8.93691C32.5425 8.8299 33.4199 8.89257 34.2633 9.12164C35.0921 9.35697 35.8671 9.76214 36.5422 10.3133C37.2564 10.8853 37.8591 11.593 38.3182 12.3985C38.7172 13.1375 38.9848 13.9447 39.1085 14.7816C39.2307 15.5929 39.2113 16.4203 39.051 17.2244C38.8914 18.0323 38.5998 18.8061 38.1889 19.5123C37.7733 20.2171 37.2378 20.8378 36.6083 21.3444C36.5678 21.3733 36.5227 21.4051 36.4765 21.4378C36.3753 21.5095 36.2686 21.585 36.1916 21.6422C36.0795 21.7256 35.956 21.8091 35.8496 21.8746C34.504 22.6823 32.9268 22.9724 31.3952 22.6938L30.7083 22.5717L30.3893 23.2121C29.98 24.015 29.4121 24.7194 28.7225 25.2796L28.6794 25.3183C28.6059 25.3851 28.526 25.4441 28.4409 25.4941L28.0328 25.7473C27.316 26.1908 26.5205 26.4806 25.6935 26.5993C24.8741 26.7138 24.0416 26.6795 23.2336 26.498C22.4413 26.318 21.6893 25.9833 21.0178 25.5119C20.3408 25.0369 19.7759 24.4097 19.3654 23.6769C17.3879 20.0572 16.8715 15.7739 17.9285 11.761C18.4533 9.80282 19.3309 7.96521 20.5149 6.34523C21.7273 4.6737 23.2556 3.27592 25.0067 2.23724ZM30.3498 17.0931C30.6539 17.706 31.2025 18.1493 31.8499 18.3056H31.8184C32.041 18.3642 32.2697 18.3942 32.4994 18.395C32.8987 18.395 33.2924 18.2981 33.649 18.112L33.7064 18.0792C33.8456 17.9952 33.9707 17.8886 34.0772 17.7634C34.9545 16.9766 35.1927 15.6666 34.652 14.6027L34.6203 14.5432C33.908 13.3452 32.407 12.9497 31.2292 13.6495L31.0424 13.7627L30.9246 13.8521C30.4729 14.233 30.1672 14.7686 30.0625 15.3624C29.9496 15.9563 30.0519 16.5725 30.3498 17.0931Z" fill="url(#paint3_linear_210_845)"/>
<defs>
<linearGradient id="paint0_linear_210_845" x1="-2.55803" y1="29.5622" x2="13.6474" y2="36.2698" gradientUnits="userSpaceOnUse">
<stop stop-color="#9B9B9B"/>
<stop offset="0.274354" stop-color="#9B9B9B"/>
<stop offset="0.487992" stop-color="#D4D4D4"/>
<stop offset="0.611837" stop-color="#CDCDCD"/>
<stop offset="0.764846" stop-color="#E6E6E6"/>
<stop offset="1" stop-color="#FCFCFC"/>
</linearGradient>
<linearGradient id="paint1_linear_210_845" x1="45.032" y1="29.6242" x2="61.1808" y2="36.5499" gradientUnits="userSpaceOnUse">
<stop stop-color="#9B9B9B"/>
<stop offset="0.274354" stop-color="#9B9B9B"/>
<stop offset="0.487992" stop-color="#D4D4D4"/>
<stop offset="0.611837" stop-color="#CDCDCD"/>
<stop offset="0.764846" stop-color="#E6E6E6"/>
<stop offset="1" stop-color="#FCFCFC"/>
</linearGradient>
<linearGradient id="paint2_linear_210_845" x1="6.2998" y1="25.1808" x2="56.7165" y2="25.1808" gradientUnits="userSpaceOnUse">
<stop stop-color="#E6E6E6"/>
<stop offset="0.0556091" stop-color="#D4D4D4"/>
<stop offset="0.116941" stop-color="#E6E6E6"/>
<stop offset="0.185302" stop-color="#9B9B9B"/>
<stop offset="0.805493" stop-color="#9B9B9B"/>
<stop offset="0.859468" stop-color="#E8E8E8"/>
<stop offset="0.927812" stop-color="#DADADA"/>
<stop offset="1" stop-color="#FCFCFC"/>
</linearGradient>
<linearGradient id="paint3_linear_210_845" x1="38.1695" y1="35.7697" x2="53.4106" y2="10.2304" gradientUnits="userSpaceOnUse">
<stop stop-color="#2E3192"/>
<stop offset="1" stop-color="#4AA590"/>
</linearGradient>
</defs>
</svg>
