<svg width="7" height="8" viewBox="0 0 7 8" fill="none" xmlns="http://www.w3.org/2000/svg">
<mask id="path-1-outside-1_204_528" maskUnits="userSpaceOnUse" x="-1" y="0" width="8" height="9" fill="black">
<rect fill="white" x="-1" width="8" height="9"/>
<path d="M1.30682 0.727273L3.18182 3.75284H3.23864L5.11364 0.727273H6.15057L3.86364 4.36364L6.15057 8H5.11364L3.23864 5.03125H3.18182L1.30682 8H0.269886L2.61364 4.36364L0.269886 0.727273H1.30682Z"/>
</mask>
<path d="M1.30682 0.727273L3.18182 3.75284H3.23864L5.11364 0.727273H6.15057L3.86364 4.36364L6.15057 8H5.11364L3.23864 5.03125H3.18182L1.30682 8H0.269886L2.61364 4.36364L0.269886 0.727273H1.30682Z" fill="#959292"/>
<path d="M1.30682 0.727273L1.47682 0.621919L1.41817 0.527272H1.30682V0.727273ZM3.18182 3.75284L3.01182 3.85819L3.07047 3.95284H3.18182V3.75284ZM3.23864 3.75284V3.95284H3.34998L3.40864 3.85819L3.23864 3.75284ZM5.11364 0.727273V0.527272H5.00229L4.94363 0.621919L5.11364 0.727273ZM6.15057 0.727273L6.31987 0.833747L6.51261 0.527272H6.15057V0.727273ZM3.86364 4.36364L3.69433 4.25716L3.62737 4.36364L3.69433 4.47011L3.86364 4.36364ZM6.15057 8V8.2H6.51261L6.31987 7.89353L6.15057 8ZM5.11364 8L4.94454 8.1068L5.0034 8.2H5.11364V8ZM3.23864 5.03125L3.40773 4.92445L3.34887 4.83125H3.23864V5.03125ZM3.18182 5.03125V4.83125H3.07158L3.01272 4.92445L3.18182 5.03125ZM1.30682 8V8.2H1.41705L1.47592 8.1068L1.30682 8ZM0.269886 8L0.101779 7.89165L-0.0969628 8.2H0.269886V8ZM2.61364 4.36364L2.78174 4.47199L2.85158 4.36364L2.78174 4.25529L2.61364 4.36364ZM0.269886 0.727273V0.527272H-0.0969628L0.101779 0.835623L0.269886 0.727273ZM1.13682 0.832626L3.01182 3.85819L3.35182 3.64749L1.47682 0.621919L1.13682 0.832626ZM3.18182 3.95284H3.23864V3.55284H3.18182V3.95284ZM3.40864 3.85819L5.28364 0.832626L4.94363 0.621919L3.06863 3.64749L3.40864 3.85819ZM5.11364 0.927273H6.15057V0.527272H5.11364V0.927273ZM5.98127 0.620798L3.69433 4.25716L4.03294 4.47011L6.31987 0.833747L5.98127 0.620798ZM3.69433 4.47011L5.98127 8.10647L6.31987 7.89353L4.03294 4.25716L3.69433 4.47011ZM6.15057 7.8H5.11364V8.2H6.15057V7.8ZM5.28273 7.8932L3.40773 4.92445L3.06954 5.13805L4.94454 8.1068L5.28273 7.8932ZM3.23864 4.83125H3.18182V5.23125H3.23864V4.83125ZM3.01272 4.92445L1.13772 7.8932L1.47592 8.1068L3.35092 5.13805L3.01272 4.92445ZM1.30682 7.8H0.269886V8.2H1.30682V7.8ZM0.437994 8.10835L2.78174 4.47199L2.44553 4.25529L0.101779 7.89165L0.437994 8.10835ZM2.78174 4.25529L0.437994 0.618922L0.101779 0.835623L2.44553 4.47199L2.78174 4.25529ZM0.269886 0.927273H1.30682V0.527272H0.269886V0.927273Z" fill="#959292" mask="url(#path-1-outside-1_204_528)"/>
</svg>
